<svg xmlns="http://www.w3.org/2000/svg" xmlns:xlink="http://www.w3.org/1999/xlink" width="1080" zoomAndPan="magnify" viewBox="0 0 810 809.999993" height="1080" preserveAspectRatio="xMidYMid meet" version="1.0"><defs><clipPath id="24f2905334"><path d="M 16.550781 16.550781 L 793.550781 16.550781 L 793.550781 793.550781 L 16.550781 793.550781 Z M 16.550781 16.550781 " clip-rule="nonzero"/></clipPath></defs><g clip-path="url(#24f2905334)"><path fill="#35252D" d="M 405 793.445312 C 190.820312 793.445312 16.550781 619.179688 16.550781 405 C 16.550781 190.820312 190.820312 16.550781 405 16.550781 C 619.179688 16.550781 793.445312 190.820312 793.445312 405 C 793.445312 619.179688 619.179688 793.445312 405 793.445312 Z M 405 72.878906 C 221.820312 72.878906 72.828125 221.820312 72.828125 405 C 72.828125 588.128906 221.820312 737.121094 405 737.121094 C 588.128906 737.121094 737.171875 588.128906 737.171875 405 C 737.171875 221.820312 588.128906 72.878906 405 72.878906 Z M 405 72.878906 " fill-opacity="1" fill-rule="nonzero"/></g><path fill="#35252D" d="M 413.011719 606.578125 C 410.023438 605.4375 406.796875 603.59375 406.796875 595.777344 C 406.796875 592.546875 407.304688 588.808594 408.445312 584.242188 L 457.511719 346.390625 C 458.605469 340.808594 459.164062 334.957031 459.164062 329.128906 C 459.164062 313.761719 454.429688 302.0625 445.082031 294.316406 C 424.128906 277.101562 387.472656 280.476562 326.484375 301.089844 L 320.5625 303.082031 L 318.132812 333.769531 L 328.378906 333.769531 C 359.429688 333.769531 366.929688 336.195312 368.484375 336.949219 C 370.574219 337.945312 371.714844 339.132812 371.714844 342.628906 C 371.714844 344.570312 371.472656 346.757812 370.960938 349.183594 C 370.355469 352.414062 369.625 356.152344 368.921875 360.183594 L 323.960938 578.636719 C 321.871094 589.632812 320.777344 599.078125 320.777344 606.605469 C 320.777344 624.011719 325.804688 637.460938 335.613281 646.539062 C 345.226562 655.402344 358.410156 659.917969 374.773438 659.917969 C 393.929688 659.917969 419.640625 654.601562 453.335938 643.699219 L 459.359375 641.757812 L 461.785156 610.65625 L 451.613281 610.65625 C 428.574219 610.65625 417.941406 608.425781 413.011719 606.578125 Z M 413.011719 606.578125 " fill-opacity="1" fill-rule="nonzero"/><path fill="#35252D" d="M 477.589844 163.410156 C 468.339844 154.597656 456.445312 150.082031 442.265625 150.082031 C 427.578125 150.082031 415.148438 154.914062 405.363281 164.40625 C 395.507812 173.945312 390.480469 186.789062 390.480469 202.617188 C 390.480469 217.183594 395.265625 229.277344 404.660156 238.648438 C 414.054688 248.089844 426.097656 252.875 440.371094 252.875 C 454.9375 252.875 467.246094 247.800781 477.082031 237.894531 C 486.839844 227.988281 491.769531 215.121094 491.769531 199.632812 C 491.769531 184.507812 487.035156 172.320312 477.589844 163.410156 Z M 477.589844 163.410156 " fill-opacity="1" fill-rule="nonzero"/></svg>