<?xml version="1.0" encoding="UTF-8"?>
<svg id="Layer_1" data-name="Layer 1" xmlns="http://www.w3.org/2000/svg" viewBox="0 0 372.15 87.5">
  <defs>
    <style>
      .cls-1 {
        stroke-width: 0px;
      }
    </style>
  </defs>
  <path class="cls-1" d="m372.15,19.62s-.03,0-.05,0v123.82c0,10.22-4.48,18.51-10,18.51H10c-5.52,0-10-8.29-10-18.51V13.88h.05V4.07c41.6,5.74,84,10.18,127.9,8.33,13.5-.74,27.5-2.04,41.5-2.96,34-3.15,67.8-6.85,102.3-8.7,9.4-.56,18.7-.74,27.8-.74h2.5c16.5,0,32.5.74,47.8,2.59,8.5.56,15.8.56,22.3,1.48v15.55Z"/>
</svg>