<svg xmlns="http://www.w3.org/2000/svg" xmlns:xlink="http://www.w3.org/1999/xlink" width="1080" zoomAndPan="magnify" viewBox="0 0 810 809.999993" height="1080" preserveAspectRatio="xMidYMid meet" version="1.0"><defs><clipPath id="6d4b24559c"><path d="M 17.660156 17.660156 L 809.660156 17.660156 L 809.660156 809.660156 L 17.660156 809.660156 Z M 17.660156 17.660156 " clip-rule="nonzero"/></clipPath></defs><g clip-path="url(#6d4b24559c)"><path fill="#ba8b6c" d="M 413.824219 17.257812 C 194.828125 17.257812 17.257812 194.828125 17.257812 413.824219 C 17.257812 632.824219 194.828125 810.425781 413.824219 810.425781 C 632.824219 810.425781 810.425781 632.824219 810.425781 413.824219 C 810.425781 194.828125 632.824219 17.257812 413.824219 17.257812 Z M 496.382812 631.882812 C 475.96875 639.941406 459.71875 646.050781 447.53125 650.28125 C 435.378906 654.511719 421.246094 656.625 405.164062 656.625 C 380.453125 656.625 361.214844 650.582031 347.519531 638.53125 C 333.820312 626.476562 327.003906 611.203125 327.003906 592.636719 C 327.003906 585.417969 327.507812 578.03125 328.515625 570.511719 C 329.554688 562.992188 331.203125 554.53125 333.449219 545.027344 L 359 454.785156 C 361.25 446.121094 363.195312 437.898438 364.742188 430.242188 C 366.285156 422.519531 367.023438 415.4375 367.023438 408.992188 C 367.023438 397.507812 364.640625 389.449219 359.90625 384.917969 C 355.105469 380.386719 346.074219 378.171875 332.613281 378.171875 C 326.03125 378.171875 319.25 379.144531 312.300781 381.191406 C 305.417969 383.308594 299.441406 385.21875 294.539062 387.101562 L 301.289062 359.300781 C 318.007812 352.488281 334.019531 346.644531 349.296875 341.808594 C 364.574219 336.910156 379.007812 334.492188 392.605469 334.492188 C 417.148438 334.492188 436.085938 340.46875 449.414062 352.285156 C 462.675781 364.136719 469.355469 379.546875 469.355469 398.480469 C 469.355469 402.410156 468.886719 409.324219 467.980469 419.195312 C 467.070312 429.101562 465.359375 438.132812 462.875 446.425781 L 437.460938 536.402344 C 435.378906 543.617188 433.53125 551.878906 431.855469 561.109375 C 430.207031 570.34375 429.402344 577.394531 429.402344 582.128906 C 429.402344 594.078125 432.054688 602.238281 437.425781 606.570312 C 442.730469 610.898438 452.03125 613.082031 465.191406 613.082031 C 471.402344 613.082031 478.351562 611.972656 486.207031 609.824219 C 493.996094 607.675781 499.636719 605.761719 503.195312 604.117188 Z M 491.882812 266.671875 C 480.03125 277.6875 465.761719 283.191406 449.078125 283.191406 C 432.425781 283.191406 418.054688 277.6875 406.101562 266.671875 C 394.21875 255.660156 388.207031 242.265625 388.207031 226.621094 C 388.207031 211.007812 394.25 197.578125 406.101562 186.46875 C 418.054688 175.320312 432.425781 169.78125 449.078125 169.78125 C 465.761719 169.78125 480.066406 175.320312 491.882812 186.46875 C 503.734375 197.578125 509.675781 211.007812 509.675781 226.621094 C 509.675781 242.300781 503.734375 255.660156 491.882812 266.671875 Z M 491.882812 266.671875 " fill-opacity="1" fill-rule="nonzero"/></g></svg>