<?xml version="1.0" encoding="UTF-8"?>
<svg id="Layer_1" data-name="Layer 1" xmlns="http://www.w3.org/2000/svg" viewBox="0 0 843.53 550.03">
  <defs>
    <linearGradient id="goldGradient" x1="0%" y1="0%" x2="100%" y2="0%">
      <stop offset="0%" style="stop-color: #a96f44; stop-opacity: 1" />
      <stop offset="100%" style="stop-color: #bc8e71; stop-opacity: 1" />
    </linearGradient>
  </defs>
  <path fill="url(#goldGradient)" d="m459.33,354.59c.23-5.99-.68-12.1-1.65-18.06-2.41-14.82-4.14-29.68-2.57-44.67,2.01-19.2,4.03-38.41,6.77-57.52,3.74-26.07,11.05-51.16,24.5-73.98,9.13-15.49,19.49-30.24,28.89-45.58,5.12-8.35,10.55-16.82,13.78-25.96,5.47-15.48.2-27.21-14.63-33.44-12.85-5.4-24.69-12.29-36.44-19.62-4.38-2.73-9.59-4.8-14.67-5.57-8.61-1.3-15.39,4.7-15.39,13.43,0,4.77,1.21,9.77,2.93,14.26,2.01,5.27,4.9,10.26,7.89,15.08,8.11,13.07,8.14,26.03.21,39.12-.49.81-.9,1.66-1.37,2.49-8.98,15.8-17.98,31.6-26.94,47.41-2.05,3.62-3.79,7.43-5.96,10.98-3.82,6.24-7.54,6.27-11.35-.07-1.84-3.05-3.3-6.44-4.27-9.86-5.08-17.85-10.03-35.74-14.87-53.65-3.38-12.5-3.79-24.97.47-37.49,1.94-5.7,2.92-11.73,3.75-15.17.93-15.85-3.96-26.28-16.57-33.91-18.45-11.16-38.96-17.45-59.8-22.34-4.47-1.05-10.04-.22-14.39,1.53-10.9,4.38-14.51,16.82-7.72,27.69,4.67,7.48,10.37,14.57,16.69,20.72,11.32,11.01,16.55,24.34,17.16,39.62.66,16.82,1.4,33.7.78,50.51-1.62,44.03,1.83,87.38,14.32,129.84,10.66,36.24,29.03,67.38,59.18,90.77,6.23,4.84,13.08,9.16,20.21,12.52,15.79,7.43,30.4-1.62,31.06-19.07Z"/>
  <path fill="url(#goldGradient)" d="m839.94,115.09c-3.01-4.93-6.73-9.8-11.19-13.39-28.33-22.79-58.78-42.1-93.12-54.73-15.84-5.83-31.72-8.25-47.24.44-19.31,10.81-34.23,26.25-44.47,45.81-7.35,14.03-1.32,24.26,14.45,25.84,2.22.22,4.54-.03,6.76-.41,8.77-1.49,17.46-3.57,26.28-4.57,10.18-1.14,16.39,5.69,14.43,15.8-1.84,9.46-4.21,18.84-6.92,28.09-6.39,21.8-14.09,43.26-19.5,65.29-9.75,39.7-18.43,79.67-27.07,119.63-2.83,13.09-5.25,26.44-5.94,39.77-.94,18.31,9.58,27.18,27.84,25.4,1.88-.18,3.79-.44,5.58-1,15.68-4.94,31.77-6.37,48.14-7.02,24.65-.97,37.5-17.81,32.51-41.89-2.07-9.99-5.04-19.82-8.14-29.55-7.24-22.7-12-45.77-11.76-77.8.86-21.53,5.05-50.73,12.37-79.43,2.14-8.4,5.07-16.67,8.43-24.66,2.88-6.83,8.1-11.8,15.53-14,7.15-2.12,13.2-.14,19.25,3.9,5.91,3.95,12.08,8.01,18.73,10.25,9.16,3.09,17.69.44,23.89-7.38,6.14-7.75,6.12-16.28,1.16-24.4Z"/>
  <path fill="url(#goldGradient)" d="m689.21,426.44c-5.67-4.22-11.94-3.58-17.65-.22-3.85,2.27-6.91,5.85-10.64,8.38-1.76,1.19-4.6,2.27-6.4,1.69-22.13-7.17-43.01-3.9-61.8,8.97-11.47,7.85-21.42,17.93-32.03,27.02-1.57,1.35-2.97,2.93-4.63,4.15-6.08,4.45-12.44,8.55-18.32,13.25-5.39,4.32-11.38,6.82-18.09,7.46-13.98,1.33-24.22-7.9-23.61-21.87.26-5.94,1.68-12.03,3.68-17.65,3.56-9.98,6.26-11.37,16.88-11.44,3.97-.03,7.99.02,11.89-.57,3.12-.47,6.32-1.45,9.11-2.91,5.61-2.95,6.68-9.16,2.39-13.82-2-2.18-4.64-3.87-7.23-5.39-3.75-2.2-7.78-3.91-11.56-6.07-6.08-3.48-6.68-5.61-5.75-12.62.99-7.48,2.07-15.06,1.83-22.55-.46-14.5-10.86-19.9-23.62-12.83-8.46,4.69-14.11,11.86-18.15,20.47-.93,1.98-1.92,3.94-2.93,6.01-2.62-.74-4.58-1.57-6.61-1.81-8.6-1-17.3-3-25.83-2.46-14.14.9-19.55,13.96-11.39,25.6,4.58,6.53,10.82,11.08,17.98,14.39,5.81,2.68,11.71,5.15,18.02,7.92-1.37,3.2-2.56,5.94-3.73,8.69-7.22,17.01-11.18,34.54-8.61,53.15,2.86,20.77,17.44,37.38,36.7,39.44,9.78,1.05,20-.13,29.81-1.68,11.2-1.77,20.65-8.18,30.07-14.26,4.53-2.92,9.1-6.07,12.59-5.87,5.42,4.79,8.88,8.85,13.22,11.49,14.07,8.55,29.42,9.4,44.99,5.38,7.6-1.96,14.86-5.27,23.07-8.26.69,8.42,4.12,14.95,11.43,18.78,9.21,4.82,18.64,5.08,27.58-.47,8.58-5.33,9.86-13.82,8.49-22.98-.76-5.05-1.85-10.05-2.91-15.04-3.09-14.7-3.43-29.28,1.45-43.72,2.24-6.63,4.52-13.27,6.29-20.04,1.83-7.02-.08-13.28-6-17.68Zm-63.89,61.16c-5.28,2.68-10.89,5.21-16.65,6.29-5.63,1.06-8.89-3.62-7.39-8.95,1.86-6.62,11.51-14.13,18.22-14.2,5.12-.05,9.6,2.61,10.83,6.61,1.51,4.91-1.25,8.34-5,10.25Z"/>
  <path fill="url(#goldGradient)" d="m188.22,264.14c22.8-40.88,30.02-85.1,22.63-132.16-3.59-22.86-12.29-43.72-21.51-64.39-8.37-18.77-20.63-33.59-37.27-44.11-20.4-12.91-42.33-19.3-66.01-18.9-6.25.48-12.55.51-18.73,1.53-20.34,3.36-38.85,13.21-58.28,19.84-.98.34-1.91.94-2.8,1.52-5.24,3.44-7.42,9.12-5.65,15.57.84,3.05,1.99,6.1,3.5,8.82,9.64,17.37,14.64,36.39,16.75,56.33,3.16,29.9,6.41,59.79,8.84,89.76,1.8,22.23,2.9,44.57,3.25,66.88.21,13.63-1.74,27.33-8.87,39.2-3.32,5.53-4.64,5.88-8.09,11.33-2.94,4.64-4.3,9.77-6,15-3.44,10.56,2.71,23.37,13,24,7.74.48,21.54-3.97,29-6,35.98-9.81,58.78-20.17,91.6-39.04,18.62-10.71,33.74-25.69,44.62-45.19Zm-63.88-106.21c-1.97,4.87-5.09,9.58-8.7,13.18-11.1,11.1-24.3,10.28-35.05-1.48-9.85-10.79-15.65-25.91-16.57-43.22-.99-14.18.09-28.01,5.93-40.93,5.97-13.23,15.34-17.02,28.29-11.92,11.04,4.35,17.79,13.49,22.85,24.17,9.26,19.56,11.5,39.79,3.26,60.2Z"/>
  <path fill="url(#goldGradient)" d="m219.18,424.83c-.66-.35-1.3-.72-2.37-1.32,10.21-9.55,16.01-20.63,18.94-33.26,4.38-18.85-2.69-37.26-18.47-48.43-7.93-5.62-16.94-8.24-26.36-9.86-15.29-2.62-30.13-.1-44.96,3.48-25.58,6.17-48.02,18.3-67.72,35.49-4.77,4.16-9.07,9.25-12.28,14.69-3.92,6.64.29,13.31,7.98,13.43,3.9.06,7.9-.75,11.7-1.75,5.06-1.32,9.97-3.2,15.75-5.1,0,3.53.25,5.97-.04,8.35-3.37,28.18-6.94,56.34-10.18,84.54-1,8.69-2.94,16.7-9.31,23.19-1.81,1.84-3.18,4.28-4.24,6.67-6.28,14.04-.28,27.65,13.82,30.67,5.1,1.09,10.59,1.56,15.74.97,19.34-2.22,38.64-4.9,57.92-7.59,24.48-3.42,45.51-13.9,62.58-31.81,23.72-24.89,20.84-66.9-8.51-82.34Zm-78.89-42.59c0-1.43,1.55-3.62,2.9-4.14,8.42-3.24,16.94-6.21,25.53-8.99,1.86-.6,4.15-.34,6.15.04,6.79,1.29,9.72,6.21,5.97,11.98-3.05,4.7-7.61,8.96-12.44,11.86-7.88,4.74-16.77,7.31-27.25,8.36-.37-7.14-.88-13.13-.85-19.11Zm45.26,77.97c-.83,1.88-1.89,3.78-3.27,5.28-9.5,10.28-21.42,16.66-34.55,21.01-.69.23-1.5.17-2.24.16-.35,0-.7-.24-2.06-.76-.23-8.77-.52-17.97-.63-27.17-.01-.92.82-2.27,1.65-2.73,10.78-6.02,22.23-9.78,34.71-8.14,7.26.95,9.39,5.57,6.4,12.35Zm4.54,9.47c3.32-4.21,5.13-9.11,5.26-14.67.03-5.62-2.24-10.14-6.38-12.95,4.14,2.81,6.41,7.33,6.38,12.95-.13,5.55-1.95,10.46-5.27,14.66Z"/>
  <path fill="url(#goldGradient)" d="m493.53,296.74c2.12,20.03,7.32,39.01,20.59,55.02,18.9,22.81,44.98,27.77,70.58,13,13.57-7.83,24.18-18.8,32.5-31.95,21.02-33.23,30.81-69.69,30.86-108.89.1-23.04-4.43-45.11-13.84-66.18-7.09-15.88-16.57-29.86-31.72-39.07-21.19-12.89-50.23-12.11-67.91,10.81-3.8,4.93-7.3,10.13-10.62,15.4-8.31,13.17-11.59,28.26-16.25,42.86-11.34,35.51-18.16,71.58-14.19,109.01Zm60.32-97.43c2.96-5.33,8.33-9.84,13.54-13.29,8.13-5.37,17.71-3.15,24.54,4.44,6.89,7.65,8.64,17.02,8.78,26.45-.56,16.33-5.09,30.59-17.07,41.78-6.18,5.77-13.16,9.12-21.69,6.41-8.73-2.77-13.91-9.18-15.53-17.97-3.07-16.73-.79-33.01,7.43-47.82Z"/>
  <path fill="url(#goldGradient)" d="m389.96,475.96c-10.6,1.97-21.06,4.65-31.67,6.52-6.47,1.14-13.12,1.89-19.67,1.77-5.95-.11-7.76-4.14-5.22-9.48,2.72-5.72,7.72-8.63,13.23-10.96,5.92-2.51,11.9-4.9,17.75-7.57,13.15-6.01,24.59-14.23,32.43-26.66,16.82-26.66,2.22-57.92-28.92-62.52-19.66-2.9-38.42.91-56.99,6.69-20.94,6.52-37.02,19.55-46.75,38.91-14.87,29.59-12.42,59.36,2.86,88.23,7.61,14.37,17.48,26.88,33.98,31.57,9.02,2.56,36,6.9,55.3.57,20.23-6.64,37.09-16.81,48.46-35.01,3.23-5.17,4.71-11.07.92-16.6-3.74-5.45-9.64-6.6-15.72-5.47Zm-126.35-22.64c-.04,16.52,4.18,31.53,12.18,45.18-8-13.65-12.22-28.66-12.18-45.18.02-23.68,8.43-43.16,24.06-56.7-15.63,13.54-24.05,33.01-24.06,56.7Zm45.28-16.11c-2.66-4.62-.35-9.01,2.61-13.07,8.69-11.91,21.01-16.05,35.6-16.88,1.3.19,3.22.27,5.02.78,7.01,1.96,9.5,8.54,4.75,13.99-3.29,3.77-7.29,7.49-11.75,9.54-7.82,3.61-16.14,6.21-24.43,8.65-4.18,1.23-9.25,1.4-11.79-3.02Z"/>
  <path fill="url(#goldGradient)" d="m238.77,186.42c1.4,20.73-1.43,41.22-5.59,61.42-4.72,22.89,2.21,40.67,19.33,53.87,12.79,9.85,27.42,15.59,42.61,18.81,17.21,3.65,25.25-4.28,25.25-23.5,0-13.55-3.73-26.18-9.34-38.06-8.05-17.06-11.9-35.01-11.39-54.18.25-9.27.04-18.56.04-27.84.42-.03.84-.05,1.27-.08-1.2-19.24-1.52-38.6-3.81-57.69-3.26-27.18-17.87-46.34-39.67-58.88-12.65-7.28-23.95-.74-25.97,14.71-.8,6.1-.52,12.47-.05,18.66,2.35,30.93,5.23,61.82,7.32,92.77Z"/>
</svg>