<?xml version="1.0" encoding="UTF-8"?>
<svg id="Layer_1" data-name="Layer 1" xmlns="http://www.w3.org/2000/svg" viewBox="0 0 368.59 156">
   <defs>
    <linearGradient id="goldGradient" x1="0%" y1="0%" x2="100%" y2="0%">
      <stop offset="0%" style="stop-color: #a96f44; stop-opacity: 1" />
      <stop offset="100%" style="stop-color: #bc8e71; stop-opacity: 1" />
    </linearGradient>
  </defs>
   <path fill="url(#goldGradient)"  d="m74.21,97.07c0,32.8-5.22,47.78-15.17,53.25-9.96,5.47-16.83,5.67-27.03,5.67s-19.44-.41-26.79,0c-3.08.2-5.22-1.82-5.22-4.45s3.08-4.05,5.69-9.72c3.32-7.29,2.14-48.8,1.9-76.13-.24-27.34.95-48.4-1.66-53.66C3.79,7.77,0,5.14.48,2.71.95.69,5.45.28,9.01.48c5.93.2,14.7,0,24.89-.2,10.2-.2,23,4.45,30.11,23.29,7.12,19.23,10.2,40.7,10.2,73.5ZM34.38,11.82c-10.67,0-12.09,16.19-12.09,36.85s8.77,36.85,16.83,36.85c8.77,0,14.23-7.69,14.23-24.7,0-29.97-8.3-49-18.97-49ZM97.68.28c3.56,0,15.65.2,20.86,0,3.08,0,5.45,0,5.93,1.62.47,1.62-1.9,2.83-3.79,5.87-1.42,2.84-1.9,7.9-1.9,16.8,0,13.36,1.66,50.6,4.03,78.54,2.13,27.73,4.74,38.06,6.4,43.11,1.19,3.04,4.98,5.47,4.27,7.9-.71,1.82-3.08,1.82-9.49,1.82-6.16-.2-25.61-.2-31.06,0-5.22.2-7.12,0-7.35-2.02,0-2.23,3.08-3.85,4.51-7.69,1.42-4.05,4.03-21.66,4.98-42.91.95-18.83,3.56-65.38,3.56-78.94,0-8.91-.95-13.76-2.85-16.8-1.42-2.83-4.03-3.84-3.79-5.26.24-1.82,1.66-2.02,5.69-2.02Zm88.79,150.16c-3.94,7.03-14.36,7.44-19.16.98-1.88-2.53-3.41-5.8-4.66-9.57-5.02-15.17-8.35-35.73-11.91-68.13-3.56-31.59-8.77-58.35-11.38-63.18-3.08-5.63-5.69-6.04-5.69-8.05s2.13-2.42,6.4-2.42c4.51.2,15.41.2,20.39,0,4.74-.2,8.3-.2,9.01,2.01.71,2.02-3.32,3.62-4.98,7.65-1.42,4.22-2.13,15.9,1.66,33.6,3.79,17.51,6.87,25.75,8.3,28.77,1.42,2.82,3.56,4.22,4.98,1.01,2.85-6.64,11.86-38.02,13.75-46.47,1.9-8.65.95-14.29-1.89-17.3-3.08-3.62-6.88-5.03-6.88-6.64,0-1.81,1.9-2.42,4.74-2.42h16.36c6.4-.2,11.14,3.62,8.06,10.26-4.27,9.66-11.38,33-15.88,65.79-4.51,32.6-8.81,64.92-9.92,70.57-.26,1.34-.72,2.51-1.29,3.53Zm104.59-51.01c0,24.19-7.11,56.57-36.51,56.57-27.74,0-37.46-29.18-37.46-57.77s3.32-44.38,6.4-57.17c3.08-12.79,5.93-26.39,4.74-30.39-1.19-3.8-3.79-5.8-3.56-7.59.23-1.8,2.61-2.8,9.96-2.8,7.59.2,27.74.2,35.33,0,5.93-.2,9.72,0,10.67,2,.71,1.8-2.61,4-3.08,7.8-.48,4.2,1.89,14.79,5.69,30.78,4.03,17.19,7.82,35.58,7.82,58.57Zm-21.34-53.17c-1.66-19.19-7.35-34.38-16.6-34.38s-15.65,15.19-16.6,34.38c-1.19,20.19,5.22,34.78,16.6,34.78s18.49-15.39,16.6-34.78ZM301.26.48c13.99.4,41.49.6,58.8,0,5.69-.2,8.53,9.6,8.53,21.99,0,10-1.42,11.99-4.27,11.99-2.61,0-5.22-6-7.11-10.79-1.66-5-3.8-12.19-9.25-12.19s-7.12,4.4-7.12,12.59,2.14,55.57,4.51,79.36c2.37,23.79,4.03,37.78,6.4,41.78,2.13,3.8,6.16,5.2,5.22,7.4-.71,2.2-3.32,2.2-9.25,1.8-6.64-.2-25.84-.6-30.11-.4-5.22.4-9.25.6-9.96-1.6-.71-2.8,2.84-4,4.5-7.2,1.9-3.2,4.03-15.19,5.22-40.38,1.19-25.39,3.08-72.16,3.08-80.36s-2.85-12.6-7.59-12.6c-4.98,0-6.64,5-8.54,10.2-1.89,5.2-3.79,12.59-7.59,12.59s-3.79-7.6-3.79-12.99c0-13.19,1.42-21.39,8.3-21.19Z"/>
</svg>