<?xml version="1.0" encoding="UTF-8"?>
<svg id="Layer_1" data-name="Layer 1" xmlns="http://www.w3.org/2000/svg" viewBox="0 0 272.07 186.25">
  <defs>
    <linearGradient id="goldGradient" x1="0%" y1="0%" x2="100%" y2="0%">
      <stop offset="0%" style="stop-color: #a96f44; stop-opacity: 1" />
      <stop offset="100%" style="stop-color: #bc8e71; stop-opacity: 1" />
    </linearGradient>
  </defs>
   <path fill="url(#goldGradient)" d="m54.78,71.65c0,24.21-3.85,35.27-11.2,39.31-7.35,4.04-12.42,4.19-19.95,4.19s-14.35-.3-19.78,0c-2.28.15-3.85-1.34-3.85-3.29s2.28-2.99,4.2-7.17c2.45-5.38,1.58-36.02,1.4-56.2-.18-20.18.7-35.72-1.23-39.61C2.8,5.74,0,3.8.35,2,.7.51,4.03.21,6.65.36c4.37.15,10.85,0,18.37-.15s16.98,3.29,22.23,17.19c5.25,14.2,7.53,30.04,7.53,54.25ZM25.38,8.73c-7.88,0-8.93,11.95-8.93,27.2s6.48,27.2,12.43,27.2c6.48,0,10.5-5.68,10.5-18.23,0-22.12-6.13-36.17-14-36.17ZM72.1.21c2.62,0,11.55.15,15.4,0,2.28,0,4.03,0,4.38,1.2.35,1.19-1.4,2.09-2.8,4.33-1.05,2.09-1.4,5.83-1.4,12.4,0,9.86,1.23,37.35,2.98,57.97,1.57,20.47,3.5,28.09,4.73,31.82.87,2.24,3.67,4.03,3.15,5.83-.53,1.34-2.28,1.34-7,1.34-4.55-.15-18.9-.15-22.92,0-3.85.15-5.25,0-5.43-1.49,0-1.64,2.28-2.84,3.33-5.68,1.05-2.99,2.98-15.99,3.67-31.67.7-13.9,2.62-48.26,2.62-58.27,0-6.57-.7-10.16-2.1-12.4-1.05-2.09-2.97-2.84-2.8-3.88.18-1.34,1.23-1.49,4.2-1.49Zm65.54,110.84c-2.91,5.19-10.6,5.49-14.14.73-1.39-1.87-2.52-4.28-3.44-7.07-3.71-11.2-6.16-26.38-8.79-50.29-2.62-23.32-6.48-43.07-8.4-46.63-2.28-4.16-4.2-4.46-4.2-5.94s1.57-1.78,4.72-1.78c3.33.15,11.38.15,15.05,0,3.5-.15,6.13-.15,6.65,1.48.53,1.49-2.45,2.67-3.67,5.64-1.05,3.12-1.57,11.73,1.23,24.8,2.8,12.92,5.07,19.01,6.12,21.24,1.05,2.08,2.62,3.12,3.67.74,2.1-4.9,8.75-28.07,10.15-34.3,1.4-6.39.7-10.55-1.4-12.77-2.28-2.67-5.08-3.71-5.08-4.9,0-1.34,1.4-1.78,3.5-1.78h12.08c4.73-.15,8.22,2.67,5.95,7.58-3.15,7.13-8.4,24.36-11.72,48.56-3.33,24.06-6.5,47.92-7.33,52.09-.19.99-.53,1.85-.96,2.61Zm77.2-37.65c0,17.85-5.25,41.76-26.95,41.76-20.48,0-27.65-21.54-27.65-42.64s2.45-32.76,4.73-42.2c2.27-9.44,4.37-19.48,3.5-22.43-.87-2.8-2.8-4.28-2.62-5.6.17-1.33,1.93-2.07,7.35-2.07,5.6.15,20.48.15,26.08,0,4.37-.15,7.17,0,7.87,1.48.53,1.33-1.93,2.95-2.27,5.76-.35,3.1,1.4,10.92,4.2,22.72,2.98,12.69,5.78,26.27,5.78,43.23Zm-15.75-39.25c-1.23-14.17-5.42-25.38-12.25-25.38s-11.55,11.21-12.25,25.38c-.87,14.9,3.85,25.67,12.25,25.67s13.65-11.36,12.25-25.67ZM222.37.36c10.33.3,30.63.44,43.4,0,4.2-.15,6.3,7.08,6.3,16.23,0,7.38-1.05,8.85-3.15,8.85-1.93,0-3.85-4.43-5.25-7.97-1.23-3.69-2.8-9-6.83-9s-5.25,3.25-5.25,9.3,1.58,41.02,3.33,58.58c1.75,17.56,2.98,27.89,4.73,30.84,1.57,2.8,4.55,3.84,3.85,5.46-.53,1.62-2.45,1.62-6.83,1.33-4.9-.15-19.08-.44-22.23-.3-3.85.3-6.83.44-7.35-1.18-.53-2.07,2.1-2.95,3.32-5.31,1.4-2.36,2.98-11.21,3.85-29.81.87-18.74,2.28-53.27,2.28-59.31s-2.1-9.3-5.6-9.3c-3.68,0-4.9,3.69-6.3,7.53-1.4,3.84-2.8,9.3-5.6,9.3s-2.8-5.61-2.8-9.59c0-9.74,1.05-15.79,6.13-15.64ZM40.35,186.17c-1.72.08-5.46.55-5.57-2.03-.05-1.17.7-1.83,1.69-2.5,1.75-1.25,2.57-2.15,3.07-3.35l5.46-42.08c-.06-1.49-.86-1.84-2.07-2.65-.73-.44-1.61-1.03-1.65-1.97s.62-1.91,1.46-2.41c.61-.34,1.39-.53,2.25-.57l27.14-1.18c7.82-.34,18.58.06,19.02,10.22.33,7.51-7.88,13.43-14.44,15.67,7.83-.18,14.27,3.69,14.62,11.9.27,6.26-3.26,11.66-8.28,15.09-5.33,3.6-11.48,4.5-17.82,4.77l-24.87,1.08Zm15.5-25.59l-1.66,15.9c.14,3.13,3.66,3.05,6.08,2.95,4.15-.18,8.42-1.07,11.59-3.79,2.79-2.39,4.52-5.92,4.36-9.59-.2-4.61-3.7-7.6-7.91-8.9l-12.47,3.44Zm1.77-6.11c4.8-1.46,9.2-2.99,13.22-6.06,3.03-2.33,5.7-5.97,5.53-9.88-.24-5.55-5.42-5.64-9.8-5.45-1.88.08-5.24.15-6.59,1.7-1.34,1.55-2.81,14.62-3.44,19.98l1.08-.28Zm62.52,23.07c4.38-.19,7.58-2.37,11.08-4.71.83-.66,2.35-1.83,3.45-1.87,1.17-.05,2.31.76,2.36,1.93.1,2.27-4.08,5.27-5.6,6.28-4.27,2.77-9.91,4.66-15.07,4.89-9.78.42-19-4.35-19.47-15.22-.28-6.41,3.13-12.67,7.73-16.95,4.97-4.76,11.36-7.31,18.16-7.61,3.29-.14,7.31.39,10.27,1.98,2.49,1.3,4.7,3.56,4.83,6.53.49,11.19-19.81,14.73-27.59,16.09.41,5.86,3.99,8.92,9.86,8.66Zm6.24-24.09c-.11-2.58-2.44-3.89-4.79-3.79-5.63.24-10.9,8.78-11.46,13.9,4.99-.53,16.53-3.7,16.25-10.11Zm36.64-9.98l1.96-.08c2.19-.1,6.15-.97,6.29,2.39.18,4.07-3.83,3.77-6.73,3.9l-2.5.11-2.58,18.14c-.12.87-.37,2.21-.33,3.15.06,1.33.72,2.16,2.13,2.1,2.35-.1,4.46-2.07,5.86-2.13,1.49-.06,2.17,1.16,2.22,2.49.12,2.82-4.67,4.36-6.67,5.15-3.24,1.24-10.02,3.8-13.39,3.95-2.11.09-3.29-1.9-3.38-3.85-.09-2.19.84-7.72,1.2-10.24l2.81-18.22-.94.04c-1.96.08-4.76.44-4.88-2.38-.14-3.13,2.43-3.48,4.77-3.89,3.73-.63,4.98-2.65,6.08-6.06,1.03-3.34,1.41-7.19,6.1-7.4,1.41-.06,3.14.02,3.21,1.82.05,1.17-.32,3.46-.5,4.65l-.75,6.07v.31Zm40.11,26.63c-2.65,5.84-7.38,10.51-13.95,10.79-8.68.38-13.68-6.38-14.03-14.52-.54-12.44,9.66-24.79,22.25-25.34,3.75-.16,7.49,1.08,9.67,4.28,1.8-1.8,5.43-4.94,7.93-5.05,1.17-.05,2.71,1.14,2.27,3.43-1.04,4.98-3.37,19.82-3.17,24.51.19,4.38,4.93,1.75,5.06,4.72.08,1.88-2.46,2.85-3.77,3.46-2.07,1.11-6.97,3.67-9.16,3.77-2.19.1-3.29-1.74-3.38-3.77l.28-6.28Zm-2.42-3.5c1.7-4.07,2.93-10.08,2.74-14.46-.13-3.05-1.58-5.73-4.94-5.58-3.05.13-5.88,3.55-7.19,5.96-2.1,4.01-3.59,9.4-3.39,14.02.14,3.21,1.35,7.7,5.34,7.53,3.6-.16,6.15-4.58,7.43-7.46Z"/>
</svg>