<?xml version="1.0" encoding="UTF-8"?>
<svg id="Layer_11_copy" data-name="Layer 11 copy" xmlns="http://www.w3.org/2000/svg" viewBox="0 0 857.06 404.14">
  <defs>
    <linearGradient id="goldGradient" x1="0%" y1="0%" x2="100%" y2="0%">
      <stop offset="0%" style="stop-color: #a96f44; stop-opacity: 1" />
      <stop offset="100%" style="stop-color: #bc8e71; stop-opacity: 1" />
    </linearGradient>
  </defs>
   <path fill="url(#goldGradient)" d="m849.41,169.74c-4.51,7.99-13.06,14.38-22.69,12.1-8.15-1.92-11.93-9.14-14.23-16.49-2.65-8.46-6.19-15.45-13.1-21.29-.08-.07-.17-.12-.25-.19-4.45.97-8.19,3.63-10.94,7.9-2.9,4.51-5.74,9.43-7.02,14.56-2.78,11.16-4.78,22.53-6.61,33.89-.97,6-5.26,28.51.29,87.37,1.29,16.96,2.16,33.87-1.39,50.67-4.03,19.02-14.97,31.54-34.18,36.25-5.27,1.29-10.53,2.61-15.82,3.82-8.07,1.85-15.35,5.35-21.96,10.29-5.03,3.76-9.93,7.71-15.15,11.18-12.28,8.16-21.38,4.68-25.23-9.53-2.67-9.87-1.92-19.91-.66-29.85,2.77-21.92,7.39-43.45,13.93-64.57,11.54-37.27,23.06-74.55,34.49-111.85,4.22-13.77,27.35-68.25-14.06-88.4-10.05-4.89-18.81-1.82-28.84-1.52-9.07.27-18.61-3.04-23.19-11.37-9.06-16.5,7.06-36.23,18.92-46.52,14.64-12.71,32.65-14.96,51.05-10.27,7.84,2,15.66,4.51,23.42,7.28,8.81,2.68,17.37,5.99,25.43,9.7.44.2.89.41,1.33.61,3.14,1.26,6.26,2.51,9.37,3.74,17.88,7.09,35.17,15.43,50.17,27.62,27.15,22.08,45.81,61.45,26.95,94.86Zm-274.52-105.96c26.93,1.74,51.04,19.96,67.91,51.32,16.58,30.81,24.22,70.78,21.53,112.54-2.69,41.76-15.41,80.41-35.81,108.84-19.67,27.42-44.29,42.3-69.73,42.3-1.4,0-2.8-.04-4.21-.14-26.93-1.74-51.05-19.96-67.92-51.32-16.58-30.81-24.22-70.78-21.53-112.54,2.69-41.76,15.41-80.41,35.81-108.84,20.76-28.93,47.02-43.9,73.94-42.17Zm-37.82,159.65c6.69,11.49,16,18.19,26.21,18.84,10.19.66,20.3-4.78,28.41-15.32,8.43-10.95,13.65-25.97,14.71-42.29,2.14-33.16-13.72-61.28-35.36-62.67-.56-.04-1.12-.05-1.67-.05-20.95,0-39.36,25.36-41.44,57.67-1.05,16.32,2.2,31.88,9.15,43.83Zm-29.62-210.88s-.04-.29-.05-.41c0-.04-.01-.08-.01-.09-.05-.32-.1-.63-.16-.94-.11-.58-.24-1.15-.4-1.71-.16-.59-.36-1.16-.56-1.73-.03-.09-.05-.14-.06-.18-.01-.02-.03-.05-.05-.11-.12-.27-.25-.53-.38-.8-.27-.52-.56-1.02-.89-1.5-.06-.1-.31-.42-.35-.48-.12-.15-.24-.29-.37-.43-.39-.43-.81-.85-1.25-1.23-.1-.09-.2-.17-.31-.26-.01,0-.01,0-.03-.02-.22-.15-.44-.31-.66-.45-.53-.34-1.09-.63-1.66-.91-.05-.02-.08-.04-.11-.05-.13-.05-.27-.11-.4-.16-.28-.1-.57-.2-.85-.29-3.48-1.09-7-1.04-10.51-.13-3.56.92-6.9,2.47-10.27,3.9-1.36.57-16.77,10.01-23.09,13.92-23.5,14.52-48.34,26.44-73.69,37.3-1.77,1.05-3.53,2.12-5.22,3.29-1.47,1.02-2.08,1.45-3.28,2.54-1,.9-1.9,1.89-2.8,2.9,0,.01,0,.01-.01.02-.07.11-.15.21-.22.32-.16.24-.3.48-.44.73-.14.25-.4,1.04-.12.16-.07.22-.17.44-.24.67-.03.09-.09.41-.14.62-.01.16-.03.36-.03.43,0,.05,0,.2-.01.34.01.03.02.07.04.13.05.15.07.3.11.45.12.41.57.99.08.32.16.22.25.51.39.75.19.33.4.64.61.96.07.1.14.2.21.29,0,0,.01.02.02.02.63.72,1.28,1.41,1.99,2.06.69.63,1.4,1.19,1.85,1.52,4.04,2.96,7.55,6.19,10.48,10.26,5.6,7.77,8.4,17.76,8.83,27.25.25,5.62-.46,11.31-1.86,16.74-.71,2.75-1.63,5.42-2.74,8.03-.29.69-.62,1.37-.96,2.03-3.04,10.5-7.9,20.26-12.93,29.94,0,0,0,0,0,0-11.89,18.97-7.38,45.9-7.33,46.92,0,0,0,.01-.01,0-.84-.76-21.61-28.09-17.94-68.88.76-6.47,2.48-12.53,4.6-18.48.72-2.97,1.47-5.93,1.96-8.94.34-2.1.5-4.43.37-6.69-.11-2.02-.43-3.7-1.41-5.19-.04-.06-.05-.09-.08-.12-.03-.03-.06-.06-.11-.11-.14-.15-.3-.3-.44-.45-.05-.05-.16-.14-.23-.2-.08-.06-.16-.12-.25-.17-.14-.08-.82-.41-.77-.41-.25-.09-.5-.18-.75-.24-.24-.06-.48-.1-.72-.16-.03,0-.04-.01-.07-.02-.02,0-.02,0-.04,0-.09,0-.17,0-.26-.02-1.47-.3-3.17-.09-4.98.46-.43.11-.86.22-1.29.34-.09.07-.17.13-.26.2-6.45,2.53-13.73,8.53-16.52,10.63-11.45,8.62-22.84,17.33-34,26.33-4.41,3.55-11.46,7.32-12.14,13.53-.57,5.18,3.39,9.17,8.2,10.38,5.78,1.44,12.15,1.66,14.78,8.04.59,1.44.88,3.02,1.14,4.6.27,9.3.59,18.61.69,27.91.22,20.65,2.71,40.9,10.26,60.28,9.67,24.86,23,47.85,42.09,66.31,38.51,37.23,88.6,50.99,89.32,51.21,5.89,1.85,12.06.05,16.01-4.66,9.97-11.87.79-25.89-5.65-36.77-16.42-27.76-26.52-59.42-27.37-91.75-.24-8.97.25-17.89,1.42-26.72,3.42-16.26,7.66-32.35,12.67-48.28,8.13-25.85,19.92-50.18,31.56-74.5,13.61-28.43,23.78-57.92,30.09-88.75.02-.08.03-.17.05-.25-.03-.47-.07-.94-.12-1.41ZM111.78,372.17c-17.93,13.08-37.18,23.48-59.11,28.15-5.03,1.07-10.19,1.87-15.32,2.06-16.93.61-29.36-10.12-30.37-27.07-.24-4.03-.38-8.09-.41-12.15,0-.12,0-.18,0-.18,0,0,0,0,0,0-.05-7.2.25-14.42,1-21.54,2.69-25.64,6.83-51.13,9.29-76.78,1.68-17.54,2.07-35.25,2.07-52.89,0-21.31-.59-42.64-1.71-63.92-1.19-22.61-3.86-45.1-8.62-67.28-.69-3.24-1.95-6.36-2.95-9.53-1.61-5.08-3.53-10.08-4.76-15.25-2.72-11.43.84-20.67,10.48-27.49,8.49-6.01,18.15-9.08,28.27-10.6,19.66-2.95,38.85-.55,57.51,6.09,6.15,2.19,12.23,4.54,18.15,7.21,0,0,.01,0,.02,0,3.73,1,7.56,3.09,11.09,5.51,4.08,2.24,8.06,4.69,11.91,7.41,18.9,13.36,34.32,29.96,45.66,50.21,3.09,5.52,6.09,11.11,8.82,16.81,12.9,26.96,17.52,55.73,18.52,84.01-.11,8.73-.75,17.23-1.89,25.52.23.69.21,1.47-.21,2.29-.06.11-.11.22-.17.33-4.5,29.74-15.65,56.71-33.23,81.6-18.08,25.61-38.57,48.91-64.04,67.48Zm89.67-147.35c.08-.15.16-.31.24-.46.06-.36.12-.73.18-1.09-.14.5-.28,1.02-.42,1.55Zm-65.2-50.24c7.51-11.92,11.03-27.31,9.92-43.34-2.26-32.57-23.08-57.51-46.4-55.6-.6.05-1.2.12-1.8.2-22.4,3.16-38.6,30.59-36.39,62.32,1.11,16.02,6.72,30.67,15.8,41.23,8.73,10.17,19.6,15.27,30.6,14.37,5.85-.48,11.43-2.65,16.46-6.29.8-.9,1.6-1.8,2.41-2.68,2.34-2.55,4.92-4.85,7.39-7.26.69-.95,1.37-1.93,2.01-2.95Zm149.96,185.67c-2.71-.73-5.46-1.75-7.82-3.22-14.3-8.88-29.98-13.4-46.54-15.52-1.77-.23-3.54-.59-5.29-1.03,0,0,0,0,0,0-1.51.4-3.33-.33-5.18-1.6-.36-.13-.72-.26-1.07-.39-8.66-3.25-13.17-9.77-13.92-18.96-.52-6.45.84-12.59,3.01-18.6,3.17-8.77,6.56-17.47,9.47-26.32,6.63-20.11,9.81-40.76,9.2-61.98-.59-30.71-3.85-61.16-11.07-91.03-3.39-14.05-14.96-46.7-16.41-49.13-16.6-27.8,35.73-28.35,45.95-29.72,5.67-.76,11.32.07,16.65,2.34,7.48,3.18,11.69,8.98,11.85,16.99.1,4.91-.42,10.11-1.98,14.73-8.06,23.92-7.52,48.22-3.52,72.6,6.32,38.5,16.96,76.03,26.55,113.78,4.38,17.26,9.31,34.39,13.5,51.69,1.6,6.59,2,13.49,2.59,20.28.26,2.94-.13,6.01-.64,8.94-2.29,13.12-12.46,19.61-25.33,16.15ZM250.29,49.5c-3.18-.19-6.6-.05-10.1.31l10.1-.31Z"/>
</svg>