<?xml version="1.0" encoding="UTF-8"?>
<svg id="Layer_1" data-name="Layer 1" xmlns="http://www.w3.org/2000/svg" viewBox="0 0 843.53 550.03">
  <defs>
   <linearGradient id="goldGradient" x1="0%" y1="0%" x2="100%" y2="0%">
      <stop offset="0%" style="stop-color: #a96f44; stop-opacity: 1" />
      <stop offset="100%" style="stop-color: #bc8e71; stop-opacity: 1" />
    </linearGradient>
  </defs>
  <path fill="url(#goldGradient)"  d="m428.26,373.66c-7.13-3.35-13.98-7.68-20.21-12.52-30.14-23.39-48.52-54.53-59.18-90.77-12.49-42.46-15.94-85.8-14.32-129.84.62-16.81-.12-33.68-.78-50.51-.6-15.28-5.83-28.61-17.16-39.62-6.32-6.15-12.02-13.24-16.69-20.72-6.79-10.87-3.18-23.31,7.72-27.69,4.35-1.75,9.92-2.58,14.39-1.53,20.84,4.89,41.35,11.19,59.8,22.34,12.61,7.63,17.5,18.06,16.57,33.91-.83,3.44-1.82,9.47-3.75,15.17-4.26,12.52-3.85,24.98-.47,37.49,4.84,17.92,9.79,35.81,14.87,53.65.97,3.42,2.44,6.81,4.27,9.86,3.82,6.33,7.54,6.3,11.35.07,2.17-3.55,3.91-7.36,5.96-10.98,8.96-15.82,17.96-31.61,26.94-47.41.47-.82.88-1.68,1.37-2.49,7.93-13.08,7.9-26.05-.21-39.12-2.99-4.81-5.87-9.81-7.89-15.08-1.72-4.49-2.93-9.48-2.93-14.26,0-8.73,6.78-14.73,15.39-13.43,5.08.77,10.29,2.84,14.67,5.57,11.75,7.33,23.59,14.22,36.44,19.62,14.84,6.23,20.1,17.96,14.63,33.44-3.23,9.14-8.66,17.61-13.78,25.96-9.4,15.33-19.77,30.09-28.89,45.58-13.45,22.82-20.76,47.91-24.5,73.98-2.74,19.1-4.76,38.32-6.77,57.52-1.57,14.99.16,29.85,2.57,44.67.97,5.96,1.88,12.06,1.65,18.06-.66,17.45-15.27,26.5-31.06,19.07ZM839.94,115.09c-3.01-4.93-6.73-9.8-11.19-13.39-28.33-22.79-58.78-42.1-93.12-54.73-15.84-5.83-31.72-8.25-47.24.44-19.31,10.81-34.23,26.25-44.47,45.81-7.35,14.03-1.32,24.26,14.45,25.84,2.22.22,4.54-.03,6.76-.41,8.77-1.49,17.46-3.57,26.28-4.57,10.18-1.14,16.39,5.69,14.43,15.8-1.84,9.46-4.21,18.84-6.92,28.09-6.39,21.8-14.09,43.26-19.5,65.29-9.75,39.7-18.43,79.67-27.07,119.63-2.83,13.09-5.25,26.44-5.94,39.77-.94,18.31,9.58,27.18,27.84,25.4,1.88-.18,3.79-.44,5.58-1,15.68-4.94,31.77-6.37,48.14-7.02,24.65-.97,37.5-17.81,32.51-41.89-2.07-9.99-5.04-19.82-8.14-29.55-7.24-22.7-12-45.77-11.76-77.8.86-21.53,5.05-50.73,12.37-79.43,2.14-8.4,5.07-16.67,8.43-24.66,2.88-6.83,8.1-11.8,15.53-14,7.15-2.12,13.2-.14,19.25,3.9,5.91,3.95,12.08,8.01,18.73,10.25,9.16,3.09,17.69.44,23.89-7.38,6.14-7.75,6.12-16.28,1.16-24.4Zm-144.73,329.04c-1.77,6.77-4.05,13.41-6.29,20.04-4.89,14.44-4.55,29.02-1.45,43.72,1.05,5,2.15,10,2.91,15.04,1.37,9.16.09,17.66-8.49,22.98-8.95,5.55-18.37,5.29-27.58.47-7.31-3.83-10.75-10.36-11.43-18.78-8.22,2.99-15.47,6.3-23.07,8.26-15.57,4.02-30.92,3.17-44.99-5.38-4.33-2.64-7.8-6.7-13.22-11.49-3.49-.2-8.05,2.94-12.59,5.87-9.42,6.08-18.87,12.49-30.07,14.26-9.8,1.55-20.03,2.73-29.81,1.68-19.25-2.06-33.83-18.67-36.7-39.44-2.57-18.61,1.39-36.14,8.61-53.15,1.17-2.75,2.36-5.49,3.73-8.69-6.31-2.76-12.21-5.24-18.02-7.92-7.16-3.3-13.4-7.86-17.98-14.39-8.16-11.64-2.74-24.7,11.39-25.6,8.52-.54,17.22,1.45,25.83,2.46,2.03.24,3.99,1.07,6.61,1.81,1.01-2.08,2-4.03,2.93-6.01,4.04-8.61,9.69-15.78,18.15-20.47,12.76-7.07,23.16-1.67,23.62,12.83.24,7.49-.84,15.07-1.83,22.55-.92,7-.33,9.13,5.75,12.62,3.77,2.16,7.81,3.87,11.56,6.07,2.58,1.52,5.22,3.21,7.23,5.39,4.29,4.66,3.22,10.87-2.39,13.82-2.79,1.47-5.98,2.44-9.11,2.91-3.91.59-7.92.55-11.89.57-10.62.07-13.32,1.46-16.88,11.44-2.01,5.62-3.42,11.71-3.68,17.65-.61,13.97,9.63,23.21,23.61,21.87,6.72-.64,12.7-3.14,18.09-7.46,5.87-4.71,12.24-8.8,18.32-13.25,1.66-1.22,3.06-2.8,4.63-4.15,10.62-9.09,20.57-19.17,32.03-27.02,18.79-12.87,39.66-16.14,61.8-8.97,1.8.58,4.64-.5,6.4-1.69,3.73-2.52,6.79-6.11,10.64-8.38,5.71-3.35,11.98-4,17.65.22,5.92,4.41,7.83,10.66,6,17.68Zm-64.89,33.22c-1.23-4.01-5.71-6.67-10.83-6.61-6.71.07-16.36,7.59-18.22,14.2-1.5,5.33,1.76,10.01,7.39,8.95,5.76-1.08,11.37-3.61,16.65-6.29,3.76-1.91,6.51-5.34,5-10.25Zm-486.72-168.01c-32.82,18.87-55.62,29.23-91.6,39.04-7.46,2.03-21.26,6.48-29,6-10.29-.63-16.44-13.44-13-24,1.7-5.23,3.06-10.36,6-15,3.45-5.45,4.77-5.8,8.09-11.33,7.13-11.87,9.08-25.57,8.87-39.2-.35-22.31-1.45-44.65-3.25-66.88-2.43-29.97-5.68-59.87-8.84-89.76-2.11-19.94-7.12-38.96-16.75-56.33-1.51-2.72-2.66-5.77-3.5-8.82-1.78-6.45.4-12.14,5.65-15.57.89-.59,1.82-1.19,2.8-1.52,19.43-6.63,37.94-16.49,58.28-19.84,6.17-1.02,12.48-1.05,18.73-1.53,23.69-.4,45.61,5.99,66.01,18.9,16.63,10.53,28.89,25.34,37.27,44.11,9.22,20.67,17.92,41.52,21.51,64.39,7.38,47.06.16,91.28-22.63,132.16-10.88,19.51-25.99,34.49-44.62,45.19Zm-22.52-211.6c-5.06-10.68-11.81-19.82-22.85-24.17-12.95-5.1-22.31-1.3-28.29,11.92-5.83,12.92-6.92,26.75-5.93,40.93.92,17.31,6.72,32.43,16.57,43.22,10.75,11.76,23.95,12.58,35.05,1.48,3.61-3.6,6.73-8.31,8.7-13.18,8.25-20.41,6-40.64-3.26-60.2Zm106.6,409.43c-17.07,17.91-38.1,28.39-62.58,31.81-19.29,2.69-38.58,5.37-57.92,7.59-5.16.59-10.64.12-15.74-.97-14.1-3.02-20.1-16.62-13.82-30.67,1.07-2.39,2.43-4.83,4.24-6.67,6.38-6.49,8.31-14.5,9.31-23.19,3.24-28.2,6.81-56.36,10.18-84.54.28-2.38.04-4.82.04-8.35-5.78,1.9-10.7,3.78-15.75,5.1-3.8.99-7.8,1.8-11.7,1.75-7.69-.12-11.9-6.79-7.98-13.43,3.21-5.44,7.51-10.53,12.28-14.69,19.7-17.19,42.15-29.32,67.72-35.49,14.83-3.58,29.67-6.1,44.96-3.48,9.42,1.62,18.42,4.24,26.36,9.86,15.78,11.17,22.84,29.58,18.47,48.43-2.93,12.63-8.73,23.71-18.94,33.26,1.07.59,1.71.97,2.37,1.32,29.35,15.44,32.23,57.45,8.51,82.34Zm-86.55-105.82c10.48-1.04,19.37-3.62,27.25-8.36,4.83-2.9,9.39-7.16,12.44-11.86,3.75-5.77.82-10.69-5.97-11.98-2-.38-4.29-.64-6.15-.04-8.58,2.78-17.11,5.75-25.53,8.99-1.35.52-2.89,2.71-2.9,4.14-.04,5.98.48,11.96.85,19.11Zm38.01,46.52c-12.48-1.64-23.93,2.12-34.71,8.14-.83.46-1.66,1.81-1.65,2.73.11,9.2.4,18.39.63,27.17,1.36.51,1.71.75,2.06.76.75.02,1.55.07,2.24-.16,13.13-4.35,25.05-10.73,34.55-21.01,1.38-1.5,2.44-3.4,3.27-5.28,2.99-6.78.86-11.4-6.4-12.35Zm16.21,7.16c.03-5.62-2.24-10.14-6.38-12.95,4.14,2.81,6.41,7.33,6.38,12.95-.13,5.55-1.94,10.46-5.26,14.67,3.32-4.21,5.13-9.11,5.27-14.66ZM507.72,187.73c4.66-14.6,7.94-29.68,16.25-42.86,3.33-5.27,6.82-10.47,10.62-15.4,17.68-22.92,46.71-23.7,67.91-10.81,15.16,9.22,24.63,23.2,31.72,39.07,9.41,21.07,13.94,43.14,13.84,66.18-.05,39.2-9.84,75.66-30.86,108.89-8.32,13.15-18.93,24.12-32.5,31.95-25.59,14.77-51.67,9.81-70.58-13-13.27-16.01-18.47-35-20.59-55.02-3.97-37.43,2.85-73.5,14.19-109.01Zm38.7,59.4c1.62,8.79,6.8,15.2,15.53,17.97,8.54,2.71,15.52-.64,21.69-6.41,11.98-11.19,16.51-25.45,17.07-41.78-.14-9.43-1.89-18.8-8.78-26.45-6.83-7.58-16.4-9.81-24.54-4.44-5.22,3.45-10.58,7.96-13.54,13.29-8.22,14.82-10.51,31.09-7.43,47.82Zm-140.74,234.29c3.79,5.53,2.31,11.44-.92,16.6-11.38,18.19-28.23,28.36-48.46,35.01-19.29,6.33-46.28,2-55.3-.57-16.51-4.69-26.38-17.2-33.98-31.57-15.28-28.87-17.73-58.65-2.86-88.23,9.73-19.36,25.81-32.38,46.75-38.91,18.57-5.79,37.33-9.59,56.99-6.69,31.14,4.59,45.74,35.85,28.92,62.52-7.84,12.43-19.28,20.65-32.43,26.66-5.85,2.67-11.83,5.06-17.75,7.57-5.5,2.34-10.51,5.25-13.23,10.96-2.54,5.34-.73,9.38,5.22,9.48,6.55.12,13.2-.63,19.67-1.77,10.61-1.87,21.07-4.56,31.67-6.52,6.08-1.13,11.98.01,15.72,5.47Zm-118.01-84.8c-15.63,13.54-24.05,33.01-24.06,56.7-.04,16.52,4.18,31.53,12.18,45.18-8-13.65-12.22-28.66-12.18-45.18.01-23.68,8.42-43.15,24.06-56.7Zm33.02,43.6c8.29-2.44,16.61-5.05,24.43-8.65,4.46-2.06,8.46-5.77,11.75-9.54,4.75-5.45,2.26-12.03-4.75-13.99-1.8-.5-3.72-.58-5.02-.78-14.59.83-26.91,4.97-35.6,16.88-2.96,4.06-5.27,8.45-2.61,13.07,2.54,4.41,7.61,4.25,11.79,3.02Zm-81.92-253.8c1.4,20.73-1.43,41.22-5.59,61.42-4.72,22.89,2.21,40.67,19.33,53.87,12.79,9.85,27.42,15.59,42.61,18.81,17.21,3.65,25.25-4.28,25.25-23.5,0-13.55-3.73-26.18-9.34-38.06-8.05-17.06-11.9-35.01-11.39-54.18.25-9.27.04-18.56.04-27.84.42-.03.84-.05,1.27-.08-1.2-19.24-1.52-38.6-3.81-57.69-3.26-27.18-17.87-46.34-39.67-58.88-12.65-7.28-23.95-.74-25.97,14.71-.8,6.1-.52,12.47-.05,18.66,2.35,30.93,5.23,61.82,7.32,92.77Z"/>
</svg>