<?xml version="1.0" encoding="UTF-8"?>
<svg id="Layer_1" data-name="Layer 1" xmlns="http://www.w3.org/2000/svg" viewBox="0 0 270.96 126.66">
  <defs>
    <linearGradient id="goldGradient" x1="0%" y1="0%" x2="100%" y2="0%">
      <stop offset="0%" style="stop-color: #a96f44; stop-opacity: 1" />
      <stop offset="100%" style="stop-color: #bc8e71; stop-opacity: 1" />
    </linearGradient>
  </defs>
    <path fill="url(#goldGradient)" d="m55.43,78.81c0,26.63-3.9,38.8-11.33,43.24-7.44,4.44-12.57,4.61-20.19,4.61s-14.53-.33-20.01,0c-2.3.16-3.9-1.48-3.9-3.61s2.3-3.28,4.25-7.89c2.48-5.91,1.6-39.62,1.42-61.81-.18-22.2.7-39.29-1.24-43.57C2.82,6.31,0,4.17.34,2.2.7.56,4.06.23,6.73.4c4.43.16,10.98,0,18.6-.16,7.61-.16,17.18,3.61,22.49,18.9,5.32,15.62,7.61,33.05,7.61,59.68h0ZM25.67,9.6c-7.97,0-9.04,13.15-9.04,29.92s6.55,29.92,12.57,29.92c6.55,0,10.63-6.24,10.63-20.06,0-24.33-6.2-39.78-14.17-39.78h0ZM70.17.23c2.66,0,11.69.16,15.59,0,2.3,0,4.07,0,4.43,1.32.35,1.32-1.42,2.3-2.83,4.77-1.06,2.3-1.42,6.41-1.42,13.64,0,10.84,1.24,41.09,3.02,63.77,1.59,22.52,3.54,30.9,4.78,35.01.89,2.47,3.72,4.44,3.19,6.41-.54,1.48-2.3,1.48-7.09,1.48-4.61-.16-19.13-.16-23.2,0-3.9.16-5.32,0-5.5-1.65,0-1.81,2.3-3.12,3.37-6.24,1.06-3.28,3.02-17.59,3.72-34.84.7-15.29,2.66-53.09,2.66-64.1,0-7.23-.7-11.17-2.13-13.64-1.06-2.3-3.01-3.12-2.83-4.28.18-1.48,1.24-1.65,4.26-1.65h-.02Zm67.53,121.91c-2.95,5.7-10.72,6.05-14.32.79-1.41-2.05-2.55-4.71-3.48-7.78-3.75-12.32-6.24-29.02-8.9-55.31-2.66-25.65-6.55-47.37-8.5-51.29-2.3-4.58-4.25-4.9-4.25-6.54s1.59-1.96,4.78-1.96c3.37.16,11.51.16,15.24,0,3.54-.16,6.2-.16,6.73,1.64.54,1.64-2.48,2.94-3.72,6.21-1.06,3.43-1.59,12.9,1.24,27.29,2.83,14.21,5.13,20.91,6.2,23.36,1.06,2.29,2.66,3.43,3.72.81,2.13-5.39,8.85-30.87,10.27-37.73,1.42-7.02.71-11.6-1.42-14.05-2.3-2.94-5.13-4.09-5.13-5.39,0-1.47,1.42-1.96,3.54-1.96h12.22c4.78-.16,8.33,2.94,6.02,8.34-3.18,7.84-8.5,26.79-11.87,53.42-3.37,26.46-6.58,52.71-7.41,57.3-.2,1.09-.54,2.03-.96,2.87h0Zm78.14-41.41c0,19.64-5.31,45.93-27.27,45.93-20.72,0-27.99-23.69-27.99-46.91s2.48-36.03,4.78-46.42c2.3-10.39,4.43-21.42,3.54-24.67-.89-3.08-2.83-4.7-2.66-6.17.18-1.47,1.95-2.27,7.44-2.27,5.67.16,20.72.16,26.4,0,4.43-.16,7.26,0,7.97,1.63.54,1.47-1.95,3.25-2.3,6.33-.35,3.41,1.42,12.01,4.25,25,3.02,13.95,5.85,28.89,5.85,47.55Zm-15.94-43.17c-1.24-15.58-5.49-27.92-12.4-27.92s-11.69,12.34-12.4,27.92c-.89,16.4,3.9,28.24,12.4,28.24s13.81-12.5,12.4-28.24ZM220.66.39c10.45.32,30.99.48,43.93,0,4.26-.16,6.37,7.79,6.37,17.85,0,8.12-2.19,9.55-4.32,9.55-2.8,0-2.76-4.68-4.18-8.58-1.24-4.06-2.84-9.9-6.91-9.9s-5.32,3.57-5.32,10.23,1.6,45.12,3.37,64.43c1.77,19.31,3.02,30.67,4.78,33.92,1.59,3.08,4.61,4.22,3.9,6.01-.54,1.79-2.48,1.79-6.91,1.47-4.96-.16-19.31-.49-22.49-.32-3.9.32-6.91.48-7.44-1.3-.54-2.27,2.12-3.25,3.37-5.85,1.42-2.59,3.02-12.34,3.9-32.78.89-20.62,2.3-58.59,2.3-65.24s-2.13-10.23-5.67-10.23c-3.72,0-4.96,4.06-6.37,8.28-1.42,4.22-1.06,6.83-3.9,6.83s-4.61-2.77-4.61-7.16c0-10.71,1.06-17.37,6.2-17.2h0Z"/>
</svg>