<?xml version="1.0" encoding="UTF-8"?>
<svg id="Layer_1" data-name="Layer 1" xmlns="http://www.w3.org/2000/svg" viewBox="0 0 318.7 133.88">
 <defs>
    <linearGradient id="goldGradient" x1="0%" y1="0%" x2="100%" y2="0%">
      <stop offset="0%" style="stop-color: #a96f44; stop-opacity: 1" />
      <stop offset="100%" style="stop-color: #bc8e71; stop-opacity: 1" />
    </linearGradient>
  </defs>
   <path fill="url(#goldGradient)" d="m66.18,83.3c0,28.15-4.65,41.01-13.53,45.7-8.88,4.69-15.01,4.87-24.1,4.87s-17.34-.35-23.89,0c-2.75.17-4.65-1.56-4.65-3.82s2.75-3.47,5.07-8.34c2.96-6.25,1.91-41.88,1.69-65.33-.21-23.46.84-41.53-1.48-46.05C3.38,6.67,0,4.41.42,2.33.84.59,4.86.24,8.04.42c5.29.17,13.11,0,22.2-.17,9.09-.17,20.51,3.82,26.85,19.98,6.35,16.51,9.09,34.93,9.09,63.08ZM30.66,10.15c-9.52,0-10.79,13.9-10.79,31.62s7.82,31.62,15.01,31.62c7.82,0,12.69-6.6,12.69-21.2,0-25.72-7.4-42.05-16.92-42.05ZM83.78.24c3.17,0,13.96.17,18.61,0,2.75,0,4.86,0,5.29,1.39.42,1.39-1.69,2.43-3.38,5.04-1.27,2.43-1.69,6.78-1.69,14.42,0,11.46,1.48,43.43,3.6,67.4,1.9,23.8,4.23,32.66,5.71,37,1.06,2.61,4.44,4.69,3.81,6.78-.64,1.56-2.75,1.56-8.46,1.56-5.5-.17-22.84-.17-27.7,0-4.65.17-6.35,0-6.56-1.74,0-1.91,2.75-3.3,4.02-6.6,1.27-3.47,3.6-18.59,4.44-36.83.84-16.16,3.17-56.11,3.17-67.75,0-7.64-.84-11.81-2.54-14.42-1.27-2.43-3.59-3.3-3.38-4.52.21-1.56,1.48-1.74,5.08-1.74Zm75.84,128.86c-3.52,6.03-12.8,6.39-17.09.84-1.68-2.17-3.04-4.98-4.16-8.22-4.48-13.02-7.45-30.67-10.62-58.46-3.17-27.11-7.82-50.07-10.15-54.21-2.75-4.84-5.07-5.18-5.07-6.91s1.9-2.07,5.71-2.07c4.02.17,13.74.17,18.19,0,4.23-.17,7.4-.17,8.04,1.73.64,1.73-2.96,3.11-4.44,6.56-1.27,3.63-1.9,13.64,1.48,28.84,3.38,15.02,6.13,22.1,7.4,24.69,1.27,2.42,3.17,3.63,4.44.86,2.54-5.7,10.57-32.63,12.26-39.88,1.69-7.42.85-12.26-1.69-14.85-2.75-3.11-6.13-4.32-6.13-5.7,0-1.55,1.69-2.07,4.23-2.07h14.59c5.71-.17,9.94,3.11,7.19,8.81-3.8,8.29-10.15,28.32-14.17,56.46-4.02,27.97-7.86,55.71-8.85,60.56-.24,1.15-.64,2.15-1.15,3.03Zm93.28-43.77c0,20.76-6.34,48.55-32.56,48.55-24.74,0-33.41-25.04-33.41-49.58s2.96-38.08,5.71-49.06c2.75-10.98,5.29-22.64,4.23-26.08-1.06-3.26-3.38-4.97-3.17-6.52.21-1.55,2.33-2.4,8.88-2.4,6.77.17,24.74.17,31.51,0,5.29-.17,8.67,0,9.51,1.72.64,1.55-2.33,3.43-2.75,6.69-.42,3.6,1.69,12.69,5.07,26.42,3.6,14.75,6.98,30.54,6.98,50.26Zm-19.03-45.63c-1.48-16.47-6.55-29.51-14.8-29.51s-13.95,13.04-14.8,29.51c-1.06,17.33,4.65,29.85,14.8,29.85s16.49-13.21,14.8-29.85ZM258.65.41c12.48.34,37,.51,52.44,0,5.08-.17,7.61,8.23,7.61,18.87,0,8.58-2.62,10.09-5.16,10.09-3.34,0-3.3-4.95-4.99-9.07-1.48-4.29-3.39-10.46-8.25-10.46s-6.35,3.77-6.35,10.81,1.91,47.69,4.02,68.1c2.11,20.41,3.6,32.42,5.71,35.85,1.9,3.26,5.5,4.46,4.65,6.35-.64,1.89-2.96,1.89-8.25,1.55-5.92-.17-23.05-.52-26.85-.34-4.65.34-8.25.51-8.88-1.37-.64-2.4,2.53-3.43,4.02-6.18,1.69-2.74,3.6-13.04,4.65-34.65,1.06-21.79,2.75-61.93,2.75-68.96s-2.54-10.81-6.77-10.81c-4.44,0-5.92,4.29-7.61,8.75-1.69,4.46-1.26,7.22-4.65,7.22s-5.5-2.93-5.5-7.57c0-11.32,1.27-18.36,7.4-18.18Z"/>
</svg>