<?xml version="1.0" encoding="UTF-8"?>
<svg id="Layer_1" data-name="Layer 1" xmlns="http://www.w3.org/2000/svg" viewBox="0 0 245.28 198.72">
 <defs>
    <linearGradient id="goldGradient" x1="0%" y1="0%" x2="100%" y2="0%">
      <stop offset="0%" style="stop-color: #a96f44; stop-opacity: 1" />
      <stop offset="100%" style="stop-color: #bc8e71; stop-opacity: 1" />
    </linearGradient>
  </defs>
   <path fill="url(#goldGradient)" d="m79.05,27.15c-.17,1.52-1.2,3.8-1.29,4.79-.05.61.07.64.03,1.26-.03.44-.14.93-.15,1.37-.09,7.39.02,14.98,1.97,22.17.8,2.93,2.01,5.63,3.41,8.13.7,1.24,1.51,2.45,2.26,3.69l3.17,5.63,4.19,10.26c1.66,4.81,2.9,8.54,2.29,14.08-.53,4.84-3.13,8.63-9.43,7.94-3.51-.39-4.77-.69-8.16-1.47l-6.67-1.54c-1.61-.33-5.38-1-6.23-1.73-1.81-1.55-1.16-4.85-.93-6.9.24-2.23,1.54-9.7,2.18-12.05.2-.73.36-1.72.46-2.44l.44-2.46c1.13-4.58.67-11.13.28-15.26l-.6-5.5c-.16-1.87-.26-3.76-.46-5.7-.2-1.91-.3-3.63-.46-5.59-.3-3.87-1.33-14.41-.98-17.62.23-2.12,2-4.58,3.78-5.92,1.85-1.39,6.41.22,8.33,1.04.83.35,1.72.75,2.08,1.38.27.48.56,1.74.48,2.46Zm-11.68-16.55c-.34,1.38-.61,2.48-.32,3.89.18.89.37,1.57,1,2.19,1.5,1.49,3.56,1.25,5.48,1.35,3,.14,4.01,1.15,5.69.03,1.42-.95,2.63-3.03,3.05-4.76.3-1.24-.22-2.58-.29-3.65-.08-1.22.11-2.68.29-4.07.28-2.12-.05-3.27-1.89-4.59-2.08-1.49-3.65-1.11-5.56.06-2.29,1.41-4.12,3.12-5.55,5.38-.66,1.04-1.55,2.74-1.9,4.18Zm131.35,50.86c0,2.66-1.31,4.87-2.2,7.33-1.75,4.84-3.27,13.1-4.43,18.34-.79,3.54-1.16,8.68-1.83,11.72-.55,2.48-.9,5.14-1.65,7.47-.39,1.2-.71,2.23-1.09,3.44-.74,2.35-2.31,9.24-2.31,11.41,0,1.94,1.24,2.83,3.01,3.5,1.54.58,3.57,1.11,5.49,1.27,2.21.18,5,2.38,7.17,2.37l7.44,2.68c.38-.03,2.39,1,3.17.98,1.3-.04,1.52.25,2.62,0,.3-.07.22-1.82.49-1.89,1.24-.33.62-6.61.48-7.5-.41-2.63.29-1.41-.83-5.46-.46-1.67-1.08-3.39-1.42-5.05-.78-3.75-2.82-20.87-2.82-25.53l-.38-7.42c-.06-.52,0-1.13-.02-1.66l-.14-2.98c.01-1.95-.21-3.93.02-5.95.11-1.03.25-1.81,1.57-1.81s3.85,1.76,4.75,2.4l8.13,6.05c2.34,1.72,5.34,3.84,7.73,1.05.28-.33.34-.36.62-.64l3.84-3.7c.31-.28.41-.3.73-.54,3.23-2.43,5.26-5.88,6.58-9.47.47-1.27.92-2.25,1.32-3.59.76-2.53.86-8.6-.68-10.82-.68-.98-2.79-1.94-4.12-2.38-.8-.26-1.58-.49-2.59-.65-.99-.16-2.03-.23-2.9-.38-2.89-.5-4.92-1.04-7.36-2.44-.36-.21-.6-.37-.93-.59-4.26-2.84-7.78-6.31-12.84-8.26-2.31-.89-4.35-1.89-6.34-3.24-.7-.48-1.27-.86-1.94-1.35l-9.41-8c-1.54-1.58-3.17-3.25-4.96-4.6-.99-.74-1.63-1.44-2.79-2.14-4.08-2.46-4.43-2.61-9.35-.37-1.41.64-2.79,1.58-3.9,2.58-.58.53-1.07.96-1.66,1.49-1.18,1.06-2.8,2.91-3.79,4.11-1.51,1.81-4.56,7.85-3.96,9.75.26.81.89,1.7,1.57,2.29,1.01.86,2.09,1.88,3.46,2.26.78.22,2.05.37,2.89.5l5.35,1.15c2.52.66,4.2,2.2,6.23,3.46.39.24.63.42,1.01.65l3.92,2.56c3.44,2.32,5.3,3.59,6.83,7.46,1.27,3.21,2.24,5.75,2.24,10.17ZM21.58,156.86c-.42,0-1.08.11-1.23.43-.3.66,1.13,4.5,1.38,5.25.35,1.07.6,2.18.97,3.31l1.13,3.17c1.61,4.43.03,12,5.51,12,2.66,0,2.5-2.77,2.59-4.88.09-2.08.27-3.81,1.47-5.64.79-1.2,1.72-2.01,2.89-2.86,2-1.47,1.41-1.13,3.04-2.61,1.05-.96,1.13-1.88,1.13-3.17s-2.59-3.46-3.78-4.38c-2.24-1.72-5.21-1.26-7.79-.68-5.31,1.19-3.69.07-7.29.07h0Zm13.05-26.36c0-2.92,1.81-6.79,1.81-7.08,0-.44-1.81-1.52-3.43-1.35-5.13.55-6.22,1.63-11.06,3.42-.64.24-1.23.43-1.92.59-.61.15-1.25.36-1.65.72-1.13,1.03-1.89,3.25-2.34,4.63-1.03,3.17-1.96,4.47-.97,7.35.14.4.23.52.39.93l1.86,4.37,3.2-2.7c2.83-2.52,4.58-3.85,7.48-6.05l4.38-3.27c.79-.56,1.44-1.09,2.25-1.58h0ZM.8,137.73c.67-2.14,1.89-4.91,2.83-6.98l1.19-2.41c1.04-1.98,1.57-6.03,1.99-6.57,1.06-1.34,14.34-9.28,17.01-10.72,2.79-1.51,15.61-8.06,17.13-8.06,1.79,0,7.6,5.02,8.88,6.18.42.38.7.52,1.1.87,1.22,1.05,3.65,3.48,4.54,4.63,1.67,2.17,1.4,2.11,1.16,3.23-.24,1.14-.58,3.7-.27,4.67.89,2.84-.21,4.58-2.05,6.71-.27.31-.33.35-.6.62-1.32,1.33-2.79,3.16-4.07,4.47-.22.23-.42.36-.65.58l-4.48,4.1c-.73.5-1.94,1.68-2.55,2.35-.41.45-.74.83-1.17,1.27-.55.56-1.78,2.1-1.78,3.05,0,.75-.05,1.17,1.8,1.17,2.6,0,4.4.45,6.89.77,4.91.63,8.01.67,10.71,4.31.72.97,1.27,1.85,1.6,3.21.64,2.64.99,6.34.71,9.38l.15,2.85c.56,3.73.82,8.08-1.33,11.29-.48.72-1.04,1.33-1.62,2.03-2.1,2.52-2.82,2.73-6.95,3.97-5.15,1.54-3.33.86-8.09,3.06l-2.53,1.21c-.9.45-1.7.72-2.6,1.15-.83.4-1.58.79-2.41,1.2-6.86,3.36-7.69,7.68-14.34,3.21-3.1-2.09-4.24-3.88-6.29-6.65-.76-1.02-2.07-2.65-2.07-4.3,0-2.95.65-4.27.65-6.27,0-4.75-.07-7.76-1.94-11.96-1.36-3.07-.9-2.72-2.8-5.85-3.49-5.74-4.5-5.85-7.48-12.55-.83-1.87-1.09-2.96-1.09-5.18,0-1.46.43-2.86.8-4.04Zm103.76-17.93c-1.16,0-.85-.24-1.88.05-.69.19-.95.47-1.44.59.01.57.19.78.42,1.14.26.42.3.52.49,1.07.7,1.97,1.87,5.02,2.77,6.75.38.73.67,1.4,1.02,2.12.82,1.73,1.77,5.1,4.56,5.1,2.33,0,3.91-1.75,5-2.9l2.22-2.54c1.66-1.82,4.54-4.96,6.73-6.03,1.3,2.49-.16,7.8-.83,10.33-.31,1.16-.52,2.49-.99,3.55-.46,1.04-1.13,6.6-1.23,7.79-.16,1.97-.41,6.97-.62,8.35l-.47,4.16c-.25,2.69-.72,5.31-.97,8.02-.6,6.35-1.64,13.44-2.78,19.74-.27,1.5-.53,2.65-.53,4.35,0,2.07,4.31,1.53,6.77,1.53,3.11,0,4.94-.59,7.56-1.05,3.25-.58,2.72-.37,6.04.24,1.18.21,2.37.48,3.31.9,1.06.47,1.79.87,2.76,1.41,1.18.65,2.11,1.32,3.27,1.32s.69-2.75.69-2.93c-.16-4.8-.56-5.18-2.01-9.87-.66-2.13-1.84-7.23-2.27-9.64l-.67-3.33c-.42-3.76-.01-2.37-1.18-6.69-1.46-5.41.62-8.51.62-13.95,0-1.58,2.93-9.3,4.1-10.6.67-.75,1.42-6.28,2.16-6.81,3.76-2.68,4.05-4.09,8.9-.55l3.93,2.88c.72.5,1.37.87,2.11,1.36,1.03.68,2.07,1.69,3.1,2.12,2.13.87,3.85-.09,5.42-1.37,2.82-2.3,5.83-7.91,7.74-9.69.61-.56.82-.77,1.57-1.23.68-.42,1.17-.69,1.9-1.06.58-.29,1.43-.75,1.27-1.49-.32-1.4-2.5-3.52-4.95-3.86l-8.51-.43c-.89,0-1.96-.16-2.77-.25-1.7-.18-3.55-.53-5.02-.98l-6.7-2.24c-2.31-.79-3.84-1.86-5.83-2.91-2.97-1.57-4.9-2.64-8.13-3.72-3.81-1.28-7.16-1.8-10.98-.03-1.22.57-2.3,1.14-3.47,1.77-2.41,1.32-4.37,2.31-6.71,3.75-1.14.7-2.1,1.22-3.41,1.83-1.56.72-3.92,1.84-5.54,2.28-2.11.57-3.81,1.63-6.52,1.63Zm91.98,35.54c1.23,0,2.77-.64,2.01-2.54l-1.64-3.06c-3.54-4.09-2.03-7.46-5.53-4.91-.32.23-.4.37-.69.61-1.59,1.29-.95.91-2.08,1.98-.48.46-.81.87-1.21,1.41-.84,1.14-1.46,2.02-2.18,3.27l-1.95,3.38c2.53,0,4.33-.42,6.81-.42s3.88.28,6.47.28h0Zm-47,21.57l3.29-2.46,1.43-1.63c3.08-3.78,2.06-2.68,4.09-6.38.2-.36.3-.6.48-1,.34-.72.6-1.35.93-2.05,2.84-5.88,2.62-8.43,4.53-11.99,1.49-2.77,1.7-2.34,3.81-3.58,2.64-1.56,2.08-2.65,3.73-5.07,1.13-1.67,3.94-4.82,5.51-6.31l4.48-4.21c1.5-1.15,3.52-3.11,4.85-3.79,2.54-1.3,3.75-.09,5.21.71.88.48,1.82.88,2.81,1.31.98.43,1.95.86,2.92,1.21,4.51,1.63,5.46.53,9.73,2.83,4.52,2.44,7.39,1.51,3.29,6.15-2.17,2.45-1.64,3.92-1,6.79.79,3.52,1.22,6.9,2.19,10.34.64,2.26,1.1,4.41,1.76,6.66l1.41,4.94c.65,3.33,2.56,4.38,3.61,6.95.81,1.97.04,2.68-2.05,4.06-2.35,1.56-4.56,3.12-7.21,4.35-1.34.62-3.58,1.18-5.01,1.88-.48.23-1.1.49-1.57.68-4.24,1.73-8,4.07-11.88,6.61-.52.34-.98.57-1.5.93-1.4.99-3.08,2.49-4.3,2.39-1.4-.12-1.66-1.31-1.25-2.69.33-1.1,5.5-10.1,6.85-12.43.56-.96,1.17-2.05,1.67-3.08,4.96-10.13,2.25-7.51-1.48-8.11l-4.63-.36c-1.61,0-3.09-.35-4.29-.68-1.24-.33-2.71-.73-4.23-.73-1.94,0-2.17.77-3.59,2.9l-2.17,4.06c-2,4.16-3.94,8.8-5.91,12.89-2.41,5.04-3.72,9.72-8.65,9.72-3.37,0-4.98.36-6.55-2.89l-1.8-5.08-2.29-9.74c-.1-.3-.44-.83-.39-1.29.11-1.09,2.31-2.24,3.14-2.79Zm-74.91-74.98-53.55-17.12c2.07-.26,4.68-5.16,6.04-7.1.17-.25.28-.43.47-.64,1.42-1.6,1.74-2.32,3.78-3.8.45-.33.89-.58,1.37-.93l1.83-1.48.96-1.28c1.24-2.33,1.2-4.43,1.96-7.33.71-2.71,1.75-5.18,2.88-7.69.24-.54.4-.92.62-1.46.12-.28.22-.47.34-.76.13-.29.18-.47.31-.78l1.71-4.61c1.74-5.49,1.24-12.79-3.8-16.23-1.89-1.29-6.04-2.83-8.16-2.81-4.56.04-8.37,3.78-11.63,6.24l-.86.63c-.61.54-.89,2.22-.91,3.2-.14,4.89-.25,5.81.17,11.02.47,5.78-.04,10.66-.02,16.18,0,.89-.02,1.73-.03,2.7l-.02,8.14c0,2.6-.56,9.24,2.97,8.8h0ZM2.74,25.41l1.5-1.96c2.09-2.2,4.51-2.66,7.53-3.63,3.6-1.15,7.72-3.73,10.5-6.23l4.87-4.01c3.2-2.57,7.73-5.08,12.08-3.9,1.71.46,1.92.8,3.58,2.25,6.66,5.83,11.42,11.31,15.2,19.96,1.62,3.72,2.21,8.4,2.58,12.26.11,1.18.35,2.55.36,3.63l-2.09,15.2c-.77,5.18-2,9.35-3.84,14.09-.89,2.28-1.8,3.86-2.8,5.91l-.23.42s-.03.05-.04.07l-1.72,2.78c-.15.23-.16.3-.34.54-2.9,3.93-3.73,5.13-7.29,8.34l-2.19,1.78c-1.61,1.23-6.6,4.88-7.99,6.12-.36.32-.71.56-1.09.9-.4.36-.7.62-1.1.98l-3.12,2.79c-1.89,1.69-6.42,6.3-9.18,6.94-1,.23-1.51.15-2.23-.42-1.86-1.45-2.33-10.09-2.51-11.73-.29-2.7-.46-5.2-.8-7.89l-1.65-12.15c-.16-1.41-.32-2.67-.46-3.99-.14-1.33-.2-2.53-.29-3.87-.09-1.29-.16-2.61-.17-3.79-.02-1.28-.06-2.49-.07-3.72-.02-5.79.02-13.75-1.25-19.23-.23-.99-1.49-4.93-2.18-5.72l-.23-.24c-.18-.24-.33-.61-.51-.88-.94-1.33-2.13-.86-2.97-3.18-.62-1.7-1.64-3.29-1.75-3.72-.21-.89,1.44-3.97,1.87-4.71Zm81.68,14.85c0,8.47,1,11.54,5.27,18.62,4.02,6.66,6.05,13.16,7.73,20.84l1.68,7.78c.8,4.09,1.73,9.1,2.96,12.97.47,1.48,1.01,3.27,2.31,3.97,1.17.63,2.79.61,4.16.62.58,0,.82.11,1.49.1,2.19-.01,4.11.09,6.17.2,4.7.23,8.09,1.81,11.68-2.46.2-.23.27-.29.45-.54,3.58-4.78,3.64-11.17,4.8-16.9.44-2.2.83-4.35,1.33-6.54l2.19-9.56c1.28-5.12,2.68-10.18,4.65-15.06.37-.92.7-1.84,1.11-2.77l2.39-5.47c.42-.9.91-1.79,1.29-2.69.22-.52.36-.81.6-1.29,1.76-3.49,3.33-7.13,5.18-10.55,2.03-3.77,4.43-7.27,7.16-10.56,1.49-1.8,2.11-3.04.05-4.58-1.6-1.19-6.43-2.78-8.76-3.78-2.76-1.19-5.51-1.72-8.73-1.72-1.62,0-2.54.59-3.36,1.42l-2.23,2.55c-.37.46-.67.87-1.04,1.35l-4.25,5.4c-.2.24-.39.37-.58.61-.23.29-.29.37-.56.64l-2.32,2.46c-.71.92-1.91,1.84-2.7,2.78l-3.09,3.48c-.37.46-.67.89-1,1.39-2.14,3.22-3.12,6.55-3.89,10.55-.92,4.79-1.87,12.42-1.87,17.45,0,4.32.69,7.92,1.23,11.92.28,2.11.93,7.74.33,9.85-.19.68-.31.94-.86,1.23-1.83-1.23-5.73-6.95-6.67-8.36-1.49-2.24-2.96-4.61-4.25-7l-1.86-3.72c-.24-.47-.37-.8-.6-1.29-1.25-2.67-2.28-5.43-3.07-8.28-1.53-5.49-2.17-9.2-2.17-15.06,0-1.3,1.98-4.94,2.75-6.11,2.73-4.16,5.69-8.14,8.76-12.05l5.19-6.76c1.54-2.05,1.62-3.13,1.62-5.85,0-1.22-.33-1.89-1.28-2.21-2.85-.95-7.09-.01-9.76.43-1.02.17-1.98.43-3.07.61-.93.15-2.3.38-3.41.37-1.08-.01-2.39.23-3.09.6-.41.21-.76.47-1.14.76-.42.32-.69.54-.83,1.06-.12.46-.16,1.07-.23,1.57-.14,1.04-.31,2.25-.65,3.13l-2.5,6.76c-2.1,5.38-4.71,11.89-4.71,17.69Zm88.32-2.62c6.4,1.49,11.47,6.84,14.28,15.07,2.76,8.09,3.01,18.04.7,28-2.31,9.97-6.9,18.79-12.93,24.84-5.82,5.84-12.33,8.45-18.44,7.44-.34-.06-.67-.12-1.01-.2-6.4-1.49-11.47-6.84-14.28-15.07-2.76-8.09-3.01-18.04-.7-28,2.31-9.97,6.9-18.79,12.93-24.84,6.14-6.16,13.04-8.73,19.45-7.25Zm-15.43,37.02c1.15,3.04,3.12,5.02,5.55,5.58,2.42.56,5.07-.35,7.44-2.57,2.46-2.31,4.31-5.73,5.22-9.62,1.83-7.92-.86-15.33-6-16.52-.13-.03-.27-.06-.4-.08-5.03-.83-10.47,4.56-12.25,12.27-.9,3.89-.74,7.78.46,10.94Zm-82.67,115.73s28.18,5.3,32.04-.88c3.86-6.18,5.72-13.82,4.05-15.83s-8.71-.12-13.69.51-11.43.77-14.55,1.64-9.03-5.79-9.03-5.79l-1.38-12.42s9.73-2.97,15.58-4.71c5.85-1.73,11.78-2.74,11.78-2.74,0,0,1.73-8.62-1.65-8.19s-13.31-.03-13.31-.03l-11.98,1.53s-5.03-11.77,1.98-11.89c7-.13,23.22-3,23.22-3,0,0,6.27-11.11,1.72-13.5-4.55-2.38-17.81-4.89-17.81-4.89,0,0-5.04-3.06-11.47,5.17s-10.64,27.55-10.64,27.55c0,0,6.73,46.21,15.16,47.48Z"/>
</svg>