<?xml version="1.0" encoding="UTF-8"?>
<svg id="Layer_1" data-name="Layer 1" xmlns="http://www.w3.org/2000/svg" viewBox="0 0 737.33 607.25">
   <defs>
    <linearGradient id="goldGradient" x1="0%" y1="0%" x2="100%" y2="0%">
      <stop offset="0%" style="stop-color: #a96f44; stop-opacity: 1" />
      <stop offset="100%" style="stop-color: #bc8e71; stop-opacity: 1" />
    </linearGradient>
  </defs>
   <path fill="url(#goldGradient)" d="m363.8,353.89c-7.6-7.28-11.5-12.62-16.33-22.28-3.32-6.64-6.49-12.6-9.08-19.79-1.29-3.57-2.77-6.88-4.03-10.59-4.14-12.18-6.59-20.73-10.1-33.01-6.75-23.66-7.03-20.39-11.24-46.49-1.37-8.49-2.17-16.89-3.59-25.27-1.39-8.23-1.95-17.04-3.05-25.81-1.05-8.4-2.13-17.1-3.33-25.53-.61-4.24-1.1-8.48-1.46-13.16-.13-1.62-.29-4.73-.56-6.56l-1.66-34.33c0-7.03-.37-20.11-1.18-27.68-.95-8.8-1.36-17.58-1.43-27.44-.02-2.67-.89-4.09-1.44-6.06-1.52-5.45-3.21-10.99-5.27-16.09-.95-2.35-3.79-8.41-2.48-10.59,1.29-2.15,7.56-3.22,11.05-3.22,8.73,0,16.97,2.58,24.97,5.39,16.89,5.94,32,4.61,45.12,10.36,7.51,3.29,12.06,4.64,13.16,14.57,1.25,11.23-1.79,16.33-1.91,25.15-.09,6.88-1.68,18.08-2.55,25.19-1.62,13.2-1.29,10.9-4.4,23.34-2.22,8.87-3.54,18.24-3.54,27.57,0,12.69,3.99,28.63,7.05,40.93.66,2.66,1.04,4.96,1.81,7.56,1.2,4.04,2.79,9.74,6.51,12.23,3.51-1.86,3.2-3,5.71-5.54.96-.97,1.93-1.78,2.8-2.82,3.94-4.71,8.13-11.03,10.86-16.5,3.69-7.39,6.28-15.58,9.99-23l10.87-22.11c2.35-4.72,12.22-20.6,14.12-24.87,2.4-5.39,6.75-13.99,6.75-20.24,0-5.29-4.1-11.96-4.14-29.23-.01-5.67.25-9.65,7.39-6.27,2.01.95,3.38,1.89,5.59,2.66,6.46,2.23,14.03,1.79,19.92,4.07,4,1.54,6.52,3.91,9.91,6.21,5.42,3.67,15.99,7.55,19.54,12.33,2.23,3,4.12,8.23,3.45,12.27-.72,4.38-3.83,6.69-6.19,9.96-2.27,3.14-3.99,6.57-6.49,9.63l-10.87,13.12c-4.67,5.52-13.57,17.29-16.87,23.24-.98,1.76-1.85,3.44-2.88,4.99-5.42,8.14-9.98,16.97-14.37,25.74-1.02,2.05-1.64,3.5-2.62,5.62-.93,2.01-1.81,3.21-2.75,5.12-1.8,3.63-3.86,6.48-5.48,10.27-3.2,7.49-7.07,14.46-10.28,21.96-4.09,9.57-11.24,25.02-14.22,33.76-4.49,13.2-10.94,36.75-13.66,50.44-1.81,9.09-4.54,17.22-5.59,26.65-.75,6.73-1.5,11.65-1.5,18.74,0,9.69,1.88,8.03-4.39,15.48-3.42,4.07-7.73,7.01-13.61,7.01-6.18,0-8.22-3.44-12.03-7.08ZM52.72,112.83c0,2.41.37,3.08.39,5.23.02,1.94-.08,3.22.2,5.05l1.29,20.45c.03,5.27,1.68,23.43,2.22,30.39,1.08,14.05,1.98,25.7,3.7,39.78.84,6.85,6.49,51.57,8.69,56.16,1.2-.32,2.46-1.63,3.47-2.53l6.87-5.13c5.81-4.17,7.77-7.3,11.87-11.37l5.85-5.77c1.1-.89,2.03-1.57,3.14-2.48l4.88-4.12c.52-.46.82-.8,1.32-1.31,2.02-2.04,3.78-3.78,5.82-5.81l10.03-13.21c2.36-3.55,6.09-11.71,7.2-16.04,2.79-10.96,1.97-9.44,3.67-19.57,1.18-7.04,2.7-12.13,3.73-19.51,1.19-8.54,1.01-18.27-.09-26.86-1.18-9.13-1.23-21.94-6.2-28.66-6.56-8.86-17.15-16.81-29.3-16.81s-19.57,1.83-28.97,8.89c-3.82,2.87-15.87,12.32-19.76,13.22h0Zm-10.64,232.92c-1.01-.56-1.48-1.11-2.2-1.92-1.27-1.43-2.14-3.37-2.75-5.49-1.23-4.25-1.85-8.79-2.61-13.51-1.62-10.16-3.38-17.52-5.38-27.23-.93-4.52-2.07-8.88-3-13.49-1.41-7.01-5.47-35.49-6-42.36l-3.57-37.29c-1.2-8.59-1.96-20.41-2.89-29.34-.24-2.31-.5-4.94-.72-7.52l-2.11-22.25c-1.26-9.61,1.07-2.33-2.59-13.53-2.04-6.25-3.27-13.16-4.6-19.77-1.32-6.61-2.75-9.37-3.52-12.62-.4-1.7.22-4.92.7-6.99,1.52-6.52,6.73-9.21,11.78-12.58,11.83-7.89,13.54-4.65,27.04-9.69,7.12-2.66,12.35-4.95,18.84-9.27,2.49-1.66,12.29-8.43,14.38-10.36.78-.72,1.29-1.32,2.05-2.07l11.11-8.76c5.74-4.3,7.59-6.48,15.1-9.27,9.07-3.36,22.07-9.41,31.49-8.38,3.57.39,8.34,3.32,11.32,4.83,2.79,1.41,7.09,4.9,9.62,6.88,1.51,1.17,2.98,2.6,4.49,3.76,10.06,7.68,12.8,9.65,18.75,21.73,1.74,3.53,3.33,7.98,4.81,11.68,8.26,20.68,9.91,18.87,12.03,44.57.11,1.32-.05,2.78.02,4.1.09,1.67.37,1.8.39,3.73.07,5.35-.02,10.77-.02,16.13,0,5.7.38,10.37.38,15.74,0,12.63-3.96,30.09-6.9,41.83-4.18,16.69-6.63,19.55-14.6,34.13-7.03,12.87-8.37,14.16-15.69,25.17l-4.96,7.03c-3.73,4.75-9.62,10.39-13.39,15.1-2.28,2.84-5.44,5.55-8.49,7.63-1.71,1.16-3.06,2.26-4.8,3.45-1.71,1.17-2.82,2.14-4.49,3.38-.9.68-1.51,1.13-2.36,1.77-5.38,4.03-10.75,8.21-15.51,12.97-6.34,6.34-11.2,8.87-18.22,14.02-7.06,5.19-12.75,8.15-19.77,12.84-4.62,3.08-15.98,12.22-20.02,12.22-.56,0-2.6-.69-3.14-.98Zm563.54-177.07c0,8.34-3.72,15.29-6.24,23-4.96,15.19-9.24,41.12-12.54,57.56-2.23,11.12-3.28,27.24-5.18,36.8-1.54,7.78-2.54,16.13-4.66,23.45-1.1,3.77-2.02,7.01-3.09,10.78-2.1,7.39-6.53,29-6.53,35.83,0,6.08,3.5,8.88,8.51,10.98,4.34,1.83,10.1,3.47,15.52,3.98,6.26.58,11.44,1.93,17.59,1.9l23.48,1.08c1.08-.09,1.66-.25,3.87-.32,3.69-.12,6.87-1.23,9.99-2.01.83-.21,1.46-.17,2.22-.4,3.5-1.05,3.67-8,3.27-10.8-1.16-8.24.82-4.41-2.36-17.15-1.31-5.23-3.05-10.64-4.02-15.84-2.19-11.76-7.98-65.5-7.97-80.12l-1.07-23.3c-.18-1.63,0-3.54-.04-5.21l-.38-9.36c.03-6.12-.59-12.33.04-18.69.32-3.23.7-5.67,4.45-5.67s10.9,5.53,13.45,7.55l23,18.98c6.62,5.4,15.12,12.06,21.87,3.3.79-1.03.95-1.12,1.75-2l10.87-11.62c.88-.87,1.15-.94,2.05-1.7,9.14-7.64,14.87-18.46,18.62-29.74,1.32-3.98,2.61-7.05,3.74-11.25,2.14-7.93,2.43-26.99-1.92-33.96-1.92-3.08-7.88-6.09-11.66-7.46-2.27-.82-4.48-1.53-7.33-2.04-2.79-.5-5.75-.71-8.19-1.18-8.18-1.58-13.92-3.26-20.82-7.67-1.02-.65-1.7-1.16-2.64-1.86-12.06-8.92-22.01-19.81-36.31-25.92-6.54-2.79-12.31-5.94-17.94-10.17-1.99-1.5-3.61-2.71-5.49-4.25l-26.62-25.11c-4.36-4.95-8.97-10.2-14.04-14.45-2.79-2.33-4.61-4.51-7.9-6.72-11.55-7.73-12.53-8.2-26.45-1.18-4,2.02-7.9,4.96-11.02,8.1-1.65,1.66-3.03,3.03-4.69,4.68-3.33,3.32-7.91,9.14-10.72,12.89-4.26,5.68-12.9,24.63-11.21,30.6.73,2.56,2.52,5.34,4.45,7.18,2.85,2.7,5.92,5.89,9.78,7.09,2.2.68,5.81,1.17,8.18,1.57l15.13,3.61c7.12,2.08,11.89,6.9,17.63,10.86,1.11.76,1.8,1.33,2.85,2.03l11.09,8.03c9.73,7.28,14.99,11.28,19.32,23.41,3.6,10.07,6.32,18.05,6.32,31.91ZM102.95,479.43c-1.22,0-3.15.34-3.57,1.37-.88,2.13,3.29,14.54,3.99,16.95,1.02,3.45,1.74,7.04,2.82,10.68l3.28,10.22c4.68,14.3.1,38.75,15.98,38.75,7.71,0,7.25-8.95,7.51-15.76.25-6.72.78-12.29,4.27-18.19,2.29-3.89,4.99-6.47,8.38-9.24,5.81-4.73,4.1-3.66,8.81-8.44,3.03-3.08,3.27-6.05,3.27-10.22s-7.51-11.18-10.98-14.14c-6.5-5.55-15.11-4.08-22.61-2.21-15.39,3.86-10.71.22-21.14.22h0Zm37.86-85.09c0-9.42,5.25-21.91,5.25-22.87,0-1.41-5.25-4.91-9.95-4.35-14.87,1.76-18.05,5.27-32.08,11.05-1.85.76-3.58,1.38-5.58,1.92-1.78.48-3.63,1.15-4.79,2.33-3.28,3.31-5.48,10.5-6.78,14.96-2.98,10.22-5.69,14.44-2.81,23.71.4,1.29.68,1.69,1.13,3l5.38,14.11,9.28-8.71c8.22-8.13,13.27-12.43,21.71-19.52l12.7-10.54c2.3-1.79,4.19-3.51,6.54-5.08h0Zm-66.95-38.83l10.5-7.5c9.41-6.23,17.12-11.69,27.23-17.75,9.56-5.72,19.26-11.16,29.22-16.14,4.26-2.13,15.53-8.62,18.37-8.62,5.19,0,22.06,16.21,25.77,19.96,1.21,1.23,2.03,1.68,3.2,2.8,3.54,3.4,10.6,11.23,13.17,14.94,4.86,7,4.07,6.83,3.38,10.43-.71,3.68-1.67,11.94-.79,15.09,2.57,9.17-.61,14.78-5.96,21.65-.79,1.01-.97,1.12-1.75,2-3.83,4.3-8.09,10.2-11.82,14.42-.65.74-1.21,1.15-1.88,1.87l-12.99,13.25c-2.11,1.63-5.63,5.41-7.39,7.6-1.18,1.46-2.16,2.68-3.4,4.09-1.6,1.82-5.16,6.77-5.16,9.83,0,2.43-.15,3.78,5.23,3.76,7.54-.03,12.77,1.46,19.99,2.5,14.24,2.05,23.22,2.16,31.08,13.9,2.1,3.14,3.69,5.99,4.64,10.36,1.85,8.51,2.88,20.47,2.07,30.28l.43,9.2c1.61,12.03,2.37,26.07-3.87,36.44-1.39,2.31-3.01,4.31-4.7,6.55-6.09,8.12-8.18,8.82-20.17,12.82-14.93,4.98-9.67,2.76-23.47,9.89l-7.34,3.91c-2.6,1.45-4.94,2.31-7.53,3.71l-13.99,8.12c-6.7,4.45-13.28,12.37-20.62,12.37-7.79,0-19.02-9.76-23.95-15.79-2.58-3.16-.99-1.6-1.37-3.54-.11-.58-1.37-3.11-1.68-3.9-.55-1.38-.82-2.7-1.35-4.28-.97-2.9-1.76-5.67-2.61-8.63l-24.37-88.08c-3.08-12.28-5.15-24.51-7.74-37.24-2.53-12.45-4.6-25.01-6.82-38.17-.56-3.35-1.1-6.61-1.61-9.64-.98-5.84-1-8.65-2.19-14.67-.39-1.94-.84-2.64-.91-4.71-.38-10.48-3.01-6.38,3.86-11.52l16.16-11.95c1.58-1.05,5.62-3.75,7.35-3.9,1.02,2.12.93,5.85.38,8.25,1.83-1.22,3.43-2.61,5.4-3.97Zm151.29,9.6c0,11.74,1.81,27.68,4.21,38.89.77,3.62,1.58,7.5,2.38,11.49,1.56,7.78,2.03,16.41,3.32,24.42l3.28,20.74-.06,9.8c.02,2.79-.4,3.94-.38,6.74.03,5.02-.3,8.73-.35,13.51l-2.42,25.32c-.57,4.2-.99,8.32-1.66,12.21-1.34,7.8-2.32,16.4-3.84,23.9-.38,1.88-.73,4.19-1.04,6.08-.88,5.27-2.19,9.75,2.26,12.63,5.23,3.39,6.34,1.4,7.32,1.37l15.08,2.47c16.42,3.27,34.38,5.6,51.67,9.06,13.78,2.76,36.87,6.9,50.1,10.25,25.56,6.49,21.85,6.68,28.18-24.75,1.91-9.49,3.35-14.87,5.56-23.68,2.47-9.88,3.6-6.89-1.28-16.64l-7.55-17.19c-3.67-9.05-8.56-6.23-17.25-2.73l-14.68,6.69c-2.02,1.03-3.37.91-5.46,1.67-1.62.59-3.32,1.33-5.15,1.97-7.82,2.74-46.13,14.85-50.37,14.85,0-7.44-4.12-33.47-4.12-41.23,11.98-2.79,22.81-8.47,33.99-13.24,5.76-2.46,26.34-1.38,33.55-.32,3.29.48,6.31,1.34,7.22-1.65,1.57-5.15-1.46-24.71-2.03-31.28-.25-2.86-.5-5.81-.92-8.83-2.06-15.03.69-19.44-27.21-6.91-2.31,1.04-4.37,2.12-6.69,3.06-10.63,4.3-3.29,4.54-23.78,1.56-3-.44-5.69-.76-8.51-1.24-2.77-.47-5.9-1.12-9-1.12v-38.98c0-4.26,8.01-4.87,11.25-4.87,4.17,0,7.81,3.83,10.5,5.62l5.48-2.01c2.11-.63,4.1-1.09,6.29-1.58,6.05-1.36,6.18-.59,10.19-1.08,3.87-.47,13.87,2.85,17.07-6.15,1.57-4.4,2.11-8.61,3-13.87,2.59-15.44,4.79-16.39,5.64-19.85.43-1.76-2.95-4.77-5.03-7.1-5.54-6.22-16.22-18.88-21.11-25.37-1.42-1.88-4.16-5.51-6.17-6.57-10.02-5.29-36.38,13.79-45.19,20.39-5.62,4.21-9.43,7.13-15.6,11.01-9.06,5.7-16.38,12.27-25.72,18.52-1.23.83-4.95,2.59-4.95,4.05Zm263.52-145.44c0,5.02.92,10.35,2.11,14.38,2.59,8.72,9.32,14.57,19.1,12.83,11.07-1.97,21.45-14.1,26.7-22.79,7.21-11.95,9.86-25.14,4.41-38.76-2.16-5.41-6.3-11.26-11.92-12.82-6.89-1.91-8.05-2.22-12.08.52l-10.81,9.8c-.86.89-1.05,1.33-1.87,2.25-7.25,8.15-15.65,22.55-15.65,34.58h0Zm-52.91,51.29c.98-8.02,1.71-14.23,3.28-22.59,2.77-14.82,9.37-39.39,15.15-53.82,5.17-12.91,13.06-28.38,20.12-40.23,5.14-8.61,11.58-17.43,17.73-25.37l16.05-18.44c1.01-1.63,2.29-3.74,3.92-4.7,5.02-2.97,11.42-2.23,16.73-.43,1.2.41,2.27.76,3.58,1.29,5.05,2.04,12.35,3.88,17.5,5.74,4.92,1.77,8.39,4.03,12.4,6.72,7.45,4.98,13.58,12.61,16.74,21.12,1.71,4.6,2.82,9.7,4.18,14.57,1.44,5.17,2.97,9.26,3.91,15.2,1.59,10.03,1.71,15.12,1.71,25.28s-3.89,27.77-6.15,38.08c-1.76,8-4.24,15.12-6.43,22.81-2.29,8.03-3.58,14.72-6.3,22.94l-8.11,21.5c-2.6,5.92-6.25,14.3-9.9,19.34-.58.8-1.03,1.39-1.63,2.12l-5.07,5.8c-2.3,2.75-4.87,4.71-7.48,7.14-2.77,2.58-5.63,3.84-8.58,6.03-4.93,3.66-13.59,9.05-20.18,9.05-5.19,0-16.34-4.79-21.62-7.24l-13.99-6.63c-6.94-3.43-16.43-6.63-24.07-8.54-5.28-1.32-8.71-1.31-11.84-4.66-1.3-1.39-2.15-3.59-2.31-5.94-.61-8.73-1.89-10.17-1.89-22.47s1.45-14.57,2.56-23.68Zm-68.54,108.02c-3.14,0-2.32-.7-5.1.14-1.87.56-2.58,1.39-3.9,1.74.04,1.66.52,2.28,1.14,3.35.72,1.24.81,1.53,1.34,3.16,1.89,5.8,5.06,14.76,7.51,19.85,1.03,2.15,1.83,4.12,2.76,6.24,2.23,5.09,4.81,15,12.36,15,6.32,0,10.61-5.14,13.58-8.54l6.03-7.46c4.5-5.34,12.32-14.59,18.25-17.73,3.52,7.33-.42,22.93-2.24,30.37-.84,3.42-1.41,7.32-2.68,10.44-1.25,3.05-3.08,19.4-3.34,22.9-.44,5.79-1.1,20.5-1.69,24.55l-1.27,12.22c-.68,7.9-1.95,15.62-2.64,23.59-1.62,18.68-4.44,39.52-7.54,58.06-.74,4.42-1.44,7.78-1.44,12.8,0,6.07,11.7,4.5,18.37,4.5,8.44,0,13.4-1.73,20.52-3.1,8.81-1.7,7.37-1.09,16.38.69,3.19.63,6.42,1.41,8.97,2.65,2.86,1.39,4.85,2.56,7.48,4.14,11.72,7.02,11.72,5.67,10.35-13.35-.37-5.16-2.6-11.55-3.94-16.3-2.29-8.12-7.79-32.54-9.06-41.91-.21-1.57-.01-3.02-.25-4.63-1.4-9.74-1.81-11.18-4.56-20.93-1.56-5.54-2.91-10.32-4.5-15.74-1.29-4.38.26-14.24.58-18.98.82-12.16,3.64-23.7,6.46-34.03,1.08-3.96,5.95-7.28,9.58-10.66,1.02-.94,1.68-1.36,2.63-2.24,3.34-3.11,10.59-9.88,14.2-11.67,5.34-2.65,8.89,0,13.8,3.72,4.42,3.36,6.32,5.54,11.45,9.16,1.96,1.38,3.87,2.8,5.93,4.19,7.08,4.82,11.76,13.26,23.78,2.64,7.64-6.75,15.81-23.27,20.99-28.49,1.64-1.66,2.22-2.26,4.26-3.61,1.84-1.22,3.16-2.02,5.14-3.1,1.58-.86,3.89-2.2,3.43-4.38-.86-4.12-6.79-10.36-13.44-11.34l-23.1-1.26c-2.41,0-5.32-.47-7.52-.72-4.62-.53-9.63-1.56-13.61-2.89l-18.17-6.57c-6.26-2.31-10.43-5.46-15.82-8.55-8.05-4.6-13.28-7.75-22.05-10.94-10.35-3.76-19.43-5.29-29.79-.08-3.32,1.67-6.24,3.34-9.4,5.22-6.54,3.87-11.86,6.79-18.21,11.03-3.09,2.06-5.69,3.59-9.25,5.37-4.24,2.12-10.64,5.42-15.04,6.7-5.71,1.67-10.33,4.79-17.7,4.79Zm252.27,100.46c3.41,0,7.51-1.7,4.89-6.77l-5.36-8.14c-10.9-10.88-7.62-19.87-16.63-13.06-.82.62-1.01.98-1.76,1.61-4.06,3.44-2.4,2.43-5.23,5.27-1.21,1.21-2.02,2.32-2.99,3.76-2.03,3.03-3.5,5.36-5.17,8.7l-4.5,9c7,0,11.88-1.12,18.74-1.12s10.82.75,17.99.75h0Zm-124.37,57.43l8.44-6.55,3.53-4.34c7.53-10.08,4.98-7.14,9.63-16.98.45-.96.66-1.61,1.07-2.67.75-1.93,1.29-3.6,2.04-5.46,6.29-15.64,5-22.44,9.33-31.91,3.37-7.38,4.09-6.22,9.58-9.53,6.9-4.16,5.06-7.05,8.98-13.51,2.69-4.44,9.61-12.84,13.57-16.79l11.28-11.21c3.85-3.07,8.93-8.28,12.41-10.08,6.69-3.45,10.35-.25,14.63,1.89,2.57,1.29,5.28,2.33,8.14,3.48,2.83,1.13,5.62,2.29,8.4,3.22,12.92,4.33,15.26,1.4,27.7,7.53,13.16,6.49,20.85,4.02,10.75,16.38-5.34,6.53-3.5,10.42-.96,18.06,3.12,9.36,5.21,18.36,8.84,27.52,2.38,6.01,4.23,11.74,6.64,17.72l5.23,13.14c2.7,8.86,8.26,11.66,11.86,18.5,2.76,5.24.83,7.12-4.58,10.8-6.09,4.15-11.8,8.31-18.79,11.57-3.55,1.66-9.6,3.15-13.37,4.99-1.27.62-2.92,1.3-4.18,1.82-11.27,4.61-21.07,10.84-31.13,17.6-1.36.91-2.57,1.51-3.89,2.48-3.61,2.64-7.86,6.63-11.26,6.36-3.91-.32-4.95-3.48-4.17-7.16.62-2.92,12.52-26.9,15.65-33.09,1.29-2.55,2.68-5.45,3.8-8.19,11.04-26.98,4.21-19.99-6.27-21.58l-12.91-.96c-4.45.01-8.64-.94-12.07-1.8-3.53-.89-7.71-1.95-11.92-1.95-5.37,0-5.8,2.06-9.16,7.71l-4.93,10.82c-4.43,11.08-8.57,23.41-12.91,34.32-5.33,13.41-7.7,25.87-21.36,25.87-9.34,0-13.68.96-18.91-7.7l-6.33-13.53-8.93-25.93c-.35-.81-1.44-2.22-1.44-3.44,0-2.9,5.79-5.97,7.95-7.42ZM218.4,111.7c-1.96,4.09-1.18,7.85-1.52,11.98l-2.22,25.14c-.49,9.82-2.72,27.09-3.72,37.51-.81,8.41-2,16.36-3.25,24.49-1.25,8.1-2.4,15.59-4.12,23.24-4.73,21.06-8.38,34.42-14.27,54.7-1.36,4.69-2.38,7.92-2.38,12.99,0,7.97,11.52,16.15,17.78,20.83l16.76,12.48c7.24,5.46,9.62,4.44,16.91-2.85,2.65-2.65,5.22-4.84,7.87-7.5,2.31-2.31,5.32-5.73,7.72-7.65l16.23-14.51c5.28-4.27,12.12-9.31,17.96-12.78,8.12-4.83,7.52-8.44,5.32-19.23-.69-3.41-1.29-6.47-1.93-9.68-3.64-18.25-6.29-30.68-8.96-49.51-1.59-11.18-3.85-31.73-4.19-42.67-.11-3.45-.88-7.44-1.11-10.88-.62-9.2-3.08-21.15-4.92-30.32-.96-4.77-1.47-6.7-1.47-12.03,0-3.04,2.47-7.12-8.25-7.12s-24.06,5.43-33.73,5.28c-1.47-.02-4.28-.49-5.56-.84-3.57-.98-2.66-1.59-4.94-1.06Zm-14.99-44.98c0,6.45-.03,11.58,2.74,17.5,1.75,3.73,3.33,6.52,6.78,8.59,8.23,4.94,17.06,1.7,25.62.05,13.4-2.59,18.9.76,25.12-5.99,5.25-5.7,8.33-16.17,8.33-24.28,0-5.81-3.73-11.14-5.21-15.78-1.68-5.27-2.41-11.95-3.1-18.26-1.05-9.65-3.71-14.37-13.26-18.22-10.78-4.34-17.3-.96-24.44,6.25-8.6,8.7-14.84,18.19-18.69,29.66-1.78,5.29-3.89,13.73-3.89,20.48Z"/>
</svg>