<?xml version="1.0" encoding="UTF-8"?>
<svg id="Layer_1" data-name="Layer 1" xmlns="http://www.w3.org/2000/svg" viewBox="0 0 1080 1080">
  <defs>
    <style>
      .cls-1 {
        fill: #a883bb;
        stroke-width: 0px;
      }
    </style>
  </defs>
  <path class="cls-1" d="m612.7,392.05c-19.68,6.79-39.78,12.3-60.21,16.31-55.83,10.96-158.81,28.98-221,26.47-88.58-3.58-177.07-11.75-190.61-10.05-53.89,6.74-95.95,87.97-103.75,153.52-3.75,31.49,15.24,61.2,45.41,70.93,6.31,2.03,13.49,3.99,21.66,5.78,60.88,13.38,264.4,43.44,373.86,36.94,109.46-6.5,321.55-19.78,355.62-18.4,34.07,1.38,240.23-33.99,221.99-89.33-18.24-55.35-50.7-133.11-109.96-168.27-59.26-35.16-93.77-25.63-181.9-40.11-61.2-10.06-120.57,5.67-151.13,16.21Z"/>
</svg>