<svg xmlns="http://www.w3.org/2000/svg" xmlns:xlink="http://www.w3.org/1999/xlink" width="1080" zoomAndPan="magnify" viewBox="0 0 810 809.999993" height="1080" preserveAspectRatio="xMidYMid meet" version="1.0"><defs><clipPath id="283e5a37c0"><path d="M 20 4.273438 L 790 4.273438 L 790 806 L 20 806 Z M 20 4.273438 " clip-rule="nonzero"/></clipPath></defs><g clip-path="url(#283e5a37c0)"><path fill="#BE6FCA" d="M 405 805.648438 C 363.769531 805.648438 329.65625 763.699219 292.417969 751.574219 C 253.867188 739.019531 201.6875 752.410156 169.570312 729.015625 C 137.148438 705.394531 133.910156 651.46875 110.292969 619.046875 C 86.894531 586.929688 36.460938 567.347656 23.90625 528.796875 C 11.78125 491.558594 40.613281 446.210938 40.613281 404.980469 C 40.613281 363.75 11.78125 318.402344 23.90625 281.164062 C 36.460938 242.613281 86.894531 223.03125 110.292969 190.914062 C 133.910156 158.492188 137.148438 104.5625 169.570312 80.945312 C 201.6875 57.550781 253.867188 70.941406 292.417969 58.386719 C 329.65625 46.257812 363.765625 4.3125 405 4.3125 C 446.230469 4.3125 480.34375 46.257812 517.578125 58.386719 C 556.132812 70.941406 608.3125 57.550781 640.429688 80.945312 C 672.851562 104.5625 676.089844 158.492188 699.707031 190.914062 C 723.101562 223.03125 773.539062 242.613281 786.09375 281.164062 C 798.21875 318.402344 769.386719 363.746094 769.386719 404.980469 C 769.386719 446.210938 798.21875 491.554688 786.09375 528.792969 C 773.539062 567.347656 723.105469 586.929688 699.707031 619.046875 C 676.089844 651.46875 672.851562 705.394531 640.429688 729.015625 C 608.3125 752.410156 556.132812 739.019531 517.582031 751.574219 C 480.34375 763.699219 446.230469 805.648438 405 805.648438 Z M 405 805.648438 " fill-opacity="1" fill-rule="nonzero"/></g></svg>