<?xml version="1.0" encoding="UTF-8"?>
<svg id="Layer_1" data-name="Layer 1" xmlns="http://www.w3.org/2000/svg" xmlns:xlink="http://www.w3.org/1999/xlink" viewBox="0 0 1128 272">
  <defs>
    <style>
      .cls-1 {
        clip-path: url(#clippath);
      }

      .cls-2 {
        fill: none;
      }

      .cls-2, .cls-3, .cls-4 {
        stroke-width: 0px;
      }

      .cls-5 {
        clip-path: url(#clippath-1);
      }

      .cls-3 {
        fill: #aa7950;
      }

      .cls-4 {
        fill: #ebebeb;
      }
    </style>
    <clipPath id="clippath">
      <rect class="cls-2" x="-3" width="1131" height="272"/>
    </clipPath>
    <clipPath id="clippath-1">
      <rect class="cls-2" x="0" y="-11" width="1127.99" height="377"/>
    </clipPath>
  </defs>
  <g class="cls-1">
    <g class="cls-5">
      <g>
        <path id="Vector" class="cls-3" d="m1234.92-17.68c-21.92,7.19-45.48,9.3-67.62,15.94-29.74,8.91-58.6,20.71-88.24,30-27.82,8.71-56.35,15.13-84.2,23.73-24.98,7.71-50.48,11.68-76.35,13.71-25.64,2.01-50.44-4.47-75.34-9.1-26.19-4.88-51.69-15.11-78.99-11.24-23.22,3.29-46.35,7.36-69.41,11.64-21.45,3.98-42.59,9.99-64.17,12.74-22.65,2.89-45.65,3.08-68.51,4.25-13.91.71-18.96-3.15-21.69-16.55-2.56-12.59-8.79-22.57-20.95-27.35-15.14-5.95-30.27-13.65-46.07-15.85-49.93-6.97-99.79-8.21-149.28,6.22-16.66,4.86-35.07,5.81-52.58,5.27-38.46-1.18-76.84-4.67-115.28-6.78-29.42-1.62-58.99-1.44-88.3-4.16C43.85,12.52,19.93,7.68-3.89,3.09-26.29-1.22-47.49-11.24-70.88-11c-1.34.01-2.7-.38-4.03-.71-32.04-8-64.89-10.05-97.57-10.22-37.63-.2-79.42,2.79-117.06,5.05v6.71c44.89-6.18,94.21-5.19,139.21-3.9,24.9.71,49.75,5.57,74.45,9.56C-55.48-1.21-34.71,1.71-15.21,8.12c29.71,9.77,59.69,18.02,90.72,20.46,21.91,1.73,44.12-.58,66.2-.55,23.72.03,47.46.07,71.14,1.22,26.15,1.27,52.26,5.58,78.34,5.2,18.81-.28,37.45-6.78,56.33-9.2,19.09-2.45,38.34-3.84,57.57-5.05,11.93-.75,23.91-.96,35.81.12,6.84.62,15.96-.89,20.69,4.22.83.9,1,2.26.5,3.38-5.05,11.38-20.48,5.82-30.36,11.35-16.38,9.17-32.28,19.33-47.69,30.07-22.55,15.72-47.9,23.37-74.54,27.52-12.91,2.01-24.65-1.07-35.24-9.56-24.99-20.04-54.36-23.52-84.61-18.64-31.98,5.16-63.41,13.82-95.45,18.51-42.95,6.28-85.56,6.3-124.44-18.2-12.35-7.78-25.02-15.9-38.69-20.49-13.45-4.52-28.29-5.29-42.61-6.8-32.29-3.4-64.61-8.28-96.97-8.66-25.15-.3-55.18,5.29-81.03,9.05v16.07c28.46-7.15,61.32-7.58,90.34-4.4,15.44,1.69,31.11,1.15,46.64,2.2,22.31,1.51,44.63,3.2,66.87,5.49,13.46,1.39,22.93,11.34,25.08,26.28,1.55,10.74,2.11,21.7,2.11,32.57,0,18.85-11.49,27.7-30.12,23.99-30.39-6.05-59.15-16.67-87.48-29.11-29.59-12.99-61.01-20.4-92.78-26.18-5.1-.93-14.95-2.97-20.66-3.4v17.15c3,1.08,10.3,2.87,13.12,4.11,16.16,7.11,31.66,14.45,49.68,14.86,5.57.13,11.47,1.47,16.55,3.74,6.34,2.84,6.82,8.45,2.99,14.19-.59.88-1.18,1.74-1.78,2.59-18.66,26.12-48.87,31.7-80.55,24.05v12.55c6,1.43,16.75,1.74,21.99,4.58,7.14,3.87,7.98,11.51,2.09,17.09s-17.21,11.22-24.09,16.62v4.98c26.98-12.86,59.65-23.25,89.06-27.73,16.35-2.49,33.24-1.42,48.78-8.68,9.62-4.5,19.25-9.22,29.32-12.45,12.61-4.04,25.54-7.48,38.58-9.62,12.04-1.98,23.23,2.43,32.99,9.57,26.29,19.23,56.05,36.14,87.01,49.41h45.46c9.87-12.39,22.27-23.2,37.61-27.85,3.73-1.13,8.61-1.8,11.96-.36,19.2,8.25,39.32,18.96,59.28,28.21h248.35c8.81-1.51,18.57-3.72,27.23-5.86,27.77-6.87,55.41-14.27,83.15-21.27,21.64-5.46,43.25-11.12,65.08-15.74,10.55-2.24,17.59,1.86,18.02,8.04.3,4.38-8.45,9.65-16.24,11.11-7.99,1.49-15.74,4.24-23.6,6.41-18.39,5.08-38.01,11.8-56.06,17.31h402.9c-21.69-3.81-45.95-9.19-67.7-12.59-29.81-4.66-59.78-3.5-89.85-2.54-17.27.55-34.65-2.9-52-4.35-21.68-1.81-43.44-2.88-65.01-5.52-3.32-.41-6.99-2.01-10.05-4.5-3.29-2.67-3.18-8.03.08-10.74.67-.56,3.89-1.32,4.44-1.31,33.81.91,64.98,2.53,98.78,3.88,5.45.22,10.94.67,16.37.31,37.58-2.5,74.26,2.01,111.09,9.97,29.21,6.31,59.42,8,89.22,11.53,8.92,1.06,17.84,2.1,26.77,3.14,30.66,3.58,61.48,8.83,93.01,12.72h14.89c-.98-2.34-3.12-5.33-3.93-7.27-5.52-13.24-3.95-18.52,9.23-24.64,20.92-9.71,42.73-13.87,66.06-10.8,22.64,2.97,44.5,7.97,64.97,18.19,9.06,4.52,15.64,12.83,16.4,24.52h32.23c19.09-6.19,37.88-14.81,57.33-19.48,23.3-5.59,47.16-8.84,71.48-13.02,0-4.28.02-7.09.02-11.25-6.17-2.73-12.28-3.28-17.59-6.54-10.21-6.27-8.89-18.61,2.16-23.46,2.32-1.02,4.77-1.72,7.34-2.34,2.57-.62,5.26-1.15,8.04-1.82h0c0-4.19.07-7.72.06-11.91-19.56,1.1-37.76,6-56.33,11.8-1.99.63-3.98,1.26-5.96,1.92-.32.11-.64.21-.97.32-2.81.95-5.62,1.92-8.42,2.93-28.15,10.15-56.68,19.4-85.44,27.67-16.29,4.68-32.8,2.07-46.84-8.15-3.51-2.56-6.67-8.73-6.13-12.71.45-3.3,6.18-7.33,10.29-8.46,38.38-10.52,76.74-21.24,115.47-30.37,27.59-6.51,55.73-10.67,84.31-15.83,0-5.6.05-9.87.02-15.56-23.88,3.6-46.94,8.49-70.88,12.03-12.1,1.79-22.8-3.11-29.6-13.73-8.24-12.86-6.29-26.2.48-38.86,9.84-18.39,26.6-25.92,46.56-26.98,9.41-.5,18.89.44,28.34.67,4.07.1,8.14.17,12.3.25s8.4.16,12.8.27c0-3.05,0-4.99,0-8.18-8.91.56-17.18,3.22-25.98,3.09-4.56-.07-8.43-4.78-10.01-8.22-1.63-3.54.45-11.87,4.19-14.59,10.18-7.38,20.03-10.2,31.81-16.13,0-7.06.02-13.28-.02-20.69-10.69.85-19.99,3.91-29.17,8.76-.12.07-.25.13-.37.2-1.49.79-2.95,1.65-4.4,2.52-.95.57-1.88,1.17-2.8,1.79,0,0,0,0,0,0-1.55,1.04-3.08,2.12-4.58,3.26-15.2,11.51-29.34,24.5-45.03,35.27-9.67,6.63-20.99,11.59-32.28,14.92-9.43,2.79-18.27-1.48-23.56-10.58-3.28-5.65-6.32-11.44-9.32-17.24-3.56-6.89-1.78-12.67,4.19-17.25,2.35-1.81,4.84-3.61,7.53-4.79,40.32-17.63,76-42.45,110.39-69.52,2.15-1.69,4.42-3.22,6.78-4.66,2.36-1.44,4.8-2.77,7.3-4.07,5-2.59,10.2-5.02,15.32-7.74h0s0,0,0,0c.03-3.25,0-5.48,0-9.13-10.4,4.83-20.99,8.99-29.67,15.77-28.66,22.38-58.27,43.45-90.31,60.5-21.76,11.58-44.81,21.36-68.24,29.05ZM-221.23,183.06c-3.27,6.19-17.18,12.62-24.27,9.65-.18-.08-1.17-.53-1.49-.75-.07-.04-.71-.51-1.03-.88-4.73-5.49-1.72-9.99,4.03-12.33,5.37-2.18,11.15-4.11,16.86-4.47,5.42-.34,8.1,4.61,5.9,8.77Zm95.83-22.46c-14.46,2.54-29.03,4.5-43.59,6.51-11.06,1.52-22.13,3.14-33.26,3.91-3.59.25-9.07-1.01-10.59-3.47-1.8-2.92-1.07-8.14.06-11.91,1.13-3.77,4.16-6.96,6.27-10.45,6.95-11.45,15.93-18.79,29.01-17.93,1.98.1,4.05.37,6.24.84,12.25,2.96,24.06,5.85,35.76,8.81,3.39.86,6.76,1.72,10.13,2.58,5.56,1.44,10.63,4.17,10.74,10.67.11,6.72-5.3,9.49-10.77,10.45Zm836.08-91.47c.36-3.35,6.13-7.71,10.2-8.75,11.05-2.81,22.48-4.12,33.78-5.97,28.03-4.59,55.37.07,82.77,5.63,21.34,4.34,42.82,9.54,64.42,10.54,19.92.93,40.17-2.53,60.08-5.38,13.41-1.92,25.31,2.54,27.57,13.51,2.99,14.53-3.17,26.65-16.64,31.87-23.71,9.18-47.53,8.16-71.55,4.02-48.61-8.38-97.12-17.37-145.65-26.19-2.93-.53-5.73-1.76-9.25-2.79-7.63-1.97-14.71-4.28-21.85-5.76-1.12-.23-2.24-.44-3.36-.63-6.45-1.06-11.1-4.69-10.52-10.1ZM-54.93,109.06c.11-2.58.43-3.76.94-6.08.44-2,4.05-2.95,5.24-1.28,1.4,1.97,2.88,4.22,3.72,6.41,2.1,5.5,4.07,11.98,4.05,17.86,0,2.11-2.79,4.91-4.14,5.11-2.64.39-6.74-2.11-7.44-4.24-.39-1.19-.68-2.42-.9-3.67-.64-3.72-1.11-4.46-1.59-8.73-.16-.89.09-4.49.12-4.77,0,0,0,0,0-.01,0,0,0-.54,0-.6Zm13.82,48.57c-3.62-.77-7.58-2.06-10.29-4.39-2.51-2.17-4.93-3.45-5.77-6.8-.38-1.52.54-5.53,1.73-6.58,3.1-2.76,3.57-1.79,7.4-3.03.98-.32,4.66-.74,5.96-.38,1.54.24,3.15,1.95,3.2,2.02.13.05,2,2.37,2.1,2.52,3.57,5.08,2.6,4.16,3.89,8.48,1.77,5.95-2.1,9.47-8.22,8.17Zm389.11,47.12c-1.95,3.35-6.75,6.41-10.69,6.93-6.33.82-13.02-1.36-19.41-.76-7.27.69-14.63,2.34-21.5,4.83-11.18,4.05-21.39,2.35-31.48-2.93-8.6-4.5-16.82-5.33-26.59-1.74-21,7.74-40.61-.38-51.04-19.13-3.9-7.02-2.79-13.35,2.33-18.71,6.19-6.48,12.37-13.41,19.83-18.15,16.94-10.75,29.64-27.8,49.86-33.6,4.44-1.27,8.94-2.55,13.49-3.19,15.29-2.14,23.42,3.61,30.62,17.3,7.91,15.04,17.45,29.12,27.43,42.37,4.71,5.55,7.98,8.77,11.52,12.28,1.21,1.2,2.35,2.43,3.41,3.73,2.15,2.64,3.62,8.32,2.2,10.76Zm456.34-47.2c-12.54.66-25.11,1.63-37.65,1.35-30.84-.68-61.67-1.86-92.49-3.08-17.18-.68-34.37-2.88-51.51-2.48-12.91.3-25.95,2.78-38.57,5.82-45.04,10.83-89.57,24.13-135,32.84-25.81,4.95-53.2,6.18-78.87-5.33-17.71-7.94-33.73-17.8-44.61-34.15-.76-1.13-1.51-2.3-2.23-3.5-1.44-2.72-2.89-5.26-4.22-7.76-.53-.98-1.03-1.95-1.5-2.91-.03-.05-.05-.11-.08-.16-.56-1.15-1.08-2.3-1.54-3.47-5-12.55-1.04-21.41,11.7-25.55,9.58-3.11,19.83-4.45,29.04-8.33,13.44-5.66,27.42-11.27,39.05-19.77,27.14-19.85,56.83-32.38,90.09-35.94,8.04-.86,16.74,1.04,24.64,3.34,6.33,1.84,10.34,6.92,11.89,14.27,4.97,23.6,18.49,33.98,42.79,34.51,20.8.45,40.97-1.25,61.46-6.58,29.51-7.67,59.7-5.42,88.89,3.93,20.21,6.48,40.39,13.23,60.08,21.11,15.69,6.28,26.91,18.36,34.62,33.32,2.88,5.6-.72,8.24-5.96,8.52Zm134.22,34.1c-1.95-.12-2.44-.13-7.06-.73-3.82-.58-6.78-1-8.73-1.26,0,0-6.51-.89-9.63-1.81-.05-.01-.58-.17-1.3-.38-.46-.13-.83-.24-1.05-.3-.15-.05-.33-.11-.54-.18,0,0-.41-.15-.81-.31-1.15-.44-2.68-1.18-4.24-2.42-2.48-1.98-6-6.05-4.99-8.53.72-1.77,3.69-2.08,9.6-2.61,11.62-1.05,17.98-.71,28.52-.92,6.56-.13,11.36,2.43,11.63,9.61.29,7.62-5.61,10.21-11.4,9.86Zm125.72,2.04c-1.38,9.24-9.07,15.47-18.63,14.38-19.49-2.23-38.94-4.88-58.42-7.23-7.02-.85-14.16-.88-21.09-2.15-6.69-1.23-11.51-8.89-10.95-15.95.62-7.7,6.32-10.19,12.56-10.28,11.44-.17,22.89.68,34.34,1.11.21.02.42.05.63.07.04,0,.09,0,.13,0,5.21.58,10.32,1.12,15.4,1.67,2.2.23,4.38.47,6.54.7.79.09,1.59.17,2.38.26,3.75.41,7.46.83,11.14,1.26.05,0,.09.01.14.02,3.86.46,7.69.94,11.52,1.46,9.88,1.35,15.4,7.53,14.32,14.69Zm20.39-23.35c-14.75,2.37-29.84-2.09-44.77-3.12-17.9-1.24-35.79-2.77-53.71-3.26-28.37-.77-56.75-.77-85.13-1.09-.08,0-.16-.01-.24-.02-.18,0-.35,0-.53,0-9.81-.82-19.31-1.62-28.71-2.43-1.03-.09-2.05-.18-3.07-.27-1.37-.12-2.74-.24-4.1-.36-3.53-.31-7.04-.62-10.54-.93-12.13-1.09-16.7-4.44-24.47-12.38-3.91-4-4.66-14.72.57-17.77,6.7-3.9,14.22-3.37,21-3.51,17.54-.35,32.78-.16,50.12,2.17,26.06,3.5,52.5,3.05,78.26-2.17,24.52-4.97,49.31-1.59,73.18,5.41,3.67,1.08,7.55,5.25,9.11,8.92,3.71,8.76,9.73,13.48,18.93,14.66,1.88.24,4.37.56,6.69,1.74,2.65,1.35,4.31,2.42,5.61,5.06.92,1.87.32,4.7-1.16,5.93-2.68,2.22-4.37,2.99-7.03,3.42Zm202.94-115.19c10.94,1.61,16.22,8.15,18.13,20.01,2.05,12.76-1.12,21.08-11.06,26.45-5.47,2.95-11.67,4.54-17.37,7.13-27.25,12.4-54.45,24.93-81.66,37.42-2.91,1.34-5.84,2.67-8.78,4.02-4.75,2.17-4.66,2.55-9.41,4.72-.07.01-3.33,1.5-3.4,1.51-.07.03-2.15.84-2.63.98-.66.19-3.55.92-4.23,1.03-7.02,1.24-10.13,2.01-16.59,1.47-10.44-.88-14.36-11.43-6.56-18.23,7.81-6.81,16.88-13.22,26.52-16.67,18.94-6.77,35.01-17.04,49.62-30.62,12.55-11.66,26.07-22.31,39.44-33.06,8.15-6.56,18.14-7.6,27.99-6.15Zm-16.85-37.55c-.82,3.26-3.71,6.52-6.5,8.69-18.05,14.03-36.75,27.24-54.45,41.7-24.28,19.83-47.81,40.56-71.73,60.83-17.55,14.87-37.68,18.96-59.73,13.18-2.64-.69-6.12-4.2-6.42-6.72-1.25-10.69-7.65-17.44-16.91-19.92-14.12-3.78-28.68-6.35-43.22-7.93-7.77-.85-12.4-3.86-14.42-10.73-2.37-8.07-4.54-16.28-5.71-24.58-1-7.08,3.36-12.24,9.85-14.28,14.52-4.58,29.27-8.41,43.89-12.66,7.83-2.28,15.58-4.8,23.37-7.21,24.47-8.81,47.53-18.8,71.27-25.94,2.52-.76,5.04-1.49,7.58-2.18,32.01-8.68,64.88-14.29,97.51-20.51,12.47-2.38,28.72,15.96,25.62,28.26Z"/>
        <path class="cls-3" d="m1422.51,98.93c-71.62.35-143.1,17.85-206.74,50.62-16.13,8.31-32.29,17.75-50.3,20.03-15.67,1.98-31.51-1.67-47.3-1.3-15.79.37-33.3,6.34-39.82,20.69-2.99,6.59-3.57,14.68-8.96,19.52-5.59,5.02-14.07,4.51-21.54,3.64-168.04-19.44-338.91-65.43-503.64-27.04-39.68,9.25-78.83,23.38-119.57,23.7-40.74.32-85.12-17.09-102.02-54.07-7.69-16.82-11.22-38.75-28.35-45.81-13.05-5.38-27.72.99-40.37,7.24-31.43,15.55-66.17,35.02-74.73,68.95-1.18,4.69-1.93,9.79-5.17,13.4-10.4,11.6-28.19-4.02-43.72-5.55-12.75-1.25-23.93,7.71-35.93,12.18-25.52,9.51-53.62-1.61-78.74-12.12-100.29-41.96-199.69-76.43-305.14-103v132.07l1712.67.39-.63-123.54Z"/>
        <rect class="cls-3" x="0" y="218" width="1131" height="54"/>
      </g>
    </g>
  </g>
  <polyline class="cls-3" points="876 168 876 200.12 1078 228 1087 193 1072 181 964 167"/>
  <path class="cls-4" d="m295.36,160.5c-4.94,5.12-16.08,5.88-23.2,5.48-35.88-2.03-68.11-4.4-86.03-4.42-53.79-.05-42.32,1.83-76.31,3.67-18.18.99-55.66,2.32-74.29,1.73-27.01-.85-32.11-13.77-28.34-19.97,7.09-11.67,26.33-19.12,36.83-23.4,16.71-6.81,50.73-15.36,68.5-19.23,24.54-5.35,42.52-9.16,83.7-8.19,16.82.39,27.75,1,42.46,5.72,3.61,1.16,13.13,6.03,13.2,6.05.14.05.48.24.63.31,15.64,7.14,27.85,17.7,38.92,30.53,5.48,6.34,9.52,15.96,3.95,21.73Z"/>
</svg>