<?xml version="1.0" encoding="UTF-8"?>
<svg id="Capa_1_copy_2" data-name="Capa 1 copy 2" xmlns="http://www.w3.org/2000/svg" viewBox="0 0 1044.02 211.21">
  <defs>
    <style>
      .cls-1 {
        fill: #aa7950;
        stroke-width: 0px;
      }
    </style>
  </defs>
  <path id="Vector" class="cls-1" d="m929.27,64.37c-13.36,4.4-27.72,5.68-41.22,9.74-18.13,5.45-35.72,12.66-53.79,18.33-16.96,5.32-34.35,9.25-51.33,14.5-15.23,4.71-30.77,7.14-46.54,8.38-15.63,1.23-30.75-2.73-45.92-5.56-15.97-2.98-31.51-9.24-48.15-6.87-14.16,2.01-28.25,4.5-42.31,7.12-13.07,2.43-25.96,6.11-39.12,7.79-13.8,1.77-27.83,1.88-41.76,2.6-8.48.43-11.56-1.93-13.22-10.12-1.56-7.7-5.36-13.8-12.77-16.72-9.23-3.64-18.45-8.34-28.09-9.69-30.44-4.26-60.83-5.02-91,3.8-10.15,2.97-21.38,3.55-32.05,3.22-23.44-.72-46.84-2.85-70.27-4.14-17.94-.99-35.96-.88-53.82-2.54-14.7-1.37-29.27-4.33-43.8-7.13-13.65-2.63-26.57-8.76-40.83-8.61-.82,0-1.65-.23-2.45-.43-19.53-4.89-39.55-6.14-59.48-6.25-22.94-.12-48.41,1.71-71.35,3.09v4.1c27.36-3.78,57.43-3.17,84.86-2.38,15.18.44,30.32,3.4,45.38,5.85,12.43,2.02,25.09,3.8,36.98,7.72,18.11,5.97,36.38,11.01,55.3,12.5,13.36,1.05,26.9-.35,40.35-.34,14.46.02,28.93.04,43.36.75,15.94.78,31.86,3.41,47.75,3.18,11.47-.17,22.83-4.14,34.34-5.62,11.64-1.5,23.37-2.35,35.09-3.08,7.27-.46,14.57-.59,21.83.07,4.17.38,9.73-.55,12.61,2.58.51.55.61,1.38.31,2.07-3.08,6.96-12.49,3.56-18.5,6.94-9.99,5.6-19.68,11.81-29.07,18.38-13.75,9.61-29.2,14.28-45.44,16.82-7.87,1.23-15.03-.65-21.48-5.84-15.23-12.25-33.14-14.38-51.58-11.39-19.49,3.15-38.66,8.45-58.18,11.31-26.18,3.84-52.15,3.85-75.85-11.12-7.53-4.76-15.25-9.72-23.58-12.52-8.2-2.76-17.24-3.23-25.97-4.16-19.68-2.08-39.39-5.06-59.11-5.29-15.33-.18-33.64,3.23-49.39,5.53v9.82c17.35-4.37,37.38-4.63,55.07-2.69,9.41,1.03,18.97.71,28.43,1.35,13.6.92,27.2,1.95,40.76,3.35,8.2.85,13.98,6.93,15.29,16.06.94,6.56,1.29,13.27,1.29,19.91,0,11.52-7.01,16.93-18.36,14.66-18.52-3.7-36.06-10.19-53.33-17.79-18.03-7.94-37.19-12.47-56.55-16-3.11-.57-9.11-1.81-12.6-2.08v10.48c1.83.66,6.28,1.75,8,2.51,9.85,4.35,19.3,8.83,30.28,9.08,3.4.08,6.99.9,10.09,2.28,3.87,1.73,4.16,5.16,1.82,8.67-.36.54-.72,1.07-1.09,1.58-11.37,15.96-29.79,19.38-49.1,14.7v7.67c3.66.87,10.21,1.06,13.4,2.8,4.35,2.36,4.87,7.03,1.28,10.45s-10.49,6.86-14.68,10.16v3.04c16.44-7.86,36.36-14.21,54.29-16.95,9.97-1.52,20.26-.87,29.74-5.31,5.86-2.75,11.73-5.63,17.87-7.61,7.68-2.47,15.57-4.57,23.52-5.88,7.34-1.21,14.16,1.49,20.11,5.85,16.03,11.75,34.17,22.09,53.04,30.2h27.71c6.02-7.57,13.58-14.18,22.92-17.02,2.28-.69,5.25-1.1,7.29-.22,11.7,5.04,23.97,11.59,36.13,17.24h151.39c5.37-.92,11.32-2.27,16.6-3.58,16.93-4.2,33.78-8.72,50.69-13,13.19-3.34,26.37-6.79,39.67-9.62,6.43-1.37,10.72,1.14,10.98,4.91.19,2.68-5.15,5.9-9.9,6.79-4.87.91-9.59,2.59-14.38,3.92-11.21,3.1-23.17,7.21-34.18,10.58h245.6c-13.22-2.33-28.01-5.62-41.27-7.7-18.17-2.85-36.44-2.14-54.77-1.55-10.53.34-21.12-1.77-31.7-2.66-13.21-1.11-26.48-1.76-39.63-3.37-2.03-.25-4.26-1.23-6.13-2.75-2.01-1.63-1.94-4.91.05-6.57.41-.34,2.37-.81,2.7-.8,20.61.56,39.61,1.55,60.21,2.37,3.33.13,6.67.41,9.98.19,22.91-1.53,45.26,1.23,67.72,6.09,17.8,3.85,36.22,4.89,54.39,7.05,5.44.65,10.88,1.28,16.32,1.92,18.69,2.19,37.48,5.4,56.69,7.77h9.08c-.59-1.43-1.9-3.26-2.4-4.44-3.36-8.09-2.41-11.32,5.63-15.06,12.75-5.93,26.05-8.48,40.27-6.6,13.8,1.82,27.12,4.87,39.61,11.12,5.52,2.77,9.53,7.84,10,14.98h19.64c11.63-3.78,23.09-9.05,34.95-11.91,14.2-3.42,28.75-5.4,43.57-7.96,0-2.61,0-4.34,0-6.88-3.76-1.67-7.48-2.01-10.72-4-6.22-3.83-5.42-11.38,1.31-14.34,1.41-.62,2.91-1.05,4.47-1.43,1.57-.38,3.2-.7,4.9-1.11h0c0-2.56.04-4.72.04-7.28-11.92.67-23.02,3.67-34.34,7.21-1.21.38-2.43.77-3.63,1.17-.2.07-.39.13-.59.2-1.71.58-3.43,1.17-5.13,1.79-17.16,6.2-34.55,11.86-52.08,16.91-9.93,2.86-20,1.26-28.55-4.98-2.14-1.56-4.07-5.34-3.74-7.77.28-2.02,3.77-4.48,6.27-5.17,23.4-6.43,46.78-12.98,70.39-18.56,16.82-3.98,33.97-6.52,51.39-9.68,0-3.42.03-6.03.01-9.51-14.56,2.2-28.61,5.19-43.21,7.35-7.37,1.09-13.9-1.9-18.04-8.39-5.03-7.86-3.83-16.01.29-23.75,6-11.24,16.21-15.84,28.38-16.49,5.74-.31,11.52.27,17.28.41,2.48.06,4.96.1,7.5.15s5.12.1,7.8.16c0-1.86,0-3.05,0-5-5.43.34-10.47,1.97-15.84,1.89-2.78-.04-5.14-2.92-6.1-5.02s.27-7.26,2.56-8.92c6.21-4.51,12.21-6.23,19.39-9.86,0-4.32.02-8.12-.01-12.65-6.52.52-12.19,2.39-17.78,5.35-.08.04-.15.08-.23.12-.91.49-1.8,1.01-2.68,1.54-.58.35-1.14.72-1.71,1.09,0,0,0,0,0,0-.95.63-1.88,1.3-2.79,1.99-9.27,7.03-17.89,14.98-27.45,21.56-5.89,4.05-12.8,7.08-19.68,9.12-5.75,1.7-11.14-.9-14.36-6.47-2-3.45-3.85-6.99-5.68-10.54-2.17-4.21-1.09-7.74,2.55-10.54,1.44-1.1,2.95-2.2,4.59-2.93,24.58-10.77,46.33-25.95,67.29-42.49,1.31-1.03,2.69-1.97,4.13-2.85s2.93-1.69,4.45-2.49c3.05-1.58,6.22-3.07,9.34-4.73h0s0,0,0,0c.02-1.99,0-3.35,0-5.58-6.34,2.95-12.79,5.5-18.09,9.64-17.47,13.68-35.52,26.56-55.05,36.98-13.27,7.08-27.32,13.05-41.6,17.75ZM41.64,187.06c-1.99,3.79-10.47,7.71-14.79,5.9-.11-.05-.71-.33-.91-.46-.04-.03-.43-.31-.63-.54-2.88-3.36-1.05-6.11,2.46-7.53,3.27-1.33,6.8-2.51,10.28-2.73,3.3-.21,4.93,2.82,3.6,5.36Zm58.41-13.73c-8.82,1.55-17.7,2.75-26.57,3.98-6.74.93-13.49,1.92-20.27,2.39-2.19.15-5.53-.62-6.46-2.12-1.1-1.79-.65-4.97.04-7.28.69-2.3,2.53-4.25,3.82-6.39,4.23-7,9.71-11.49,17.68-10.96,1.21.06,2.47.23,3.8.51,7.47,1.81,14.67,3.58,21.8,5.39,2.06.52,4.12,1.05,6.17,1.58,3.39.88,6.48,2.55,6.54,6.52.07,4.11-3.23,5.8-6.56,6.39Zm509.65-55.91c.22-2.05,3.74-4.72,6.22-5.35,6.74-1.72,13.71-2.52,20.59-3.65,17.09-2.8,33.75.04,50.45,3.44,13.01,2.65,26.1,5.83,39.27,6.44,12.14.57,24.49-1.55,36.63-3.29,8.17-1.17,15.43,1.55,16.81,8.26,1.82,8.88-1.93,16.29-10.14,19.48-14.45,5.61-28.97,4.99-43.61,2.45-29.63-5.12-59.2-10.62-88.79-16.01-1.79-.33-3.5-1.07-5.64-1.71-4.65-1.2-8.96-2.62-13.32-3.52-.68-.14-1.36-.27-2.05-.39-3.93-.65-6.77-2.87-6.41-6.17Zm-415.39,19.95c.12-.12.23-.23.41-.36.13-.09.25-.21.52-.35.21-.11,1.01-.46,1.35-.56,1.2-.36,1.59-.29,2.7-.32,3.8-.13,6.47.42,10.28.48,4.97.08,9.94-.04,14.91-.07.09,0,.18.01.27.02.06,0,.12,0,.18,0,4.24.39,8.12.35,11.79,1.23,5.18,1.24,6.39,4.89,3.54,9.45-3.79,6.06-9.9,8.74-16.26,7.15-8.3-2.07-12.95-2.99-24.86-8.56-.39-.18-1.99-.84-3.07-1.92-.06-.06-.93-1.08-1.3-1.72-.16-.29-.28-.53-.35-.66-.43-.9-.44-.78-.7-1.91-.07-.33.08-1,.19-1.24.09-.2.09-.35.39-.65Zm-51.31,4.46c.07-1.58.26-2.3.57-3.72.27-1.23,2.47-1.8,3.19-.78.85,1.21,1.76,2.58,2.27,3.92,1.28,3.36,2.48,7.32,2.47,10.91,0,1.29-1.7,3-2.53,3.12-1.61.24-4.11-1.29-4.53-2.59-.24-.73-.41-1.48-.55-2.24-.39-2.27-.68-2.73-.97-5.34-.1-.55.05-2.74.07-2.91,0,0,0,0,0,0,0,0,0-.33,0-.37Zm8.42,29.68c-2.21-.47-4.62-1.26-6.27-2.68-1.53-1.32-3-2.11-3.51-4.16-.23-.93.33-3.38,1.05-4.02,1.89-1.68,2.17-1.09,4.51-1.85.6-.19,2.84-.45,3.63-.23.94.15,1.92,1.19,1.95,1.23.08.03,1.22,1.45,1.28,1.54,2.18,3.1,1.59,2.54,2.37,5.18,1.08,3.64-1.28,5.79-5.01,4.99Zm124.08,21.25c-2.8,3.47-6.93,3.69-10.5,1.76-10.52-5.69-20.84-2.26-31.05.42-21.21,5.58-39.8,1.3-55.62-13.97-7.44-7.18-14.84-14.54-18.42-24.57-1.89-5.29-3.41-10.77-4.39-16.29-.75-4.25,2.08-6.33,6.13-4.67,9.67,3.97,19.09,8.58,28.84,12.35,13.6,5.26,27.29,10.84,42.41,7.56,9.4-2.03,16.76,2.66,24.37,6.74.03.02.07.04.1.06.07.04.15.08.22.12,8.24,4.71,13.55,11.72,18.26,19.26,2.32,3.73,2.44,7.75-.36,11.21Zm-.88-22.5c-1.59-1.83-3.88-3.04-6.17-4.7-4.35-3.29-8.81-6-12.27-9.66-3.27-3.46-2.24-6.45,1.95-8.84,1-.57,2.13-1.08,3.19-1.37,14.46-3.96,27.79-9.82,41.64-14.85,7.57-2.75,15.52-4.23,23.42-2.17,3,.78,6.54,3.28,7.81,5.95,1.66,3.49-2.41,4.99-4.93,6.9-11.92,9.02-23.66,18.28-35.55,27.35-2.09,1.6-4.44,3-6.87,3.97-4.51,1.79-8.68,1.47-12.21-2.57Zm113.98,30.05c-1.19,2.05-4.12,3.92-6.51,4.23-3.86.5-7.93-.83-11.83-.46-4.43.42-8.92,1.43-13.11,2.95-6.82,2.48-13.04,1.44-19.19-1.79-5.24-2.75-10.25-3.26-16.21-1.06-12.8,4.73-24.75-.23-31.11-11.7-2.38-4.29-1.7-8.16,1.42-11.43,3.78-3.96,7.54-8.2,12.09-11.09,10.33-6.57,18.07-16.99,30.39-20.54,2.71-.78,5.45-1.56,8.23-1.95,9.32-1.31,14.27,2.2,18.67,10.57,4.82,9.19,10.64,17.8,16.72,25.9,2.87,3.39,4.86,5.36,7.02,7.51.74.73,1.43,1.49,2.08,2.28,1.31,1.62,2.21,5.08,1.34,6.58Zm278.17-28.85c-7.65.4-15.31.99-22.95.83-18.8-.41-37.59-1.13-56.38-1.88-10.47-.42-20.95-1.76-31.4-1.51-7.87.19-15.82,1.7-23.51,3.55-27.46,6.62-54.6,14.75-82.29,20.07-15.74,3.03-32.43,3.78-48.08-3.26-10.8-4.85-20.56-10.88-27.19-20.87-.47-.69-.92-1.4-1.36-2.14-.88-1.66-1.76-3.21-2.57-4.74-.32-.6-.63-1.19-.92-1.78-.02-.03-.03-.07-.05-.1-.34-.7-.66-1.41-.94-2.12-3.05-7.67-.63-13.09,7.13-15.62,5.84-1.9,12.09-2.72,17.7-5.09,8.2-3.46,16.71-6.89,23.8-12.09,16.54-12.13,34.64-19.79,54.91-21.97,4.9-.53,10.2.64,15.02,2.04,3.86,1.12,6.3,4.23,7.25,8.72,3.03,14.43,11.27,20.77,26.08,21.09,12.68.28,24.97-.77,37.46-4.02,17.99-4.69,36.39-3.31,54.19,2.4,12.32,3.96,24.62,8.09,36.62,12.9,9.56,3.84,16.41,11.22,21.1,20.37,1.76,3.42-.44,5.04-3.63,5.2Zm81.81,20.84c-1.19-.07-1.49-.08-4.3-.44-2.33-.35-4.14-.61-5.32-.77,0,0-3.97-.54-5.87-1.11-.03,0-.35-.11-.79-.23-.28-.08-.51-.15-.64-.18-.09-.03-.2-.07-.33-.11,0,0-.25-.09-.5-.19-.7-.27-1.63-.72-2.58-1.48-1.51-1.21-3.66-3.7-3.04-5.21.44-1.08,2.25-1.27,5.85-1.6,7.08-.64,10.96-.44,17.39-.56,4-.08,6.92,1.48,7.09,5.87.17,4.66-3.42,6.24-6.95,6.03Zm76.63,1.25c-.84,5.64-5.53,9.46-11.36,8.79-11.88-1.36-23.74-2.98-35.61-4.42-4.28-.52-8.63-.54-12.86-1.32-4.08-.75-7.02-5.44-6.67-9.75.38-4.71,3.85-6.23,7.65-6.29,6.97-.11,13.96.42,20.93.68.13.01.26.03.38.04.03,0,.05,0,.08,0,3.17.35,6.29.69,9.39,1.02,1.34.14,2.67.29,3.99.43.48.05.97.1,1.45.16,2.29.25,4.55.5,6.79.77.03,0,.06,0,.08,0,2.35.28,4.69.58,7.02.89,6.02.82,9.38,4.6,8.73,8.98Zm12.43-14.27c-8.99,1.45-18.19-1.27-27.29-1.91-10.91-.76-21.82-1.69-32.74-1.99-17.29-.47-34.59-.47-51.89-.67-.05,0-.1,0-.15-.01-.11,0-.22,0-.32,0-5.98-.5-11.77-.99-17.5-1.49-.63-.05-1.25-.11-1.87-.16-.83-.07-1.67-.14-2.5-.22-2.15-.19-4.29-.38-6.43-.57-7.4-.67-10.18-2.71-14.91-7.57-2.38-2.44-2.84-9,.34-10.86,4.09-2.38,8.67-2.06,12.8-2.14,10.69-.22,19.98-.1,30.55,1.33,15.88,2.14,32,1.86,47.71-1.33s30.06-.97,44.61,3.31c2.24.66,4.6,3.21,5.55,5.45,2.26,5.35,5.93,8.24,11.54,8.96,1.15.15,2.67.34,4.08,1.06,1.62.83,2.63,1.48,3.42,3.09.56,1.14.19,2.87-.71,3.62-1.64,1.36-2.66,1.83-4.28,2.09Zm123.71-70.4c6.67.99,9.89,4.98,11.05,12.23,1.25,7.8-.68,12.89-6.74,16.16-3.34,1.8-7.11,2.77-10.59,4.36-16.61,7.58-33.19,15.24-49.78,22.87-1.78.82-3.56,1.63-5.35,2.46-2.9,1.33-2.84,1.56-5.74,2.88-.04,0-2.03.92-2.07.92-.04.02-1.31.51-1.61.6-.4.12-2.17.56-2.58.63-4.28.76-6.17,1.23-10.11.9-6.37-.54-8.75-6.98-4-11.14,4.76-4.16,10.29-8.08,16.17-10.19,11.54-4.14,21.34-10.42,30.25-18.71,7.65-7.13,15.89-13.63,24.04-20.21,4.97-4.01,11.06-4.64,17.06-3.76Zm-10.27-22.95c-.5,1.99-2.26,3.99-3.96,5.31-11,8.57-22.4,16.65-33.19,25.48-14.8,12.12-29.15,24.79-43.73,37.18-10.7,9.09-22.97,11.59-36.41,8.06-1.61-.42-3.73-2.56-3.91-4.11-.76-6.53-4.66-10.66-10.31-12.17-8.61-2.31-17.48-3.88-26.34-4.85-4.74-.52-7.56-2.36-8.79-6.56-1.44-4.93-2.77-9.95-3.48-15.02-.61-4.33,2.05-7.48,6-8.73,8.85-2.8,17.84-5.14,26.75-7.74,4.77-1.39,9.5-2.93,14.24-4.41,14.92-5.38,28.98-11.49,43.44-15.85,1.54-.46,3.07-.91,4.62-1.33,19.51-5.3,39.55-8.73,59.44-12.54,7.6-1.45,17.5,9.76,15.61,17.27Z"/>
  <g id="Layer_5_copy_2" data-name="Layer 5 copy 2">
    <path class="cls-1" d="m1043.61,135.64c-43.66.21-87.23,10.91-126.02,30.94-9.84,5.08-19.68,10.85-30.66,12.24-9.55,1.21-19.21-1.02-28.83-.79s-20.3,3.87-24.27,12.65c-1.82,4.03-2.17,8.97-5.46,11.93-3.41,3.07-8.58,2.75-13.13,2.23-102.43-11.88-206.59-39.99-307-16.53-24.19,5.65-48.05,14.29-72.89,14.48-24.84.19-51.89-10.45-62.19-33.05-4.69-10.28-6.84-23.68-17.28-28-7.96-3.29-16.89.6-24.61,4.43-19.16,9.5-40.34,21.4-45.55,42.14-.72,2.87-1.18,5.98-3.15,8.19-6.34,7.09-17.18-2.46-26.65-3.39-7.77-.77-14.59,4.71-21.9,7.45-15.56,5.82-32.68-.98-48-7.41-61.14-25.65-121.73-46.71-186.01-62.95v80.72l1044,.24-.39-75.51Z"/>
  </g>
</svg>