<?xml version="1.0" encoding="UTF-8"?>
<svg id="Layer_2" data-name="Layer 2" xmlns="http://www.w3.org/2000/svg" viewBox="0 0 1128 272">
  <defs>
    <style>
      .cls-1 {
        fill: #b37648;
        stroke-width: 0px;
      }
    </style>
  </defs>
  <path class="cls-1" d="m1128,135.52v136.48H0V83.47c1.27,0,2.75.24,3.82.55,2.53.73,5.02,1.68,7.59,2.18,5.17,1,10.37,1.92,15.59,2.56,9.84,1.2,19.72,1.96,29.65,1.55,8.62-.36,17.23-.74,25.79-2.05,8.05-1.23,16.21-1.83,24.21-3.31,19.54-3.64,39.04-7.54,58.52-11.52,12.06-2.46,24.15-4.73,36.39-6.01,4.99-.52,10.05-.31,15.08-.41,6.83-.14,13.56.8,20.19,2.3,12.85,2.91,24.74,7.93,35.21,16.1,3.26,2.54,6.76,4.85,10.38,6.86,8.66,4.81,18.06,5.57,27.69,4.31,10.47-1.37,20.79-3.51,30.88-6.64,12.25-3.79,24.12-8.46,34.93-15.47,8.71-5.65,17.24-11.58,26.01-17.13,9.1-5.77,18.37-11.28,27.62-16.81,3.6-2.14,7.55-3.45,11.74-3.89,2.54-.27,5.09-.52,7.63-.77,4.5-.44,8.57-1.88,11.89-5.05,2.83-2.71,2.59-5.07-.79-7.11-.88-.53-1.85-.97-2.83-1.25-1.45-.41-2.95-.81-4.44-.91-4.22-.28-8.47-.22-12.68-.64-13.67-1.36-27.3-.65-40.94.34-11.15.81-22.31,1.68-33.44,2.71-7.79.72-15.59,1.51-23.31,2.75-7.72,1.24-15.35,3.04-23.01,4.64-12.95,2.7-26.04,4.34-39.27,3.8-10.69-.44-21.4-1.14-32.03-2.34-13.83-1.56-27.69-2.45-41.57-3.09-20.84-.96-41.7-1.21-62.56-.95-15.98.2-31.96.69-47.94,1.01-10.96.21-21.89-.27-32.77-1.7-13.16-1.73-26.13-4.47-38.98-7.77-8.04-2.07-16.25-4.33-24.27-6.48V3.95c1.53.03,3.29.32,4.62.59,7.67,1.56,15.31,3.26,23,4.68,5.42,1,10.92,1.54,16.35,2.47,12.7,2.18,25.52,3.29,38.36,4.02,15.63.89,31.29,1.36,46.94,2.06,14.92.67,29.85,1.29,44.77,2.13,12.28.69,24.55,1.66,36.83,2.51,5.26.36,10.52.77,15.78,1.08,6.3.38,12.62.49,18.91,1.05,15.95,1.41,31.91,1.79,47.9,1,2.79-.14,5.6-.15,8.37-.47,8.51-.99,16.79-3.1,25.09-5.15,10.15-2.5,20.31-5.03,30.59-6.94,13.85-2.57,27.91-3.44,41.99-3.59,10.23-.11,20.48-.21,30.68.4,12.83.76,25.62,2.23,38.42,3.42,9.22.85,18.09,3.22,26.66,6.59,8.61,3.4,17.1,7.11,25.58,10.82,6.88,3.01,12.15,7.88,15.84,14.43,2.06,3.65,3.13,7.65,4.11,11.7.74,3.09,1.67,6.16,2.83,9.11,1.45,3.7,4.24,6.19,8.11,7.22,2.22.59,4.54,1.09,6.82,1.08,6.07,0,12.15-.16,18.21-.51,13.96-.81,27.96-1,41.84-2.81,11.01-1.44,22.05-2.69,32.97-4.65,12.96-2.32,25.8-5.35,38.71-7.98,10.33-2.1,20.66-4.2,31.04-6.01,11.72-2.05,23.49-3.88,35.26-5.6,6.24-.91,12.52-1.73,18.81-2,10.03-.43,19.95.99,29.73,3.09,10.93,2.35,21.75,5.14,32.66,7.56,10.83,2.4,21.68,4.79,32.59,6.79,7.37,1.35,14.86,2.12,22.32,2.94,8.51.94,17.07,1.42,25.61.62,10.58-1,21.16-2,31.67-3.55,9-1.32,17.98-3.02,26.79-5.26,15.01-3.81,29.91-8.05,44.78-12.36,16.33-4.73,33-8.21,49.1-13.78,10.71-3.7,21.57-6.94,32.32-10.52,8.32-2.77,16.78-5.86,25.06-8.75v4.77c-2.52,1.22-5.25,2.15-7.64,3.03-11.53,4.25-23.05,8.52-34.59,12.74-9.07,3.31-18.04,6.94-27.27,9.75-16.11,4.9-32.39,9.24-48.57,13.91-3.67,1.06-7.36,2.23-10.81,3.84-5.85,2.74-8.44,7.88-7.16,14.18,1.45,7.1,3.32,14.12,4.93,21.19,1.8,7.87,6.84,11.95,14.73,12.79.24.03.47.08.71.1,8.06.56,16.01,1.95,23.93,3.44,7.06,1.33,14.1,2.72,20.9,5.14,7.49,2.67,11.89,8.01,14.06,15.45.4,1.38.65,2.81,1.15,4.15,1.12,3,3.05,5.1,6.34,5.94,9.32,2.36,18.75,3.11,28.27,1.76,7.52-1.07,14.77-3.57,21.01-8.03Zm-793.26,26.82c10.09,10.42,22.08,18.05,35.25,23.98,11.2,5.04,23.01,7.79,35.18,8.71,11.74.89,23.5.04,35.12-1.87,9.06-1.49,18.04-3.41,27.04-5.26,13.77-2.83,27.48-5.85,41.06-9.51,11.64-3.13,23.43-5.73,35.02-9.01,18.29-5.18,36.7-9.85,55.35-13.5,11.1-2.17,22.3-3.16,33.61-2.65,5.43.24,10.84.69,16.27.95,15.8.75,31.61,1.49,47.42,2.17,14.13.61,28.26,1.25,42.4,1.7,19.48.63,38.98,1.53,58.46-.04,3.34-.27,6.7-.45,10.01-.97,3.98-.62,5.06-4.47,3.57-7.05-.36-.62-.6-1.3-.92-1.95-3.01-6.05-7.05-11.39-11.42-16.5-4.15-4.85-9.13-8.68-14.72-11.74-6.81-3.74-14-6.65-21.3-9.23-11.14-3.94-22.33-7.72-33.54-11.46-7.42-2.48-14.83-5.03-22.37-7.1-8.79-2.41-17.8-3.87-26.87-4.77-5.72-.57-11.47-1.07-17.21-1.07-10.99.02-21.79,1.85-32.51,4.14-7.11,1.52-14.18,3.2-21.33,4.46-13.03,2.31-26.21,2.75-39.41,2.62-5.04-.05-10.04-.42-15.03-1.19-13.14-2.03-22.11-9.35-27.4-21.34-1.06-2.4-1.7-4.97-2.53-7.47-1.08-3.25-2.05-6.54-3.24-9.76-1.47-3.98-4.35-6.68-8.31-8.08-5.28-1.87-10.71-3.27-16.33-3.58-11.42-.63-22.62.79-33.67,3.74-21.42,5.72-41.38,14.59-59.65,27.16-3.29,2.26-6.44,4.73-9.76,6.94-6.4,4.27-13.33,7.57-20.35,10.66-8.91,3.93-17.76,8.03-27.19,10.62-4.08,1.12-8.23,2-12.29,3.16-3.22.91-6.47,1.84-9.52,3.17-6.25,2.74-9.01,7.77-8.9,14.52.05,3.19,1.05,6.12,2.19,9.01,4.02,10.23,9.64,19.42,17.83,27.36Zm-133.15-65.82c-8.15,0-16.3-.12-24.45.02-10.71.18-21.39,1.06-31.99,2.6-6.16.89-12.33,1.8-18.46,2.89-9.82,1.75-19.69,3.35-29.42,5.55-20.13,4.55-39.65,11.14-58.94,18.4-8.65,3.26-16.66,7.7-23.71,13.76-2.81,2.42-5.32,5.08-6.84,8.52-1.81,4.11-1.14,8.13,2.16,11.16,1.5,1.38,3.31,2.53,5.17,3.37,2.02.91,4.22,1.51,6.4,1.93,7.48,1.46,15.08,1.67,22.67,1.91,33.92,1.08,67.75-.73,101.56-3.15,6.38-.46,12.76-.85,19.15-1.1,9.18-.37,18.37-.67,27.56-.83,13.91-.24,27.81.02,41.65,1.66,8.72,1.04,17.43,2.23,26.16,3.22,7,.8,14.03,1.01,21.05.16,3.73-.45,7.42-1.12,10.88-2.72,2.35-1.09,4.46-2.47,6.19-4.43,2.44-2.77,3.12-5.9,1.74-9.33-.62-1.54-1.41-3.07-2.41-4.38-7.3-9.55-15.3-18.43-24.86-25.81-12.7-9.8-26.75-16.77-42.51-20.12-9.33-1.98-18.79-2.82-28.75-3.26Zm514.63-19.05c1.68.51,3.34,1.07,5.04,1.52,6.71,1.78,13.49,3.33,20.13,5.35,8.03,2.44,16.06,4.71,24.38,6.02,8.12,1.28,16.17,3.02,24.26,4.46,11.55,2.06,23.13,4.01,34.68,6.07,8.88,1.59,17.74,3.32,26.62,4.92,12.26,2.21,24.56,4.18,36.78,6.58,13.27,2.6,26.6,4.6,40.13,5,9.36.28,18.7.1,27.89-2.01,6.31-1.44,12.58-3.05,18.5-5.72,7.94-3.59,12.99-9.64,14.79-18.22,1.04-4.93.66-9.83-.7-14.67-.62-2.21-1.79-4.1-3.48-5.63-2.58-2.34-5.53-3.99-8.99-4.76-4.02-.91-8.08-1.28-12.14-.82-8.09.93-16.17,1.96-24.22,3.19-11.01,1.68-22.08,2.29-33.19,2.25-11.54-.05-22.94-1.65-34.25-3.73-12.09-2.22-24.1-4.86-36.16-7.19-14.58-2.83-29.16-5.58-44.01-6.69-10-.75-19.98-.55-29.91.53-8.25.89-16.44,2.28-24.63,3.65-5.43.91-10.8,2.13-16.19,3.27-2.78.59-5.31,1.75-7.38,3.75-4.54,4.37-4.36,9.87,2.06,12.9Zm180.2,49.88c-6.6-.64-13.19-1.54-19.8-1.84-7.26-.33-14.54-.16-21.82-.08-5.03.06-10.07.15-15.08.59-2.74.24-5.48,1.04-8.1,1.94-2.36.81-4.06,2.66-4.66,5.12-1.07,4.35-.89,8.71,1.89,12.36,4.72,6.2,10.65,10.84,18.6,12.12,4.88.79,9.81,1.4,14.73,1.86,7.64.71,15.29,1.3,22.94,1.78,11.24.7,22.49,1.47,33.75,1.79,11.26.32,22.53.07,33.8.2,12.39.14,24.77.38,37.16.67,4.71.11,9.42.44,14.12.75,7.09.47,14.18,1.15,21.28,1.51,10.94.55,21.84,1.47,32.67,3.17,7.84,1.23,15.69,2.08,23.63,1.19,2.97-.33,5.83-1.02,8.35-2.7,3.71-2.48,4.07-6.27.62-9.14-1.61-1.34-3.65-2.27-5.64-3-2-.73-4.19-.98-6.29-1.45-7.11-1.62-12.85-5.09-16.27-11.82-1.05-2.06-2.24-4.05-3.51-5.99-1.9-2.9-4.51-4.92-7.88-5.91-1.84-.54-3.65-1.19-5.51-1.63-12.46-3.01-25.08-4.79-37.88-5.51-9.64-.55-19.13.16-28.61,1.94-7.3,1.37-14.63,2.67-22,3.48-13.29,1.46-26.65,1.44-39.98.47-6.69-.49-13.37-1.21-20.48-1.85Z"/>
</svg>