<?xml version="1.0" encoding="UTF-8"?>
<svg id="Layer_10" data-name="Layer 10" xmlns="http://www.w3.org/2000/svg" viewBox="0 0 1044 210.59">
  <defs>
    <style>
      .cls-1 {
        fill: #f7f6f0;
      }

      .cls-1, .cls-2 {
        stroke-width: 0px;
      }

      .cls-2 {
        fill: #b47749;
      }
    </style>
  </defs>
  <path class="cls-2" d="m1044,210.59H0c0-28.2,0-54.69,0-82.3,2.58.65,5.23,1.36,7.52,2.45,4.21,1.99,14.61,6.56,18.73,8.75,10,5.33,12.71,6.36,23.22,12.16l17.29,10.4c3.46,2.36,16.05,6.52,22.75,5.99,10.41.07,20.78-.57,31.08-2.01,13.53-1.89,26.99-4.2,40.07-8.28,4.18-1.3,5.64-1.95,9.72-3.56,1.96-.77,5.9-3.36,6.49-5.36,1.38-4.72-.33-10.96-6.51-12.86-4.65-1.43-9.19-3.2-13.77-4.85-6.41-2.3-16.41-5.6-23.25-6.47-2.66-.34-5.14-.73-7.48-1.26-9.92-2.23-17.36-3.42-27.3-5.55-5.06-1.09-10.25-1.58-15.34-2.54-9.47-1.77-19.04-2.97-28.67-3.31-12.03-.42-24.06-.64-36.09-.82-6.14-.09-12.29.07-18.44.12v-15.12c8.11-.69,16.21-1.34,24.11-1.57,6.37-.19,12.75.14,19.13.22,10.8.15,28.38,1.57,39.06,3.17,16.41,2.46,32.61,5.99,48.68,10.1,5.78,1.48,13.13,4.2,20.22,7.5.73.34,1.43.72,2.12,1.13,4.03,2.36,22.33,11.63,57.47,9.19,11.03-1.8,21.97-4.1,32.94-6.26,7.36-1.45,14.65-3.37,22.07-4.39,11.86-1.64,23.74-3.41,35.74-3.7,5.54-.13,11.13-.07,16.64.46,7.59.74,14.97,2.99,21.79,6.4,5.16,2.58,10.2,5.42,15.41,7.9,10.22,4.86,20.85,5.26,31.52,1.92,9.25-2.9,18.11-6.84,26.35-11.96,6.58-4.09,12.94-8.53,19.39-12.84,5.24-3.5,10.89-6.02,17.08-7.32,1.56-.33,3.15-.6,4.66-1.08,1.06-.34,2.13-.86,2.99-1.55,1.19-.95,1.17-2.47-.06-3.36-1.08-.78-2.34-1.47-3.62-1.75-2.41-.53-4.88-1.01-7.33-1.04-10.47-.12-20.94-.33-31.4.02-7.57.25-15.15,1.06-22.65,2.11-10.36,1.45-20.65,3.36-30.98,5.01-8.7,1.4-17.56,1.66-26.33.76-7.05-.72-14.1-1.74-21.17-2.03-16.37-.67-32.74-1.16-49.12-1.46-6.78-.12-13.57.11-20.34.51-8.82.52-17.62.25-26.37-.8-5.15-.62-10.33-1.21-15.38-2.35-6.07-1.36-12.06-3.13-17.99-5-14.94-4.71-29.98-9-45.39-11.91-12.72-2.4-25.52-4.35-38.42-5.39-12.91-1.04-25.85-1.52-38.81-1.43-3.52.02-7.03.16-10.55.24-8.71.2-17.42.3-26.13.65-5.18.2-10.36.75-15.53,1.22C6.49,67.77,3.25,68.21,0,68.59v-4.1c2.94-.39,5.89-.54,8.83-.73,3.35-.22,6.69-.54,10.05-.68,21.24-.9,42.48-2.34,63.76-1.58,9.81.35,19.63,1.13,29.4,2.17,21.81,2.33,43.15,7.16,64.43,12.35,14.53,3.54,29.26,5.95,44.13,7.58,10.42,1.15,20.89,1.37,31.35,1.82,16.53.71,33.05,1.5,49.58,2.29,13.41.63,26.82,1.51,40.24,1.89,10.31.29,20.62-.13,30.78-2.3,6.25-1.34,12.47-2.8,18.74-4,8.17-1.57,16.43-2.5,24.76-2.71,7.51-.19,15.03-.45,22.54-.4,16.7.11,32.89,3.04,48.5,9.07,4.19,1.62,8.2,3.55,11.86,6.2s6.48,6.89,7.66,11.48c.36,1.39.73,2.77,1.15,4.14.89,2.9,3.07,5.27,5.93,6.28,4.25,1.5,8.69,1.54,13.07,1.49,3.62-.05,7.24-.24,10.85-.56,6.71-.59,13.42-1.26,20.11-2.12,8.24-1.07,16.47-2.25,24.64-3.69,10.69-1.89,21.31-4.19,31.99-6.13,10.55-1.92,21.12-3.82,31.85-4.52,8.63-.57,17.29.24,25.72,2.15,9.63,2.18,19.26,4.37,28.88,6.6,13.17,3.05,26.53,4.33,39.99,3.51,11.09-.67,22.05-2.5,32.8-5.44,24.94-6.81,49.84-13.76,74.53-21.44,7.86-2.45,15.63-5.16,23.37-7.95,15.08-5.43,30.46-9.8,46.18-12.88,15.06-2.95,28.96-8.9,42.51-15.86,22.38-11.5,43.54-24.96,63.75-39.9,5.97-4.42,12.98-8.16,20.09-10.61v6.45c-5.2,2.03-10.56,4.28-15.02,7.41-5.3,3.71-10.55,7.49-15.74,11.36-11.74,8.75-23.71,17.13-36.73,23.89-4.61,2.39-9.34,4.54-13.94,6.95-2.55,1.34-5.08,2.8-7.41,4.49-3.29,2.4-4.64,6.65-3.47,10.55.44,1.44.93,2.93,1.72,4.2,1.78,2.84,3.7,5.6,5.69,8.29,2.88,3.9,6.76,5.01,11.45,3.99,8.33-1.82,15.9-5.31,22.75-10.32,4.64-3.39,9.03-7.12,13.59-10.63,5.19-4,10.3-8.1,15.68-11.83,6.26-4.34,13.86-6.91,21.43-7.69v13.01c-2.89,1.5-6.23,2.82-8.98,4.25-2.61,1.36-5.2,2.77-7.71,4.3-1.07.65-2.03,1.56-2.86,2.5-3.15,3.58-1.89,10.14,3.71,11.26,1.92.38,3.95.36,5.92.29,2.22-.07,4.44-.43,6.66-.6.91-.07,2.36-.09,3.26-.08v4.59c-1.22.21-2.83.44-4.06.59-.35,0-.54.04-.96.05-3.43,0-6.63.03-10.02.02-.83-.04-1.47-.04-2.3-.13-2.17-.16-4.16-.23-6.36-.34-1.47-.05-2.74-.05-4.16-.13-1.09-.02-2.01.03-3.13.05-.84.01-1.48.07-2.32.09-1.22.12-2.24.27-3.41.4-.33.02-.52.07-.88.09-.59.12-1.02.26-1.58.37-.31.04-.48.09-.81.13-.42.11-.69.24-1.04.35-.09-.01-.23.08-.39.07-.44.13-.72.27-1.15.41-.63.2-1.11.41-1.72.62-.27.12-.41.23-.71.36-1.26.66-2.37,1.3-3.61,1.98-.27.16-.39.29-.62.43-.09.01-.22.15-.33.16-.25.09-.33.2-.52.4-8.73,6.32-13.09,14.65-12.32,25.38.54,7.52,4.64,12.73,11.4,14.66,3.4.98,6.91,1.44,10.43.89,5.6-.86,11.19-1.77,16.75-2.84,7.7-1.47,15.91-2.85,23.82-2.37m-673.57,17.22c-2.89,1.52-4.14,4.44-3.12,8.23.25.92.55,1.84.92,2.72,3.91,9.19,10.08,16.75,17.72,22.94,11.01,8.92,24.14,12.5,38.07,13.26,7.24.39,14.46-.29,21.63-1.26,10.12-1.36,20.14-3.33,30.05-5.79,14.55-3.61,29.02-7.58,43.54-11.3,12.17-3.12,24.48-5.51,37.03-6.32,11.27-.72,22.52-.19,33.76.92,9.54.94,19.11,1.81,28.68,2.08,12.54.36,25.1.14,37.66.07,2.94-.02,5.91-.29,8.82-.77,4.83-.79,5.9-2.94,3.39-7.15-1.67-2.79-3.76-5.36-5.93-7.79-5.3-5.93-12.24-9.45-19.43-12.44-11.76-4.88-24.01-8.24-36.4-11.11-7.25-1.68-14.53-3.1-21.99-3.37-6.09-.22-12.14.35-18.17,1.15-10.61,1.42-21.19,3.06-31.8,4.38-6.35.79-12.75,1.01-19.11-.17-9.78-1.81-16.97-6.75-20.05-16.64-.64-2.07-1.3-4.14-2-6.19-.89-2.62-3-4.62-5.63-5.47-2.19-.7-4.48-1.3-6.76-1.44-10.01-.6-19.76.94-29.26,4.08-11.62,3.84-22.38,9.4-32.37,16.45-10.3,7.27-21.56,12.42-33.79,15.52-5.18,1.31-10.34,2.79-15.45,5.42Zm466.88,16.36c3.35.9,6.76,1.24,10.2.92,7.52-.7,14.28-3.44,20.22-8.03,4.17-3.22,8.13-6.71,12.12-10.16,9.85-8.53,19.43-17.37,29.54-25.58,10.04-8.16,20.58-15.7,30.91-23.5,3-2.27,5.99-4.53,8.39-7.48,1.83-2.25,2.32-4.76,1.25-7.41-2.21-5.45-5.83-9.51-11.69-11.14-3.46-.97-7-.84-10.46-.15-6.03,1.2-12.01,2.62-18,4-11.44,2.64-22.89,5.2-34.28,8.01-13.05,3.22-25.57,8.1-38.13,12.8-9.8,3.67-19.55,7.47-29.66,10.21-6.16,1.67-12.37,3.2-18.52,4.92-1.67.47-3.27,1.27-4.8,2.12-2.5,1.38-3.62,3.71-3.21,6.45.82,5.45,1.86,10.87,4.07,15.97,1.14,2.63,2.99,4.52,5.8,5.31,1.23.35,2.46.7,3.71.92,6.99,1.26,13.99,2.49,20.99,3.72,5.46.96,9.48,4,12.45,8.56,1,1.54,1.95,3.12,2.94,4.66,1.41,2.21,3.17,4.02,6.17,4.86Zm-89.77-44.54c-2.15.19-4.29.44-6.45.56-11.95.66-23.8-.33-35.53-2.61-14.81-2.89-29.62-5.8-44.61-7.65-5.08-.63-10.18-1.12-15.3-.48-6.73.84-13.47,1.69-20.18,2.73-3.54.55-7.03,1.45-10.51,2.31-1.69.42-3.18,1.32-4.31,2.69s-1.12,3.29-.04,4.62c1.29,1.59,3.05,2.33,4.97,2.77,3.89.9,7.79,1.76,11.67,2.67,6.37,1.5,12.7,3.2,19.11,4.49,9.16,1.84,18.39,3.32,27.56,5.07,16.55,3.16,33.04,6.58,49.62,9.55,10.7,1.92,21.53,2.99,32.44,1.74,4.61-.53,9.17-1.32,13.53-3,5.51-2.11,9-5.94,9.96-11.86.14-.87.23-1.74.32-2.62.65-6.59-3.49-12.21-10.02-13.35-1.78-.31-3.68-.3-5.47-.08-5.46.69-10.91,1.56-16.78,2.44Zm81.52,49.39c-2.5-1.32-4.32-3.3-5.59-5.78-2.23-4.33-6.15-7.51-10.92-8.46-8.17-1.63-16.41-2.45-24.71-2.7-5.3-.15-10.48.96-15.65,1.97-8.18,1.6-16.43,2.43-24.77,2.03-10.93-.52-21.86-1.12-32.79-1.66-6.62-.33-13.24-.7-19.87-.84-2.69-.06-5.43.19-8.08.7-3,.58-5.27,2.34-5.94,5.54-.68,3.28.06,6.16,2.66,8.46,2.25,2,4.89,3.3,7.7,4.28,5.41,1.89,11.04,2.64,16.71,2.82,17.09.53,34.18.94,51.27,1.34,8.66.21,17.33.31,25.99.48,10.63.22,21.25.92,31.76,2.5,5.48.82,11.04,1.11,16.58,1.32,2.6.1,5.22-.3,7.49-1.8,1.86-1.23,1.97-3.4.25-4.81-1.03-.84-2.31-1.41-3.55-1.93-2.72-1.16-5.48-2.21-8.54-3.46Zm80.32-4.69c15.21-6.86,30.44-13.69,45.63-20.6,3.43-1.56,6.83-3.25,10.12-5.08,2.94-1.64,5.22-4.3,6.2-7.52s1.11-6.62.63-9.93c-.63-4.38-3.04-7.54-7.26-9.04-6.09-2.17-12.09-2.03-17.79,1.3-1.93,1.13-3.86,2.31-5.55,3.75-6.16,5.2-12.4,10.34-18.29,15.84-8.75,8.17-18.56,14.58-29.59,19.18-3.61,1.5-7.15,3.16-10.69,4.84-3.06,1.45-5.81,3.38-8.03,5.95-.82.95-1.59,2.02-2.1,3.17-1.1,2.45-.49,4.86,1.73,6.35,1.29.87,2.83,1.52,4.34,1.89,4.52,1.12,8.91.34,13.06-1.6,5.78-2.71,11.5-5.56,17.58-8.49Z"/>
  <path class="cls-1" d="m351.38,161.82c-2.86,2.87-9.25,3.34-13.34,3.14-20.58-1-39.07-2.2-49.35-2.14-30.87.17-24.29,1.18-43.81,2.33-10.44.62-31.95,1.5-42.64,1.24-15.5-.37-18.38-7.55-16.19-11.02,4.12-6.53,16.54-10.95,22.58-13.37,9.62-3.86,27.81-8.54,38.02-10.76,14.1-3.07,24.44-5.26,48.06-4.88,9.65.16,15.92.45,24.35,3.02,2.07.63,7.52,3.31,7.55,3.32.08.03.27.13.36.17,8.95,3.92,15.91,9.75,22.22,16.86,3.12,3.51,5.4,8.85,2.18,12.08Z"/>
</svg>