<svg width="64" height="64" viewBox="0 0 64 64" fill="none" xmlns="http://www.w3.org/2000/svg">
  <defs>
    <linearGradient id="goldGradient" x1="0%" y1="0%" x2="100%" y2="0%">
      <stop offset="0%" style="stop-color: #a96f44; stop-opacity: 1" />
      <stop offset="100%" style="stop-color: #bc8e71; stop-opacity: 1" />
    </linearGradient>
  </defs>
  <g clip-path="url(#clip0_1923_21370)">
<path d="M44.2991 20.1655C43.9838 19.6988 43.6292 19.2598 43.2394 18.8533C44.5276 18.0579 45.5742 16.9257 46.2662 15.5791C46.4555 16.2381 46.7205 16.873 47.056 17.4711C47.7283 18.6658 48.6081 19.5906 49.4654 20.4979C48.1492 21.9022 47.1156 23.5467 46.4211 25.3418C46.0506 23.4967 45.3303 21.7397 44.2991 20.1655V20.1655ZM38.5105 13.9169C37.2412 14.6254 36.1431 15.6041 35.2937 16.7838C34.4214 18.006 33.6016 19.8705 34.044 21.7826C34.259 22.6799 34.7139 23.3472 35.3187 23.5747C35.9236 23.8021 36.5684 23.5947 37.1308 23.1473C37.6932 22.6999 38.1306 21.9626 38.6579 21.4227C38.7361 21.3163 38.8386 21.2301 38.9569 21.1714C39.0752 21.1127 39.2058 21.0832 39.3378 21.0853C39.5877 21.1327 39.6852 21.3902 39.7377 21.7376C39.8539 22.716 39.8193 23.7065 39.6352 24.6744C39.4634 25.6553 39.2126 26.6207 38.8854 27.5612C38.272 29.295 37.5327 30.9816 36.6734 32.6076C35.9236 34.0772 35.1888 35.6543 35.0588 37.5714C34.9938 38.5362 35.1063 39.5459 35.6786 40.0708C36.1785 40.5457 36.8309 40.5182 37.3932 40.3582C38.5805 40.0183 39.5727 38.7561 40.1126 37.094C40.6125 35.5469 40.7774 33.8198 41.0549 32.1602C41.1727 31.3734 41.355 30.5976 41.5998 29.8407C41.8497 29.1459 42.1846 28.416 42.682 28.1486C43.6993 27.5987 44.2591 29.7107 44.7415 30.698C45.3846 32.0288 46.3315 33.1898 47.5059 34.0872C48.0332 34.4894 48.5896 34.8519 49.1705 35.172C49.7953 35.5219 50.4427 35.8968 51.115 35.9343C52.3097 35.9993 53.472 34.6221 53.6594 32.75C53.7623 31.8343 53.6528 30.9072 53.3395 30.0407C53.0906 29.3457 52.6209 28.7514 52.0023 28.3486C50.9026 27.6637 49.6279 27.8862 48.4831 28.1386C49.7473 26.8369 50.7075 25.2715 51.295 23.5547C51.6005 22.6537 51.7993 21.7201 51.8873 20.7728C52.2198 19.0232 52.2048 17.1712 51.5099 15.589C50.7101 13.747 49.3729 12.8697 47.9883 12.7472C47.6438 12.616 47.2926 12.5033 46.936 12.4098C47.2061 11.996 47.4363 11.5575 47.6233 11.1001C47.9625 10.2788 48.17 9.40915 48.2382 8.5232C48.2403 8.09904 48.3069 7.67765 48.4357 7.2735C48.6127 6.86827 48.7598 6.45058 48.8756 6.02379C49.0755 5.18899 49.038 4.15173 48.6031 3.50688C48.2257 2.94201 47.6158 2.72456 47.1685 3.22945C46.6811 3.78182 46.6236 4.82907 46.796 5.66637C46.8885 6.11877 47.046 6.53617 47.1335 6.98357C47.2224 7.4014 47.2502 7.82994 47.2159 8.25577C47.0835 9.97536 46.2162 11.1601 45.3514 12.1299C44.9154 12.0986 44.4777 12.0986 44.0417 12.1299C44.5325 11.1896 44.8532 10.17 44.989 9.11807C45.1116 8.08053 45.0923 7.03111 44.9315 5.9988C44.8899 5.75058 44.8899 5.49719 44.9315 5.24897C44.992 4.9796 45.0663 4.71348 45.1539 4.45166C45.3271 3.85953 45.4056 3.24373 45.3864 2.62709C45.3414 1.53484 44.989 0.235148 44.2091 0.0276964C43.5468 -0.147263 42.8895 0.527579 42.6245 1.46236C42.3071 2.5896 42.567 3.88679 42.9819 4.86656C43.1944 5.36644 43.4643 5.82634 43.6618 6.36621C43.8242 6.82982 43.9086 7.31715 43.9117 7.80837C43.9567 9.89038 43.0419 11.4025 41.9972 12.4948C40.78 12.82 39.6086 13.297 38.5105 13.9144V13.9169ZM33.9391 35.132C35.3337 34.1972 36.4385 32.0677 36.9109 29.8482C37.1608 28.6937 37.2065 27.5043 37.0458 26.334C36.8634 25.1393 36.281 24.1695 35.4412 24.272C34.6914 24.3645 33.974 25.0843 33.4617 25.9266C32.937 26.8224 32.5971 27.8142 32.4619 28.8434C32.2994 29.9857 32.3594 31.1804 32.1695 32.3126C32.0895 32.79 31.9545 33.3124 31.6896 33.6298C31.4671 33.8798 31.2572 33.7523 31.1172 33.4099C30.7323 32.4726 31.0497 31.2129 31.3347 30.3231C31.6971 29.1909 32.127 28.1261 32.3819 26.9139C32.6402 25.6631 32.7517 24.3864 32.7143 23.1098C32.6818 21.985 32.5819 20.6979 32.1495 19.7556C32.046 19.5241 31.9087 19.3093 31.7421 19.1182C31.724 18.9623 31.6615 18.8148 31.5621 18.6933C31.3312 18.408 31 18.2216 30.6362 18.1724C30.2724 18.1231 29.9036 18.2147 29.6051 18.4284C28.8977 18.8733 28.3904 19.7431 28.0904 20.8228C27.7986 21.9917 27.6402 23.1899 27.618 24.3945C27.5609 25.639 27.5926 26.8861 27.713 28.1261C27.963 30.4956 28.6453 32.7175 29.89 34.1847C31.0497 35.5494 32.5794 36.0393 33.9391 35.1295V35.132ZM33.6166 38.5462C33.5494 38.0347 33.3514 37.5491 33.0418 37.1365C32.4219 36.3717 31.6596 36.4692 30.9673 36.914C29.9675 37.3764 29.0677 38.5187 28.6403 40.0083C28.3904 40.8706 28.3104 41.9329 28.7653 42.6727C28.9083 42.9174 29.1241 43.1113 29.3826 43.2276L29.4176 43.2651L29.4376 43.2801C29.4785 43.3219 29.5219 43.3611 29.5676 43.3975C30.1724 43.8849 30.8423 43.8249 31.4946 43.6625C32.037 43.5275 32.6269 43.3875 33.0918 42.8976C33.5916 42.3553 33.8416 41.5055 33.8416 40.5557C33.8502 39.8783 33.7747 39.2024 33.6166 38.5437V38.5462ZM17.1005 14.7842C17.1005 14.7992 17.1005 14.8142 17.1005 14.8292C17.1005 14.8442 17.1005 14.8467 17.1005 14.8567V14.8767C17.0917 15.0091 17.1193 15.1414 17.1805 15.2591C17.5404 16.6438 18.7526 16.9287 19.6099 17.0437C21.512 17.2936 23.444 16.4339 24.9937 14.7193C24.5687 17.4261 24.1414 20.1355 23.7439 22.8523C23.499 24.487 23.2632 26.1241 23.0366 27.7637C22.8267 29.2833 22.4792 30.9804 22.7692 32.5276C23.0191 33.8198 23.709 34.8245 24.6062 34.7521C25.421 34.6871 26.1759 33.8998 26.5383 32.77C26.9657 31.4428 26.9332 29.9082 26.7257 28.4935C26.4983 26.9564 26.0684 25.4942 25.9459 23.9246C25.711 20.9678 26.3058 18.066 27.0057 15.3241C27.0507 15.4341 27.0982 15.5441 27.1531 15.649C27.4532 16.2301 27.929 16.7016 28.5128 16.9962C29.5184 17.4983 30.6682 17.6318 31.7621 17.3736C33.7916 16.9312 35.9936 15.1242 36.8109 12.0374C37.1611 10.7042 37.1654 9.30367 36.8234 7.96833C36.8109 7.92584 36.7984 7.88335 36.7884 7.84086L36.7659 7.74839C36.6877 7.50108 36.5959 7.25826 36.491 7.02106C36.0301 5.97456 35.2909 5.07459 34.354 4.41917C32.7945 3.29028 30.9898 2.54683 29.0877 2.24968C28.3749 2.14142 27.652 2.11542 26.9332 2.17219C25.7535 2.17219 24.5712 2.1372 23.394 2.19469C22.2718 2.24968 21.1446 2.45963 20.1123 3.21445C18.2452 4.57413 17.2955 7.6934 17.013 10.7327C16.893 12.0249 16.7981 13.527 17.1005 14.7842ZM15.5159 15.4691C14.6036 14.3968 13.4214 14.8717 12.6465 16.0289C12.4104 16.3921 12.2079 16.7761 12.0417 17.1762C11.0794 18.9483 10.7145 21.5851 10.497 23.8121C10.1721 27.1588 10.2721 30.8105 11.6218 33.6098C12.1991 34.8095 12.9415 35.7743 13.8413 36.3267C14.3092 36.6072 14.8418 36.7616 15.3873 36.7748C15.9327 36.7879 16.4722 36.6593 16.953 36.4017C19.0425 35.3869 20.5397 32.6176 21.5745 29.7382C22.1604 28.1584 22.5434 26.5106 22.7142 24.8344C22.8641 23.2498 22.8342 21.4952 22.2843 20.0855C21.7844 18.8183 20.9071 18.086 19.9598 18.1434C18.9601 18.1934 18.1003 19.0032 17.5929 20.3204C17.0105 21.8426 16.9655 23.6597 16.998 25.3843C17.0699 27.2603 17.0165 29.139 16.8381 31.0079C16.7481 31.7578 16.5881 32.5501 16.2457 33.1174C15.9583 33.5798 15.5709 33.8248 15.161 33.6523C14.1612 33.2324 13.9437 31.4303 14.1337 30.0582C14.3836 28.3386 15.061 26.8289 15.5384 25.2568C16.0761 23.5738 16.4117 21.8328 16.5381 20.0705C16.6381 18.3884 16.4307 16.5438 15.5159 15.4691ZM2.1565 21.6201C2.92632 23.4522 3.76862 25.2193 4.44847 27.1438C4.79089 28.1186 5.03583 29.1434 5.34825 30.1431C5.60823 31.0168 6.02213 31.837 6.57047 32.5651C7.05286 33.1674 7.66021 33.6273 8.29257 33.6173C8.92492 33.6073 9.47229 33.0974 9.74722 32.2426C9.99956 31.377 10.0151 30.4595 9.79221 29.5858C9.55853 28.7286 9.14628 27.9305 8.5825 27.2438C8.07012 26.5965 7.50525 26.0416 7.05535 25.2818C6.68794 24.6619 6.22055 23.5622 6.39801 22.6724C6.53798 21.9726 7.10034 21.7526 7.51275 21.6526C8.08261 21.5177 8.66748 21.5751 9.21235 21.2327C9.75722 20.8903 10.1946 20.173 10.2871 19.2332C10.3796 18.3728 10.2189 17.5041 9.82471 16.7338C8.97741 15.1816 7.40777 15.4091 6.40801 16.4313C5.82998 17.0724 5.35905 17.8024 5.01333 18.5933C4.89836 18.8433 4.7409 19.2407 4.51345 19.2057C4.286 19.1707 4.09855 18.7808 3.99857 18.4959C3.41121 16.8812 3.83361 14.7967 4.84837 13.8994C6.06309 12.8297 7.38278 14.0194 8.57 14.5793C9.90969 15.2141 11.4068 15.4091 12.744 14.6543C13.9562 13.9719 14.971 12.6122 15.4234 10.7027C15.7558 9.24693 15.7361 7.73285 15.3659 6.28623C15.0635 4.82657 14.4086 3.56937 13.4539 2.96451C13.115 2.74949 12.7325 2.61286 12.3341 2.5646C12.2591 2.53961 12.1842 2.51711 12.1092 2.49962C11.5442 2.34615 10.9599 2.27543 10.3746 2.28967C8.99786 2.21268 7.62097 2.4379 6.34052 2.94951C4.90686 3.48012 3.59879 4.30223 2.49892 5.36395C1.40668 6.45619 0.584372 7.99833 0.226955 9.97786C-0.527868 14.1319 0.724339 18.2084 2.1565 21.6201ZM25.7435 54.3875C26.4618 52.2941 26.9717 50.135 27.2656 47.9415C27.6301 45.6004 27.714 43.2241 27.5156 40.8631C27.4101 39.7238 27.1658 38.6015 26.7882 37.5214C26.4283 36.5216 25.9059 35.4794 25.1661 35.1745C24.3813 34.852 23.6315 35.5344 23.1091 36.4067C22.585 37.3264 22.1921 38.3149 21.9419 39.3435C21.387 41.463 21.2745 43.8249 21.317 46.0919C21.347 47.6865 21.4445 49.2861 21.5844 50.8758C21.2379 49.6177 20.8854 48.368 20.5272 47.1267C20.114 45.6837 19.6974 44.2457 19.2775 42.8127L18.6551 40.7132C18.4893 40.1278 18.289 39.5528 18.0553 38.9911C17.8857 38.534 17.6078 38.1249 17.2455 37.7988C17.0693 37.6534 16.8531 37.5648 16.6256 37.5447C16.398 37.5246 16.1697 37.574 15.9708 37.6864C15.156 38.1263 14.5336 39.2335 14.1012 40.3582C13.1539 42.8177 13.034 45.7695 13.0789 48.5663C13.0939 49.4536 13.1214 50.3409 13.1389 51.2257C13.187 51.9463 13.1711 52.6698 13.0914 53.3877C13.004 53.9201 12.7615 54.2125 12.4091 54.1375C11.0719 52.258 11.0994 49.2162 11.0744 46.6393C11.0494 43.9574 10.8245 41.233 9.94468 38.8911C9.15236 36.7916 7.84767 35.2394 6.28054 34.892C5.88946 34.8022 5.48355 34.7984 5.09085 34.8808C4.69816 34.9633 4.32804 35.13 4.00607 35.3694C3.27124 35.8993 2.68138 36.8691 2.29397 37.9638C1.40668 40.4782 1.54415 43.5575 2.24898 46.1294C2.89294 48.3549 3.97089 50.4309 5.42074 52.238C6.69794 53.8751 8.11011 55.2972 9.20485 57.2368C9.78722 58.274 10.1496 59.5088 10.6595 60.621C11.1694 61.7332 11.8667 62.678 12.769 62.748C13.6713 62.818 14.4386 61.9432 14.9435 60.8809C15.4809 59.7462 15.7633 58.3165 16.0457 56.9918C16.5106 54.8074 16.8731 52.5754 17.1955 50.3309L17.3529 54.5999C17.4354 56.8494 17.5404 59.5113 18.7626 61.0384C19.425 61.8657 20.2623 62.1131 21.0571 61.6807C21.8069 61.2808 22.4467 60.4985 23.0341 59.6962C24.1898 58.0673 25.1024 56.279 25.7435 54.3875V54.3875ZM33.8591 45.3896C33.8031 45.2857 33.7404 45.1855 33.6716 45.0896C33.6454 44.9668 33.5886 44.8524 33.5067 44.7572C32.4269 43.605 31.0272 44.1598 29.91 44.8672C29.2666 45.2624 28.7456 45.8285 28.4049 46.5023C28.0643 47.1762 27.9173 47.9314 27.9804 48.6838C28.0095 49.4313 28.3109 50.1425 28.8278 50.6833C29.1327 51.0132 29.5501 51.3307 29.3276 51.978C29.1052 52.6254 28.6078 53.0978 28.2029 53.4627C27.7393 53.8447 27.2955 54.2502 26.8732 54.6774C26.3734 55.215 25.9995 55.857 25.7785 56.5569C25.5202 57.3985 25.4235 58.2813 25.4935 59.1588C25.5685 60.1036 25.8285 61.0259 26.3183 61.6208C26.5156 61.8645 26.7625 62.0634 27.0427 62.2043C27.3228 62.3452 27.6297 62.4249 27.943 62.4381C29.1452 62.5205 30.3774 61.8732 31.2722 60.6085C31.7232 59.9602 32.0612 59.2402 32.2719 58.479C32.5006 57.553 32.6312 56.6055 32.6619 55.6522C32.7283 54.7243 32.9131 53.8088 33.2117 52.9278C33.4892 52.098 33.8066 51.2982 34.0465 50.4284C34.4914 48.7963 34.6289 46.8567 33.8491 45.3846L33.8591 45.3896ZM50.7376 52.3079C50.7636 51.0926 50.5732 49.8824 50.1752 48.7338C49.6629 47.3016 48.8081 46.2344 47.8233 45.672C46.7311 45.0496 45.6313 45.3146 44.5241 45.672C43.9784 45.8822 43.3965 45.9825 42.812 45.9669C42.607 45.9677 42.4077 45.9 42.2455 45.7746C42.0834 45.6492 41.9679 45.4732 41.9172 45.2746C41.7822 44.6672 42.1346 43.9599 42.4171 43.5925C42.6807 43.2462 43.0473 42.9924 43.4643 42.8677C44.3916 42.5777 45.3089 43.0476 46.1462 43.64C47.1285 44.3348 48.0807 45.2121 49.1455 45.5495C50.1453 45.862 51.225 45.7695 52.0523 44.7747C52.8021 43.8874 53.177 42.3653 53.0521 40.9281C53.0148 40.2626 52.8465 39.6109 52.557 39.0105C52.2675 38.41 51.8625 37.8726 51.365 37.4289C50.5505 36.7621 49.6029 36.2772 48.5856 36.0068C47.6265 35.7099 46.62 35.5963 45.6188 35.6718C43.6543 35.8343 41.7097 36.8166 40.2126 38.8561C39.3367 40.0483 38.7575 41.432 38.523 42.8926C38.273 44.3923 38.458 46.0719 39.0803 47.3116C39.7327 48.6138 40.7949 49.0612 41.8172 48.9837C42.9619 48.9137 44.0667 48.2539 45.1989 48.1939C46.1712 48.1439 47.0685 48.7088 47.6683 49.926C48.2475 51.2089 48.4219 52.638 48.1682 54.0225C48.0826 54.2655 47.9694 54.4978 47.8308 54.7149C47.6743 54.9906 47.4153 55.1933 47.1101 55.2789C46.8049 55.3646 46.4782 55.3263 46.2012 55.1723C45.5313 54.8748 44.9515 54.2575 44.3916 53.6251C43.8317 52.9928 43.2444 52.2729 42.6645 51.6106C41.5048 50.2884 40.1951 48.9462 38.7479 48.6113C38.3947 48.519 38.0252 48.5074 37.6669 48.5775C37.3087 48.6476 36.9708 48.7976 36.6784 49.0162C36.0912 49.4811 35.6255 50.0814 35.3212 50.7658C34.5669 52.4379 34.2998 54.289 34.5505 56.1062C34.8012 57.9234 35.5595 59.6329 36.7384 61.0384C37.7711 62.2161 39.2294 62.9354 40.7924 63.0379C42.2796 63.1355 43.765 62.8225 45.0864 62.1331C45.4718 61.9332 45.8419 61.7052 46.1937 61.4508C46.3537 61.3756 46.5097 61.2922 46.6611 61.2009C48.2382 60.3036 49.5654 58.4865 50.2377 56.0646L50.2677 55.9471C50.4289 55.5042 50.5526 55.0485 50.6376 54.5849C50.7809 53.8348 50.8146 53.0678 50.7376 52.3079V52.3079ZM61.5576 39.9683C60.0179 39.2385 58.2908 40.0733 56.8362 40.9106C56.6287 41.0281 56.4213 41.1606 56.2138 41.2955C55.5693 41.5989 54.9889 42.0231 54.5042 42.5452C54.0093 43.1136 53.6237 43.7687 53.367 44.4773C53.0977 45.0068 52.8664 45.5547 52.6747 46.1169C52.3066 47.2201 52.0119 48.3465 51.7924 49.4886C51.7524 49.6811 51.7174 49.876 51.6799 50.0685C51.3655 51.3976 51.1599 52.75 51.065 54.1125C50.9701 54.8049 50.9026 55.5072 50.8451 56.207C50.7426 57.4167 50.7801 58.7339 51.205 59.7312C51.2733 60.0192 51.4032 60.2889 51.5857 60.5219C51.7682 60.7549 51.999 60.9456 52.2623 61.0809C52.4336 61.1563 52.6119 61.2149 52.7946 61.2558C52.8303 61.2816 52.8711 61.2992 52.9143 61.3074C52.9575 61.3156 53.002 61.3142 53.0446 61.3033C53.4208 61.3555 53.7996 61.3873 54.1793 61.3983C55.449 61.4633 56.7737 61.3133 57.9659 60.591C58.6713 60.1565 59.2783 59.5794 59.7478 58.8968C60.2174 58.2142 60.5392 57.4411 60.6928 56.6269C60.91 55.7032 60.8561 54.7365 60.5378 53.8426C60.1804 52.9903 59.593 52.5704 58.9582 52.4704C57.7085 52.2729 56.4413 53.3352 55.489 54.5124C54.5367 55.6896 53.7819 57.2218 53.177 58.8489C53.1171 58.0641 53.0771 57.2768 53.0571 56.487C53.0396 55.7946 53.0371 55.0998 53.0571 54.4074C53.0537 53.8474 53.0804 53.2875 53.1371 52.7303C53.1594 52.3344 53.2741 51.9493 53.472 51.6056C53.7219 51.2732 54.0543 51.3257 54.3493 51.4381C54.7442 51.5906 55.1191 51.8456 55.5115 52.013C55.9053 52.1903 56.3297 52.2896 56.7612 52.3054C57.1685 52.3188 57.5694 52.202 57.9056 51.9718C58.2418 51.7417 58.4959 51.4102 58.6308 51.0257C58.8015 50.573 58.8486 50.0829 58.7673 49.6059C58.6861 49.1289 58.4793 48.6821 58.1684 48.3114C57.9346 48.03 57.6047 47.8455 57.2426 47.7938C56.8804 47.742 56.512 47.8268 56.2088 48.0314C55.8323 48.2693 55.4746 48.5359 55.1391 48.8288C54.9806 48.9634 54.8136 49.0878 54.6392 49.2012C54.5792 49.2387 54.3718 49.3686 54.3293 49.2961C54.3067 49.1657 54.295 49.0336 54.2943 48.9012C54.2791 48.6511 54.2875 48.4 54.3193 48.1514C54.372 47.6782 54.5227 47.2211 54.7617 46.8092C55.2366 46.0594 55.9464 45.8295 56.5812 46.1619C57.2711 46.5218 57.831 47.3291 58.4833 47.8215C59.1856 48.3564 59.9705 48.6888 60.7578 48.6338C62.2149 48.5313 63.6046 46.9492 63.7921 44.6022C63.9845 42.3753 62.8248 40.5732 61.5476 39.9683H61.5576ZM63.3947 30.0557C62.3949 28.8409 61.0252 29.7507 60.1854 30.878C59.7325 31.5227 59.3433 32.21 59.0232 32.93C58.6258 33.7648 58.2734 34.6321 57.9159 35.5194C57.7535 35.9368 57.2461 37.0465 56.9037 36.3292C56.7939 36.0473 56.7314 35.7492 56.7187 35.4469C56.6762 34.9346 56.6762 34.4196 56.7187 33.9073C56.7462 33.5198 56.7762 32.9425 56.9687 32.6575C57.1929 32.3988 57.4601 32.1807 57.7585 32.0127C58.3178 31.6471 58.8314 31.2158 59.2881 30.728C59.8137 30.0973 60.0965 29.2994 60.0854 28.4785C60.0854 27.5537 59.7405 26.649 59.1956 26.254C59.0738 26.1582 58.934 26.0876 58.7845 26.0466C58.6349 26.0056 58.4787 25.9949 58.325 26.0151C58.1713 26.0354 58.0232 26.0862 57.8894 26.1646C57.7556 26.243 57.6389 26.3473 57.546 26.4715C57.1111 26.9714 56.8462 27.7012 56.6162 28.441L56.4663 28.9409C56.4513 28.9909 56.4338 29.0409 56.4188 29.0934C56.4188 29.0759 56.4188 29.0609 56.4063 29.0434C56.3513 28.8059 56.2963 28.566 56.2463 28.3261C56.0136 27.3818 55.9292 26.407 55.9964 25.4367C56.0289 25.1243 56.0864 24.5819 56.3013 24.437C56.4208 24.3812 56.5557 24.368 56.6837 24.3995C56.8457 24.4134 57.0063 24.441 57.1636 24.482C57.8305 24.6779 58.4611 24.9809 59.0307 25.3793C60.1729 26.1291 61.4801 27.2563 62.6923 26.1466C63.6921 25.2293 64.092 23.3097 63.6196 21.6651C63.49 21.1933 63.2701 20.7511 62.9722 20.3629C61.4851 17.6686 58.7357 17.4961 56.6862 18.2734C55.3815 18.7992 54.3327 19.8122 53.7619 21.0978C53.0547 22.6134 52.8389 24.3122 53.1446 25.9566C53.5095 27.6912 54.5817 28.8534 54.7367 30.718C54.8966 32.6775 54.3118 34.6196 54.5342 36.5691C54.7842 38.6536 56.1763 39.1535 57.3286 39.3185C57.9903 39.4107 58.6639 39.3674 59.3084 39.1913C59.9529 39.0151 60.5549 38.7097 61.0777 38.2937C62.2172 37.3557 63.0688 36.1151 63.5346 34.7146C64.037 33.3224 64.3194 31.1929 63.3847 30.0557H63.3947Z" fill="url(#goldGradient)"></path>
</g>
<defs>
<clipPath id="clip0_1923_21370">
<rect width="64" height="64" fill="white"></rect>
</clipPath>
</defs>
</svg>