<?xml version="1.0" encoding="UTF-8"?>
<svg id="Layer_1" data-name="Layer 1" xmlns="http://www.w3.org/2000/svg" viewBox="0 0 1080 1080">
  <defs>
    <style>
      .cls-1 {
        fill: #aa7950;
        stroke: #aa7950;
        stroke-miterlimit: 10;
        stroke-width: 49.68px;
      }
    </style>
  </defs>
  <path class="cls-1" d="m1029.55,540.02c0,249.76-219.28,452.39-489.55,452.39S50.45,789.78,50.45,540.02,269.72,87.62,540,87.62s489.55,202.64,489.55,452.4Zm-951.57,0c0,234.67,208.06,426.95,462.01,426.95s462.01-192.28,462.01-426.95S793.96,113.07,540,113.07,77.99,305.34,77.99,540.02Zm430.4,55.6c0-30.15-2.04-50.89-4.08-60.32-5.1-12.25-11.22-16.96-27.53-16.01l-21.42,1.88c-9.18.94-10.2.94-10.2-14.13,0-5.66,0-6.6,9.18-8.49,31.62-5.65,92.81-20.73,131.57-33.93,7.14,0,10.2,3.77,10.2,8.48-2.04,53.73-2.04,96.15-2.04,131.96v98.95c0,59.38,1.01,67.87,4.08,77.29,4.08,9.42,13.26,12.25,45.9,13.2,5.1.94,5.1,2.83,5.1,11.31,0,7.54,0,9.42-5.1,9.42-29.58-.94-62.22-2.83-89.75-2.83s-64.25,1.89-91.79,2.83c-7.14,0-8.16-1.89-8.16-9.42,0-8.48,1.02-11.31,7.14-11.31,28.56-.94,35.69-4.72,39.78-13.2,5.1-7.54,7.14-15.08,7.14-77.29v-108.39Zm93.83-286.51c0,27.34-25.5,51.84-56.09,51.84s-57.11-24.51-57.11-51.84,27.53-52.78,57.11-52.78,56.09,26.39,56.09,52.78Z"/>
</svg>