<svg xmlns="http://www.w3.org/2000/svg" xmlns:xlink="http://www.w3.org/1999/xlink" width="1080" zoomAndPan="magnify" viewBox="0 0 810 809.999993" height="1080" preserveAspectRatio="xMidYMid meet" version="1.0"><defs><clipPath id="5f5d5a8d05"><path d="M 292 12.65625 L 797.054688 12.65625 L 797.054688 518 L 292 518 Z M 292 12.65625 " clip-rule="nonzero"/></clipPath><clipPath id="d1b7bfcb81"><path d="M 12 292 L 518 292 L 518 797.15625 L 12 797.15625 Z M 12 292 " clip-rule="nonzero"/></clipPath></defs><g clip-path="url(#5f5d5a8d05)"><path fill="#37252c" d="M 532.28125 12.738281 C 461.496094 12.738281 395.023438 40.210938 345.097656 90.148438 L 306.476562 128.78125 C 297.210938 138.046875 292.121094 150.359375 292.121094 163.460938 C 292.121094 176.585938 297.222656 188.894531 306.492188 198.140625 C 325.039062 216.679688 357.335938 216.679688 375.863281 198.140625 L 414.46875 159.507812 C 479.425781 94.578125 585.128906 94.601562 650.082031 159.507812 C 681.601562 191.027344 698.953125 232.867188 698.953125 277.320312 C 698.953125 321.773438 681.589844 363.613281 650.070312 395.132812 L 611.449219 433.765625 C 602.183594 443.035156 597.09375 455.34375 597.09375 468.445312 C 597.09375 481.570312 602.195312 493.878906 611.460938 503.125 C 620.734375 512.394531 633.042969 517.496094 646.144531 517.496094 C 659.242188 517.496094 671.566406 512.394531 680.835938 503.125 L 719.445312 464.492188 C 769.488281 414.4375 797.054688 347.972656 797.054688 277.320312 C 797.054688 206.667969 769.488281 140.203125 719.445312 90.148438 C 669.53125 40.210938 603.070312 12.738281 532.28125 12.738281 Z M 532.28125 12.738281 " fill-opacity="1" fill-rule="nonzero"/></g><g clip-path="url(#d1b7bfcb81)"><path fill="#37252c" d="M 276.921875 797.257812 C 347.699219 797.257812 414.171875 769.765625 464.109375 719.851562 L 502.726562 681.21875 C 511.996094 671.949219 517.085938 659.640625 517.085938 646.539062 C 517.085938 633.414062 511.984375 621.105469 502.714844 611.859375 C 484.167969 593.296875 451.871094 593.34375 433.34375 611.859375 L 394.734375 650.492188 C 329.832031 715.445312 224.113281 715.46875 159.113281 650.492188 C 94.160156 585.539062 94.160156 479.820312 159.113281 414.867188 L 197.742188 376.234375 C 216.867188 357.125 216.867188 325.984375 197.742188 306.875 C 178.628906 287.761719 147.496094 287.761719 128.382812 306.875 L 89.75 345.507812 C -13.425781 448.710938 -13.425781 616.648438 89.75 719.851562 C 139.664062 769.765625 206.136719 797.257812 276.921875 797.257812 Z M 276.921875 797.257812 " fill-opacity="1" fill-rule="nonzero"/></g><path fill="#37252c" d="M 238.066406 571.550781 C 247.332031 580.820312 259.644531 585.921875 272.746094 585.921875 C 285.859375 585.921875 298.179688 580.820312 307.425781 571.550781 L 571.144531 307.808594 C 580.410156 298.539062 585.511719 286.230469 585.511719 273.128906 C 585.511719 260.027344 580.410156 247.71875 571.144531 238.449219 C 552.617188 219.910156 520.285156 219.910156 501.78125 238.449219 L 238.066406 502.191406 C 228.796875 511.460938 223.695312 523.769531 223.695312 536.871094 C 223.695312 549.972656 228.796875 562.28125 238.066406 571.550781 Z M 238.066406 571.550781 " fill-opacity="1" fill-rule="nonzero"/></svg>