<?xml version="1.0" encoding="UTF-8"?>
<svg id="Layer_1" data-name="Layer 1" xmlns="http://www.w3.org/2000/svg" viewBox="0 0 272.07 175.93">
    <defs>
    <linearGradient id="goldGradient" x1="0%" y1="0%" x2="100%" y2="0%">
      <stop offset="0%" style="stop-color: #a96f44; stop-opacity: 1" />
      <stop offset="100%" style="stop-color: #bc8e71; stop-opacity: 1" />
    </linearGradient>
  </defs>
   <path fill="url(#goldGradient)" d="m54.78,71.65c0,24.21-3.85,35.27-11.2,39.31-7.35,4.04-12.42,4.19-19.95,4.19s-14.35-.3-19.78,0c-2.28.15-3.85-1.34-3.85-3.29s2.28-2.99,4.2-7.17c2.45-5.38,1.58-36.02,1.4-56.2-.18-20.18.7-35.72-1.23-39.61C2.8,5.74,0,3.8.35,2,.7.51,4.03.21,6.65.36c4.37.15,10.85,0,18.37-.15s16.98,3.29,22.23,17.19c5.25,14.2,7.53,30.04,7.53,54.25ZM25.38,8.73c-7.88,0-8.93,11.95-8.93,27.2s6.48,27.2,12.43,27.2c6.48,0,10.5-5.68,10.5-18.23,0-22.12-6.13-36.17-14-36.17ZM72.1.21c2.62,0,11.55.15,15.4,0,2.28,0,4.03,0,4.38,1.2.35,1.19-1.4,2.09-2.8,4.33-1.05,2.09-1.4,5.83-1.4,12.4,0,9.86,1.23,37.35,2.98,57.97,1.57,20.47,3.5,28.09,4.73,31.82.87,2.24,3.67,4.03,3.15,5.83-.53,1.34-2.28,1.34-7,1.34-4.55-.15-18.9-.15-22.92,0-3.85.15-5.25,0-5.43-1.49,0-1.64,2.28-2.84,3.33-5.68,1.05-2.99,2.98-15.99,3.67-31.67.7-13.9,2.62-48.26,2.62-58.27,0-6.57-.7-10.16-2.1-12.4-1.05-2.09-2.97-2.84-2.8-3.88.18-1.34,1.23-1.49,4.2-1.49Zm65.54,110.84c-2.91,5.19-10.6,5.49-14.14.73-1.39-1.87-2.52-4.28-3.44-7.07-3.71-11.2-6.16-26.38-8.79-50.29-2.62-23.32-6.48-43.07-8.4-46.63-2.28-4.16-4.2-4.46-4.2-5.94s1.57-1.78,4.72-1.78c3.33.15,11.38.15,15.05,0,3.5-.15,6.13-.15,6.65,1.48.53,1.49-2.45,2.67-3.67,5.64-1.05,3.12-1.57,11.73,1.23,24.8,2.8,12.92,5.07,19.01,6.12,21.24,1.05,2.08,2.62,3.12,3.67.74,2.1-4.9,8.75-28.07,10.15-34.3,1.4-6.39.7-10.55-1.4-12.77-2.28-2.67-5.08-3.71-5.08-4.9,0-1.34,1.4-1.78,3.5-1.78h12.08c4.73-.15,8.22,2.67,5.95,7.58-3.15,7.13-8.4,24.36-11.72,48.56-3.33,24.06-6.5,47.92-7.33,52.09-.19.99-.53,1.85-.96,2.61Zm77.2-37.65c0,17.85-5.25,41.76-26.95,41.76-20.48,0-27.65-21.54-27.65-42.64s2.45-32.76,4.73-42.2c2.27-9.44,4.37-19.48,3.5-22.43-.87-2.8-2.8-4.28-2.62-5.6.17-1.33,1.93-2.07,7.35-2.07,5.6.15,20.48.15,26.08,0,4.37-.15,7.17,0,7.87,1.48.53,1.33-1.93,2.95-2.27,5.76-.35,3.1,1.4,10.92,4.2,22.72,2.98,12.69,5.78,26.27,5.78,43.23Zm-15.75-39.25c-1.23-14.17-5.42-25.38-12.25-25.38s-11.55,11.21-12.25,25.38c-.87,14.9,3.85,25.67,12.25,25.67s13.65-11.36,12.25-25.67ZM222.37.36c10.33.3,30.63.44,43.4,0,4.2-.15,6.3,7.08,6.3,16.23,0,7.38-1.05,8.85-3.15,8.85-1.93,0-3.85-4.43-5.25-7.97-1.23-3.69-2.8-9-6.83-9s-5.25,3.25-5.25,9.3,1.58,41.02,3.33,58.58c1.75,17.56,2.98,27.89,4.73,30.84,1.57,2.8,4.55,3.84,3.85,5.46-.53,1.62-2.45,1.62-6.83,1.33-4.9-.15-19.08-.44-22.23-.3-3.85.3-6.83.44-7.35-1.18-.53-2.07,2.1-2.95,3.32-5.31,1.4-2.36,2.98-11.21,3.85-29.81.87-18.74,2.28-53.27,2.28-59.31s-2.1-9.3-5.6-9.3c-3.68,0-4.9,3.69-6.3,7.53-1.4,3.84-2.8,9.3-5.6,9.3s-2.8-5.61-2.8-9.59c0-9.74,1.05-15.79,6.13-15.64ZM59.51,175.86c-1.46.06-4.64.47-4.73-1.72-.04-1,.6-1.56,1.44-2.12,1.48-1.06,2.18-1.83,2.6-2.84l4.64-35.72c-.05-1.26-.73-1.57-1.76-2.25-.62-.37-1.37-.87-1.4-1.67s.53-1.62,1.24-2.05c.52-.29,1.18-.45,1.91-.48l23.04-1c6.64-.29,15.77.05,16.14,8.68.28,6.37-6.69,11.4-12.26,13.31,6.65-.15,12.11,3.13,12.41,10.11.23,5.31-2.76,9.9-7.03,12.81-4.52,3.06-9.75,3.82-15.12,4.05l-21.11.92Zm13.16-21.73l-1.41,13.5c.12,2.66,3.11,2.59,5.16,2.5,3.52-.15,7.14-.91,9.84-3.22,2.37-2.03,3.84-5.02,3.7-8.14-.17-3.92-3.14-6.45-6.71-7.56l-10.58,2.92Zm1.5-5.19c4.07-1.24,7.81-2.53,11.22-5.14,2.58-1.97,4.84-5.07,4.69-8.39-.2-4.71-4.6-4.79-8.32-4.63-1.59.07-4.45.13-5.59,1.44-1.14,1.31-2.39,12.41-2.92,16.96l.92-.24Zm53.08,19.58c3.72-.16,6.43-2.01,9.41-4,.71-.56,1.99-1.55,2.92-1.59,1-.04,1.96.65,2,1.64.08,1.93-3.46,4.47-4.76,5.33-3.62,2.35-8.41,3.96-12.79,4.15-8.3.36-16.13-3.69-16.53-12.92-.24-5.44,2.66-10.76,6.56-14.39,4.22-4.04,9.64-6.21,15.42-6.46,2.79-.12,6.2.33,8.72,1.68,2.11,1.11,3.99,3.02,4.1,5.54.41,9.5-16.82,12.5-23.42,13.66.35,4.97,3.39,7.57,8.37,7.35Zm5.3-20.45c-.1-2.19-2.07-3.3-4.06-3.22-4.78.21-9.26,7.45-9.73,11.8,4.24-.45,14.03-3.14,13.8-8.58Zm31.1-8.47l1.66-.07c1.86-.08,5.22-.83,5.34,2.03.15,3.45-3.25,3.2-5.71,3.31l-2.12.09-2.19,15.39c-.1.74-.32,1.88-.28,2.67.05,1.13.61,1.84,1.81,1.78,1.99-.09,3.78-1.76,4.98-1.81,1.26-.05,1.84.98,1.89,2.11.1,2.39-3.96,3.7-5.66,4.37-2.75,1.05-8.51,3.23-11.36,3.35-1.79.08-2.8-1.61-2.87-3.27-.08-1.86.71-6.55,1.02-8.69l2.39-15.47-.8.03c-1.66.07-4.04.37-4.14-2.02-.12-2.66,2.07-2.95,4.05-3.3,3.17-.54,4.23-2.25,5.16-5.15.87-2.83,1.2-6.1,5.18-6.28,1.2-.05,2.66.02,2.73,1.54.04,1-.27,2.94-.43,3.94l-.64,5.15v.27Zm34.04,22.6c-2.25,4.95-6.26,8.92-11.84,9.16-7.37.32-11.61-5.42-11.91-12.32-.46-10.56,8.2-21.04,18.89-21.51,3.19-.14,6.36.92,8.21,3.63,1.53-1.53,4.61-4.19,6.73-4.28,1-.04,2.3.96,1.92,2.91-.88,4.23-2.86,16.82-2.69,20.8.16,3.72,4.19,1.48,4.3,4,.07,1.59-2.09,2.42-3.2,2.93-1.75.94-5.92,3.12-7.78,3.2-1.86.08-2.79-1.48-2.87-3.2l.23-5.33Zm-2.06-2.97c1.45-3.45,2.49-8.56,2.33-12.27-.11-2.59-1.34-4.87-4.2-4.74-2.59.11-4.99,3.01-6.1,5.06-1.78,3.4-3.05,7.98-2.88,11.9.12,2.72,1.15,6.54,4.54,6.39,3.05-.13,5.22-3.89,6.31-6.33Z"/>
</svg>