<svg xmlns="http://www.w3.org/2000/svg" xmlns:xlink="http://www.w3.org/1999/xlink" width="1080" zoomAndPan="magnify" viewBox="0 0 810 809.999993" height="1080" preserveAspectRatio="xMidYMid meet" version="1.0"><defs><clipPath id="6d9e25c92e"><path d="M 15.144531 22.066406 L 618.535156 22.066406 L 618.535156 625.460938 L 15.144531 625.460938 Z M 15.144531 22.066406 " clip-rule="nonzero"/></clipPath><clipPath id="7bf5bdd1ef"><path d="M 479 472 L 795 472 L 795 788 L 479 788 Z M 479 472 " clip-rule="nonzero"/></clipPath><clipPath id="aa358deb5b"><path d="M 521.996094 472.324219 L 794.851562 745.179688 L 752.097656 787.933594 L 479.242188 515.078125 Z M 521.996094 472.324219 " clip-rule="nonzero"/></clipPath><clipPath id="df9fb69555"><path d="M 521.996094 472.324219 L 794.851562 745.179688 L 752.097656 787.933594 L 479.242188 515.078125 Z M 521.996094 472.324219 " clip-rule="nonzero"/></clipPath></defs><g clip-path="url(#6d9e25c92e)"><path fill="#5b5a57" d="M 316.839844 22.066406 C 150.152344 22.066406 15.144531 157.078125 15.144531 323.761719 C 15.144531 490.449219 150.152344 625.460938 316.839844 625.460938 C 483.527344 625.460938 618.535156 490.449219 618.535156 323.761719 C 618.535156 157.078125 483.527344 22.066406 316.839844 22.066406 Z M 316.839844 565.121094 C 183.488281 565.121094 75.480469 457.113281 75.480469 323.761719 C 75.480469 190.414062 183.488281 82.40625 316.839844 82.40625 C 450.1875 82.40625 558.195312 190.414062 558.195312 323.761719 C 558.195312 457.113281 450.1875 565.121094 316.839844 565.121094 Z M 316.839844 565.121094 " fill-opacity="1" fill-rule="nonzero"/></g><g clip-path="url(#7bf5bdd1ef)"><g clip-path="url(#aa358deb5b)"><g clip-path="url(#df9fb69555)"><path fill="#5b5a57" d="M 521.996094 472.324219 L 794.851562 745.179688 L 752.097656 787.933594 L 479.242188 515.078125 Z M 521.996094 472.324219 " fill-opacity="1" fill-rule="nonzero"/></g></g></g></svg>