<svg xmlns="http://www.w3.org/2000/svg" xmlns:xlink="http://www.w3.org/1999/xlink" width="1080" zoomAndPan="magnify" viewBox="0 0 810 809.999993" height="1080" preserveAspectRatio="xMidYMid meet" version="1.0"><defs><clipPath id="328ec37123"><path d="M 14.316406 15 L 793 15 L 793 795 L 14.316406 795 Z M 14.316406 15 " clip-rule="nonzero"/></clipPath></defs><g clip-path="url(#328ec37123)"><path fill="#34252c" d="M 160.976562 550.976562 C 212.835938 602.871094 281.800781 631.417969 355.132812 631.417969 C 428.496094 631.417969 497.460938 602.871094 549.320312 550.976562 C 656.40625 443.921875 656.40625 269.683594 549.320312 162.628906 C 497.460938 110.769531 428.496094 82.1875 355.132812 82.1875 C 281.800781 82.1875 212.835938 110.769531 160.976562 162.628906 C 109.113281 214.492188 80.53125 283.457031 80.53125 356.789062 C 80.53125 430.148438 109.113281 499.113281 160.976562 550.976562 Z M 114.15625 115.78125 C 178.53125 51.40625 264.117188 15.972656 355.132812 15.972656 C 446.179688 15.972656 531.796875 51.40625 596.171875 115.78125 C 721.136719 240.777344 728.539062 439.492188 618.414062 573.253906 L 782.664062 737.503906 C 795.597656 750.433594 795.597656 771.386719 782.664062 784.320312 C 776.199219 790.785156 767.726562 794.019531 759.253906 794.019531 C 750.785156 794.019531 742.3125 790.785156 735.847656 784.320312 L 571.628906 620.101562 C 510.75 670.316406 435.058594 697.636719 355.132812 697.636719 C 264.117188 697.636719 178.53125 662.199219 114.15625 597.824219 C 49.75 533.453125 14.316406 447.835938 14.316406 356.789062 C 14.316406 265.769531 49.75 180.1875 114.15625 115.78125 " fill-opacity="1" fill-rule="nonzero"/></g></svg>