<svg xmlns="http://www.w3.org/2000/svg" xmlns:xlink="http://www.w3.org/1999/xlink" width="1080" zoomAndPan="magnify" viewBox="0 0 810 542.249967" height="723" preserveAspectRatio="xMidYMid meet" version="1.0">
  <defs>
    <clipPath id="d062d94fa0">
      <path d="M 0 0 L 810 0 L 810 542.249967 L 0 542.249967 Z M 0 0 " clip-rule="nonzero"/>
    </clipPath>
  </defs>
  <g>
    <!-- Container with background color and box shadow -->

    <!-- Existing content within the container -->
   <!-- Existing content within the container -->
    <g clip-path="url(#d062d94fa0)">
    <path fill="rgba(255, 253, 253, 0.5)" d="M 187.144531 29.996094 C 249.636719 25.226562 312.402344 30.164062 374.992188 33.472656 C 470.265625 38.511719 565.746094 39.777344 661.113281 36.953125 C 681.355469 36.351562 702.253906 35.675781 721.121094 43.039062 C 740.09375 50.449219 755.433594 65.648438 765.335938 83.445312 C 775.242188 101.246094 780.039062 121.527344 781.847656 141.816406 C 785.460938 182.394531 777.554688 223.269531 780.257812 263.917969 C 782.84375 302.828125 795.09375 340.664062 797.046875 379.613281 C 798.023438 399.085938 796.347656 418.914062 789.761719 437.269531 C 783.179688 455.625 771.410156 472.460938 755.035156 483.054688 C 742.234375 491.335938 727.148438 495.535156 712.015625 497.398438 C 696.882812 499.257812 681.578125 498.894531 666.332031 498.707031 C 500.941406 496.699219 334.84375 516.296875 170.53125 497.339844 C 134.347656 493.164062 96.660156 486.402344 68 463.925781 C 51.808594 451.226562 39.410156 434.046875 31.003906 415.269531 C 22.601562 396.488281 18.078125 376.125 16.160156 355.640625 C 12.316406 314.671875 18.6875 273.539062 22.328125 232.550781 C 24.878906 203.820312 26.113281 174.835938 32.441406 146.695312 C 38.765625 118.558594 50.679688 90.851562 71.476562 70.867188 C 86.527344 56.410156 105.609375 46.609375 125.546875 40.441406 C 145.484375 34.273438 166.335938 31.585938 187.144531 29.996094 Z M 187.144531 29.996094 " fill-opacity="1" fill-rule="nonzero"/>
    </g>
  </g>
</svg>
