<?xml version="1.0" encoding="UTF-8"?>
<svg id="Layer_1" data-name="Layer 1" xmlns="http://www.w3.org/2000/svg" viewBox="0 0 3162.06 1535.19">
  <defs>
    <style>
      .cls-1 {
        fill: #36352d;
        opacity: .1;
        stroke-width: 0px;
      }
    </style>
  </defs>
  <path class="cls-1" d="m3155.49,1236.43c-36.38-5.02-73.92-20.86-110.84-23.17-29.46-1.84-59.5-.85-89.64.05-44.57,1.32-89.34,2.44-132.74-6.14-54.02-10.68-106.92-26.94-161.07-36.9-30.02-5.52-53.09,3.77-82.99,2.4-56.06-2.55-115.29-72.65-172.18-68.52-26.56,1.92-52.67,5.11-79.17,7.69-22.48,2.18-45.22.36-67.68,2.72-58.79,6.18-60.33,11.29-118.34,22.34-98.73,18.8-197.78,35.64-299.04,35.21-47.64-.2-95.19,4.97-142.83,5.14-67.13.24-82.64-9.34-149.84-7.6-38.49.99-74.64,11.72-112.85,14.94-43.58,3.66-85.43-14.1-126.31-25.89-62.03-17.89-125.43-39.72-190.9-37.94-61.52,1.68-83.78,7.55-143.89,19.99-137.5,28.44-156.33,35.92-295.29,56.23-29.67,4.34-57.64,2.41-87.43,3.55-10.63.41-21.21,2.87-31.83,2.33-61.58-3.15-123.6-17.05-185.52-8.92-92.23,12.12-179.89,46.19-270.88,64.29-34.37,6.94-69.02,12.07-104.22,11.56v-25.81c11.53,27.69,40.85,10.73,46.96-12.25,3.06-11.5-29.97-6.96-46.96-7.82v-22.94c55.72,43.31,126.53,3.9,183.7-12.82,75.95-22.2,153.07-45.61,232.55-49.49,84.52-4.13,85.4,2.13,169.92-.33,30.72-.89,61.43-2.69,92.03-5.61,30.68-2.93,37.63-8.53,66.98-16.98,78.9-22.7,132.29-37.71,212.77-53.78,36.27-7.25,38.7-2.89,75.3-5.26,47.72-3.09,95.26-9.37,143.06-10.9,40.7-1.3,89.74,6.95,129.02,17.04,42.71,10.97,40.06,17.34,82.47,29.22,22.67,6.35,44.13-9.5,66.83-4.01,29.28,7.09,57.78,17.34,87.08,24.34,67.53,16.13,137.69,2.56,206.3,6.69,93.79,5.65,91.27,0,133.8-26.57,53.06-33.15,152.76-60.25,214.15-82.39,27.85-10.04,139.59,12.05,166.46,10.1,41.14-2.98,241.65,17.87,280.25,6.22,212.64-64.19,159.27-24.63,359.72-16.32,24.32,1.01,129.78-1.55,153.49,6.36,12.34,4.12,25.59,37.87,69.72,24.31,9.7-2.98,25.44-10.45,29.88-6.97.03.03.06,18.22,0,18.26-.03.02-21.72-3.25-29.88-2.8-51.85,2.8-54.68-18.21-69.72-22.84-37.39-11.52-114.81-8.4-153-9.95-106.2-4.32-155.24-23.29-257.42,0-43.65,9.95-115.13,24.8-142.76,24.31-101.91-1.81-127.07-14.12-195.56-1.63-43.31,7.9-77.35,41.87-121.83,45.68-49.9,4.28-84.63-19.1-132.62-35.57-28.71-9.85-90.17,26.12-49.55,69.8,24.73,26.6,49.98,19.11,68.89,16.4,93.99-13.51,119-19.9,210.53-45.43,35.2-9.81,73.44-29.06,107.82-17.29q22.79,7.8,64.67,22.14c43.3,14.82,80.75,81.1,133.8,62.43,13.06-4.6,31.73-22.76,44.03-28.48,30.02-13.95,64.17-22.67,96.71-27.15,19.8-2.73,41.74-1.65,60.76,5.23,9.17,3.32,23.44,17.02,31.92,21.93,12.5,7.25,50.35,16.59,64.64,16.51,74.63-.47,145.86-15.16,220.42-18.44,16.13-.71,32.03-5.39,48.18-5.16v14.34c-10.21.58-40.11-4.27-41.31,15.34,9.46,14.4,26.28,15.5,41.31,19.04v14.34c-57.92-24.1-120.72-36.94-183.32-33.83-17.94.89-31.77-3.59-46.86,6.34-9.45,6.22.35,29.25,8.01,32.52,15.13,6.46,34.2,2.31,49.68,3.31,51.8,3.35,122.04,9.23,172.49,23.2-.03,6.68-.03,13.39-.03,20.07h0Zm-1412.67-79.71c-.63-18.03-22.85-23.16-35.91-24.23-64.89-5.32-129.97-7.78-194.93-12.1-22.35-1.48-44.59-4.9-66.99-5.3-15.24-.27-30.79,8.38-46.34,5.17-27.2-5.62-29.21-17.16-53.78-28.08-26.14-11.62-58.7-19.41-86.91-22.6-113.78-12.88-229.58-9.48-342.01,13.26-29.99,6.07-59.35,15.09-89.22,21.73-32.72,7.28-72.77,7.12-98.15,34.19-3.52,3.75-5.26,9.07-6.55,14.1-10.17,39.87,62.83,21.24,73.6,19.03,111.2-22.77,221.21-53.15,333.92-67.73,94.42-12.22,182.11,36.67,272.44,55.16,61.35,12.56,123.97-1.21,185.53-.5,42.05.49,83.94,5.48,125.96,7.23,9.82.41,22.19-.87,29.35-9.32h0Zm-1039.54,4.9c-15.8-21.25-46.44-11.7-66.93-10.29-19.87,1.36-39.77,2.33-59.67,3.15-28.25,1.17-56.51,2.2-84.78,2.84-19.71.44-39.44.88-59.15.4-22.84-.56-32.45-5.77-55.4-1.18-14.82,2.96-15.16,29.58,1.15,30.31,13.85.62,27.67-2.69,41.54-2.35,82.43,1.99,165.84,14.3,248.2,1.92,13.78-2.07,31.14-9.13,35.04-24.8h0Zm2062.28-37.61c.21,13.73,7.21,61.54,53.28,61.09,31.44-.31,63.34,2.25,77.28,2.75,13.27.47,16.61-15.06,10.07-26.4-3.74-6.49-14.1-4.65-20.86-5.69q-31.38-4.84-60.25-16.18c-19.41-7.63-26.24-19.95-46.71-25.63-2.77-.77-13.04-3.79-12.82,10.07h0Zm-26.9-15.74c-13.35-1.48-30.75,2.9-42.72,5.67-33.75,7.8-38.97,12.45-50.47,22.14-16.58,13.98-16.13,24.04,0,25.36,17.29,1.42,48.24,3.22,54.64,4.48,20.09,3.95,33.59,7.13,51.27,3.95,10.37-1.86,11.1-12.72,8.25-22.23-4.44-14.83-6.29-37.73-20.97-39.37h0Zm-2483.05,94.58c-11.35-9.57-53.59-8.87-83.46-1.96-23.71,5.48-63.21,15.43-60.34,28.89,3.03,14.2,59.18-.42,79.93-10.68,19.4-9.59,72.44-9.02,63.87-16.24h0Zm1640.59-44.93c27.16-3.63,59.27,6.25,82.29-10.45,36.58-26.53-19.19-83.05-59.85-57.22-18.18,11.55-56.58,35.53-56.58,53.37,0,10.1,9.64,6.28,19.76,12.86,3.07,2,11.13,1.47,14.39,1.45h0Zm-1541.06,29.92c12.39-10.47-4.31-22.21-7.8-23.6-17.64-7.02-37.05-1.06-54.66,1.77-14.37,2.31-30.57,2.69-42.88,12.03-5.32,4.03.37,11.98,4.27,13.91,14.4,7.13,30.84,11.08,46.79,8.52,18.15-2.92,39.11.18,54.28-12.63h0Zm1800.53-171.36c-98.15-1.36-85.13,35.83-14.85,58.03,17.17,5.43,59.1,6.03,87.25-11.68,47.94-30.18-1.78-45.37-72.4-46.35h0Zm-339.79,133.06c-4.37-17.74-26.68-16.41-40.23-14.75-4.29.53-8.56,1.24-12.81,2.08-6.38,1.26-14.92,4.99-14.61,13.1.32,8.65,9.08,14.17,16.77,14.05,5.97-.09,11.91-.87,17.86-1.29,11.38-.81,27.42-.57,33.02-13.19h0Zm491.27-51.24c3.13,5.93,10.45,8.24,16.38,8.14,30.33-.5,96.64-5.6,66.87-25.89-12.39-8.45-65.16.17-83.25,17.75h0ZM100.71,1240.77c10.05-16.29-10.48-14.49-35.65-9.04-8.02,1.74-16.88,9.79-11.42,18.1,4.06,6.17,41.71-.39,47.06-9.06h0Zm351.89-95.86c-5.57,11.81,14.02,8.69,16.07,8.78,10.51.5,22.21,2.52,31.66-1.87,13.92-6.47,12.98-11.07-5.3-11.5-10.16-.24-20.34-.2-30.49.4-3.32.2-11.06,2.33-11.94,4.19h0Zm1019.31-38.45c.7-6.47-8.86-7.82-12.7-8.65-9.14-1.97-18.99-4.31-28.3-1.67-3.54,1-9.48,3.15-9.12,8.18.33,4.53,6.47,4.43,9.29,4.58,10.98.57,21.97,1.09,32.96,1.35,2.5.06,7.48-.02,7.87-3.8h0Z"/>
  <path class="cls-1" d="m2055.2,789.57c26.32,15.53,38.56,22,38.56,32.82,0,24.87-4.54,33.54-18.41,38.36-39.31,13.66,74.39,1.3,161.67,9.41,79.03,7.34,93.12-3.27,133.45-13.05,25.95-6.29,66.94-32.27,51.04-43.85-13-9.48,85.01,45.36,42.74,25.84-34.36-15.86-52.29,8.54-80.54,18.01-38.92,13.05,169.1,100.1,212.42,97.22,82.04-5.45,72.21-26.82,66.3-27.8-4.52-.75,28.26,3.52,26.82,3.41-3.9-.3-10.36,28.82-103.31,28.82-56.36,0-190.45-79.55-235.47-73.45-42.16,5.72-32.11-1.84-113.46-6.48-93.91-5.37-132.14-3.21-167.06-4.43-38.7-1.36-99.83,20.61-150.03,18.18-45.77-2.21-45.69-6.4-52.87-3.98-17.37,5.85-16.97,10.92-36.22,12.6-31.07,2.71-25.89-15.74-93.99,2.68-91.03,24.62-261.25,105.43-313.5,86.3-83.56-30.59-153.38-36.27-173.68-38.23-68.85-6.63-179.99.67-273.41,2.39-35.03.65-66.69-3.65-93.97-3.73-34.1-.1-18.3-15.07-66.87-12.3-61.6,3.51-96.57,21.67-153.43,12.3-20.54-3.38-39.21-4.99-46.9,6.15-1.63,2.37-25.34,29.74,6.89,26.18,53.45-5.89,182.84-11.73,219.24-24.17,8.65-2.96,14.66,2.42,28.48-3.58,5.67-2.46,1.75-4.91.62-5.1-20.93-3.42,35.28-1.14,11.98.52-5.14.37-2.93,5.4-17.53,10.78-13.3,4.9-31.31,8.34-39.34,9.37-52.15,6.69-227.81,20.21-241.24,24.25-70.03,21.04-155.78,47.87-216.8,38-108.84-17.61-336.92,44.21-339.83,58.82v-23.38c67.1-21.63,204.18-87.01,339.83-73.44,78.26,7.83,125.34,17.5,186.01,0,39.61-11.42,45.37-27.84,45.37-36.24,0-12.27-22.22-14.99-29.36-15.32-109.47-4.93-202.36-13.46-268.49-2.77-35.41,5.72-73.6,15.73-84.05,18.09-28.72,6.46-21.38,8.43-31.86,17.02-10.19,8.36-18.46,4.25-34.27,7.89-2.48.57-27.81,9.57-28.78,10.28-5.6,4.08,10.94-11.85,10.63-10.95-1.59,4.69,4.87.75,9.71-.73,9.06-2.76,21.12-5.04,26.61-6.92,13.52-4.62,8.52-6.14,19.42-13.98,5.21-3.75,21.58-5.22,11.91-7.05-8.29-1.56-16.02-1.95-22.81-2.01-2.84-.02-5.78-1.77-14.39,2.01-7.24,3.18-15.86,6.53-28.14,18.18-6.34,6.01,2.75,5.79-4.93,14.02-12.02,12.87-37.43,30.13-57.9,35.26-22.66,5.69-40.08-1.4-44.52,0-.35.11,0-5.76,0-5.76,5.28,0,16.99,2.66,44.52-5.44,18.65-5.49,53.81-24.16,54.11-34.13.34-11.48,37.11-25.09,18.98-24.53-25.98.81-38.79,15.99-63.35,24.53-22.99,8-52.41,0-52.41,0,0,0-.19-5.62,0-5.61,44.63,2.65,51.33-1.7,73.12-14.11,23.09-13.15,48.54-20.4,100.2-9.7,35.27,7.31,83.8-14.96,129.94-17.11,79.61-3.71,188.91,7.14,266.1,10.74,119.98,5.59,97.82-2.53,216.65-5.61,30.56-.79,212.8,13.96,255.54,11.99,154.86-7.15,138.65-16.4,194.03-22.95,77.57-9.17,96.3-14.22,143.14-53.95,52.94-44.91,106.47-33.52,219.93-42.59,15.24-1.22,34.2-2.1,55.18-2.72,16.63-.49,35.28,13.55,53.62,13.34,13.79-.16,108.77-17.93,121.99-15.79,28.72,4.64,90.23-5.57,119.43-4.51,76.92,2.8,47.37-22.97,55.87-33.92,22.7-29.25,27.05-13.84,78.38-26,30.78-7.3,17.9-.59,100.97,5.42,36.95,2.67,120.49,26.28,156.97,24.27,19.21-1.06,45.12-.28,123.96,19.89,65.95,16.87,121.68,45.61,211.45,46.61,176.88,1.96,304.24-52.42,452.9-10.45,7.51,2.12-.35,9.09.34,9.15,16.29,1.52-100.57-2.82-139.07-14.65-22.83-7.01-85.87,3.82-64.92,20.2,25.99,20.32,37.82,49.91,43.28,50.53,89.03,10.06-99.29,9.36-22.1.38,5.74-.67-18.27-33.33-37.69-48.54-24.5-19.18-88.82-9.92-109.43-3.64-35.48,10.81-40.23,6.08-86.34,13.05-26.07,3.94-8.51,43.78,0,42.75,33.79-4.1-28.05,5.52-23.35,3.66,10.39-4.12,7.72-36.49-26.95-31.24-52.85,8.01-152.6-52.77-180.66-49.49-31.86,3.72,118.31,71.77,126.56,75.15,32.1,13.13,77.41,5.14,118.37,0,3.1-.39,53.17-6.74,56.52-7.09,26.76-2.86,16.75.12,68.63,4.11,33.52,2.57,121.36,1.8,189.8-1.64,50.9-2.56,86.63-9.35,87.35-10.32l-.34,23c-28.63-5.7-56.69-6.86-74.01-6.12-49.12,2.09-59.36,9.73-122.35,5.2-52.47-3.77-130.69-10.89-149.08-9.2-72.8,6.69-25.31,21.38-120.8,21.04-69.93-.25-199.07-68.79-271.66-117.11-37.92-25.24-190.42-33.3-207.38-39.51-12.9-4.72-48.6-13-86.57-8.19-38.65,4.89-59.42-6.73-70.08,17.04-5.85,13.03,4.43,31.62-26.98,40.21-27.05,7.4-49.91,6.02-62.99,6.88-14.92.98-79.35,1.83-99.82-2.84-14.33-3.27-107.73,16.4-124.17,17.76-19.19,1.58-43.66-9.78-59.66-8.36-18.35,1.63-33.11,2.91-40.87,3.27-38.12,1.79-17.84,67.18,19.7,71.88,18.65,2.33-58.67,27.4-48.39,22.1,12.02-6.2-15.39-96.67-70.45-93.98-119.21,5.83-48.17,81.01-205.28,87.43-57.64,2.36-82.75,9.23-80.67,11.77,8.96,10.92,58.41,5.63,185.77,41.14,94.93,26.46,180.02-77.45,276.28-81.09,5.93-.22,11.96,0,34.54-5.12,28.14-6.39,45.85,3.37,68.25,1.68,20.48-1.54,33.28-8.89,44.95-10.73,7.24-1.14,23.78,2.42,52.87,4.43,40.93,2.82,85.8-9.67,136.91-30.23,37.95-15.27-.06-48.27-8.81-45.95-22.05,5.87-3.78-29.32,7.16-22.86h0Z"/>
  <path class="cls-1" d="m1974.28,610c4.46-6.43-30.49-5.49-57.54,2.55-20.43,6.07-7.66,22.86-30.69,22.64-20.43-.2-62.12,11.9-97.91,21.75-19.25,5.3-60.43,19.52-78.22,22.14-29.14,4.28-60.58,3.34-91.53,0-37.04-3.99-59.33,10.86-103.81,21.44-40.17,9.57-22.08,59.87,9.23,53.41,78.05-16.12-97,27.24-52.52,12.6,19.06-6.27,31.32-63.71-22.49-56.45-36.29,4.9-106.61,9.11-142.48,9.11-21.39,0,27.19,48.57,42.35,51.84,37.66,8.13-4.45,8.87-24.49,7.68-9.71-.58-56.35-6.56-17.85-9.1,20.24-1.33-9.05-39.98-28.83-45.83-7.13-2.11-22.11-1.65-29.69-1.8-41.36-.86-66.92.06-106.39-8.72-16.99-3.78-73.14-22.54-113.47-12.74-36.66,8.91-61.84,34.47-88.34,49.24-19.8,11.03,138.09,21.88,156.74,24.33,14.12,1.86,28.44,3.66,30.53,4.02,2.67.46-28.63,1.44-28.38,1.67,6.76,5.94-97.75,21.08-49.31,1.23,8.31-3.4-111.98-20.41-128.07-15.19-7.99,2.59-44.01-.5-46.85,15.19-3.41,18.89-41.71,53.5-25.86,48.88,23.55-6.87-8.42,8.02-12.89,8.02-3.8,0-43.18,6.7-17.64-1.75,15.08-4.99,75.77-66.55,8.49-44.29-12.12,4.01-24.59,3.51-33.51,3.56-72.95.4-168.42-56.01-220.42-80.36-24.31-11.38-57.72,10.67-64.63,19.9-23.31,31.14,9.43,28.51,31.39,37.16,27.93,11-22.55,5.1-24.8,6.56-8.6,5.59-26.52,23.57-45.89,22.28-6.38-.42-43.65,14.66-21.41,1.12,16.25-9.89-41.1-16.99-51.96-12.5-17.22,7.12-37.88-7.84-64.68-6.47-27.62,1.41-42.98.35-58.26-4.16-11.65-3.44-67.16-28.35-103.11-.86-20.12,15.39-34.83,95.04-16.98,99.29,30.67,7.31,2.85,5.35-9.68,3.29-7.74-1.27-43.63-2-17.45-4.37,8.57-.78,17.29-40.59,14.92-56.98-1.17-8.09-9.05-23.5-23.97-29.75-9.43-3.95-17.74-6.32-27.32-6.72-9.88-.42-27.52,1.01-34.95,8.99-9.03,9.71-20.03,26.38-36.78,24.99-.07-1.58-.14-3.16-.21-4.75,30.8,2.66,30.86-39.05,61.96-37.02,69.68,4.56,56.98-25.29,137.18-23.19,57.52,1.5,76.6,29.88,106.28,26.8,119.78-12.47,92.53,18.69,135.01-3.6,25.39-13.33,44.78-88.9,107.23-74.58,33.84,7.76,67.11,46.99,135.83,57.61,104.76,16.19,68.59-7.75,181.25-8.37,48.29-.27,71.76-42.21,146.56-58.15,68.59-14.62,119.02,19.23,209.11,21.12,134.89,2.83,236.75-20.69,296.86-46.36,44.01-18.79,104.17,17.45,197.53-1.09,52.49-10.42,123.23-25.96,154.81-47.46,19.93-13.57,34.89-17.26,54.29-19.57,41.78-4.97,87.09,7.1,126.8,15.53,113.49,24.08,106.4,5.82,174.04,0,178.8-15.39,296.29-5.44,334.51,12.39,47.72,22.27,56.32,33.12,107.52,39.17,41.43,4.9,117.03,66.25,129.81,69.64,22.46,5.94,45.27-16.68,54.92-31.24,12.75-19.23,66.69-21.28,90.86-16.42,30.52,6.14,51.67,20.57,77.07,15.5,19.66-3.93,39.41-7.73,59.31-11.21,17.28-3.04,39.99-5.46,58.16-5.3.09,2.1-.09,8.19,0,10.29-4.83-.34-15.85,1.8-20.33,3.92-16.59,7.82-21.76,40.73-12.31,50.11,1.49,1.47,5.35.82,6.42.77,3.06-.14-21.46,6.87-22.37,6.91-1.07.05-11.33-7.8-7.58-7.98,13.21-.62,6.9-20.79,15.64-35.24,16.17-26.74-33.54-18.67-60.4-2.35-16.41,9.98-10.63,39.91-2.44,39.18,4.48-.4-20.52,2.26-18.61,2.02.79-.1,2.72-.39,5.98-1.09,8.46-1.8-11.06-21.76-23.26-33.65-8.47-8.26-31.27-14.86-47.69-18.67-29.2-6.79-99.56,9.79-112.18,53.78-11.59,40.4-35.67,47.62-15.77,54.97,11.61,4.29-18.76,14.07-36.29,7.59-20.87-7.71-34.96-29.19-13.51-27.26,6.54.59,32.2,1.97,24.37-26.4-3.84-13.91-45.5-51.37-94.62-78.63-17.47-9.7-77.96-17.14-94.14,0-24.48,25.94,29.69,70.09,54.57,71.64,63.87,3.97-31.81,15.64-34.27,15.92-2.47.28-126.06-22.02-45.79-16.13,27.29,2,61.02,2.29,0-45.93-35.74-28.25-20.18-49.47-90.48-83.54-18.5-8.97-62.14-15.89-109.02-13.52-14.91.76-12.85,46.63-5.99,48.68,26.39,7.88-14.14-.82-16.44-1.13-2.39-.33-37.05-3.19-10.04-2.37,16.97.52,15.52-44.42,2.2-45.03-52.82-2.4-104.32,6.15-124.37,13.37-99.25,35.76-55,36.92-34.13,38.47,59.65,4.41-49.93,9.81-72.41.33-32.49-13.69-199.13-39.01-133.64-54.14,8.12-1.88,9.29-6.01,0-4.56-6.04.95-14.55.26-16.4,0-8.8-1.21-20.5,24.7-12.17,19.52,8.65-5.38,17.64-13.66,0,3.72-.98.96-8.09,9.34-9.8,9.65-.38.07-14.25,14.12,0-4.36,4.13-5.35-3.64-8.4,8.01-25.19h0Z"/>
  <path class="cls-1" d="m3155.45,761.03c-19.82,9.83-76.75,8.22-104.54,9.9-52.89,3.21-96.79,19.66-145.79,43.82-51.75,25.52-101.52,11.01-149.16-12.48-39.61-19.53-126.7-19.73-173.43-20.24-18.51-.2-128.41-37.95-247.13-76.47-52.58-17.06-85.18-16.75-236.55-40.08-115.74-17.84-123.74,24.22-251.08,49.16-60.47,11.84-123.42,30.74-143.16,29.77-170.95-8.36-164.1,62.78-380.83,37.62-105.52-12.25-112.45,21.01-194.71,48.56-38.87,13.02-65.85,3.03-107.16,10.33-9.76,1.72-32.56,16.75-102.35,16.75-44.7,0-61.16-7.87-106.42-7.87-55.15,0-86.93,26.62-141.27,4.12-53.42-22.12-64.2-54.03-137.7-23.33-55.88,23.33-116.01,19.92-132.44,19.21-15.54-.67-30.97-3.03-46.37-4.88-18.73-2.26-37.61-3.77-56.48-2.52-14.51.95-60.55,22.34-71.52,27.2-17.32,7.69-36.86,21.65-57.29,24.03-7.23.83-70.86-5.71-95.1,0-14.01,3.31-27.85,6.98-41.86,10.27-4.17,1.05-11.98,3.53-16.45,4.15v-17.24c18.76-5.53,40.83-11.57,61.15-13.49,4.09-.4,8.23-.85,12.34-.89,26.77-.28,53.48-.85,79.92,3.59,11.57,1.94,41.6-13.7,50.93-17.56,15.09-6.24,24.65-14.02,38.69-21.43,26.32-13.92,40.75-6.94,72.83-3.85,11.37,1.09,22.74,2.36,34.11,3.43,21.88,2.06,52.23-25.72,111.67-54.98,48.01-23.64,68.49-11.61,85.3-3.6,36.04,17.19,152.41,70.99,242.66,56.22,126.67-20.73,94.31-47.46,156.75-38.93,40.42,5.52,95.62-27.1,117.11-24.16,23.13,3.15,137.5,6.57,159.12,0,39.12-11.89,133.05-2.64,159.44,0,68.88,6.88,278.48-69.6,305.93-69.6,14.52,0,117.28,6.71,202.65-23.32,56.23-19.78,65.43-87.33,129.22-68.51,52.31,15.43,104.05,51.76,190.26,51.76s125.56-17.23,180.71,0c73.76,23.05,85.54,54.22,113.6,66.43,80.87,35.19,111.01,24.32,156.14,24.32,83.12,0,99.85,34.35,133.84,46.05,25.33,8.71,60.8,12.67,86.04,0,20.18-10.13,88.72-43.77,112.41-46.05,20.52-1.98,48.91-5.57,69.54-6.72,10.43-.57,48.32,4.73,62.26,0,8.66-2.94,14.35-17.75,14.18-17.6.17,0,0,26.49,0,29.13h0Zm-2045.03,53.72c4.22-21.65-5.73-21.2-30.3-24.19-31.97-3.89-81.59,18.32-90.8,24.19-8.55,5.45,2.15,16.37,16.17,15.84,61.53-2.35,101.86-.1,104.93-15.84h0Zm-141.5,23.49c11.8-5.66-25.67-30.83-36.63-28.61-21.18,4.28-33.88,15.77-54.65,20.96-9.09,2.26-21.77,4.18-13.41,7.65,5.98,2.48,19.19,8.11,57.43,8.11,31.21,0,32.69-1.13,47.25-8.11h0Zm1498.4-123.61c4.77-13.06-111.12-70.91-131.92-41.63-7.66,10.77,12.87,26.3,60.11,41.41,23.35,7.47,26.22-4.56,49.22,2.79,5.84,1.87,20.78,2.4,22.59-2.57h0Zm-691.58-.22c7.31-7.29-43.4-1.58-53.32-1.86-35.25-.98-53.08,6.42-52.26,15.95.79,9.24,53.07,4.06,65.27,3.41,18.23-.99,32.96-10.17,40.3-17.5h0Z"/>
  <path class="cls-1" d="m22.1,1363.66c27.31-.58,47.21-6.72,74.84-2.38,43.28,6.8,85.11,26.7,131.51,22.87,5.42-.45,17.71-8.44,20.6-11.2,16.4-15.65,39.95-50.3,70.55-59.91,31.43-9.88,58.78,16.12,92.97,8.63,71.17-15.59,138.35-39.9,213.58-44.77,19.1-1.24,48.46,1.67,66.32,6.6,28.2,7.78,57.01,25.37,89.72,24.26,63.94-2.17,121.76-25.07,185.81-26.53,43.65-1,80.52,19.68,123.91,19.76,26.58.05,53.06-3.78,79.62-3.11,67.14,1.71,133.95,7.5,201.01,10.27,65.01,2.68,65.38-1.54,130.34,2.26,27.08,1.59,53.77,5.97,80.9,7,85.12,3.2,166.71-18.36,251.42-19.36,44.85-.53,85.76,19.2,131.18,13,34.14-4.66,46.64-13.01,77.63-22.96,35.15-11.29,49.34-15.57,88.11-18.08,15.39-1,35.79,1.94,49.73,6.48,15.41,5.03,27.25,14.97,44.79,17.24,15.03,1.95,21.05-5.63,34.66-7.12,10.93-1.2,22.2.34,33.18-.64,32.75-2.91,66.09-12.08,99.78-8.65,53.42,5.44,96.78,25.99,147.9,37.01,22.5,4.85,45.98,7.14,69.24,9.64,28.38,3.05,55.41-7.26,81.6-12.44,21.44-4.24,36-5.8,58.3-4.33,33.46,2.2,62.39,6.55,94.05,14.54,36.06,9.1,33.33,13.86,70.87,19.4,39.08,5.76,81-5.7,117.8-11.82,27.65-4.6,55.26-9.34,83.12-13.26,11.84-1.67,23.81-3.83,35.87-3.49,2.13.06,1.98,3.95,0,4.52-4.24,1.23-9.17-.82-13.73-.54-14.44.92-33.81,7.19-31.52,9.32,2.29,2.13,31.72-2.13,45.25,3.45,1.6.66,1.6,3.26,0,3.91-3.14,1.28-7.24.43-10.88.53-22.78.63-45.67-.03-68.33,1.65-78.39,5.8-157.55,20.93-237.13,18.87-55.16-1.43-63.26-6.58-117.64-11.85-65.31-6.33-95.74-5.22-160.61-14.17-17.54-2.42-34.96-5.64-51.66-10.12-31.23-8.37-59.09-25.09-93.62-27.2-29.26-1.79-58.01-.58-86.29,5.39-26.56,5.61-52.18,20.28-81.86,16.83-46.04-5.34-82.27-27.38-130.37-27.4-71.07-.02-120.5,50.91-191.82,52.16-55.49.97-108.83-7.28-163.71-10.99-70.99-4.8-201.01-3.08-245.64-3.51-38.02-.36-76.02-2.17-114.04-1.76-79.3.87-161.16,10.26-240.7,3.53-64.09-5.43-121.96-31.52-187.38-31.23-56.85.25-102.38,28.75-158.56,31.29-94.49,4.26-186.82-15.49-280.87-17.43-42.8-.88-82.22,14.06-124.05,17.42-22,1.77-44.32-.97-66.42.02-59.03,2.65-46.8,71.2-107.42,71-36.81-.12-68.9-4.15-103.83-12.24-17.04-3.94-32.5-13.97-51.44-14.57-12.87-.41-25.42,3.06-38.24,3.96-6.24.34-12.28,2.66-18.41,4.12v-13.88h0Zm1822.56-40.33c7.4,2.69,15.4,6.07,23.26,8.11,8.28,2.15,14.06,2.66,22.83,2.89,7.18.19,14.89-1.88,19.76-5.67,4.82-3.75,6.94-9.51,1.02-13.37-4.11-2.69-7.81-3.28-12.92-4.54-11.16-2.76-23.25-6.51-35.33-6.21-13.79.34-22.88,9.21-18.61,18.8h0Zm-71.29-3.67c8.79,2.57,20.02,5.5,30.01,6.25,10.28.78,22.63-.08,30.26-5.66,9.15-6.69,3.94-18.19-10.83-16.33-6.5.82-79.11,7.2-81.65,17.8,11.78,3.05,22.71,2.08,32.21-2.06h0Zm-466.13-3.09c6.16-.21,8.11,5.75,14.17,5.47,8.49-.39,15.03-8.79,5.11-11.36-5.66-1.46-11.63.39-17.33.15-16.13-.66-33.2-4.1-49.42-1.33-8.16,1.39-9.85,7.89-3.9,11.67,5.26,3.33,14.52,3.17,20.7,2.15,10.17-1.69,19.97-6.39,30.68-6.75h0Zm1473.62,6.26c-6.13-4.13-28.91-4.56-31.83-3.96-7.01,1.43-15.95,4.62-17.24,10.39-.38,1.7,5.46,6.96,7,7.49,5.79,1.98,12.44,4.21,18.83,5.08,9.76,1.33,18.27-2.31,23.7-7.81,3.03-3.07,3.7-8.39-.45-11.18h0Zm-2126.66-16.93c17.82,5.95,37.74,7.97,57.01,9.95,6.28.65,13.18,1.09,18.86-1.39-19.28-10.51-44.69-19.19-63.13-21.73-5.99,2.97-11.58,6.26-12.73,13.16h0Zm561.96,18.79c6.69-.93,13.41-1.78,20.04-2.89,9.32-1.56,10.39-12.36,1.81-15.09-6.64-2.11-14.09-1.5-21.11-1.56-6.95-.07-8.14-.4-15.08.09-3.11.22-6.67.7-9.16,2.2-5.42,3.28-5.82,9.53-.19,12.81,6.32,3.68,16.34,3.39,23.68,4.44h0Zm1627.21,7.95c-.14-.79-.28-1.59-.42-2.38-7.94-1.28-16.06-1.88-24.12-2.68-5.97-.59-25.65-9.67-28.81-5.55-2.41,3.15.78,4.16-3,11.98-2.31,4.79-1.02,5.54,3,9.29,3.88,3.63,9.64,3.25,16.49,3.36,14.56.22,26.29-8.53,36.86-14.03h0Zm-2183.63-41.43c-16.58-2.67-17.73-2.22-34.65-2.92-6.4-.27-15.03-1.36-21.28.85-5.68,2-7.48,7.39-2.26,10.46,7.4,4.36,17.59,3.46,26.42,3.67,3.3.08,6.61.51,9.9.3,10.11-.66,17.14-6.6,21.86-12.35h0Zm2230.91,57.27c5.05-.96-7.3-5.91-11.51-7.52-4.62-1.78-22.91-6.93-26.58-6.95-10.95-.06-25.57,13.23-19.23,15.64,6.35,2.41,49.67.28,57.31-1.17h0Zm-967.57-21.27c-.88,1.89,3.2,3.4,5.59,4.48,8.02,3.64,19.74-.68,27.64-2.38,5.08-1.09,13.33-2.56,13.18-7.35-.14-4.53-30.85-4.03-34.64-3.58-6.33.75-10.74,6.61-11.77,8.83h0Zm-811.51-18.42c33.37,8.58,58.05,11.14,71.2,7.47-10.01-12.82-35.03-11.82-52.45-10.23-6.33.58-12.64,1.46-18.75,2.76h0Zm-518.95-11.44c-.76-1.54-2.57-4.5-4.6-5.52-6.8-3.43-15.74-.79-22.62.59-4.81.96-9.61,1.95-14.36,3.04-4.92,1.13-10.64,2.41-14.25,5.27-2.23,1.76.92,2.81,3.14,3.04,3.05.32,6.16.4,9.25.39,7.19-.03,14.38-.32,21.56-.53,7.87-.23,17.69-.62,21.87-6.28h0Zm2138.8,22.4c-5.05.14-10.1.32-15.13.63-3.24.2-15.83,3.76-18.76,5.25-.92.47,1.68,4.82,3.47,5.26,3.95.98,9.34,2.26,13.67,1.23,8.32-1.99,14.25-6.42,16.75-12.37h0Zm-444.33-16.49c-1.97-5.39-19.12-1-23.72-3.67-2.92-1.7-17.64-1.91-17.83,4.69-.07,2.42,2.14,3.15,6.3,5.22,2.73,1.35,12.75.45,17.37-.61,4.62-1.06,19.07-2.34,17.87-5.63h0Zm-584.08,15.26c4.71,2.29,10.56,3.04,16.11,3.47,4.67.36,10.12.54,14.39-1.21,3.99-1.64,3.93-5.65-.44-6.9-2.28-.65-13.13-.32-15.61.05-5.41.79-10.02,2.29-14.45,4.59h0Z"/>
  <path class="cls-1" d="m3029.27,1527.13c-29-6.7-60.14-12.9-91.32-12.82-26.28.06-25.58,3.63-51.44,2.74-34.54-1.19-65.91-12.15-100.64-13.44-36.19-1.35-62.88,17.91-98.5,15.12-14.89-1.17-78.36-26.33-88.35-28.43-13.51-2.84-38.82,26.04-51.48,31.01-30.01,11.77-38.21,9.75-65.27,6.65-42.74-4.91-98.7.2-141.08.34-46.1.15-91.48-2.72-136.8,2.06-31.64,3.34-56.61-2.09-89-5.43-59.1-6.09-114.52-8.97-173.02-16.2-70.29-8.68-142.81,11.07-211.44-3.67-14.69-3.16-29.01-7.24-42.32-12.34-17.05-6.55-30.29-22.32-52.94-21.86-73.7,1.5-160.2,10.99-225.8,30.79-43.83,13.23-74.68,27.89-125.53,29.63-41.06,1.41-47.55-2.99-83.42-5.65-59.04-4.38-118.57,2.08-177.44-4.32-35.25-3.83-41.77,1.68-73.42-3.62-29.35-4.91-60.51-3.02-90.52-5.81-37.3-3.46-70.69-16.49-109.83-15.59-30.71.71-60.88,6.23-91.59,6.77-15.81.28-40.68-3.65-57.84-3.67-40.23-.05-82.58,4.23-122.38,8.33-40.21,4.14-77.72,4.17-116.45,11.79-29.76,5.86-54.94,14.73-87.06,15.61-34.68.95-66.01-8.8-100.3-10.2-53.52-2.19-98.91-9.91-148.95.7,0-2.99,0-26.51,0-6.11,27.48-7.1,56.57-6.78,61.41-13.13,4.37-5.73,9.17-13.25,0-18.11-15.86-8.41-40.89-2.95-61.41-2.78v-10.75c50.56,3.97,61.17,3.49,105.58,1.96,17.42-.6,34.86-.1,52.31.03,35.11.26,34.02,4.7,69.05,5.39,55.19,1.09,93.46-32.27,148.32-35.31,11.14-.62,43.68-1.35,54.57-3.02,52.01-7.98,103.23,8.88,156.4,6.54,45.88-2.02,90.43,5.93,136.22,4.65,41.98-1.17,79.87-17.04,122.84-16.22,24.44.47,77.22,11.67,97.28,14.5,34.05,4.8,68.67,7.71,103.03,11.47,32.47,3.55,75.6,9.49,108.89,4.65,35.2-5.12,57.08-24.47,92.04-30.2,35.97-5.9,76.85-7.36,113.39-13.99,28.97-5.26,52.36-13.42,82.36-17.66,35.63-5.04,35.15,2.02,71.57,2.41,14.66.16,29.3-1.44,43.7-3.19,32.1-3.9,58.98-9.42,91.96-10.3,42.21-1.13,91.38,3.25,131.91,12.15,56.19,12.34,110.63,30.7,170.75,33.85,41.04,2.15,71.75-3.74,112.8-4.63,41.51-.9,77.94,10.32,118.64,12.18,43.39,1.98,88.43-4.67,131.41-6.72,39.2-1.87,48.35.73,92.03,3.54,8.4.54,41.1,1.87,50.1,2.98,61.38,7.58,121.23-34.7,178.64-19.26,29.54,7.94,53.4,22.08,83.14,29.44,8.58,2.12,64.88,10.01,70.47,10.6,61.78,6.56,123.3-11.37,185.1-13.2,51.8-1.54,102.92,4.69,154.4,7.07v19.71c-17.44-5.65-44.7-9.02-63.43-11.77-20.73-3.04-44.12-7.58-65.4-3.39-15.31,3.01-22.17,10.04-28.25,18.96-3.88,5.69-10.74,12.85-.42,17.38,26.11,11.44,63.4,14.53,94.07,14.69,21.16.11,42.29-1.15,63.43-1.83v8.96c-41.48-.02-83.11-.02-124.73-.02h0Zm-1557.24-80.32c-5.49-1.31-35.61-5.96-54.44-6.52-20.7-.62-41.48-.32-62.15.59-47.74,2.11-90.73,6.02-130.78,23.47-19.07,8.31-36.48,10.07-28.85,24.81,20.17,38.95,105.12,34.35,149.67,23.06,20.99-5.32,40.76-12.45,61.21-18.58,23.31-6.98,41.77-12.97,65.33-19.57,27.11-7.6,71.34-2.13,74.83-11.12,2.51-6.46-61.41-12.94-74.83-16.14h0Zm886.03,60.5c0-7.6-3.29-15.58-8.18-22.45-2.95-4.15-5.83-8.42-10.22-12-35.82-29.17-87.21-13.95-135.27-14.2-41.64-.22-40.3-4.89-81.54-8.08-30.69-2.38-33.56-1.15-59,.23-24.56,1.33-49.06,3.51-73.7,3.82-4.8.06-28.18-5.95-29.44,4.01-2.67,21,23.48,25.96,45.76,34.32,36.31,13.62,65.78-.17,108.92,6.33,51.47,7.75,95.56,28.24,146.3,22.04,21.25-2.6,48.06-2.84,67.29-3.39,13.65-.39,29.09,1.98,29.09-10.61h0Zm14.64-54.8c-7.19.81-14.69.88-21.53,2.51-5.66,1.34-3.76,8.08-3.07,9.95,5.36,14.57,11.35,12.69,19.22,26.87,2.94,5.29.41,22.3,13.41,25.68,35.49,9.22,69.77-10.37,106.86-5.63,34.56,4.42,76.89-40.54,111.44-36.01,29.42,3.86,57.33,30.2,88.35,26.61,10.53-1.22,20.83-3.33,30.83-5.79,19.13-4.71,16.7-15.29,11.1-26.09-4.44-8.56-21.03-12.29-31.24-16.77-7.95-3.49-14.88-7.98-23.3-10.96-16.54-5.87-90.71,11.88-97.52,10.38-27.62-6.09-59.67,9.55-89.66,5.55-24.09-3.21-29.41.39-53.26-.22-12.6-.32-52.24-5.08-61.62-6.09h0Zm-1447.18,54.8c29.81-1.37,39.81-4.95,65.86,0,14.54,2.76,20.98,5.1,35.9,6.82,40.27,4.64,83.16,1.5,123.86,1.11,2.65-.03,36.43,2.32,41.4-5.52,3.12-4.92-9-17.05-26.39-23.47-13.5-4.97-35.12.65-48.14.75-20.27.15-40.59-.34-60.77-1.61-47.24-2.97-86.64-25.52-132.76-28.92-17.19-1.26-44.27-.28-54.52,9.33-7.02,6.58-15.28,25.89,4.15,36.11,13,6.83,34.69,5.85,51.42,5.39h0Zm838.54-5.73c12.14-.04,24.26-1.37,36.09-3.13,15.59-2.31,41.13-5.73,48.31-17.5,7.87-12.9-13.79-30.29-21.28-38.62-10.65-11.84-18.49-21.97-41.26-22.83-30.8-1.16-49.26,5.85-74.59,15.77-9.86,3.86-10.76,2.86-19.87,8.51-19.23,11.93-9.84,37.4,9.35,46.47,17.02,8.04,43.21,10.05,63.24,11.32h0Zm-1489.68,19.73c-5.81-10.18-27.73-29.48-71.17-33.36-11.33-1.01-42.02-3.55-52.65-2.53-11.58,1.11-46.54,1.78-47.01,14.98-.31,8.75,58.83,18.21,77.94,20.19,38.87,4.03,96.88,7.7,92.89.72h0Zm186.49-68.8c-23.65,3.91,29.24,41.84,44.49,42.08,54.81.89,54.08-3,108.92-3.92,28.54-.48,41.84,3.52,71.11-.25,14.87-1.91,56.17-4.32,58.6-20.41-68.59-10.96-141.74,8.07-201.11-11.41-21.72-7.12-26.13-15.32-82.01-6.09h0Zm10.06,40.2c-29.2-13.53-30.47-30.01-64.23-29.76-19.26.14-154.22,28.63-147.29,33.75,25.1,18.52,44.23,12.86,70.45,16.66,3.07.44,26.33,2.48,31.33-.32,3.64-2.04,18.68-4.31,23.74-4.65,23.04-1.53,37.83-.25,59.71-4.78,11.44-2.37,41.88-3.67,26.28-10.9h0Zm2534.68-26.4c-8.66-6.84-33.99-2.52-44.62-1.31-18.95,2.16-37.82,4.6-56.77,6.74-13.8,1.56-31.39,2.36-43.12,7.97-2.2,1.05-4.26,2.28-5.86,3.71-5.9,5.27-16.9,10.71-14.67,17.05,1.67,4.74,13.13,4.98,20.37,6.33,16.9,3.15,23.68,3,42.6,2.35,19.49-.67,41.13-2.05,58.29-8.77,19.37-7.6,31.32-22.63,43.77-34.07h0Zm-1049.4,28.28c3.5-6.08.29-16.46-5.35-21.52-19.32-17.34-23.57-23.05-48.98-30.04-6.31-1.73-13.19-2.46-19.58-4.07-8.79-2.22-29.35-11.55-40.98-8.83-3.32.77-.15,4.74,1.45,6.78,5.74,7.29,17.04,18.95,22.9,26.04,2.15,2.6,4.85,6.2,4.51,9.39-.05.46-4.31,9.91-1.38,13.26,2.82,3.22,19.11.21,22.16.23,15.24.08,28.66,5.84,42.73,8.92,5.25,1.15,19.06,5.87,22.52-.16h0Zm-1179.37-28.28c-12.28,14.74,13.86,19.42,33.54,18.97,10.22-.24,15.06-2.69,24.77-5.07,2.66-.65,39.8-28.1,30.08-30.42-9.72-2.32-54.32,7.71-88.39,16.52h0Zm2070.11,16.82c-2.14-.83-4.02-1.93-6.18-2.74-12.31-4.59-24.58-2.88-40.01-3.69-6.39-.33-12.77-.84-19.17-.82-7.49.01-17.29.83-23.09,4.5-4.62,2.92-6.79,7.39-1.76,10.81,3.43,2.33,10.64,3.56,15.05,3.85,9.78.65,46.99,5.57,61.8-.92,5.96-2.61,10.25-6.93,13.37-10.97h0Zm-2025.08,10.51c1.7,3.66,30.13,12.03,35.36,11.54,5.23-.49.56-10.47-5.5-12.47-5.61-1.85-.94-9.36-4.68-9.48-4.98-.15-26.67,7.19-25.18,10.41h0Z"/>
  <path class="cls-1" d="m1491.61,90.2c2.32,7.18,51.76,24.21,73.52,21.8,30.51-3.38,41.91-1.42,56.57-15.78,10.6-10.38,1.64-43.54-29.62-32.54-32.49,11.43-29.3,3.85-52.8,6.93-16.48,2.16-49.98,12.41-47.66,19.59h0ZM351.87,219.83c-41.5,0-90.25,23.31-90.25,30.06s47.03,14.28,53.63,14.57c30.64,1.35,55.72-2.09,84.91-12.1,10.72-3.67,25.46-8.7,17.45-27.63-6.9-16.32-46.27-4.9-65.75-4.9h0Zm715.57-95.39c-22.24,0-87.22,21.43-82.14,28.26,13.19,17.69,78.06,2.86,94.41,0,20.88-3.65,26.38-8.99,25.06-18.72-2.17-15.93-18.78-9.54-37.33-9.54h0Zm194.03-40.67c0-10.61-39.04-4.22-41.17-1.71-6.89,8.14-40.35,7.78-44.8,8.14-4.09.33-36.32-4.38-42.75,12.75-5.56,14.82,3.42,27.04,22.25,21.48,22.96-6.78,57.8-17.46,87.93-21.48,6.64-.89,18.54-8.92,18.54-19.19h0Zm1008.01-15.56c-14.79,41.73,35.35,37.1,55.27,37.44,5.31.09,16.02,3.02,22.08-9.43,4.85-9.98-1.97-26.84-11.53-31.02-26.07-11.43-56.81-22.41-65.83,3.02h0Zm-911.26,21.99c-1.21-5.02-20.79-3.55-40.08-5.02-8.51-.65-7.54-6.79-26.33-3.13-25.81,5.03-18.93,8.26-18.76,16.01.3,13.93,89.22,8.95,85.17-7.86h0Zm1509.84,48.84c-13.25-3.34-40.79-8.16-49.96-5.06-12.33,4.16,0,18.72,11.12,18.72,29.6,0,49.28,9.21,56.8,9.15,4.47-.04,9.06-4.59,6.16-8.17-5.55-6.86-15.23-12.4-24.11-14.64h0Zm-131.73-10.29c-2.91,3.78,8.64,15.17,12.83,16.79,4.05,1.57,39.09,8.13,45.43,7.16,11.44-1.76,14.83-10.01,15.08-12.02,1.2-9.71-27.34-18.75-35.6-18.81-10.17-.07-31.26-1.54-37.74,6.88h0ZM421.01,257.52c1.74,6.95,15.39,2.98,21.34,1.94,2.88-.51,40.88,14.51,37.69-9.74-.68-5.17-15.81-10.42-21.4-10.41-15.1.03-40.69,5.99-37.64,18.21h0ZM2886.01,96.21c6.28,7.17,57,20.52,62.72,16.99,2.79-1.72-73.45-29.23-62.72-16.99h0Zm-1672.6,78.4c-5.55-.58-31.19,5.28-33.29,5.89-4.27,1.24-8.02,5.94-4.62,8.71,9.12,7.46,29.47,8.62,37.91-5.2,8.28-4.06,3.7-9.01,0-9.4h0Zm-58.41,29.79v-3.15c9.12-10.7-7.25-20.71-22.25-11.38-12.69,7.9-58.98,13.39-49.56,18.55,0,8.51,26.67-1.53,37.8-2.92,4.25-.53,25.65-2.24,34.01-4.24v3.15c-29.29,7.1-73.24,13.51-102.63,20.33-17.56,4.07-41.11,12.16-60.29,11.28-.49-.02-35.52,1.35-35.99,1.31,0,0-.98-.07-.89-.59.17-.93-.25-.96.89-.81,3.44.44,72.79-10.45,83.36-14.29,44.36-16.14,41-21.61,86.83-35.19,78.37-23.22,162.51-26.7,244.18-34.61,54.79-5.31,70.03-6.51,124.08-15.9,9.24-1.6,31.33-6.75,38.5-12.75-44.54-13.69-93.12-36.85-143.03-26.96-25.86,5.13-50.29,14.52-75.88,20.52-24.83,5.82-49.41-5.36-74.1-4.74-13.88.34-39.41,10.53-51.81,14.58-31.49,10.3-62.84,20.93-94.64,30.55-16.98,5.14-33.95,10.6-51.62,13.71-18.04,3.18-38.65,4.92-56.64,5.34-40.98.97-88.06-5.23-129.06-.38-59.81,7.08-118.44,20.21-178.22,27.45-42.91,5.19-65.67-2.67-108.46-2.01-22.43.35-81.48,6.03-89.53,7-17.69,2.13-37.2.41-32.76,11.59,4.47,11.24,57.77,26.61,101.01,29.88,12.88.97,60.28-3.03,85.96-4.11,22.41-.94,235.12-21.07,321.84-9.68v1.4c-68.68-4.88-128.7.51-192.81,3.57-75.25,3.59-155.32,16.68-230.09,23.57-67.78,6.25-138.39,7.11-206.29,8.42-72.61,1.4-144.66-11.98-229.39,0-18.06,2.56-66.7,15.01-73.57,14.57v-16.32c67.63-12.11,98.67-1.13,183.45-27.59,28.8-8.99,78.49-11.82,78.49-20.36s-107.56-8.09-148.01-6.79c-55.2,1.77-62.83,1.36-113.92,19.75v-16.32c15.86,0,39.73-16.58,55.15-18.43,13.52-1.62,51.9,4.26,65.28,4.44,45.2.61,91.17,3.25,136.36,2.58,115.34-1.72,115.98-6.07,231.23-9.5,46.86-1.4,93.81-.27,140.64-2.24,48.89-2.05,95.16-10.19,143.31-16.72,8.44-1.14,105.3-19.57,126.58-24.93,9.05-2.28,53.21-15.03,67.82-20.24,31.91-11.39,64.06-22.3,96.17-33.28,27.84-9.52,42.18-20.07,60.17-24.4,21.71-5.24,31.56,2.42,46.45,1.21,12.42-1.01,20.79-4.05,56.72-7.71,35.99-3.67,63.76,5.01,146.79,11.54,17.37,1.37,34.85,3.6,52.24,2.53,10.81-.67,33.61-12.78,42.76-16.48,16.01-6.48,108.23-6.74,102.38-21.42-4.27-10.7,98.58,5.48,109.81,2.74,24.9-6.06,225.76-39.98,281.09-46.49.42.25,5.46,26.91,5.46,26.91.03-.02-160.91-.34-182.63,9.02-32.05,13.81-127.36,37.81-133.52,40.32-27.68,11.27-42.21,22.22-55.61,33.92-12.87,11.23,44.9,0,54.92-3.3,63.36-20.87,179.26-53.17,234.87-53.17,31.57,0,181.73,17.51,190.76,19.22,41.17,7.8,82.1,16.54,123.51,23.41,18.79,3.12,26.56-12.81,30.89-28.75,10.16-37.38-29.86-26.31-59.92-31.64-25.69-4.56-104.48-5.23-130.73-5.74-13.77-.26-70.88-4.87-72.53-3.28l-5.46-26.91s22.15-4.2,30.02-2.72c45.98,8.69,184.61,31.14,203.26,32.91,14.7,1.4,29.24-.37,37.94,3.66,11.87,5.49,57.79,13.63,84.8,10.7,55.89-6.05,108.47-24.39,162.07-37.68,25.99-6.44,83.81.53,88.48-4.6,13.9,0,83,11.57,108.81,17.21,48.88,10.7,116.38,35.08,170.95,57.89,47.78,19.98,97.89,27.85,112,39.96,39.3,33.71,119.72,10.14,176.92,14.41v24.72c-53.92,8.78-107.5-12.97-159.07-22.41-111.43-20.4-146.94-52.08-255.56-86.17-42.48-13.34-142.99-18.09-192.96-17.69-56.17.45-73.84-6.16-100.02,2.08-30.3,9.53-90.69,6.48-90.69,49.38,0,24.23,59,36.99,92.6,43.99,7.95,1.66,77.11,8.21,98.1,7.5,76.18-2.55,93.77-12.11,169.65-16.78,20.79-1.28,45.79-6.82,66.04-2.66,23.1,4.74,14.99,12.85,24.8,13.22,21.49.82,37.14-.13,56.73,5.97,51.34,15.99,86.57,30.15,124.37,34.91,26.54,3.34,81.51,1.79,113.48,14.29,32.7,12.78,52.52,9.03,52.52,9.03-.08,3.12,0,11.15,0,14.26,0,0-61.56-4.41-91.76-9.57-33.05-5.64-70.61-18.07-106.55-24.3-78.63-13.61-127.83-13.71-207.47-19.99-43.59-3.44-86.94-9.34-130.67-11.27-40.53-1.79-81.17.37-121.75.12-7.28-.05-110.32-19.89-144.06-26.31-41.36-7.86-83.61-2.28-125.19-8.93-92.71-14.84-218.36-30.59-313.17-32.22-121.91-2.1-195.74,29.82-310.01,48.48-20.59,3.36-41.94,2.39-62.58,5.52-27.54,4.18-52.91,16-80.47,20.08-30.2,4.47-65.51,18.34-96.03,20.8-21.91,1.77-130.81,30.16-150.15,35-16.1,4.03-47.68-.23-65.3-1.44h0Z"/>
  <path class="cls-1" d="m3159.69,279.03c-21.99,0-43.46-4.52-65.38-5.65-27.33-1.41-54.84-.95-82.22-1.98-19.33-.73-37.71-4.7-57.42-2.73-69.52,6.94-135.07,22.24-206.1,16.93-140.41-10.5-271.09-45.08-410.81-58.57-215.94-20.84-216.77-12.29-478.63-3.85-23.95.77-47.72,3.75-71.7,3.75-50.31,0-110.49-15.79-190.71,5.41-122.58,32.4-174.55,19.66-221.06,30.37-33.65,7.75-89.21,17.34-107.11,18.04-21.94.85-48.29,3.3-68.77,5.22-18.14,1.71-118.46,16.44-144.45,19.4-64.44,7.36-128.44,14.91-193.15,21.56-24.71,2.54-50,1.5-74.33,5.39-33.76,5.39-74.53,10.94-109.54,8.88-2.25-.13-15.04-2.66-22.71-3.51-10.58-1.18-93.3-8.35-111.17-4.57-28.33,5.99-56.6,14.82-87.62,15.38-85.29,1.52-165.24-18.26-249.93-19.65-35.13-.58-71.36-.19-106.07,3.46-4.36.46-29.48.73-33.94,3.39-14.84-.66-28.54,4.23-43.41,3.66v-3.57c17.2-.1,35.06-4.08,52.14-5.31,53.05-3.82,110.33-12.42,163.96-7.13,57.89,5.7,115.14,15.99,173.44,19.8,22.6,1.47,47.69,3.97,70.13.04,32.16-5.64,57.62-17.38,89.14-23.36,36.03-6.84,74.75-10.36,112.29-8.88,19.92.79,38.3,4.83,57.87,7.15,35.24,4.17,34.68,5.09,70.24,5.39,5.52.05,10.89-1.94,15.51,1.66,51.85-5.87,104.77-10.42,156.62-17.74,31.73-4.48,61.25-9.92,93.34-12.57,6.56-.54,103.26-13.91,128.52-18.21,34.58-5.89,34.23-4.93,69.29-6.79,30.29-1.61,29.73-2.6,59.68-6.55,4.65-.61,40.61-6.37,51.64-8.29,21.76-3.79,44.54-6.24,65.99-9.79,18.8-3.12,93.69-9.07,109.99-18.24,43.07-24.23,159.35-32.37,271.71-38.85,17.12-.99,90.8-1.79,123.24,1.19,46.17,4.24,90.21,11.78,136.93,15.47,98.39,7.76,197.67,6.98,295.74,18.43,73.11,8.54,144.85,21.76,218.28,29.03,12.15,1.2,24.26-2.61,36.41-3.81,16.19-1.6,32.27-3.94,48.62-4.59,78.84-3.15,78.22-.36,156.99,4.6,30.51,1.93,61.36,1.29,91.8,3.62,46.2,3.54,92.2,8.13,138.18,12.71,19.51,1.95,38.55,5.99,58.24,6.88,6.96.32,15.04-.37,20.29-3.32.17,1.8,0,8.93,0,10.72h0Zm-337.28.64c9.57-1.18,20.78-5.56,23.7-11.89,2.22-4.8-2.52-10.6-7.19-14.07-3.41-2.54-11.16-1.28-15.03-1.47-16.45-.8-32.76-6.33-49.48-4.91-18.79,1.59-29.2,20.32-15.76,29.28,6.82,4.55,55.78,4.04,63.76,3.06h0Zm31.05-16.42c-4.69,8.41,9.7,11.17,19.76,9.95,5.08-.61,28.7-4.14,39.35-4.64,14.34-.69,29.36,1.29,41.14-5.25,4.07-2.26-5.36-4.21-5.86-4.29-7.93-1.21-16.28-.7-24.35-1.41-15.19-1.34-30.73-4.3-46.29-2.96-9.61.83-19.04,2.8-23.75,8.6h0Zm-127.41-2.34c.38-1.09-2.95-2.59-3.59-2.83-3.09-1.15-20.93-5.52-26.17-5.35-4.94.16-7.96,2.61-12.87,2.86-2.84.15-5.75.06-8.52-.36-7.71-1.18-16.72-6.04-22.91-.51-.82.73-1.53,6.17-.85,7.98,2.89,7.66,19.31,4.05,28.36,5.49,6.98,1.11,6.25,2.09,13.13,3.5,13.56,2.79,30.12-1.22,33.43-10.78h0Zm-900.46-45.31c5.38-5.84,6.27-9.1,0-16.49-3.11-3.66-58.36-1.11-63.01,1.53-8.08,4.59-1.04,14.07,9.76,19.21,10.42,4.96,46.73,2.82,53.24-4.25h0Zm-1194.72,113.34c6.32,3,10.64,3.24,18.04,3.3,25.69.2,50.71-1.82,76.27-1.82-.99-1.17-1.43-2.67-3.08-3.46-2.81-1.34-7.05-.49-10.31-1.32-12.04-3.06-11.36-3.97-23.96-5.76-14.45-2.05-29.45-1.94-44.14-1.94-3.89,3.33-8.09,6.95-12.81,11h0Zm1285.27-131.59c-1.45-5.67-15.07-.66-27.58-.54-7.83.08-43.7-8.31-44.64.54-1.28,12.17,16.95,24.12,30.01,15.82,10.09-6.42,18.6-1.32,22.73-1.62,9.3-.66,21.7-5.52,19.48-14.2h0Zm-202.34,18.25c15.9,0,31.71,2.23,33.82,0,2.71-2.86,1.14-7.37-4.89-13.42-2.5-2.51-37.03,5.87-42.07,8.2-2.97,1.37-5.48,5.22,13.13,5.22h0Zm-1084.82,103.94c-13.95.89-27.97,1.27-41.52,3.84-3.04.57-6.04,1.96-8.75,2.89,15.73,1.64,29.85,3.39,43.36,2.12,2.31-2.94,4.37-5.58,6.92-8.85h0Zm1309.11-116.22c-.58.66.56.91,1.28.97,5.63.46,10.88.27,16.48,1.04,12.35,1.71,24.95,2.09,37.55,1.2,3.22-.23,8.81-.04,9.16-2.11.47-2.79-13.82-5.05-14.9-5.24-11.04-1.94-23.8-3.21-35.2-1.83-5.61.68-12.28,2.15-14.38,5.97h0Zm808.94,70.05c.62-1.92,1.09-4.13.57-6.11-1.05-3.99-8.42-4.61-13.62-3.89-5.96.83-10.18,4.52-13.26,7.55-.88.86-2.48,2.54-2.64,3.8-.42,3.29,5.24,5.71,9.65,6.14,2.07.2,9.44-.04,10.97-.3,3.97-.67,5.84-2.1,6.98-3.98.58-.96.97-2.05,1.35-3.21h0Zm1.53-23.04c-5.1-.44-11.27-3.09-15.69.06-2.64,1.88-2.85,4.26-1.94,6.63.84,2.19,2.22,3.67,5.73,4.02,5.28.54,11.56-.95,14.81-3.72,2.83-2.41,2.69-6.47-2.92-6.99h0Z"/>
  <path class="cls-1" d="m23.93,163.86c3.03.07,26.99-8.75,54.42-12.12,35.5-4.36,66.6,3.25,93.21,2.74,52.31-1,105.04,2.01,156.65-9.3,54.29-11.9,192.62-31.35,199.21-32.65,20.57-4.05,44.83-2.62,61.2-13.83,20.58-14.08,53.06-42.22,71.09-48.65,31.09-11.08,53.07-12.15,86-5.83,31.48,6.04,77.02-10.4,98.99-6.19,13.8,2.65,57.06-4.31,80.87-11.78,13.36-4.19,48.42-.84,69.53,0,28.5,1.15,109.85-14.67,144.98-17.6,21.81-1.82,50.08-1.88,65.77,0,10.36,1.24,19.49,9.03,28.36,11.28,15.52,3.94,70.28-4.85,76.73-1.81,17.63,8.3,58.45,14,86.22,3.94,152.87-55.41,216.18,24.08,216.18,24.08,0,0-25.93,0,0,0-18.42,3.5-13.58,11.57-20.35-1.92-11.04-22.04-56.25-19.51-94-19.96-24.1-.29-45.35-4.31-68.89,0-28.49,5.22-32.7,11.59-61.62,15.6-42.72,5.92-85-6.81-126.82-10.79-113.94-10.85-211.58,50.34-314.51,79.26-26.98,7.58-54.88,12.63-82.44,18.56-7.54,1.62-105.66,29.65-140.11,32.6-45.49,3.89-146.87-3.42-160.08-2.54-30.45,2.03-95.42,11.92-143.31,16.7-29.45,2.94-29.51-1.43-58.95-.21-26.14,1.08-52.09,4.96-78.26,5.2-61.84.56-160.31-5.85-200.9-2.68-19.56,1.53-27.82,2.68-39.15,11.21v-23.32h0ZM1184.31,18.15c-3.34-7.71-26.43-5.5-39.93-2.59-37.57,8.08-62.47,10.95-100.26,18.28-44.67,8.66-90.88,2.09-136,4.21-69.99,3.3-135.45,27.56-200.54,46.58-12.15,3.55-59.01,15.86-61.96,16.46-19.76,4.03-39.28,9.08-59.34,11.85-71.77,9.89-73.36,7.68-144.8,19.95-30.22,5.19-90.88,22.19-84.77,30.98,5.07,7.3,132.9-9.36,169.95-14.06,17.32-2.2,162.04,4.62,190.4-.07,45.59-7.54,49.1-13.75,93.5-24.48,37.35-9.03,75.6-15.38,112.74-25.02,61.67-16.02,85.44-29.35,144.76-50.16,19.74-6.92,39.28-14.61,59.95-19.24,22.74-5.09,61.39-.95,56.31-12.68h0Zm-467.26,46.11c-1.71-41.05-105.19,2.98-92.84,29.94,2.84,6.2,20.74.01,25.19,0,3.44,0,26.25-6.6,36.77-11.41,4.25-1.94,31.24-9.92,30.88-18.53h0Z"/>
  <path class="cls-1" d="m753.35,50.86c-.83,1.05-66.67-9.14-51.14-10.14,11.56-.75-13.02-7.56-23.33-7.56-28.43,0-60.59-1.36-116.91,10.02-118.7,23.98-176.32,24.67-197.95,24.78-59.15.3-114.78,15.77-131.78,21.9-47.76,17.21-70.8,18.58-79.05,20.4-31.54,6.97-58.55,12.52-80.66,3.64-14.17-5.69-45.58,12.31-48.61,12.66v-9.33c5.2-1.63,37.41-11.75,48.61-13.69,9.51-1.66,46.4,10.41,57.9-9.31,26.5-45.42,28.75-35.78,18.62-43.37-.64-.48-7.53-10.37-54.41,2.59-30.9,8.54-34.23-5.34-70.72,14.81v-16.33c5.5.86,20.75-3.41,38.04-8.76,15.32-4.74,35.99-2.39,53.21-6.56C143.56,29.73,190.97,4.41,232.25,1.91c60.32-3.65,174.96,23.98,244.84,12.77,17.14-6.84-20.14,15.88-65.21,26.03-5.67,1.28-27.34,4.84-21.26,3.25,2.16-.56,0-1.8-.61-2.11-3.32-1.7-103.17-16.53-120.98-22.37-14.31-4.69-49.43-5.31-58.55,6.39-8.98,11.52-36.97,22.26-46.89,36.72-14.53,21.18-9.1,25.68,0,31.62,13.46,5.06,51.68-6.67,68.66-10.45,17.15-3.8,165.55-41.18,172.94-43.82,13.4-4.76,106.88-37.38,107.18-38.06,16.69,0,49.98,3.08,76.78,8.05,14.83,2.75,23.44,6.14,32.6,4.73-5.06,1.09-18.09,7.58-14.6,5.6.67-.38,0-2.34-2.39-2.34-8.89,0-37.71-5.68-46.09-4.09-12.52,2.38-33.77.11-50.83,3.35-11.98,2.29-51.41,10.89-42.3,15.95,6.68,3.71,22.27,6.38,38.75-2.21,6.77-3.53,32.64-5.06,47.07-5.06s43.11,1.22,51.51-3.45c10.34-5.75,33.98-13.59,45.85-12.48,11.39,1.07,14.99,1.1,37.42,7.25,100.92,27.69,85.08,45.6,67.2,33.65h0ZM269.02,9.95c-5.72,12.51,84.22,24.56,84.45,9.54,9.83-7.81-81.73-15.48-84.45-9.54h0Z"/>
  <path class="cls-1" d="m23.93,16.95c14.59-3.99,24.3-3.46,39.52-1.79,17.29,1.89,30.24-5.73,42.21-3.98,15.36,2.25,72.69,3.35,76.5,1.77,43.54-13.18-32.43,10.92-25.92,16.43-8.41,3.08-23.11,2.06-19.95.5.57-.28,6.94-5.17-7.3-8.26-10.64-2.31-8.26-7.37-21.2-7.28-11.56.09-35.93,4.03-40.61,4.92-13.68,2.6-18.62-8.97-43.25,2.36v-4.66h0Z"/>
  <path class="cls-1" d="m3160.27,397.33c-41.26-7.57-85.56-5.3-126.1-15.8-53.01-13.73-127.67-29.02-164.42-32.94-18.95-2.02-95.6,20.1-123.02,22.11-36.03,2.65-67.22-12.77-101.07-19-32.34-5.95-65.39-9.12-97.99-14.12-69.61-10.68-83.24-16.42-143.5-19.5-39.4-2.01-213,3.22-249.76,4.37-67.48,2.1-67.73,7.48-134.31-2.61-30.65-4.65-53.6-18.64-85.8-21.31-27.5-2.29-71.52-.29-93.13-.34-12.17-.03-23.75-.03-36.52.02-9.78.04-53.04,4.93-60.1,6.25-13.57,2.54-26.45,7-39.66,10.53-72.35,19.33-89.4,22.97-160.06,46.05-29.96,9.79-89.51,33.45-123.28,33.45-52.76,0-56.55,1.43-121.34,11.28-67.67,10.29-91.78,14.17-131.16,14.17-46.36,0-204.07,41.01-233.22,14.15-41.33-38.08-38.19,28.45-148.29,32.47-59,2.15-70.54-13.3-124.82-23.53-125.91-23.73-133.72-31-201.13-18.27-137.64,26-157.55,25.9-169.67,9.33-49.19-67.22-158.57,27.34-188.3,32.47-32.62,5.62-76.39,5.71-74.65,31.86v-44.28c63.97,8.72,179.79-86.91,290.01-29.37,43.18,22.54,192.41-28.5,275.08-9.51,19.47,4.47,169.95,50.08,264.19,12.73,10.74-4.25,40.52-20.26,99.43-3.23,15.27,4.41,45.36,23.93,123.34,0,52.55-16.13,74.19-22.5,124.93-18.99,41.6,2.87,46.23-3.47,80.11-23.75,32.44-19.42,107.8-17.4,129.02-20.83,26.48-4.27,50.13-17.07,74.96-25.52,22.04-7.5,46.31-10.33,68.38-17.79,42.27-14.3,101.07-42.62,134.66-45.55,41.91,2.93,62.46,5.8,87.96,6.15,37.03.5,78.8-10.52,115.78-6.15,43.8,5.18,81.46,25.35,125.4,30.48,61.54,7.19,114.79-10.21,175.69-15.59,41.98-3.72,85.74-3.25,126.71-.11,40.32,3.09,314.06,50.4,318.88,50.97,51.64,6.11,62.39,19.55,114.74,13.57,27.02-3.08,56.82-19.83,83.87-22.73,38.16-4.09,95.43-1.46,133.59-.09,61.96,2.23,124.99,1.64,184.57,16.97v15.23c-8.58-5.47-9.6-14.41-41.57-5.84-10.92,2.93-4.45,17.55,11.47,26.82,6.66,3.87,22.12,3.47,30.35,3.47-.11,5.07-.26,6.72-.26,11.84h0Zm-59.3-41.76c-1.99-13-58.15-16.76-69.15-15.7-13.19,1.26-33.21,14.3-27.14,21.32,6.07,7.03,55.2,19.56,63.57,20.83,32.72,4.97,35.59-7.68,32.72-26.45h0Zm-1500.44-44.31c6.64,9.87,143.51-19.83,142.26-23.8-.55-1.76-14.59-3.41-22.13-2.76-12.52,1.07-39.61.85-58.67,4.66-20.46,4.09-64.75,17.01-61.46,21.91h0Zm829.4,1.2c.76-4.63-44.11-11.53-51.34-12.28-21.22-2.18-98.44-13.58-91.27-3.67,2.56,3.55,9.73,15.08,33.29,15.95,41.59,1.53,28.12-5.59,57.12-5.54,21.08.04,51.58,9.33,52.21,5.54h0Zm-855.27,23.56c1.49,2.79,45.14-10.19,56.02-12.64,15.14-3.41,39.07-2.91,43.94-4.12,19.51-4.84,60.27-16.45,57.8-20.75-1.48-2.58-38.06,8.83-55.5,12.75-27.04,6.08-28.11,1.46-54.53,8.86-16.27,4.56-49.7,12.2-47.73,15.9h0Zm638.82-39.75c-2-3.12-61.3-2.6-69.8,9.05-9.16,12.56,21.44,13.55,34.85,12.56,3.51-.26,22.82-1.62,26.01-2.9,6.37-2.54,10.94-15.59,8.94-18.71h0Zm-810.91,83.37c-6.46,10.32,22.88,9.84,46.25,1.89,33.42-11.37,44.34-30.99,37.12-32.94-11.45-3.1-79.15,24.33-83.37,31.05h0Zm179.31-57.19c-1.35-2.61-22.75,5.78-34,7.67-34.34,5.76-57,19.89-51,28.68,8.03,11.76,86.7-33.04,85-36.36h0Zm644.33-15.57c2.47,6.34,8.96,9.68,20.29,8.89,10.42-.73,47.37-.79,40.81-6.7-2.92-2.63-9.13-16.27-18.58-16.76-2.64-.14-15.17,5.03-17.6,4.2-8.45-2.91-30.6-4.2-24.92,10.37h0Zm-291.2-15.45c0-2.12-16.19-7.26-27.12-11.61-11.08-4.42-23.87-4.79-28.36-4.55-3.14.17-26.69,1.58-32.97,4.55-3.19,1.51-1.61,11.45,2.21,12.5,6.13,1.68,86.24,4.66,86.24-.89h0Zm-98.65,2.28c3.84-1.15,0-13.35-10.04-13.35-7.38,0-21.65,4.89-24.65,5.18-3,.29-19.13-.17-18.85,1.57,1.29,8.24,6.18,7.69,12.92,6.59,15.52-2.52,30.01,3.17,40.63,0h0Zm227.28,19.76c-3.76,8.91,12.08,7.78,21.98,8.63,6.17.53,23.02-3.07,28.97-5.85,3.73-1.75,10.97-1.24,8.76-7.17-3.09-8.32-25.02-3.18-31.62.15-6.54,3.3-24.67-3.91-28.1,4.24h0Zm931.39,29.25c-7.8-10.69-35.29-3.51-38.38,0-2.12,2.4,3.29,7.64,6.08,8.94,2.25,1.04,10.83-1,13.06,0,14.12,6.33,26.46.97,19.23-8.94h0Z"/>
  <path class="cls-1" d="m15.67,589.32c.19-.15-.69-28.13-.28-28.13,39.06.44,31.16-5.88,94.22-25.05,35.36-10.75,71.23-13.09,90.64-7.97,70.49,18.62,38.47,29.67,56.75,33.01,71.28,13.04,205.39-24.05,258.16-14.39,54.66,10,173.91-12.74,205.17-10.65,21.2,1.42,64.23,9.67,139.8-11.54,105.37-29.58,268.11-47.26,458.52-39.77,48.76,1.92,133.17,70.56,263.94,28.41,53.01-17.09,92.67-45.02,182.7-65.52,37.3-8.49,104.6-65.32,127.51-62.79,350.44,38.69,332.54-17.07,436.88,22.07,97.04,36.4,141.43,22.9,205.2,34.89,53.72,10.1,93.9,19.63,145.79,19.63,22.15,0,68.95,3.5,107.13-3.24,33.23-5.87,29.59-8.57,56.53-16.38,48.43-14.04,132.94-17.78,147.22,16.38,9.74,23.31,128.08,36.53,159.14,26.56.32-.1,3.08,14.12-.38,13.66-19.49,0-54.27,10.57-86.83,2.45-28.32-7.07-66.69-24-71.93-35.4-1.42-3.09-15.7-18.41-31.38-22.58-23.5-6.24-65.02-3.99-84.04,2.17-15.72,5.09,10.04,47.5,28.84,48.73,39.92,2.61-21.67,9.29-22.92,9.4-1.63.15-39.08,2.84-22.31-4.78,17.66-8.02,6.75-59.33-15.41-50.77-30.11,11.64-74.59,18.84-96.94,21.05-26.83,2.65,14.52,45.61,31.62,44.46,29.1-1.96,6.21,14.31-5.56,15.52-2.01.2-57.46-4.16-21.17-10.99,16.25-3.06-19.48-38.2-44.43-41.92-99.18-14.78-180.3-27.87-158.01-13.66,46.31,29.51-16-5.96-26.19-3.9-58.44,11.78-15.23,2.09-18.59-4.11-14.16-26.11-58.55-.2-131.25-22.46-13.21-4.05-41.57-20.62-57.73-17.68-23.05,4.2-5.39,16.37,1.79,17.68,7.12,1.3-32.69-3.62-39.85-5.19-3.51-.77-48.32-6.66-10.29-6.66,15.85,0,25.34-13.9,3.91-19.44-26.8-6.92-120.58,8.74-192.09,11.46-13.05.5-40.71-12.62-56.33,2.14-10.43,9.86,46.6,45.93,59.3,44.24,61.63-8.18-22.61,6.96-24.87,7.26-1.46.19-59.85-2.7-34.43-3.36,16.98-.44,11.98-45.25-71.36-59.14-97.39-16.24-124.27,28.08-177.04,55.24-69.76,35.91-258.21,98.75-205.53,70.48,4.63-2.49-6.35-1.02-9.24-.58-77.54,11.87-145.04,7.05-186.36-13.08-74.99-36.53-103.15-30.27-250.51-21.23-69.99,4.29-146.99,28.49-237.83,42.28-35.68,5.42-69.7,61.85-45.95,58.08,34.43-5.47-13.48,9.68-16.17,10.71-3.75,1.43-40.32,1.97-25.86-3.53,11.33-4.31-8.42-19.15-21.53-26.7-4.12-2.37-14.34,1.84-16.2,8.2-4.05,13.89-15.14,20.88-10.63,21,17.23.45-3.9,5.9-9.51,5.75-6.61-.17-29.18-6.83-6.52-7.17,12.15-.18,26.7-16.04,22.53-27.78-1.56-4.39-.21-12.6-2.94-13.51-19.26-6.4-20.92-21.78-39.84-20.76-14.75.79-44.1,5.1-66.96,6.37-25.07,1.39-9.76,17.62-9.7,33.22.02,5.56,20.25,9.64,26.54,11.01,32.88,7.17-64.42-8.13-37.25-8.13,14.22,0,3.26-29.25-5.43-28.21-29.13,3.51-42.61,2.51-88.02-2.09-2.71-.28-13.16,3.04-10.47,5.98,2.06,2.26-2.07,3-6.27,2.46-2.65-.34-21.17-.29-6.98-3.85,31.96-8.01-2.86-7.9-8.46-8.23-14.19-.86-31.34-.48-49.73,2.66-11.99,2.05,1.45,6.96,5.2,6.96,1.74,0-9.25,2.34-11.05,2.6-2.01.3-16.8,5.37-6.14.33,1.4-.66,17.46-2.51,7.63-4.33-9.95-1.84-4.44-4.73-14.45-3.13-6.58,1.05-13.54,1.4-20.16,3.13-6.92,1.82-12.99,14.57-6.45,12.86,10.32-2.71-4.25,2.35-6,2.81-2.38.62-12.94,2.73-9.55,1.84,8.53-2.24,22-20.63,9.55-15.69-20.94,8.32-47.06,6.03-70.29,7.21-40.31,2.05-68.35-5.49-84.82,0-3.2,1.07-14.24,17.53-6.54,17.53,14.16,0-11.28,9.8-18.24,7.85-2.04-.57-18.57-7.05-10.38-7.85,8.61-.84,45.11-27.71,15.24-39.54-45.93-18.19-98.85-19.61-143.71,10.47-36.01,24.15-64.18,34.63-64.17,34.63h0Z"/>
  <path class="cls-1" d="m12,654.5c.19-.14-.69-28.13-.28-28.13,39.07.44,31.16-5.88,94.22-25.05,35.36-10.75,96.42-17.55,116.85-18.37,17.05-.69,71.96,7.59,90.69,6.84,68-2.74,124.22-44.63,207.42-30.74,47.75,7.97,164.19,39.85,195.75,42.28,21.18,1.63,64.23,9.67,139.8-11.54,36.27-10.18,74.7-7.88,115.56-23.67,51.62-19.95,33.45-53.98,19.14-50.45-33.45,8.27,3.99-7.49,8.85-8.82,5.91-1.62,49.28-12.69,22.29,2.56-17.02,9.61,14.11,39.15,30.97,32.58,58.47-22.8,142.67-.97,203.28,4.13,46.41,3.9,115.3-31.09,90.85-42.97-23.37-11.35,17.17,5.24,22.62,6.27,5.64,1.07,63.62,18.99,9.63,8.77-18.15-3.44-85.51,40.87-34.92,35.75,41.15-4.17,89.45,20.73,193.78-12.9,74.97-24.17,206.96-106.88,284.3-94.66,291.78,46.11,357.43-21.99,430.87-26.51,15.43-.95,51.4,7.17,65.46,12.44,97.04,36.4,129.03,40.38,191.51,24.7,44.22-11.09,114.47,69.7,166.36,69.7,41.43,0,163.62-24.68,169.33-25.87,5.76-1.22,80.34-16.76,118.16,4.24,2.62,1.45,37.91,30.57,37.91,18.87,0-8.45,43.61-22.27,33.03-33.48-10.78-11.41,9.99-10.3,23.41-4.37,10.9,4.82,16.1,13.69,2.41,14.74-14.7,1.13-42.03,15.69-48.86,25.87-9.31,13.88,24.72,29.64,46.45,32.34,35.58,4.43,79.61-11.65,91.47-25.07.19-.21,7.23-3.79,0,16.04-19.49,0-54.92,16.1-89.06,16.1-27.66,0-89.61-47.97-118.88-56.71-46.19-13.8-187.82,29.48-226.89,31.62-83.51,4.57-146.97-74.58-190.59-75.42-48.87-.94-77.13,17.27-161.62-8.6-27.91-8.54-51.48-18.29-102.45-24.7-23.82-3-77.17,10.4-140.93,33.31-18.32,6.58-41.65,17.78-57.02,20.49-19.78,3.49-52.79,1.22-68.74,0-45.79-3.5-78.81.7-129.2,0-28.05-.39-77.28-21-111.97-11.8-13.06,3.46-157.73,72.41-170.39,75.72-157.71,41.2-151.28,48.95-212.57,30.27-83.67-25.51-103.14-30.27-250.51-21.24-70,4.29-146.99,28.49-237.83,42.28-165.02,25.05-165.02,10.43-360.77-35.2-40-9.33-100.94,10.93-158.62,23.66-200.9,44.36-78.2-17.47-286.12,30.09-45.34,10.37-64.18,34.64-64.17,34.63h0Z"/>
</svg>