<svg xmlns="http://www.w3.org/2000/svg" xmlns:xlink="http://www.w3.org/1999/xlink" width="1080" zoomAndPan="magnify" viewBox="0 0 810 809.999993" height="1080" preserveAspectRatio="xMidYMid meet" version="1.0"><defs><clipPath id="58f9efadee"><path d="M 17.625 17.628906 L 792.375 17.628906 L 792.375 792.375 L 17.625 792.375 Z M 17.625 17.628906 " clip-rule="nonzero"/></clipPath></defs><g clip-path="url(#58f9efadee)"><path fill="#35252D" d="M 792.363281 404.996094 C 792.363281 618.9375 618.9375 792.363281 404.996094 792.363281 C 191.054688 792.363281 17.625 618.9375 17.625 404.996094 C 17.625 191.054688 191.054688 17.628906 404.996094 17.628906 C 618.9375 17.628906 792.363281 191.054688 792.363281 404.996094 " fill-opacity="1" fill-rule="nonzero"/></g><path fill="#e0dfe0" d="M 380.679688 305.253906 C 402.878906 305.253906 425.128906 306.179688 447.277344 305.039062 C 481.5625 303.257812 486.636719 325.261719 483.183594 348.652344 C 478.925781 377.472656 472.144531 405.921875 466.769531 434.601562 C 458.011719 481.3125 449.410156 528.0625 440.992188 574.824219 C 439.761719 581.699219 439.316406 588.820312 439.40625 595.816406 C 439.726562 626.648438 459.433594 638.558594 487.542969 624.957031 C 495.804688 620.96875 503.457031 615.574219 511.949219 612.316406 C 516.238281 610.679688 524.144531 610.484375 526.261719 613.046875 C 529.414062 616.855469 531.105469 624.511719 529.414062 629.070312 C 526.921875 635.796875 521.667969 642.011719 516.292969 647.085938 C 472.484375 688.542969 419.628906 695.09375 363.554688 683.453125 C 332.507812 677.007812 300.179688 640.175781 305.449219 605.179688 C 312.195312 560.335938 319.441406 515.5625 326.6875 470.773438 C 331.527344 440.921875 337.742188 411.246094 341.53125 381.265625 C 345.003906 353.992188 337.742188 346.535156 310.183594 343.847656 C 307.476562 343.578125 304.683594 343.8125 302.101562 343.171875 C 291.207031 340.5 280.117188 336.601562 279.921875 323.375 C 279.6875 308.953125 291.632812 306.089844 302.707031 305.785156 C 328.679688 305.109375 354.6875 305.574219 380.660156 305.574219 C 380.660156 305.464844 380.660156 305.359375 380.679688 305.253906 " fill-opacity="1" fill-rule="nonzero"/><path fill="#e0dfe0" d="M 498.027344 197.015625 C 497.636719 238.28125 464.328125 271.570312 423.652344 271.355469 C 382.636719 271.144531 349.828125 236.574219 350.46875 194.257812 C 351.09375 152.671875 383.777344 120.984375 425.609375 121.394531 C 466.574219 121.804688 498.421875 155.058594 498.027344 197.015625 " fill-opacity="1" fill-rule="nonzero"/></svg>