<svg xmlns="http://www.w3.org/2000/svg" xmlns:xlink="http://www.w3.org/1999/xlink" width="1080" zoomAndPan="magnify" viewBox="0 0 810 809.999993" height="1080" preserveAspectRatio="xMidYMid meet" version="1.0"><defs><clipPath id="3ccb67882c"><path d="M 23.699219 23.699219 L 786.449219 23.699219 L 786.449219 786.449219 L 23.699219 786.449219 Z M 23.699219 23.699219 " clip-rule="nonzero"/></clipPath></defs><g clip-path="url(#3ccb67882c)"><path fill="#35252d" d="M 786.296875 404.996094 C 786.296875 411.238281 786.140625 417.472656 785.835938 423.707031 C 785.53125 429.9375 785.070312 436.160156 784.460938 442.371094 C 783.847656 448.582031 783.082031 454.773438 782.167969 460.945312 C 781.253906 467.117188 780.1875 473.265625 778.96875 479.382812 C 777.75 485.503906 776.382812 491.589844 774.867188 497.644531 C 773.351562 503.699219 771.6875 509.710938 769.875 515.683594 C 768.066406 521.652344 766.109375 527.578125 764.007812 533.453125 C 761.902344 539.328125 759.660156 545.148438 757.269531 550.914062 C 754.882812 556.679688 752.355469 562.382812 749.6875 568.023438 C 747.019531 573.664062 744.214844 579.234375 741.273438 584.738281 C 738.332031 590.242188 735.253906 595.671875 732.046875 601.023438 C 728.839844 606.375 725.5 611.644531 722.035156 616.835938 C 718.566406 622.023438 714.976562 627.125 711.257812 632.136719 C 707.542969 637.148438 703.703125 642.066406 699.746094 646.890625 C 695.785156 651.714844 691.710938 656.4375 687.519531 661.0625 C 683.328125 665.683594 679.027344 670.203125 674.617188 674.617188 C 670.203125 679.027344 665.683594 683.328125 661.0625 687.519531 C 656.4375 691.710938 651.714844 695.785156 646.890625 699.746094 C 642.066406 703.703125 637.148438 707.542969 632.136719 711.257812 C 627.125 714.976562 622.023438 718.566406 616.835938 722.035156 C 611.644531 725.5 606.375 728.839844 601.023438 732.046875 C 595.671875 735.253906 590.242188 738.332031 584.738281 741.273438 C 579.234375 744.214844 573.664062 747.019531 568.023438 749.6875 C 562.382812 752.355469 556.679688 754.882812 550.914062 757.269531 C 545.148438 759.660156 539.328125 761.902344 533.453125 764.007812 C 527.578125 766.109375 521.652344 768.066406 515.683594 769.875 C 509.710938 771.6875 503.699219 773.351562 497.644531 774.867188 C 491.589844 776.382812 485.503906 777.75 479.382812 778.96875 C 473.265625 780.1875 467.117188 781.253906 460.945312 782.167969 C 454.773438 783.082031 448.582031 783.847656 442.371094 784.460938 C 436.160156 785.070312 429.9375 785.53125 423.707031 785.835938 C 417.472656 786.140625 411.238281 786.296875 404.996094 786.296875 C 398.757812 786.296875 392.519531 786.140625 386.289062 785.835938 C 380.054688 785.53125 373.832031 785.070312 367.621094 784.460938 C 361.414062 783.847656 355.222656 783.082031 349.046875 782.167969 C 342.875 781.253906 336.730469 780.1875 330.609375 778.96875 C 324.488281 777.75 318.402344 776.382812 312.347656 774.867188 C 306.296875 773.351562 300.28125 771.6875 294.3125 769.875 C 288.339844 768.066406 282.417969 766.109375 276.539062 764.007812 C 270.664062 761.902344 264.84375 759.660156 259.078125 757.269531 C 253.316406 754.882812 247.613281 752.355469 241.96875 749.6875 C 236.328125 747.019531 230.757812 744.214844 225.253906 741.273438 C 219.75 738.332031 214.320312 735.253906 208.96875 732.046875 C 203.617188 728.839844 198.347656 725.5 193.160156 722.035156 C 187.96875 718.566406 182.871094 714.976562 177.855469 711.257812 C 172.84375 707.542969 167.925781 703.703125 163.101562 699.746094 C 158.28125 695.785156 153.554688 691.710938 148.933594 687.519531 C 144.308594 683.328125 139.789062 679.027344 135.378906 674.617188 C 130.964844 670.203125 126.664062 665.683594 122.472656 661.0625 C 118.28125 656.4375 114.207031 651.714844 110.25 646.890625 C 106.289062 642.066406 102.453125 637.148438 98.734375 632.136719 C 95.015625 627.125 91.425781 622.023438 87.957031 616.835938 C 84.492188 611.644531 81.152344 606.375 77.945312 601.023438 C 74.738281 595.671875 71.664062 590.242188 68.722656 584.738281 C 65.78125 579.234375 62.976562 573.664062 60.304688 568.023438 C 57.636719 562.382812 55.109375 556.679688 52.722656 550.914062 C 50.335938 545.148438 48.089844 539.328125 45.988281 533.453125 C 43.882812 527.578125 41.929688 521.652344 40.117188 515.683594 C 38.304688 509.710938 36.640625 503.699219 35.125 497.644531 C 33.609375 491.589844 32.242188 485.503906 31.023438 479.382812 C 29.808594 473.265625 28.742188 467.117188 27.824219 460.945312 C 26.910156 454.773438 26.144531 448.582031 25.535156 442.371094 C 24.921875 436.160156 24.464844 429.9375 24.15625 423.707031 C 23.851562 417.472656 23.699219 411.238281 23.699219 404.996094 C 23.699219 398.757812 23.851562 392.519531 24.15625 386.289062 C 24.464844 380.054688 24.921875 373.832031 25.535156 367.621094 C 26.144531 361.414062 26.910156 355.222656 27.824219 349.046875 C 28.742188 342.875 29.808594 336.730469 31.023438 330.609375 C 32.242188 324.488281 33.609375 318.402344 35.125 312.347656 C 36.640625 306.296875 38.304688 300.28125 40.117188 294.3125 C 41.929688 288.339844 43.882812 282.417969 45.988281 276.539062 C 48.089844 270.664062 50.335938 264.84375 52.722656 259.078125 C 55.109375 253.316406 57.636719 247.613281 60.304688 241.96875 C 62.976562 236.328125 65.78125 230.757812 68.722656 225.253906 C 71.664062 219.75 74.738281 214.324219 77.945312 208.96875 C 81.152344 203.617188 84.492188 198.347656 87.957031 193.160156 C 91.425781 187.96875 95.015625 182.871094 98.734375 177.855469 C 102.453125 172.84375 106.289062 167.925781 110.25 163.101562 C 114.207031 158.28125 118.28125 153.554688 122.472656 148.933594 C 126.664062 144.308594 130.964844 139.789062 135.378906 135.378906 C 139.789062 130.964844 144.308594 126.664062 148.933594 122.472656 C 153.554688 118.28125 158.28125 114.207031 163.101562 110.25 C 167.925781 106.289062 172.84375 102.453125 177.855469 98.734375 C 182.871094 95.015625 187.96875 91.425781 193.160156 87.957031 C 198.347656 84.492188 203.617188 81.152344 208.96875 77.945312 C 214.320312 74.738281 219.75 71.664062 225.253906 68.722656 C 230.757812 65.78125 236.328125 62.976562 241.96875 60.304688 C 247.613281 57.636719 253.316406 55.109375 259.078125 52.722656 C 264.84375 50.335938 270.664062 48.089844 276.539062 45.988281 C 282.417969 43.882812 288.339844 41.929688 294.3125 40.117188 C 300.28125 38.304688 306.296875 36.640625 312.347656 35.125 C 318.402344 33.609375 324.488281 32.242188 330.609375 31.023438 C 336.730469 29.808594 342.875 28.742188 349.046875 27.824219 C 355.222656 26.910156 361.414062 26.144531 367.621094 25.535156 C 373.832031 24.921875 380.054688 24.464844 386.289062 24.15625 C 392.519531 23.851562 398.757812 23.699219 404.996094 23.699219 C 411.238281 23.699219 417.472656 23.851562 423.707031 24.15625 C 429.9375 24.464844 436.160156 24.921875 442.371094 25.535156 C 448.582031 26.144531 454.773438 26.910156 460.945312 27.824219 C 467.117188 28.742188 473.265625 29.808594 479.382812 31.023438 C 485.503906 32.242188 491.589844 33.609375 497.644531 35.125 C 503.699219 36.640625 509.710938 38.304688 515.683594 40.117188 C 521.652344 41.929688 527.578125 43.882812 533.453125 45.988281 C 539.328125 48.089844 545.148438 50.335938 550.914062 52.722656 C 556.679688 55.109375 562.382812 57.636719 568.023438 60.304688 C 573.664062 62.976562 579.234375 65.78125 584.738281 68.722656 C 590.242188 71.664062 595.671875 74.738281 601.023438 77.945312 C 606.375 81.152344 611.644531 84.492188 616.835938 87.957031 C 622.023438 91.425781 627.125 95.015625 632.136719 98.734375 C 637.148438 102.453125 642.066406 106.289062 646.890625 110.25 C 651.714844 114.207031 656.4375 118.28125 661.0625 122.472656 C 665.683594 126.664062 670.203125 130.964844 674.617188 135.378906 C 679.027344 139.789062 683.328125 144.308594 687.519531 148.933594 C 691.710938 153.554688 695.785156 158.28125 699.746094 163.101562 C 703.703125 167.925781 707.542969 172.84375 711.257812 177.855469 C 714.976562 182.871094 718.566406 187.96875 722.035156 193.160156 C 725.5 198.347656 728.839844 203.617188 732.046875 208.96875 C 735.253906 214.324219 738.332031 219.75 741.273438 225.253906 C 744.214844 230.757812 747.019531 236.328125 749.6875 241.96875 C 752.355469 247.613281 754.882812 253.316406 757.269531 259.078125 C 759.660156 264.84375 761.902344 270.664062 764.007812 276.539062 C 766.109375 282.417969 768.066406 288.339844 769.875 294.3125 C 771.6875 300.28125 773.351562 306.296875 774.867188 312.347656 C 776.382812 318.402344 777.75 324.488281 778.96875 330.609375 C 780.1875 336.730469 781.253906 342.875 782.167969 349.046875 C 783.082031 355.222656 783.847656 361.414062 784.460938 367.621094 C 785.070312 373.832031 785.53125 380.054688 785.835938 386.289062 C 786.140625 392.519531 786.296875 398.757812 786.296875 404.996094 Z M 786.296875 404.996094 " fill-opacity="1" fill-rule="nonzero"/></g><path fill="#ffffff" d="M 354.253906 502.703125 C 354.253906 470.800781 358.128906 445.351562 365.882812 426.414062 C 373.636719 407.507812 387.804688 388.855469 408.429688 370.519531 C 429.050781 352.15625 442.777344 337.222656 449.609375 325.71875 C 456.441406 314.183594 459.871094 302.015625 459.871094 289.242188 C 459.871094 250.699219 442.109375 231.410156 406.585938 231.410156 C 389.746094 231.410156 376.242188 236.589844 366.105469 246.980469 C 355.96875 257.371094 350.660156 271.699219 350.214844 289.972656 L 251.078125 289.972656 C 251.523438 246.441406 265.601562 212.34375 293.277344 187.71875 C 320.953125 163.125 358.699219 150.796875 406.523438 150.796875 C 454.820312 150.796875 492.28125 162.457031 518.941406 185.84375 C 545.601562 209.230469 558.914062 242.214844 558.914062 284.855469 C 558.914062 304.207031 554.59375 322.507812 545.917969 339.761719 C 537.277344 356.953125 522.117188 376.050781 500.480469 397.019531 L 472.804688 423.363281 C 455.488281 440.011719 445.574219 459.523438 443.09375 481.859375 L 441.726562 502.734375 L 354.253906 502.734375 Z M 344.339844 607.433594 C 344.339844 592.246094 349.519531 579.664062 359.875 569.78125 C 370.234375 559.898438 383.515625 554.972656 399.691406 554.972656 C 415.863281 554.972656 429.144531 559.898438 439.503906 569.78125 C 449.863281 579.664062 455.042969 592.214844 455.042969 607.433594 C 455.042969 622.402344 449.988281 634.792969 439.855469 644.546875 C 429.71875 654.300781 416.339844 659.195312 399.691406 659.195312 C 383.070312 659.195312 369.695312 654.335938 359.558594 644.546875 C 349.421875 634.761719 344.339844 622.402344 344.339844 607.433594 Z M 344.339844 607.433594 " fill-opacity="1" fill-rule="nonzero"/></svg>