<svg width="20" height="28" viewBox="0 0 28 28" fill="none" xmlns="http://www.w3.org/2000/svg">
<path d="M18.7931 16.8C18.897 16.8779 19.0182 16.9558 19.1134 17.0511C21.5895 19.5185 24.0569 22.0032 26.5416 24.4619C27.4073 25.319 27.2515 26.583 26.429 27.189C25.7364 27.6998 24.7841 27.6392 24.1434 27.0072C23.3383 26.2194 22.5418 25.4142 21.7453 24.6177C19.9965 22.8689 18.2477 21.1288 16.5075 19.3713C16.3863 19.2501 16.3084 19.2414 16.1699 19.3367C10.7503 22.9728 3.29612 20.5054 1.12308 14.3586C-0.677684 9.24198 1.87629 3.64921 6.94094 1.64932C12.0143 -0.350565 17.8754 2.1428 19.8926 7.21611C21.1912 10.48 20.8449 13.6227 18.9489 16.5836C18.923 16.6268 18.8883 16.6701 18.8624 16.7221C18.8624 16.7307 18.8624 16.7481 18.8537 16.7567L18.8018 16.8087L18.7931 16.8ZM18.8191 10.9821C18.8018 6.43694 15.0963 2.7748 10.5338 2.78346C6.0319 2.80077 2.36111 6.52351 2.37842 11.0427C2.39574 15.5533 6.10982 19.2328 10.6204 19.2154C15.1483 19.1981 18.8364 15.4927 18.8191 10.9735V10.9821Z" fill="#b7b1a7"/>
</svg>
