<svg xmlns="http://www.w3.org/2000/svg" xmlns:xlink="http://www.w3.org/1999/xlink" width="1080" zoomAndPan="magnify" viewBox="0 0 810 809.999993" height="1080" preserveAspectRatio="xMidYMid meet" version="1.0"><defs><clipPath id="77611de5cd"><path d="M 11.78125 11.78125 L 798.53125 11.78125 L 798.53125 798.53125 L 11.78125 798.53125 Z M 11.78125 11.78125 " clip-rule="nonzero"/></clipPath></defs><g clip-path="url(#77611de5cd)"><path fill="#525050" d="M 633.566406 468.605469 C 582.871094 468.605469 537.484375 491.636719 507.195312 527.738281 L 337.367188 443.015625 C 340.242188 430.757812 341.710938 418.117188 341.710938 405.15625 C 341.710938 392.1875 340.238281 379.535156 337.375 367.296875 L 507.195312 282.574219 C 537.484375 318.679688 582.871094 341.710938 633.566406 341.710938 C 724.527344 341.710938 798.53125 267.703125 798.53125 176.746094 C 798.53125 85.789062 724.527344 11.78125 633.566406 11.78125 C 542.609375 11.78125 468.605469 85.789062 468.605469 176.746094 C 468.605469 189.753906 470.277344 202.359375 473.136719 214.507812 L 302.992188 299.390625 C 272.132812 262.347656 226.5625 240.191406 176.746094 240.191406 C 85.789062 240.191406 11.78125 314.199219 11.78125 405.15625 C 11.78125 496.113281 85.789062 570.121094 176.746094 570.121094 C 226.605469 570.121094 272.210938 547.925781 303.015625 510.9375 L 473.136719 595.804688 C 470.277344 607.957031 468.605469 620.558594 468.605469 633.566406 C 468.605469 724.527344 542.609375 798.53125 633.566406 798.53125 C 724.527344 798.53125 798.53125 724.527344 798.53125 633.566406 C 798.53125 542.609375 724.527344 468.605469 633.566406 468.605469 Z M 633.566406 87.917969 C 682.542969 87.917969 722.394531 127.773438 722.394531 176.746094 C 722.394531 225.71875 682.542969 265.570312 633.566406 265.570312 C 584.59375 265.570312 544.742188 225.71875 544.742188 176.746094 C 544.742188 127.773438 584.59375 87.917969 633.566406 87.917969 Z M 176.746094 493.984375 C 127.773438 493.984375 87.917969 454.128906 87.917969 405.15625 C 87.917969 356.183594 127.773438 316.332031 176.746094 316.332031 C 210.601562 316.332031 241.023438 335.117188 256.242188 365.550781 C 262.4375 377.722656 265.570312 391.054688 265.570312 405.15625 C 265.570312 419.257812 262.4375 432.59375 256.128906 444.984375 C 241.023438 475.195312 210.601562 493.984375 176.746094 493.984375 Z M 633.566406 722.394531 C 584.59375 722.394531 544.742188 682.542969 544.742188 633.566406 C 544.742188 584.59375 584.59375 544.742188 633.566406 544.742188 C 682.542969 544.742188 722.394531 584.59375 722.394531 633.566406 C 722.394531 682.542969 682.542969 722.394531 633.566406 722.394531 Z M 633.566406 722.394531 " fill-opacity="1" fill-rule="nonzero"/></g></svg>