<?xml version="1.0" encoding="UTF-8"?>
<svg id="Layer_1" data-name="Layer 1" xmlns="http://www.w3.org/2000/svg" viewBox="0 0 324.51 207.47">
<defs>
    <linearGradient id="goldGradient" x1="0%" y1="0%" x2="100%" y2="0%">
      <stop offset="0%" style="stop-color: #a96f44; stop-opacity: 1" />
      <stop offset="100%" style="stop-color: #bc8e71; stop-opacity: 1" />
    </linearGradient>
  </defs>
   <path fill="url(#goldGradient)" d="m68.69,83.8c-1.2,28.15-6.41,41.01-15.49,45.7-9.08,4.69-15.22,4.87-24.31,4.87s-17.33-.35-23.89,0c-2.76.17-4.59-1.56-4.49-3.82s2.9-3.47,5.43-8.34c3.23-6.25,3.7-41.88,4.49-65.33.79-23.46,2.62-41.53.49-46.05-1.75-3.65-5.03-5.91-4.52-7.99.49-1.74,4.53-2.09,7.69-1.91,5.28.17,13.11,0,22.21-.17,9.1-.17,20.35,3.82,26,19.98,5.64,16.51,7.6,34.93,6.39,63.08ZM36.3,10.65c-9.52,0-11.38,13.9-12.14,31.62s6.47,31.62,13.66,31.62c7.82,0,12.97-6.6,13.6-21.2,1.1-25.72-5.6-42.05-15.12-42.05ZM89.84.74c3.17,0,13.95.17,18.61,0,2.75,0,4.86,0,5.23,1.39.36,1.39-1.8,2.43-3.6,5.04-1.37,2.43-1.98,6.78-2.31,14.42-.49,11.46-.38,43.43.71,67.4.88,23.8,2.83,32.66,4.13,37,.95,2.61,4.24,4.69,3.52,6.78-.7,1.56-2.82,1.56-8.53,1.56-5.49-.17-22.83-.17-27.7,0-4.66.17-6.35,0-6.48-1.74.08-1.91,2.89-3.3,4.3-6.6,1.42-3.47,4.39-18.59,6.02-36.83,1.54-16.16,5.57-56.11,6.07-67.75.33-7.64-.34-11.81-1.92-14.42-1.16-2.43-3.45-3.3-3.19-4.52.28-1.56,1.56-1.74,5.15-1.74Zm70.33,128.86c-3.77,6.03-13.08,6.39-17.12.84-1.59-2.17-2.83-4.98-3.8-8.22-3.92-13.02-6.13-30.67-8.12-58.46-2.01-27.11-5.68-50.07-7.83-54.21-2.54-4.84-4.85-5.18-4.78-6.91s1.99-2.07,5.79-2.07c4.01.17,13.74.17,18.19,0,4.24-.17,7.41-.17,7.96,1.73.56,1.73-3.09,3.11-4.72,6.56-1.42,3.63-2.49,13.64.25,28.84,2.74,15.02,5.18,22.1,6.34,24.69,1.17,2.42,3.02,3.63,4.4.86,2.78-5.7,11.97-32.63,13.97-39.88,2.01-7.42,1.37-12.26-1.05-14.85-2.62-3.11-5.95-4.32-5.89-5.7.07-1.55,1.78-2.07,4.32-2.07h14.59c5.72-.17,9.8,3.11,6.81,8.81-4.16,8.29-11.36,28.32-16.58,56.46-5.22,27.97-10.24,55.71-11.44,60.56-.28,1.15-.73,2.15-1.28,3.03Zm95.15-43.77c-.89,20.76-8.42,48.55-34.64,48.55-24.74,0-32.34-25.04-31.29-49.58,1.06-24.7,4.59-38.08,7.81-49.06,3.22-10.98,6.25-22.64,5.34-26.08-.92-3.26-3.17-4.97-2.89-6.52.27-1.55,2.43-2.4,8.98-2.4,6.76.17,24.73.17,31.51,0,5.29-.17,8.67,0,9.44,1.72.57,1.55-2.47,3.43-3.03,6.69-.58,3.6,1.15,12.69,3.94,26.42,2.96,14.75,5.67,30.54,4.83,50.26Zm-17.08-45.63c-.78-16.47-5.29-29.51-13.54-29.51s-14.51,13.04-16.06,29.51c-1.8,17.33,3.37,29.85,13.52,29.85s17.06-13.21,16.08-29.85ZM264.71.91c12.46.34,36.98.51,52.44,0,5.08-.17,7.26,8.23,6.8,18.87-.37,8.58-3.05,10.09-5.59,10.09-3.34,0-3.08-4.95-4.6-9.07-1.3-4.29-2.94-10.46-7.8-10.46s-6.51,3.77-6.81,10.81-.14,47.69,1.1,68.1c1.24,20.41,2.21,32.42,4.17,35.85,1.76,3.26,5.31,4.46,4.38,6.35-.72,1.89-3.04,1.89-8.31,1.55-5.91-.17-23.03-.52-26.84-.34-4.67.34-8.27.51-8.82-1.37-.53-2.4,2.68-3.43,4.28-6.18,1.81-2.74,4.15-13.04,6.14-34.65,1.99-21.79,5.4-61.93,5.7-68.96.31-7.21-2.08-10.81-6.3-10.81-4.44,0-6.11,4.29-7.99,8.75-1.88,4.46-1.57,7.22-4.96,7.22s-5.38-2.93-5.18-7.57c.48-11.32,2.05-18.36,8.18-18.18ZM115.64,205.73c-1.41,0-4.5.28-4.5-2.04,0-1.05.64-1.62,1.48-2.18,1.48-1.05,2.18-1.83,2.63-2.88l5.98-37.55c0-1.34-.64-1.69-1.61-2.46-.58-.42-1.29-.98-1.29-1.83s.58-1.69,1.29-2.11c.51-.28,1.16-.42,1.86-.42h22.3c6.43,0,15.23.77,15.23,9.91,0,6.75-6.94,11.74-12.4,13.5,6.43.14,11.57,3.87,11.57,11.25,0,5.62-3.08,10.34-7.33,13.22-4.5,3.02-9.57,3.59-14.78,3.59h-20.43Zm13.62-22.36l-1.93,14.2c0,2.81,2.89,2.88,4.88,2.88,3.41,0,6.94-.63,9.64-2.95,2.38-2.04,3.92-5.13,3.92-8.44,0-4.15-2.76-6.96-6.17-8.3l-10.34,2.6Zm1.67-5.41c3.98-1.12,7.65-2.32,11.05-4.92,2.57-1.97,4.88-5.13,4.88-8.65,0-4.99-4.24-5.27-7.84-5.27-1.54,0-4.3-.07-5.46,1.27-1.16,1.34-2.83,13.01-3.53,17.79l.9-.21Zm54.61,22.31c4.24,0,7.41-2.15,10.89-4.47.83-.66,2.34-1.82,3.4-1.82,1.13,0,2.19.91,2.19,2.15,0,2.4-4.16,5.38-5.67,6.37-4.24,2.73-9.76,4.47-14.75,4.47-9.45,0-18.15-5.46-18.15-16.97,0-6.79,3.55-13.24,8.17-17.55,4.99-4.8,11.27-7.2,17.85-7.2,3.18,0,7.04.75,9.83,2.57,2.34,1.49,4.39,3.97,4.39,7.12,0,11.83-19.74,14.65-27.31,15.73.15,6.21,3.48,9.6,9.15,9.6Zm7.03-25.16c0-2.73-2.19-4.22-4.46-4.22-5.45,0-10.89,8.77-11.65,14.15,4.84-.33,16.11-3.14,16.11-9.93Zm35.78-8.86h1.89c2.12,0,5.98-.74,5.98,2.81,0,4.3-3.86,3.81-6.66,3.81h-2.42l-3.25,19.04c-.15.91-.45,2.32-.45,3.31,0,1.41.61,2.32,1.97,2.32,2.27,0,4.39-1.99,5.75-1.99,1.44,0,2.04,1.32,2.04,2.73,0,2.98-4.69,4.39-6.66,5.13-3.18,1.16-9.83,3.56-13.09,3.56-2.04,0-3.1-2.15-3.1-4.22,0-2.32,1.13-8.11,1.59-10.76l3.48-19.12h-.91c-1.89,0-4.61.25-4.61-2.73,0-3.31,2.5-3.56,4.76-3.89,3.63-.5,4.92-2.57,6.13-6.12,1.13-3.48,1.66-7.53,6.2-7.53,1.36,0,3.03.17,3.03,2.07,0,1.24-.45,3.64-.68,4.88l-.98,6.37v.33Zm37.59,29.96c-2.8,6.04-7.56,10.76-13.92,10.76-8.4,0-12.93-7.37-12.93-15.97,0-13.16,10.36-25.74,22.54-25.74,3.63,0,7.19,1.49,9.15,4.97,1.82-1.82,5.45-4.97,7.87-4.97,1.13,0,2.57,1.32,2.04,3.72-1.21,5.21-4.08,20.77-4.08,25.74,0,4.63,4.69,2.07,4.69,5.21,0,1.99-2.5,2.9-3.78,3.48-2.04,1.08-6.88,3.56-9,3.56s-3.1-1.99-3.1-4.14l.53-6.62Zm-2.19-3.81c1.82-4.22,3.25-10.51,3.25-15.15,0-3.23-1.29-6.12-4.54-6.12-2.95,0-5.82,3.48-7.19,5.96-2.19,4.14-3.86,9.77-3.86,14.65,0,3.39.98,8.19,4.84,8.19,3.48,0,6.13-4.55,7.49-7.53Z"/>
</svg>