<svg xmlns="http://www.w3.org/2000/svg" xmlns:xlink="http://www.w3.org/1999/xlink" width="1080" zoomAndPan="magnify" viewBox="0 0 810 809.999993" height="1080" preserveAspectRatio="xMidYMid meet" version="1.0"><defs><clipPath id="8426ce0468"><path d="M 299.0625 81 L 511.136719 81 L 511.136719 293.078125 L 299.0625 293.078125 Z M 299.0625 81 " clip-rule="nonzero"/></clipPath><clipPath id="fd8f7fe7c5"><path d="M 405.101562 81 C 346.535156 81 299.0625 128.476562 299.0625 187.039062 C 299.0625 245.601562 346.535156 293.078125 405.101562 293.078125 C 463.664062 293.078125 511.136719 245.601562 511.136719 187.039062 C 511.136719 128.476562 463.664062 81 405.101562 81 Z M 405.101562 81 " clip-rule="nonzero"/></clipPath><clipPath id="fce79b82f3"><path d="M 17.785156 456.851562 L 229.863281 456.851562 L 229.863281 668.929688 L 17.785156 668.929688 Z M 17.785156 456.851562 " clip-rule="nonzero"/></clipPath><clipPath id="30ce0ade99"><path d="M 123.824219 456.851562 C 65.261719 456.851562 17.785156 504.328125 17.785156 562.890625 C 17.785156 621.453125 65.261719 668.929688 123.824219 668.929688 C 182.386719 668.929688 229.863281 621.453125 229.863281 562.890625 C 229.863281 504.328125 182.386719 456.851562 123.824219 456.851562 Z M 123.824219 456.851562 " clip-rule="nonzero"/></clipPath><clipPath id="0aeef39057"><path d="M 299.0625 456.101562 L 511.136719 456.101562 L 511.136719 668.179688 L 299.0625 668.179688 Z M 299.0625 456.101562 " clip-rule="nonzero"/></clipPath><clipPath id="da6327455b"><path d="M 405.101562 456.101562 C 346.535156 456.101562 299.0625 503.578125 299.0625 562.140625 C 299.0625 620.703125 346.535156 668.179688 405.101562 668.179688 C 463.664062 668.179688 511.136719 620.703125 511.136719 562.140625 C 511.136719 503.578125 463.664062 456.101562 405.101562 456.101562 Z M 405.101562 456.101562 " clip-rule="nonzero"/></clipPath><clipPath id="4291b08f22"><path d="M 580.136719 456.851562 L 792.214844 456.851562 L 792.214844 668.929688 L 580.136719 668.929688 Z M 580.136719 456.851562 " clip-rule="nonzero"/></clipPath><clipPath id="2781eb3525"><path d="M 686.175781 456.851562 C 627.613281 456.851562 580.136719 504.328125 580.136719 562.890625 C 580.136719 621.453125 627.613281 668.929688 686.175781 668.929688 C 744.738281 668.929688 792.214844 621.453125 792.214844 562.890625 C 792.214844 504.328125 744.738281 456.851562 686.175781 456.851562 Z M 686.175781 456.851562 " clip-rule="nonzero"/></clipPath></defs><g clip-path="url(#8426ce0468)"><g clip-path="url(#fd8f7fe7c5)"><path fill="#aa7950" d="M 299.0625 81 L 511.136719 81 L 511.136719 293.078125 L 299.0625 293.078125 Z M 299.0625 81 " fill-opacity="1" fill-rule="nonzero"/></g></g><g clip-path="url(#fce79b82f3)"><g clip-path="url(#30ce0ade99)"><path fill="#aa7950" d="M 17.785156 456.851562 L 229.863281 456.851562 L 229.863281 668.929688 L 17.785156 668.929688 Z M 17.785156 456.851562 " fill-opacity="1" fill-rule="nonzero"/></g></g><g clip-path="url(#0aeef39057)"><g clip-path="url(#da6327455b)"><path fill="#aa7950" d="M 299.0625 456.101562 L 511.136719 456.101562 L 511.136719 668.179688 L 299.0625 668.179688 Z M 299.0625 456.101562 " fill-opacity="1" fill-rule="nonzero"/></g></g><g clip-path="url(#4291b08f22)"><g clip-path="url(#2781eb3525)"><path fill="#aa7950" d="M 580.136719 456.851562 L 792.214844 456.851562 L 792.214844 668.929688 L 580.136719 668.929688 Z M 580.136719 456.851562 " fill-opacity="1" fill-rule="nonzero"/></g></g><path stroke-linecap="butt" transform="matrix(0, -0.75, 0.75, 0, 403.595935, 456.099693)" fill="none" stroke-linejoin="miter" d="M -0.00249259 2.002295 L 217.36731 2.002295 " stroke="#000000" stroke-width="4" stroke-opacity="1" stroke-miterlimit="4"/><path stroke-linecap="butt" transform="matrix(0.000000001309, -0.75, 0.75, 0.000000001309, 388.598626, 546.013409)" fill="none" stroke-linejoin="miter" d="M 0.00225308 21.998708 L 395.627273 21.998707 " stroke="#aa7950" stroke-width="44" stroke-opacity="1" stroke-miterlimit="4"/><path stroke-linecap="butt" transform="matrix(0, -0.75, 0.75, 0, 107.323364, 594.327422)" fill="none" stroke-linejoin="miter" d="M -0.0009372 22.001141 L 317.014704 22.001141 " stroke="#aa7950" stroke-width="44" stroke-opacity="1" stroke-miterlimit="4"/><path stroke-linecap="butt" transform="matrix(0.749997, -0.00200052, 0.00200052, 0.749997, 123.77988, 356.622278)" fill="none" stroke-linejoin="miter" d="M 0.000440909 21.998502 L 749.805249 21.998499 " stroke="#aa7950" stroke-width="44" stroke-opacity="1" stroke-miterlimit="4"/><path stroke-linecap="butt" transform="matrix(0, 0.75, -0.75, 0, 702.67408, 354.858636)" fill="none" stroke-linejoin="miter" d="M 0.00098567 21.997733 L 196.287454 21.997733 " stroke="#aa7950" stroke-width="44" stroke-opacity="1" stroke-miterlimit="4"/></svg>