<?xml version="1.0" encoding="UTF-8"?>
<svg id="Layer_1" data-name="Layer 1" xmlns="http://www.w3.org/2000/svg" viewBox="0 0 815.4 1044.43">
  <defs>
    <style>
      .cls-1 {
        fill: #8d5027;
        stroke: #663b1b;
        stroke-miterlimit: 10;
        stroke-width: .97px;
      }
    </style>
  </defs>
  <path class="cls-1" d="m701.25,78.11S578-29.07,366.32,8.45,95.69,134.38,95.69,134.38c0,0,69.67,72.35,29.47,144.69-40.19,72.35-107.18,174.17-107.18,174.17,0,0-53.59,117.9,26.79,192.92,66.44,62.01,65.15,102.05,62.71,114.08-.61,3-1.12,6.01-1.46,9.05-1.34,11.84-7.36,42.4-34.45,77.83,0,0,275.99,404.6,696.67,53.59,0,0-77.71-123.26-53.59-227.76,24.12-104.5,53.59-125.2,53.59-125.2,0,0,75.03-91.83,34.83-201.69,0,0-42.87-77.71-72.35-115.22s-47.39-73.69-29.47-152.73Z"/>
</svg>