<?xml version="1.0" encoding="UTF-8"?>
<svg id="Layer_1" data-name="Layer 1" xmlns="http://www.w3.org/2000/svg" viewBox="0 0 228.1 48.74">
  <defs>
    <style>
      .cls-1 {
        letter-spacing: 0em;
      }

      .cls-2 {
        letter-spacing: -.04em;
      }

      .cls-3 {
        letter-spacing: -.02em;
      }

      .cls-4 {
        letter-spacing: .02em;
      }

      .cls-5 {
        fill: #111;
        font-family: Wintter-Regular, Wintter;
        font-size: 40.25px;
      }

      .cls-6 {
        letter-spacing: .02em;
      }

      .cls-7 {
        fill: #44443e;
        stroke-width: 0px;
      }
    </style>
  </defs>
  <text class="cls-5" transform="translate(4.26 35.57) rotate(-.23) scale(.95) skewX(-18.15)"><tspan class="cls-2" x="0" y="0">W</tspan><tspan class="cls-6" x="42.34" y="0">E</tspan><tspan class="cls-3" x="71.6" y="0">L</tspan><tspan class="cls-4" x="100.9" y="0">C</tspan><tspan class="cls-1" x="129.12" y="0">O</tspan><tspan class="cls-4" x="156.89" y="0">M</tspan><tspan x="195.05" y="0">E</tspan></text>
  <g>
    <path class="cls-7" d="m15.32,4.75c.3-.14.71-.18,1.03-.21.21-.02.71-.05.92-.07.31,0,.66-.02.97-.03h.96c.26,0,.66-.02.92-.02.28,0,.72,0,1,.01.23,0,.73.02.97.02.26,0,.69-.02.95-.02.32,0,.65,0,.97.02.28,0,.67.01.95.02.32.01.66.04.97.11.29.08.66.09.81.47.1.38-.14.68-.25.97-.13.29-.19.57-.32.87-.12.23-.33.62-.45.86-.14.29-.33.57-.42.88-.11.3-.2.59-.27.9-.08.31-.14.62-.19.93-.05.31-.11.63-.13.94-.02.32.02.59.03.91.01.32,0,.77.04,1.08.04.31.11.45.15.75.05.31.09.69.13,1,.03.19.11.66.14.84.04.32.09.7.12,1.02.03.29.08.7.11.99.03.32.02.6.05.91.03.32.12.72.15,1.03.01.28.03.64.05.92.02.32.05.6.06.92,0,.21,0,.85,0,1.07.02.31.07.39.09.71.01.33.03.69.04,1.02,0,.3.02.8.03,1.08-.01.04.03.03-.03.05-.01.03.01-.06.02-.04.02,0,.09-.04.13-.08.1-.08.2-.19.3-.3.21-.23.41-.44.61-.69.19-.25.37-.59.56-.85.13-.18.41-.54.54-.72.18-.25.38-.53.55-.78.15-.22.39-.59.54-.82.18-.26.37-.52.52-.8.16-.27.33-.55.49-.82.18-.27.29-.55.42-.83.14-.27.21-.59.22-.89.03-.31.06-.61.03-.93,0-.23,0-.79,0-1.02,0-.32-.04-.61-.06-.93l-.05-.96c-.02-.32-.08-.52-.09-.84-.02-.32,0-.7-.01-1.02-.01-.29-.03-.65-.04-.94-.02-.32-.04-.63-.06-.94-.02-.32-.07-.67-.1-.99-.02-.31-.05-.63-.07-.94-.02-.28-.05-.67-.06-.95-.03-.31-.08-.64-.16-.93-.04-.16-.08-.23-.17-.38-.07-.14-.13-.3-.13-.49,0-.19.04-.35.07-.53.06-.17.16-.33.26-.48.26-.33.78-.38,1.08-.42.32-.05.55-.11.88-.12.26,0,.73,0,1-.01.32-.01.58,0,.9.01.22,0,.87-.03,1.09-.04.29,0,.62,0,.9,0,.32,0,.61.04.93.06.32,0,.67.02.99.03.32,0,.65.02.97.03.32,0,.53-.03.85-.02.3.01.7.03,1,.04.32.02.68.11.99.29.16.09.31.26.34.46.04.19-.02.41-.07.54-.12.3-.25.62-.38.9-.12.28-.25.59-.37.87-.1.22-.31.66-.41.88-.13.29-.19.58-.32.87-.11.29-.27.56-.35.86-.11.3-.11.6-.16.9-.06.3.03.7.03,1,0,.31,0,.58.05.89.05.31.09.62.14.92.05.31.06.67.1.99.04.32.09.65.13.97.04.32.12.5.16.81.03.32.07.66.11.97.03.32.02.7.06,1.01.03.32.07.67.08.99.02.2.07.7.09.9.01.26.03.76.04,1.02.02.32.06.59.07.91,0,.28.01.67.02.95,0,.29.01.58.02.87.02.29.04.72.05,1.01v.24s.01.13.01.13v.04s-.08.02-.09.03c-.01.05.02-.11.01-.09,0,0,.04-.01.06-.03.05-.03.11-.08.17-.12.22-.19.45-.5.64-.76.19-.25.38-.4.57-.66.13-.19.42-.58.55-.77.13-.21.39-.61.52-.82.18-.26.37-.46.55-.73.17-.27.36-.53.53-.8.09-.17.37-.68.46-.85.16-.25.35-.56.5-.82.12-.21.32-.59.44-.8l.44-.84c.13-.25.33-.62.47-.86.15-.28.25-.57.38-.86.13-.29.23-.59.27-.87v-.02s0-.02,0-.02c.04-.27.05-.57.02-.87-.03-.31-.1-.62-.16-.93-.07-.3-.14-.6-.24-.9-.1-.29-.2-.61-.29-.92-.08-.31-.18-.64-.2-.97-.02-.33-.01-.7.07-1.01.05-.19.2-.72.25-.91.06-.31.14-.65.28-.95.13-.3.31-.56.48-.84.17-.28.36-.54.57-.78.21-.25.45-.5.72-.7.27-.19.56-.38.86-.51.3-.13.61-.21.94-.27.16-.03.33-.06.5-.07.17.01.33.03.5.05.33.03.67.11.96.34.3.22.46.58.58.89.12.31.2.62.24.94.04.33.03.66.02.98,0,.32-.03.63-.06.95-.04.32-.05.63-.1.95-.05.32-.14.69-.21,1-.07.31-.09.52-.17.83-.08.31-.15.61-.24.91-.09.31-.25.68-.35.98-.1.31-.19.62-.3.92-.09.23-.23.58-.33.82l-.37.92c-.13.31-.26.61-.39.91-.13.27-.28.6-.4.87-.13.26-.3.59-.43.85-.14.28-.29.56-.43.84-.15.28-.31.59-.46.87-.13.26-.29.58-.42.83-.13.23-.34.62-.47.85-.15.28-.32.61-.49.88-.16.27-.24.49-.41.77l-.51.81c-.17.27-.43.58-.61.84-.16.24-.36.52-.52.76-.19.26-.37.59-.57.84-.19.25-.39.47-.59.72-.15.17-.44.51-.59.68-.19.23-.43.5-.62.73-.21.24-.41.53-.63.77-.18.19-.48.51-.66.7-.17.19-.47.53-.64.71-.21.21-.48.47-.69.67l-.7.66c-.24.22-.49.41-.74.61-.25.21-.49.41-.74.61-.26.2-.51.42-.78.61-.27.18-.54.36-.82.53-.28.16-.56.3-.85.44-.29.15-.59.26-.89.38-.3.12-.63.25-.94.34-.31.09-.56.09-.88.15-.32.05-.75.12-1.07.12-.33,0-.57-.05-.89-.09-.32-.04-.68-.07-1.01-.17-.32-.11-.61-.26-.88-.48-.29-.22-.46-.57-.56-.89-.1-.32-.17-.57-.2-.9-.02-.33-.02-.67,0-.99.02-.32.11-.65.15-.97.04-.34.03-.67.06-1.01.04-.34.13-.7.18-1.03l.14-1c.04-.32.09-.68.13-1,.02-.15.01-.18.01-.23-.02.02-.03.04-.04.05-.14.16-.28.33-.42.49-.15.16-.51.54-.67.7l-.67.76c-.22.25-.46.59-.69.84-.21.22-.47.49-.69.71-.24.24-.5.46-.74.7-.24.24-.44.49-.69.73-.25.23-.54.45-.8.67-.26.22-.5.45-.77.66-.27.21-.56.41-.84.6-.28.19-.59.4-.89.57-.3.17-.56.29-.86.44-.3.15-.58.25-.9.37-.32.12-.69.24-1.02.32-.33.08-.69.15-1.04.19-.34.03-.69.03-1.04.01-.34-.02-.68-.06-1.02-.13-.33-.08-.68-.17-1.01-.32-.31-.16-.63-.35-.8-.7-.16-.34-.15-.69-.18-1.03-.03-.34-.07-.74-.06-1.08.01-.34.02-.71.05-1.05.03-.34.08-.65.13-.99.04-.27.11-.7.16-.97.03-.26.09-.78.12-1.05.05-.32.1-.69.15-1.01.05-.32.1-.67.15-1,.05-.33.13-.55.18-.88.03-.25.1-.84.13-1.09.03-.29.07-.74.1-1.03.04-.34.11-.65.15-1,.04-.34.07-.71.09-1.05.01-.26.04-.7.05-.96.03-.34.08-.73.08-1.06.01-.34.02-.61.04-.94.02-.3-.02-.62-.02-.92,0-.26-.02-.7-.03-.96,0-.3.04-.49.03-.79,0-.31,0-.62-.01-.92,0-.3-.07-.69-.08-.99,0-.22,0-.65-.01-.87-.02-.27-.04-.66-.05-.94l-.04-.91c0-.3.01-.51,0-.81-.02-.3-.1-.71-.12-1.01-.02-.29-.04-.64-.06-.93-.02-.3,0-.5-.03-.79-.03-.29-.06-.59-.11-.89-.04-.3-.16-.62-.3-.9-.12-.3-.02-.61.03-.9.09-.2.18-.31.17-.27,0,.03-.15.24-.16.41-.06.32-.07.58.08.86.17.29.21.67.26.99.05.32.09.65.12.98.03.3.06.65.08.95.01.27.04.77.05,1.04.03.27.07.68.09.95.01.33.03.69.04,1.02.02.29.04.65.06.94l.05.96c.01.33.03.65.04.98,0,.33.05.56.06.88,0,.24-.01.83-.02,1.07.01.2.04.69.05.89,0,.33.01.67,0,1-.02.28-.04.76-.06,1.04,0,.33,0,.61-.02.94-.03.33-.11.71-.13,1.04-.03.33,0,.62-.05.94-.04.27-.1.73-.13,1-.02.27-.06.69-.08.96-.04.28-.1.75-.13,1.03-.05.27-.12.69-.17.96-.04.3-.1.75-.14,1.05-.05.33-.13.52-.17.84-.05.33-.1.72-.15,1.04-.03.29-.08.71-.12,1.01-.04.32-.08.63-.1.95-.02.32-.06.69-.06,1.01,0,.32.03.42.04.74,0,.32.03.75.12,1.05.08.31.24.58.51.75.25.17.51.28.82.37.31.09.55.16.87.21.32.05.66.08.98.07.33,0,.69-.08,1.01-.14.32-.06.64-.12.95-.22.3-.1.6-.21.89-.34.29-.13.61-.28.89-.44.28-.16.57-.32.84-.5.27-.18.54-.34.81-.53.26-.2.48-.39.74-.59.25-.2.52-.44.77-.66.25-.21.52-.48.76-.7.24-.23.45-.44.69-.67.23-.24.42-.44.64-.67.23-.24.49-.48.71-.72.15-.18.43-.51.58-.7.21-.24.49-.54.7-.78.21-.24.43-.5.63-.73.31-.36.66-.76.97-1.11.05-.06.1-.12.16-.18-.06.45-.13,1.06-.19,1.48-.04.27-.11.69-.15.96-.04.31-.09.7-.13,1.02-.04.32-.11.56-.15.88-.02.26-.07.75-.09,1-.03.33-.1.68-.12,1-.01.32,0,.64.02.96.03.32.09.55.18.83.08.29.24.65.5.81.25.17.52.28.81.37.31.08.64.11.96.14.32.03.66.04.97.03.32-.01.61-.02.93-.07.32-.05.62-.13.93-.22.31-.09.6-.21.9-.34.3-.13.57-.27.86-.42.28-.15.64-.29.91-.47.27-.17.47-.37.73-.56.26-.19.55-.38.81-.59.25-.2.5-.41.75-.63.25-.22.5-.44.73-.67.23-.23.47-.46.71-.69.19-.21.45-.48.64-.68.19-.22.44-.5.64-.72.2-.24.46-.53.66-.77.21-.25.4-.39.62-.64.18-.23.49-.62.68-.86.13-.15.41-.48.54-.63.21-.27.43-.56.62-.81.2-.27.4-.62.59-.89.16-.23.4-.57.57-.8.18-.27.39-.53.57-.8.17-.28.31-.58.47-.86.17-.28.33-.57.48-.86.13-.26.31-.62.44-.88.1-.18.39-.68.49-.86.1-.21.31-.64.41-.85.11-.18.41-.72.52-.91.15-.29.22-.55.38-.84.14-.3.33-.6.46-.9.13-.3.22-.61.35-.92.12-.3.24-.61.37-.91.12-.31.2-.61.31-.92.11-.31.25-.62.35-.93.1-.31.2-.63.29-.93.09-.3.18-.64.27-.94.08-.32.13-.64.19-.96.07-.32.13-.64.18-.96.05-.32.11-.64.14-.96.03-.32.06-.64.05-.97,0-.32-.04-.64-.1-.95-.06-.31-.16-.61-.32-.86-.16-.25-.37-.46-.65-.56-.28-.1-.61-.08-.92-.14-.3,0-.61.07-.91.17-.3.1-.6.24-.87.4-.27.16-.54.37-.76.59-.22.22-.42.44-.6.71-.18.27-.34.52-.49.8-.14.29-.27.58-.37.88-.06.25-.17.66-.23.91-.07.31-.11.62-.11.91,0,.3.01.6.07.91.06.3.18.6.28.89.11.3.19.62.27.94.08.31.15.62.2.94.05.32.08.64.07.98,0,.11-.01.22-.03.33v-.02c-.06.24-.11.48-.21.68-.1.21-.31.69-.41.9-.13.29-.26.56-.41.84-.08.17-.33.71-.41.88-.14.29-.33.54-.5.81-.12.21-.36.64-.47.84-.16.27-.33.55-.49.82-.16.28-.32.55-.5.82-.17.24-.37.55-.54.79-.16.25-.36.55-.52.8-.17.27-.41.51-.6.76l-.58.76c-.2.25-.35.54-.58.78-.11.12-.24.23-.4.33-.08.04-.16.11-.33.1-.09,0-.21-.11-.21-.19-.02-.09,0-.11,0-.15-.02-.2-.06-.73-.07-.93-.02-.28-.04-.66-.05-.94,0-.21,0-.77,0-.98-.01-.32,0-.63-.02-.95-.02-.23-.06-.72-.09-.95-.01-.27-.03-.69-.04-.96-.02-.32-.06-.61-.09-.93-.01-.2-.05-.77-.06-.97-.03-.29-.07-.65-.11-.93-.03-.32-.09-.66-.13-.97-.04-.31-.11-.53-.15-.85-.04-.31-.09-.63-.13-.93-.05-.32-.06-.75-.11-1.07-.04-.32-.14-.59-.14-.92-.01-.32-.03-.73-.04-1.06.03-.33.1-.52.14-.84.07-.32.16-.57.28-.87.11-.3.26-.6.39-.89.13-.29.27-.68.4-.97.12-.25.28-.62.4-.87.13-.29.27-.59.38-.88.11-.29.27-.6.15-.8-.12-.21-.43-.3-.72-.34-.3-.06-.63-.03-.94-.05-.31,0-.64-.02-.96-.02-.31,0-.63-.02-.95-.02-.22,0-.66,0-.88,0-.32,0-.72-.05-1.04-.05-.25,0-.69-.01-.94-.02-.28,0-.7.02-.98.02-.26,0-.68.02-.94.03-.29.01-.64.03-.93.04-.31.02-.67-.02-.98,0-.31.04-.61.08-.85.2-.25.11-.38.36-.44.63-.08.31-.02.57.17.9.11.34.08.47.13.78.05.32.08.7.11,1.02.03.28.07.71.1.98.03.32.07.65.09.97.02.31.03.64.05.95,0,.18,0,.74,0,.92.02.31.03.64.05.95.01.32.08.67.09.99.01.32-.03.61-.01.93.02.28.04.68.06.96.01.23.04.74.06.97,0,.32.04.63,0,.97-.03.33-.03.68-.14.99-.12.31-.28.58-.42.88-.15.29-.31.55-.48.82-.17.27-.33.56-.52.82-.17.25-.39.55-.56.79-.16.24-.37.55-.54.79-.13.17-.4.54-.53.71-.14.22-.44.67-.59.89-.18.26-.34.4-.54.64-.23.23-.44.65-.86.81-.06.01-.17,0-.24-.08-.06-.08-.05-.15-.05-.19,0-.06,0-.13,0-.19,0-.17,0-.31,0-.44-.02-.28-.04-.61-.06-.89,0-.23,0-.87,0-1.1-.02-.2-.05-.64-.07-.84-.02-.32-.02-.66-.05-.98-.02-.31-.04-.67-.06-.97-.02-.3-.06-.61-.08-.91,0-.16-.02-.55-.03-.72-.02-.29-.13-.88-.16-1.18-.03-.3-.06-.56-.09-.85-.02-.2-.05-.6-.07-.79-.03-.27-.07-.62-.1-.89-.03-.3-.09-.6-.14-.9-.04-.3-.1-.61-.13-.91-.03-.3-.05-.61-.06-.91,0-.3.03-.57.05-.88.02-.31.08-.55.13-.84.05-.3.1-.65.17-.94.07-.29.17-.56.28-.84.1-.29.23-.62.37-.88.12-.25.27-.57.4-.82.14-.27.25-.52.37-.8.11-.28.25-.54.29-.82.02-.14.02-.28-.05-.4-.07-.12-.22-.2-.35-.25-.28-.1-.58-.1-.88-.11-.28-.01-.63-.03-.91-.05-.3,0-.56,0-.87,0-.18,0-.79-.03-.97-.04-.23,0-.64.02-.87.03-.29,0-.63,0-.92,0-.27,0-.66.01-.93.02h-.91c-.3,0-.58-.01-.88,0-.3.01-.62.02-.92.04-.3.01-.52-.02-.82,0-.3.03-.68.11-.94.22-.2.07-.4.24-.39.23,0-.01.14-.19.35-.27.21-.1.46-.13.55-.15.06-.02-.4.06-.57.13Z"/>
    <path class="cls-7" d="m46.43,32.7c.13-.21.3-.46.43-.67.07-.12.28-.49.35-.61.12-.19.28-.43.4-.62l.4-.61c.13-.2.24-.39.36-.6.11-.16.3-.47.41-.64.12-.21.27-.41.39-.62.08-.16.25-.49.33-.65.1-.2.24-.45.35-.65.08-.18.22-.47.3-.65.08-.15.27-.51.35-.66.11-.22.16-.43.27-.65.11-.22.26-.43.36-.65.11-.22.16-.44.26-.65.08-.16.26-.49.34-.65.08-.15.27-.51.35-.66.07-.16.22-.5.29-.66l.32-.66c.1-.2.23-.45.33-.65.05-.12.22-.52.27-.64.1-.22.3-.5.4-.72.1-.22.1-.34.2-.55.11-.22.23-.47.33-.69.05-.11.2-.49.24-.6.11-.23.23-.49.33-.71.09-.19.24-.49.34-.68.1-.22.22-.4.32-.62.1-.22.17-.52.27-.75.08-.18.21-.46.29-.64.09-.21.18-.44.27-.65.08-.23.23-.52.31-.74.08-.22.05-.3.11-.52.06-.23.13-.51.16-.74.03-.23.07-.56.05-.79-.02-.24-.06-.43-.11-.66-.05-.23-.09-.44-.17-.67-.06-.13-.27-.57-.34-.7-.05-.13-.19-.51-.24-.64-.1-.25-.12-.52-.11-.77.01-.26.05-.52.12-.76.07-.25.2-.49.37-.68.17-.2.38-.36.6-.48.22-.12.45-.21.69-.29.23-.09.47-.16.71-.22.24-.06.48-.11.72-.15.24-.03.54-.02.78-.04.18-.02.53-.06.71-.08.25-.02.49-.04.74-.06.24-.03.4-.06.64-.07.14,0,.64.02.78.03.2,0,.51,0,.72,0,.24,0,.48,0,.72-.01.14,0,.62-.04.76-.05.23,0,.49,0,.72,0,.24,0,.49.03.73.03.23,0,.5.01.74.02.15,0,.52,0,.68,0,.25,0,.48.01.73.02.24,0,.57.05.81.07.24.02.43-.02.67,0,.24.03.51.08.75.12.24.04.43.09.68.14.24.04.59.08.83.14.24.06.44.12.67.19.24.07.43.18.67.26.23.08.48.18.71.28.23.1.45.22.67.34.21.12.38.17.58.3.21.13.43.3.62.45.2.15.38.34.56.5.19.16.38.31.56.48.17.18.34.37.5.56.15.2.3.39.43.61.12.22.21.48.28.73.07.25.15.48.17.72.02.25-.01.5-.02.75,0,.25-.03.49-.07.74-.04.25-.1.57-.21.8-.1.23-.22.42-.35.63-.14.21-.27.41-.43.6-.17.19-.37.37-.57.53-.2.16-.38.35-.61.48-.23.12-.36.22-.61.28-.25.04-.51.08-.76.11-.25.05-.54,0-.78,0-.24,0-.51.01-.76.02-.24.01-.45.03-.69.03-.18,0-.6-.03-.78-.04-.24,0-.47-.04-.72-.07-.25-.04-.5-.08-.74-.21-.24-.11-.4-.25-.58-.44-.17-.19-.37-.43-.47-.67-.11-.24-.19-.52-.22-.77-.04-.25-.08-.56-.05-.82.03-.28.17-.44.22-.66.05-.23.06-.47.08-.7.03-.24-.04-.49-.04-.72-.01-.23.04-.44.02-.68-.04-.23-.09-.46-.18-.68-.09-.22-.23-.42-.38-.56-.15-.15-.32-.24-.57-.26-.23-.02-.43-.06-.65-.05-.22.02-.44.08-.64.17-.2.1-.42.22-.59.38-.17.16-.31.33-.45.52-.14.19-.24.41-.36.62-.12.21-.24.4-.34.62-.1.22-.19.44-.28.67-.08.21-.18.45-.26.67-.08.23-.18.45-.25.68-.04.14-.16.56-.2.7-.06.19-.16.52-.21.71-.04.11-.21.55-.25.66-.04.13-.16.58-.2.71-.05.12-.21.55-.25.67-.06.18-.17.5-.24.68-.04.14-.16.57-.2.71-.08.23-.11.48-.18.71-.04.12-.19.55-.23.67-.06.23-.11.47-.15.7-.05.23-.08.45-.09.68,0,.22-.06.5.05.64.1.14.32.14.52.1.21-.05.44-.12.65-.23.21-.11.41-.23.61-.36.2-.13.38-.3.6-.42.22-.13.49-.25.75-.32.25-.05.47-.14.77.07.27.25.31.51.35.78.03.28-.09.57-.11.82-.02.25-.07.5-.13.74-.06.24-.13.42-.2.65-.08.25-.14.47-.22.72-.07.23-.14.49-.22.72-.08.21-.18.49-.26.69-.07.19-.18.49-.25.68-.09.22-.19.45-.29.67-.1.22-.23.46-.35.68-.13.22-.25.42-.44.61-.19.19-.45.33-.72.39-.28.07-.62-.03-.84-.16-.23-.12-.4-.2-.6-.36-.19-.17-.36-.35-.53-.51-.17-.16-.37-.38-.56-.48-.2-.1-.35-.12-.5-.03-.16.09-.26.33-.35.53-.06.14-.21.49-.28.64-.06.13-.21.48-.27.62-.08.22-.15.45-.22.68-.03.14-.15.59-.18.73-.05.17-.16.52-.22.69-.04.16-.13.54-.17.7-.07.23-.15.46-.2.69-.05.23-.1.47-.08.66.01.21.07.25.33.31.22.05.44.04.69.03.23,0,.47-.07.7-.11.23-.04.47-.1.69-.17.22-.07.44-.13.66-.21.22-.09.44-.17.65-.28.22-.1.42-.27.63-.39.2-.12.37-.18.58-.31.11-.08.54-.37.66-.45.21-.11.35-.23.54-.37.1-.09.45-.42.55-.51.15-.12.41-.33.56-.45.19-.15.37-.34.55-.51.17-.17.28-.34.45-.51.17-.17.35-.35.52-.53.18-.17.38-.33.56-.49.2-.17.37-.37.57-.53.2-.17.45-.3.66-.46.22-.15.44-.29.7-.39.27-.11.53-.1.8-.15.27,0,.55,0,.8.06.26.06.54.13.79.26.25.13.44.34.57.59.14.25.2.52.23.79.03.27.06.59.04.85-.03.26-.07.5-.13.76-.06.25-.16.49-.22.75-.06.25-.07.5-.13.75-.04.16-.17.6-.21.76-.05.25-.11.5-.18.75-.07.22-.16.52-.23.75-.07.25-.15.51-.22.77-.07.25-.18.44-.27.68-.08.19-.2.49-.28.68-.11.24-.29.52-.57.65-.32.08-.55.05-.82.08-.23,0-.55.02-.78.03-.23.02-.54.04-.77.05-.25.01-.53.02-.78.03-.14.01-.62.06-.75.08-.26.01-.51-.03-.76-.02-.26,0-.55.05-.81.05-.23,0-.57.02-.8.03-.22,0-.54,0-.76,0-.19,0-.56,0-.75-.01-.18,0-.62.03-.8.04-.24,0-.54,0-.78,0-.24,0-.52-.01-.77-.01-.26,0-.43-.05-.68-.05-.17,0-.67.02-.84.02-.21,0-.58,0-.79.01-.26,0-.51-.04-.77-.05-.26,0-.53,0-.8,0-.17,0-.56.02-.73.02-.2,0-.62-.02-.81-.03-.26,0-.47,0-.72-.01-.18,0-.53,0-.71.01-.18,0-.55,0-.73.01-.23,0-.37-.05-.6-.05h-.7c-.23,0-.53.03-.76.03-.14,0-.52-.02-.66-.03-.2,0-.52,0-.71,0-.23,0-.46,0-.69,0-.23,0-.39-.05-.62-.05-.23,0-.55.04-.77.04-.23,0-.48-.01-.71-.04-.23-.03-.38-.08-.6-.16-.11-.04-.22-.1-.29-.22-.06-.12-.06-.23-.08-.34-.02-.23,0-.53.12-.73.11-.22.19-.4.3-.62.07-.15.15-.22.14-.19,0,.02-.1.18-.15.3-.05.12-.21.51-.26.63-.09.22-.13.51-.08.75.01.27.28.37.51.42.24.05.47.06.72.07.18,0,.61.02.79.03.18,0,.54-.01.73-.02.25,0,.52,0,.78,0,.21,0,.5,0,.72-.01.24,0,.49,0,.73,0,.26,0,.49,0,.75,0,.25,0,.43-.04.67-.04.16,0,.66.03.82.04.13,0,.55-.03.68-.03.26,0,.51,0,.76,0,.19,0,.59.02.79.03.13,0,.58-.03.71-.03.25,0,.55.05.8.06.12,0,.59-.03.72-.03.19,0,.58.02.77.03.18,0,.55-.01.73-.02.2,0,.59-.01.79-.01.19,0,.55.02.74.03.21,0,.59,0,.81-.01.25,0,.4.05.66.05.26,0,.55,0,.8-.01.2,0,.55-.02.77-.03.21,0,.5-.02.73-.03.28,0,.5-.01.77-.02.24,0,.32-.05.57-.06.27,0,.59-.02.83-.03.25-.01.53-.03.79-.04.19,0,.52-.01.73-.02.17,0,.52,0,.69,0,.24,0,.53-.02.76-.03.25-.01.53-.06.78-.08.12-.01.27,0,.33-.03.09-.04.18-.11.25-.19.14-.17.22-.38.3-.62.09-.25.17-.46.26-.71.09-.23.15-.48.22-.72.06-.2.16-.52.22-.71.05-.18.13-.51.18-.7.08-.24.12-.51.18-.75.05-.24.12-.53.17-.77.06-.25.11-.47.17-.71.05-.24.1-.45.15-.69.04-.24.1-.5.12-.75,0-.24-.01-.43-.04-.66-.03-.23-.09-.5-.22-.68-.12-.18-.29-.29-.5-.39-.21-.09-.44-.15-.68-.2-.24-.04-.5-.07-.73-.04-.23.04-.46.01-.67.11-.21.09-.44.24-.63.38-.19.16-.36.23-.55.39-.13.11-.44.39-.57.5-.19.15-.39.35-.57.52-.16.16-.36.37-.52.53-.08.09-.37.42-.45.51-.18.18-.43.38-.63.54-.18.16-.37.32-.55.48-.1.09-.46.43-.56.53-.19.17-.39.34-.62.46-.15.09-.49.28-.64.37l-.64.39c-.21.14-.42.27-.65.38-.23.11-.45.21-.69.3-.24.09-.54.13-.79.19-.25.06-.44.15-.7.19-.25.04-.55.03-.79.03-.28,0-.52-.03-.81-.16-.37-.25-.28-.63-.27-.87.03-.26.1-.52.16-.77.05-.19.13-.5.18-.7.05-.2.13-.51.18-.71.06-.22.14-.53.2-.75.07-.25.17-.4.25-.64.06-.24.17-.57.26-.8.06-.12.21-.46.27-.59.09-.23.19-.51.38-.72.09-.11.21-.23.39-.3.17-.07.37-.05.51,0,.28.11.47.29.67.45.2.17.35.39.52.56.18.17.39.29.59.4.2.12.4.19.61.17.21-.02.4-.13.56-.28.17-.15.34-.32.47-.53.12-.21.2-.42.3-.64.11-.22.26-.47.35-.7.09-.23.12-.44.2-.67.09-.23.23-.47.31-.71.08-.23.11-.49.19-.72.07-.24.15-.48.22-.72.08-.24.11-.48.17-.71.07-.23.14-.47.16-.72.02-.24.08-.49.05-.71-.03-.22-.1-.45-.25-.51-.16-.07-.39.01-.6.09-.22.08-.43.2-.63.33-.16.1-.48.29-.64.39-.22.13-.45.24-.69.35-.24.1-.49.21-.79.19-.15,0-.32-.06-.44-.19-.12-.12-.18-.29-.2-.43-.04-.27,0-.53.02-.79.03-.25.06-.51.13-.76.06-.22.14-.51.19-.73.07-.24.14-.49.21-.74.06-.24.14-.5.22-.74.07-.21.17-.49.24-.7.07-.19.18-.5.24-.69l.23-.71c.06-.17.18-.51.24-.68.07-.23.11-.48.18-.71.06-.18.18-.51.24-.68.07-.23.13-.47.21-.7.08-.23.18-.45.27-.68.09-.23.17-.45.27-.67.1-.22.21-.44.32-.66.11-.22.26-.44.39-.65.14-.21.32-.41.49-.59.17-.18.35-.36.56-.49.22-.13.45-.28.71-.34.27-.07.52,0,.77.04.25.05.53,0,.79.18.25.15.41.39.52.62.12.23.21.47.27.72.07.25.06.5.07.75.01.23.03.52.04.75,0,.25-.08.5-.12.75-.04.24-.13.5-.18.71-.05.22-.01.45,0,.67.02.23.03.47.1.69.08.22.2.39.33.57.13.18.29.34.46.45.18.11.38.25.62.27.17.03.51.1.68.13.24.02.48-.01.72,0,.19,0,.54.02.73.03.15-.01.56-.04.71-.05.13,0,.61.01.74.02.24-.03.46-.08.69-.11.24-.02.48-.08.69-.18.21-.08.31-.23.48-.38.17-.14.34-.29.5-.47.16-.17.4-.39.53-.58.13-.2.21-.39.31-.6.1-.21.2-.48.24-.7.05-.22.1-.35.12-.59.02-.23.03-.43.03-.66,0-.23-.01-.49-.04-.72-.03-.23-.14-.5-.25-.71-.1-.21-.21-.42-.34-.61-.14-.19-.29-.38-.45-.56-.16-.17-.34-.34-.51-.5-.18-.16-.36-.3-.55-.45-.19-.15-.38-.29-.58-.42-.2-.14-.4-.26-.61-.38-.21-.12-.41-.23-.63-.34-.21-.1-.39-.15-.61-.24-.22-.09-.5-.21-.73-.28-.23-.07-.44-.15-.68-.21-.23-.06-.49-.1-.72-.14-.24-.05-.46-.07-.7-.1-.21-.03-.5-.06-.71-.08-.24-.03-.5-.09-.74-.11-.24-.02-.47-.02-.71-.02-.24,0-.47-.02-.73-.03-.21,0-.58-.01-.8-.01-.24-.01-.33-.06-.57-.07-.25,0-.53-.02-.77-.02-.24-.01-.51.02-.75.03-.2,0-.53.02-.74.03-.23,0-.5,0-.73,0-.24,0-.46-.04-.7-.03-.24,0-.49,0-.73,0-.24,0-.51.05-.75.06-.24.01-.46-.02-.7,0-.2.02-.52.06-.72.08-.15.02-.58.07-.72.09-.24.01-.48.05-.71.1-.23.05-.47.12-.69.19-.23.07-.45.13-.66.23-.21.1-.4.22-.57.37-.17.15-.32.33-.41.53-.09.19-.16.44-.2.66-.04.23-.03.46.01.67.04.21.11.39.2.61.07.16.26.57.34.73.09.22.13.38.2.62.07.23.18.6.2.84.02.25,0,.43,0,.68-.02.25-.03.44-.08.69-.05.24-.18.58-.26.82-.04.13-.15.49-.19.62-.08.24-.18.48-.28.7-.1.21-.21.47-.31.68-.09.21-.18.42-.28.64-.09.21-.16.29-.26.49-.09.21-.25.64-.35.84-.11.21-.19.38-.29.59-.06.12-.23.43-.29.53-.09.18-.21.43-.3.61-.08.19-.2.45-.29.63-.07.15-.21.49-.28.64-.1.2-.2.42-.3.62-.1.21-.22.37-.32.58-.08.16-.21.41-.3.57-.07.16-.22.5-.3.66-.09.18-.21.41-.3.59-.09.19-.22.46-.3.65-.09.19-.21.44-.3.63-.09.17-.22.42-.31.6-.07.16-.21.46-.28.62-.1.21-.26.41-.36.62-.1.21-.16.43-.26.63-.09.18-.22.44-.32.62-.07.15-.21.45-.28.6-.11.21-.27.43-.38.63-.07.14-.23.46-.3.59-.11.19-.25.42-.36.6-.12.2-.24.42-.36.61-.13.19-.25.38-.38.58-.11.16-.26.39-.37.56-.12.19-.25.4-.37.59-.06.09-.3.42-.37.51-.07.12-.3.52-.38.65-.09.14-.24.29-.24.27,0-.02.34-.54.41-.65.02-.04-.17.26-.26.36Z"/>
    <path class="cls-7" d="m74.42,31.74c.09-.16.2-.35.28-.5.03-.07.19-.39.22-.46.08-.13.19-.33.27-.46.08-.15.18-.31.27-.46.05-.1.19-.35.24-.44.07-.11.23-.36.3-.46.05-.08.25-.37.3-.44.05-.1.2-.36.25-.46.08-.13.2-.32.28-.45.06-.11.19-.35.25-.46.06-.09.24-.36.3-.45.09-.15.13-.31.22-.46.09-.15.22-.29.3-.44.09-.15.12-.31.21-.46.06-.1.22-.35.28-.45.09-.15.21-.3.29-.46.04-.09.17-.38.21-.48l.24-.47c.07-.14.17-.33.24-.47.08-.16.12-.31.2-.47.08-.16.23-.36.29-.52.07-.16.05-.25.12-.41.07-.17.15-.34.22-.51.06-.16.08-.28.15-.44.07-.17.15-.36.22-.52.07-.16.16-.34.22-.5.06-.16.15-.29.21-.46.06-.16.09-.39.15-.56.05-.12.14-.35.19-.47.05-.15.12-.33.17-.48.06-.17.18-.37.24-.54.06-.16.03-.22.08-.39.07-.19.12-.34.19-.53.05-.14.17-.42.21-.55.03-.11.12-.37.15-.47.04-.09.16-.39.2-.48.06-.17.1-.37.16-.54.03-.08.16-.38.2-.46.06-.16.13-.33.18-.5.03-.11.11-.41.14-.52.05-.17.11-.34.14-.51.04-.17.08-.35.11-.51.03-.14.09-.37.13-.51.03-.16.08-.35.11-.51.04-.17.07-.34.09-.51.02-.17.07-.38.08-.55,0-.17,0-.33-.02-.5,0-.17-.03-.34-.06-.51-.04-.17-.11-.26-.16-.42-.05-.16-.09-.36-.17-.51-.06-.12-.18-.35-.24-.47-.08-.17-.13-.35-.16-.53-.03-.18-.07-.39-.06-.57,0-.18.03-.36.08-.55.04-.19.14-.35.23-.52.09-.16.18-.33.37-.46.17-.11.31-.17.49-.23.18-.05.36-.08.54-.09.18-.02.43,0,.6-.01.18-.02.3-.08.48-.1.11,0,.44-.02.55-.02.09,0,.4.01.49.02.17,0,.43-.05.6-.05.14,0,.36,0,.5,0,.18,0,.34.04.51.03.17,0,.37-.01.55-.01.17,0,.36-.01.53-.02.17,0,.29-.05.47-.06.15,0,.4,0,.55,0,.18,0,.36.03.54.02.09,0,.43-.03.52-.04.17,0,.36,0,.53,0,.16,0,.36,0,.53,0,.1,0,.44.03.54.04.18,0,.34-.05.51-.05.18,0,.35.04.53.05.18,0,.35.01.53.03.18.01.41,0,.59.05.18.04.34.09.53.21.23.15.27.43.24.62-.02.23-.18.37-.26.54-.09.16-.18.34-.29.47-.1.14-.12.26-.22.4-.11.15-.22.3-.32.44-.1.14-.27.28-.37.43-.1.14-.22.29-.33.44-.1.14-.16.28-.26.42-.1.14-.24.3-.33.45-.05.09-.2.34-.25.43-.07.11-.21.33-.28.44-.07.11-.17.29-.25.41-.08.15-.16.34-.24.5-.08.15-.16.33-.23.49-.08.16-.14.36-.21.52-.07.16-.17.26-.23.42-.03.09-.13.42-.15.5-.03.1-.13.42-.16.51-.06.16-.16.29-.22.46-.06.15-.13.34-.18.5-.06.16-.08.35-.14.52-.05.14-.14.36-.19.5-.06.16-.08.32-.13.49-.05.17-.1.33-.15.5-.04.12-.13.39-.17.52-.05.17-.1.33-.14.5-.02.1-.1.42-.12.52-.03.1-.12.39-.15.5-.04.15-.09.37-.12.51-.04.16-.09.35-.13.51-.03.11-.11.4-.14.51-.04.17-.05.35-.09.52-.02.12-.08.4-.1.52-.04.17-.11.32-.14.49-.04.17-.04.36-.08.53-.03.17-.1.33-.14.5-.02.12-.07.39-.09.51-.02.17-.01.36-.03.53-.02.17-.01.35-.03.53-.01.17-.06.33-.07.51,0,.17.02.35.01.52,0,.17,0,.35,0,.52,0,.17-.05.36-.04.54,0,.17.04.34.06.51.02.17.02.35.04.52l.09.51c.03.17.1.33.15.49.05.16.09.36.16.52.06.16.13.25.21.39.08.15.17.28.26.41.09.13.18.31.31.41.12.1.27.16.41.2.14.04.26.08.42.07.16,0,.33-.04.49-.09.15-.05.32-.14.46-.22.15-.08.29-.17.43-.27.14-.1.26-.22.39-.33.13-.12.25-.23.37-.36.12-.13.25-.26.37-.38.09-.1.26-.28.35-.38.08-.08.31-.3.39-.37.1-.1.29-.29.4-.39.12-.13.18-.25.32-.36l.4-.35c.14-.12.33-.23.47-.35.14-.11.24-.23.39-.34.15-.1.3-.26.45-.35.15-.09.31-.16.47-.24.16-.08.3-.13.47-.2.17-.07.34-.13.51-.18.17-.05.36-.14.55-.17.18-.03.37-.03.55-.03.18,0,.37-.01.55.02.18.03.37.09.54.15.18.06.35.14.51.23.16.09.3.21.44.33.15.11.29.23.41.37.12.14.27.28.36.45.09.16.18.34.24.51.06.18.08.36.12.53.04.18.05.35.07.53.02.18.06.37.06.56,0,.18-.05.32-.08.5-.03.19-.07.43-.12.59-.05.17-.13.28-.18.45-.05.17-.09.37-.16.54-.07.17-.15.32-.23.48-.08.16-.18.32-.27.48-.09.16-.12.3-.22.45-.1.15-.2.31-.31.45-.11.15-.26.27-.37.4-.12.15-.21.32-.34.46-.13.14-.32.24-.46.37-.14.13-.28.25-.44.36-.15.12-.29.23-.45.34-.16.11-.31.22-.47.32-.17.09-.33.2-.51.27-.18.07-.34.1-.52.17-.18.07-.35.14-.53.21-.17.08-.4.16-.58.2-.19.03-.36.05-.55.07-.19.02-.38,0-.56.02-.19.02-.36.08-.55.09-.1,0-.47,0-.57,0-.11,0-.44.03-.56.04-.16,0-.41,0-.57,0-.19,0-.38.01-.58.02-.11,0-.41,0-.53,0-.13,0-.4,0-.53,0-.21,0-.39,0-.58,0-.19,0-.4,0-.57,0-.15,0-.41,0-.56,0-.15,0-.4.01-.56.02-.18,0-.39,0-.57,0-.19,0-.36.04-.55.04-.19,0-.37-.06-.55-.05-.19,0-.4.04-.59.04-.15,0-.42.01-.58.02-.14,0-.41,0-.55-.01-.11,0-.43-.01-.54-.02-.11,0-.47.02-.58.03-.16,0-.4,0-.56,0-.17,0-.38,0-.56,0-.19,0-.31-.04-.5-.04-.1,0-.5.03-.6.03-.14,0-.44.02-.57.02-.19,0-.37-.04-.56-.03-.19,0-.38,0-.58,0-.1,0-.42.03-.53.04-.12,0-.47-.01-.59-.01-.19,0-.33,0-.52-.01-.11,0-.4,0-.51,0-.12,0-.41,0-.53,0-.17,0-.27-.05-.44-.06-.18,0-.34,0-.51-.01-.17,0-.39.03-.55.02-.17,0-.31-.05-.48-.06-.17-.02-.35-.03-.52-.05-.17-.03-.34-.06-.5-.1-.16-.04-.26-.12-.42-.17-.16-.05-.4-.11-.53-.24-.14-.12-.24-.3-.27-.48-.03-.18.02-.29.04-.45.02-.17.04-.32.06-.49.04-.16.08-.36.16-.51.07-.17.12-.29.19-.46.05-.11.11-.16.11-.14,0,.02-.07.14-.1.22-.07.17-.09.3-.16.47-.07.16-.13.36-.16.53-.02.18-.04.35-.06.54-.01.18.02.34.11.49.08.15.23.3.4.38.16.08.33.11.5.16.17.05.37.1.54.12.18.03.34.04.51.06.17.01.36.03.53.04.19,0,.35.01.54.02.18,0,.31-.04.49-.03.1,0,.49.04.59.05.18,0,.31-.03.49-.02.19,0,.36.01.55.02.18,0,.39.03.57.02.18,0,.34-.04.52-.04.18,0,.4.04.58.04.18,0,.34-.04.52-.05.12,0,.44.01.56.02.11,0,.42-.02.53-.03.12,0,.45-.02.57-.02.12,0,.42.01.54.02.14,0,.44-.02.58-.02.18,0,.29.05.48.05.19,0,.4,0,.58,0,.13,0,.41-.02.56-.02.15,0,.36-.01.53-.02.22,0,.34,0,.56-.01.18,0,.23-.05.41-.06.2,0,.43,0,.6,0,.18,0,.38,0,.58,0,.12,0,.4.01.53.02.11,0,.4.02.5.02.17,0,.4,0,.55,0,.18,0,.39-.04.57-.04.15,0,.39,0,.55,0,.17,0,.35-.02.53-.02.21,0,.35-.01.55-.02.21,0,.35-.01.54-.02.14,0,.41,0,.54,0,.12,0,.4-.03.52-.04.17,0,.38-.02.56-.03.18,0,.39-.02.57-.03.19-.02.35-.03.52-.04.18-.02.33-.04.5-.07.18-.02.37-.03.55-.06.17-.04.29-.09.46-.17.15-.06.37-.14.52-.2.15-.06.34-.14.48-.2.14-.08.33-.19.47-.26.15-.09.31-.21.46-.31.15-.1.29-.18.44-.29.14-.11.28-.25.41-.36.13-.12.26-.18.38-.3.12-.13.23-.29.35-.42.11-.14.25-.28.35-.42.1-.14.2-.29.29-.44.09-.15.13-.28.22-.43.09-.15.24-.34.31-.5.07-.16.13-.31.2-.47.06-.17.09-.35.14-.52.05-.17.1-.36.15-.53.06-.18.12-.31.14-.48.02-.17.03-.34.03-.51,0-.17-.03-.34-.06-.52-.03-.17-.07-.34-.1-.51-.04-.17-.04-.37-.11-.53-.07-.16-.18-.26-.27-.4-.09-.14-.19-.29-.32-.41-.12-.12-.25-.23-.4-.32-.14-.1-.3-.19-.45-.26-.16-.07-.32-.13-.49-.17-.17-.04-.31-.05-.48-.06-.17-.01-.33,0-.5.02-.17.02-.35.06-.52.1-.17.04-.3.03-.46.09-.16.06-.37.18-.53.26-.16.07-.26.1-.41.18-.15.08-.33.19-.48.29-.16.09-.3.27-.44.39-.1.08-.32.25-.42.33-.14.11-.3.2-.44.32-.13.12-.25.25-.37.39l-.38.39c-.09.1-.28.3-.36.4-.13.13-.28.24-.41.37-.12.13-.22.27-.34.4-.13.13-.31.25-.45.38-.14.12-.22.26-.37.37-.15.11-.35.18-.51.28-.16.09-.32.21-.51.27-.18.06-.38.1-.58.1-.2,0-.4,0-.6-.07-.2-.07-.36-.21-.51-.34-.15-.13-.27-.29-.37-.45-.1-.16-.19-.33-.27-.5-.08-.17-.18-.33-.24-.51-.06-.18-.11-.36-.16-.54-.04-.18-.06-.36-.1-.55-.03-.18-.04-.37-.07-.55-.02-.18-.05-.36-.06-.55-.01-.18-.03-.37-.04-.55,0-.18.01-.37.01-.55,0-.18-.01-.37,0-.55,0-.16.01-.39.02-.55.01-.18.03-.37.05-.55.01-.14.04-.42.05-.56.02-.14.06-.39.09-.53.03-.18.08-.35.12-.52.04-.18.08-.36.11-.53.03-.11.1-.4.13-.51.04-.17.03-.35.07-.53.03-.11.1-.4.13-.51.02-.1.08-.42.1-.52.03-.1.12-.41.15-.51.03-.14.08-.36.12-.51.04-.17.09-.34.13-.51.04-.12.12-.39.16-.52.05-.17.13-.34.17-.51.03-.11.1-.39.13-.5.05-.17.06-.35.11-.52.05-.17.14-.32.19-.49.03-.09.12-.42.15-.51.06-.16.12-.33.18-.49.04-.13.12-.37.16-.5.05-.13.14-.36.19-.49.05-.14.12-.36.17-.5.06-.17.16-.32.22-.49l.18-.5c.07-.16.1-.34.17-.51.07-.16.18-.31.26-.47.08-.16.12-.32.2-.48.06-.12.18-.35.24-.47.09-.15.22-.3.31-.45.09-.15.2-.29.3-.44.1-.15.17-.31.27-.46.07-.1.25-.33.32-.43.1-.14.18-.29.29-.43.1-.14.24-.27.35-.41.08-.11.22-.31.29-.42.09-.13.22-.3.31-.44.1-.14.16-.26.22-.41.07-.13.15-.29.22-.42.07-.13.11-.32.06-.41-.04-.05-.2-.1-.34-.13-.16-.04-.36-.06-.53-.08-.17-.02-.27-.06-.44-.07-.13,0-.36-.02-.49-.03-.16,0-.38-.02-.53-.03-.18,0-.4.02-.58.01-.13,0-.4-.02-.53-.03-.17,0-.35-.01-.53,0-.17,0-.35,0-.52.01-.15,0-.38.02-.52.02h-.52c-.17.02-.36.02-.53.03-.17,0-.35.01-.52.02-.09,0-.4.03-.49.04-.12,0-.46,0-.57-.01-.11,0-.42,0-.52-.01-.12,0-.41.02-.54.03-.11,0-.41.03-.52.03-.18,0-.34.03-.51.04-.17.01-.36,0-.54,0-.13.01-.38.04-.51.05-.17.02-.35.02-.52.05-.16.03-.37.11-.5.17-.13.06-.17.05-.28.18-.1.13-.18.31-.24.47-.06.14-.07.33-.09.49-.02.16,0,.35,0,.51.01.16.04.32.09.47.05.16.07.28.17.44.09.16.16.32.23.49.07.17.17.35.21.53.04.18.02.35.03.53.02.18.04.36.03.54,0,.18.01.37,0,.54-.02.18-.05.35-.09.53-.03.16-.08.37-.11.53-.03.09-.12.42-.14.51-.03.14-.08.37-.1.52-.04.17-.07.35-.13.52-.05.14-.12.37-.17.51-.05.17-.09.34-.14.51-.06.17-.13.29-.19.45-.03.11-.14.45-.18.56-.03.07-.16.35-.19.42-.06.16-.11.43-.17.59-.04.09-.15.36-.18.44-.04.12-.11.35-.15.47-.06.17-.18.4-.24.56-.02.08-.11.37-.13.45-.07.19-.12.34-.18.51-.06.15-.14.36-.2.5-.06.15-.11.3-.17.48-.06.15-.11.21-.17.36-.06.15-.13.48-.2.63-.07.16-.13.28-.19.43-.07.15-.13.24-.2.39-.05.12-.15.33-.2.45-.05.13-.14.34-.19.47-.03.09-.14.38-.18.47-.06.16-.15.3-.22.45-.07.15-.18.26-.25.41-.05.1-.17.31-.22.41-.05.1-.17.37-.22.48-.07.12-.16.3-.23.43-.07.15-.16.32-.25.46-.07.12-.18.32-.25.44-.07.11-.19.31-.26.41-.05.09-.18.34-.23.43-.08.14-.22.28-.3.42-.08.14-.13.31-.22.45-.07.12-.2.31-.27.43-.05.09-.18.33-.23.42-.09.14-.22.29-.31.44-.04.08-.18.34-.23.42-.08.13-.19.31-.27.43-.06.1-.19.34-.25.45-.09.15-.17.28-.26.43-.07.11-.19.31-.25.41l-.24.44c-.08.14-.17.23-.25.38-.04.08-.2.41-.24.49-.06.1-.17.22-.17.2,0-.01.22-.4.27-.49.01-.03-.12.19-.18.27Z"/>
    <path class="cls-7" d="m105.79,20.59c.08-.19.17-.43.25-.63.08-.19.12-.37.21-.56.08-.17.19-.39.28-.56l.29-.55c.06-.13.21-.4.27-.53.1-.18.24-.37.34-.55.11-.18.24-.34.35-.51.07-.12.25-.4.32-.52.11-.15.26-.36.37-.51.09-.13.26-.37.35-.5.12-.16.28-.32.41-.48.13-.16.21-.33.34-.49.13-.16.31-.29.45-.45.14-.15.22-.32.36-.47.1-.1.34-.34.44-.44.1-.09.36-.34.46-.44.09-.1.33-.35.42-.44l.45-.43c.14-.12.32-.29.46-.41.15-.14.27-.28.42-.42.15-.14.41-.29.56-.42.15-.13.19-.23.35-.36.17-.13.34-.27.51-.41.16-.13.25-.24.41-.37.17-.13.37-.28.53-.4.14-.1.39-.27.53-.37.17-.12.34-.19.51-.3.17-.12.36-.3.53-.42.14-.08.37-.23.51-.31.16-.1.34-.22.51-.32.18-.11.44-.21.62-.31.18-.1.2-.17.37-.27.2-.11.38-.2.58-.31.18-.1.45-.2.63-.29.19-.09.33-.18.52-.26.19-.09.37-.14.56-.22.19-.08.4-.21.6-.28.19-.07.36-.11.56-.18.18-.06.42-.14.59-.19.2-.06.41-.15.61-.2.2-.05.4-.1.6-.16.2-.04.41-.09.61-.13.2-.04.41-.06.62-.09.21-.03.41-.06.62-.08.21-.02.41-.03.62-.04.21,0,.46.02.66.03.21,0,.4,0,.61.01.21.02.42.04.62.07.2.03.35,0,.55.05.21.04.44.14.64.2.2.06.38.14.58.22.19.08.38.16.57.26.19.09.41.18.58.3.18.12.34.24.5.38.16.14.3.3.45.45.14.16.28.33.4.5.11.18.22.31.32.5.1.19.18.39.25.59.07.2.1.49.14.69.05.2.13.34.16.55.03.21.03.44.04.65,0,.21-.02.39-.05.6-.02.21-.07.53-.13.72-.05.16-.13.4-.18.55-.06.2-.16.36-.23.56-.07.2-.15.41-.24.6-.08.19-.18.39-.27.57-.1.18-.13.33-.23.51-.11.18-.25.37-.37.54-.12.17-.28.33-.41.49-.13.16-.24.34-.38.49-.14.16-.29.3-.44.45-.15.15-.3.29-.46.42-.16.13-.35.25-.52.37-.17.12-.3.28-.48.39-.18.11-.38.18-.57.27-.19.09-.38.17-.58.24-.2.07-.44.18-.65.22-.21.05-.39.06-.6.08-.21.02-.42.03-.62.03-.09,0-.22,0-.35-.03-.15-.04-.27-.06-.32-.08-.21-.04-.42-.11-.62-.19-.2-.08-.34-.1-.53-.24-.18-.13-.36-.35-.46-.54-.11-.19-.17-.45-.21-.67-.05-.22-.06-.47-.03-.69.01-.1.07-.49.09-.59.03-.14.13-.52.16-.65.05-.13.16-.43.21-.56.08-.19.17-.38.26-.57.08-.14.19-.35.28-.5.08-.15.21-.43.3-.59.11-.19.21-.36.32-.55.1-.18.21-.4.3-.58.1-.18.22-.29.31-.47.09-.18.16-.38.25-.56.09-.18.15-.39.23-.58.07-.19.19-.33.22-.53.04-.19.09-.4.13-.59.05-.19-.03-.33-.15-.43-.12-.11-.29-.2-.48-.25-.2-.07-.29-.02-.49.02-.18.05-.37.12-.55.21-.18.08-.37.2-.54.31-.17.11-.34.21-.51.32-.11.07-.4.27-.5.34-.17.11-.32.23-.48.36-.14.12-.33.28-.47.4-.15.12-.32.26-.47.38-.16.13-.33.24-.48.38-.07.08-.33.38-.41.46-.1.11-.32.34-.42.45-.14.14-.3.25-.44.4-.14.15-.27.31-.4.47-.13.15-.29.28-.41.44-.1.12-.29.35-.39.47-.12.16-.23.35-.35.51-.12.16-.22.35-.34.52-.11.17-.25.31-.36.48-.11.17-.18.36-.29.54-.1.17-.2.35-.29.53-.1.18-.25.35-.34.54-.05.12-.19.44-.24.55-.09.18-.19.37-.27.55l-.23.56c-.08.19-.11.39-.18.58-.07.19-.15.42-.21.61-.02.09-.1.43-.12.53-.04.15-.11.44-.15.58-.05.19-.15.42-.18.62-.03.2-.04.4-.07.6-.02.2-.05.35-.06.55-.01.2-.01.43-.01.63,0,.2,0,.42.02.62.01.2.02.4.05.6.03.2.07.39.12.59.05.19.1.38.17.57.06.19.13.39.22.57.08.18.18.34.29.5.1.17.21.35.33.5.13.15.28.33.43.46.15.13.29.18.45.29.16.11.33.21.51.29.17.08.39.21.58.26.19.06.36.08.56.11.2.03.43.01.63.02.2.01.38.03.58.02.11,0,.46,0,.57-.01.18,0,.43-.02.6-.03.2-.02.41-.1.6-.15.19-.05.39-.1.57-.17.19-.07.35-.2.53-.29.15-.08.39-.2.54-.27l.53-.28c.1-.06.41-.26.52-.32.16-.11.34-.24.5-.35.09-.07.41-.31.5-.38.16-.12.34-.24.5-.36.12-.08.38-.26.5-.34.13-.09.38-.26.5-.35.17-.12.35-.28.56-.37.21-.1.48-.08.68.07.26.12.37.53.32.73-.04.21-.11.36-.16.57-.03.21-.09.44-.17.64-.07.2-.19.37-.28.56-.08.15-.23.41-.31.56-.09.19-.15.34-.27.51-.12.17-.25.35-.37.52-.12.17-.29.32-.41.49-.13.18-.24.37-.39.53-.15.16-.35.3-.5.46l-.46.47c-.14.13-.33.32-.47.45-.16.15-.32.31-.49.45-.17.13-.35.29-.52.42-.18.13-.35.22-.53.34-.18.12-.36.25-.54.37-.18.12-.38.3-.57.41-.16.09-.4.23-.56.31-.19.11-.4.18-.6.28-.19.1-.36.23-.56.33-.2.09-.42.16-.62.25-.2.09-.39.19-.6.27-.18.06-.44.16-.63.22-.21.07-.43.14-.65.21-.21.06-.39.1-.6.15-.16.04-.45.1-.61.13-.23.05-.45.1-.67.15-.22.04-.46.08-.66.12-.22.03-.44.05-.66.07-.19.02-.46.05-.65.07-.21,0-.45.02-.67.02-.22,0-.42.04-.64.04-.22,0-.43-.07-.65-.09-.22-.02-.47,0-.69-.03-.22-.03-.46-.05-.68-.09-.22-.04-.42-.09-.63-.14-.21-.05-.4-.12-.61-.18-.21-.06-.45-.11-.66-.19-.21-.08-.41-.17-.61-.27-.2-.1-.39-.2-.58-.31-.19-.11-.29-.23-.47-.35-.18-.12-.42-.27-.59-.41-.17-.14-.35-.29-.51-.45-.16-.16-.27-.34-.41-.52-.14-.17-.28-.37-.41-.55-.12-.18-.24-.33-.35-.52-.11-.2-.2-.44-.28-.64-.09-.21-.14-.37-.21-.58-.06-.19-.14-.38-.18-.58-.04-.19-.11-.41-.14-.61-.03-.19,0-.32-.02-.52-.02-.2-.03-.4-.05-.6,0-.19-.06-.45-.06-.64,0-.2.03-.37.03-.56,0-.19,0-.41.03-.61.02-.19.04-.39.07-.59.03-.19.1-.32.13-.51.03-.19.04-.46.08-.65.04-.17.1-.41.14-.58.05-.19.11-.3.16-.49.06-.19.11-.36.16-.55.06-.18.12-.41.19-.59.07-.2.13-.35.2-.54.05-.13.11-.2.11-.17,0,.02-.07.16-.1.27-.03.1-.14.46-.16.56-.07.2-.15.42-.21.62-.06.21-.11.4-.16.61-.04.18-.09.42-.13.6-.04.2-.12.44-.16.65-.02.14-.06.46-.08.61-.03.21-.07.44-.09.65-.02.21-.02.4-.03.6,0,.2,0,.42,0,.62,0,.21,0,.42.02.63.01.21.07.35.09.56.02.21.02.48.06.68.04.2.1.35.15.55.05.2.11.41.18.61.07.2.13.43.22.62.09.19.2.33.3.52.1.18.19.42.31.59.12.17.26.29.39.45.13.16.27.34.41.49.15.15.3.26.46.4.16.13.36.26.53.38.17.12.33.24.51.35.18.11.41.21.6.29.19.09.29.19.48.27.2.08.43.16.64.22.2.06.43.1.63.15.2.04.4.07.6.11.2.03.44.07.64.09.2.02.27-.02.48,0,.23.02.49.03.7.05.21,0,.45,0,.67.01.15,0,.45,0,.61,0,.21,0,.37,0,.58-.01.21-.01.43-.03.64-.06.21-.02.44-.1.65-.14.21-.04.42-.06.63-.11.19-.05.4-.1.6-.15.22-.06.4-.11.62-.17.22-.07.39-.12.6-.19.2-.07.4-.12.59-.19.14-.06.42-.18.56-.24.18-.08.41-.18.6-.26.19-.08.41-.2.6-.29.19-.1.36-.18.55-.27.18-.1.34-.19.52-.29.18-.11.39-.2.57-.31.18-.11.3-.22.47-.34.17-.12.39-.25.55-.37.15-.12.34-.26.49-.38.15-.13.34-.28.49-.4.12-.11.36-.33.49-.44.16-.14.32-.26.47-.41.15-.14.31-.32.45-.47.15-.15.28-.23.42-.39.14-.16.27-.34.4-.51.09-.12.3-.39.39-.51.11-.15.24-.35.35-.51.12-.17.18-.31.27-.5.09-.18.26-.4.36-.59.1-.18.18-.35.25-.55.08-.19.12-.4.14-.6.03-.19.1-.42.1-.59-.01-.18-.02-.26-.18-.34-.12-.06-.27-.01-.45.08-.17.09-.32.22-.5.35-.15.11-.35.26-.5.37-.17.12-.4.23-.57.35-.17.12-.29.26-.46.38-.12.08-.43.27-.55.35l-.53.36c-.17.12-.36.25-.55.34-.19.1-.38.2-.58.31-.14.08-.4.23-.54.31-.19.11-.38.18-.58.25-.21.07-.44.14-.66.19-.22.05-.38,0-.6.01-.17.02-.53.05-.72.07-.21,0-.33,0-.55,0-.21,0-.46-.02-.68-.05-.22-.03-.49-.03-.71-.09-.21-.06-.42-.14-.62-.23-.2-.09-.38-.22-.56-.34-.18-.12-.38-.21-.55-.35-.17-.14-.32-.3-.47-.47-.14-.17-.29-.33-.41-.52-.12-.19-.19-.4-.29-.6-.09-.2-.19-.37-.26-.57-.07-.21-.1-.46-.15-.67-.05-.21-.13-.37-.16-.59-.03-.22,0-.45-.01-.67-.01-.21-.06-.43-.06-.64,0-.21.01-.43.01-.64,0-.21,0-.43.02-.64.02-.22.09-.43.13-.64.04-.21.1-.43.16-.63.06-.18.13-.43.19-.61.03-.11.12-.51.15-.62l.21-.61c.07-.2.17-.39.25-.59.07-.14.2-.44.27-.58.07-.17.18-.42.26-.58.08-.16.2-.42.27-.58.08-.13.24-.42.31-.56.1-.19.19-.38.3-.57.1-.16.23-.39.33-.55.12-.18.24-.36.36-.54.12-.17.25-.37.38-.54.11-.14.28-.35.4-.49.1-.12.3-.35.41-.47.13-.16.28-.32.43-.47.1-.1.34-.33.45-.43.14-.15.26-.33.4-.48.11-.1.34-.33.45-.43.14-.15.29-.3.45-.43.11-.08.39-.3.49-.38.14-.12.33-.28.47-.4.16-.13.32-.26.48-.39.15-.14.37-.22.54-.34.1-.06.45-.26.55-.32.12-.08.39-.26.51-.34.18-.11.36-.23.57-.3.2-.07.44-.09.66-.08.26.05.45.08.67.21.2.11.41.34.42.62,0,.29-.06.44-.1.66-.05.21-.09.41-.17.61-.07.2-.14.39-.23.58-.09.19-.22.36-.31.55l-.28.55c-.1.18-.16.38-.27.56-.1.18-.24.34-.34.52-.11.18-.16.36-.25.54-.07.14-.2.4-.27.54-.1.18-.22.36-.3.55-.06.13-.19.42-.25.55-.1.18-.08.39-.13.59-.03.15-.11.44-.14.59-.05.2-.03.37,0,.56.02.18.04.39.12.56.08.17.18.34.3.47.12.14.29.25.47.33.17.08.32.09.5.14.19.05.38.08.57.11.14,0,.47.05.65.03.2-.02.37-.07.56-.11.2-.04.43-.11.62-.17.19-.06.31-.08.49-.15.18-.08.34-.14.51-.23.18-.09.36-.2.53-.3.17-.11.36-.28.52-.41.16-.12.32-.24.47-.38.15-.14.3-.27.44-.42.14-.15.27-.3.4-.45.13-.16.24-.32.36-.48.12-.16.23-.33.34-.5.11-.17.21-.35.31-.52.1-.18.18-.36.27-.54.08-.18.12-.34.2-.52.07-.19.18-.42.24-.61.04-.13.16-.45.2-.57.06-.2.12-.41.15-.59.04-.19.03-.38.03-.57,0-.2-.02-.39-.04-.58-.02-.2-.02-.42-.06-.62-.04-.2-.1-.38-.15-.57-.05-.19-.12-.38-.2-.56-.07-.18-.21-.41-.31-.57-.1-.17-.11-.25-.23-.41-.12-.16-.29-.33-.43-.46-.14-.14-.32-.26-.49-.38-.16-.11-.35-.21-.52-.31-.17-.1-.35-.19-.53-.27-.18-.08-.33-.18-.52-.25-.19-.07-.38-.13-.58-.18-.2-.05-.43-.05-.62-.08-.2-.03-.37-.11-.58-.13-.2-.02-.41-.02-.61-.03-.2,0-.41.02-.61.02-.2,0-.4,0-.61.02-.2.01-.41.04-.61.06-.2.02-.4.03-.6.06-.17.04-.42.09-.59.12l-.6.14c-.17.05-.42.11-.6.16-.16.06-.42.15-.58.2-.19.07-.35.1-.54.17-.19.07-.44.2-.63.27-.19.07-.32.1-.5.18-.19.08-.45.24-.63.33-.18.09-.33.13-.51.22-.19.09-.32.18-.5.27-.18.1-.46.21-.64.31-.18.1-.28.19-.45.3-.19.12-.36.22-.54.33-.16.1-.38.23-.53.32-.16.11-.31.21-.49.33-.16.1-.25.13-.41.23-.16.1-.45.36-.6.47-.17.12-.29.21-.45.32-.16.11-.27.17-.42.29-.13.1-.33.25-.46.35-.13.11-.32.27-.45.38-.15.12-.29.27-.43.4-.14.12-.3.26-.44.38-.14.13-.3.21-.44.35-.11.09-.3.26-.41.36-.1.1-.33.33-.43.44-.12.11-.29.27-.41.39-.12.13-.3.31-.42.44-.12.13-.29.31-.4.43-.11.11-.28.29-.39.41-.09.1-.28.34-.37.44-.13.15-.3.27-.42.43-.12.15-.21.33-.33.48-.1.13-.26.33-.36.46-.12.16-.2.3-.31.47-.11.16-.28.33-.38.49-.06.1-.22.38-.28.48-.1.15-.22.35-.32.5-.07.13-.21.39-.29.52-.09.17-.18.34-.28.51-.07.14-.19.36-.27.5-.08.18-.17.36-.25.54-.08.18-.17.29-.25.47-.08.18-.14.42-.21.6-.05.13-.15.28-.16.26,0-.02.19-.51.23-.61,0-.04-.11.24-.16.34Z"/>
    <g>
      <path class="cls-7" d="m142.33,15.12c-.02.08-.05.14-.07.21-.02.07,0,.13-.03.2-.01.04-.05.16-.07.2l-.06.2c-.02.07-.02.13-.03.2-.01.03-.06.18-.07.2-.02.07-.06.13-.08.19,0,.02-.03.18-.03.2-.01.04-.05.16-.06.2,0,.03-.03.17-.03.2-.01.07-.05.13-.07.2-.01.07.02.14,0,.2-.01.07-.07.13-.08.2-.01.07.03.14.01.21-.01.07-.05.13-.06.2-.01.07-.05.14-.06.2-.01.07,0,.14-.01.2l-.03.2s-.03.16-.04.2c0,.07.01.13,0,.2,0,.07-.07.16-.08.23,0,.07.04.1.03.17-.01.08-.02.13-.03.22,0,.07.02.12.02.19,0,.1-.01.15-.02.22,0,.03-.03.18-.03.21,0,.07-.05.12-.05.19,0,.07.04.16.04.23,0,.03-.02.17-.02.2,0,.04,0,.15,0,.2,0,.07-.05.16-.04.23,0,.07.05.09.06.15,0,.11,0,.11,0,.22,0,.07-.02.16-.01.23,0,.07.02.12.03.19,0,.07-.02.13-.02.2,0,.07.04.15.05.22,0,.07-.02.13-.02.19,0,.04,0,.17,0,.21,0,.07.03.14.04.21,0,.07.02.14.02.2,0,.06.02.15.03.2,0,.03.01.17.02.2,0,.05.03.15.04.2.01.06.02.14.04.2.01.07,0,.15,0,.22,0,.02.05.17.06.19.02.09.02.11.04.2.02.07.08.1.09.16.02.07,0,.15.02.22,0,.03.03.17.04.2.02.07.04.13.06.19.02.07.07.13.09.19.01.04.04.15.05.19.02.06.03.13.05.2.02.04.06.13.08.19.03.06.07.1.1.16.03.07.05.11.09.18.03.06.03.16.06.22.03.06.1.08.14.14,0,.02.07.17.08.19.03.06.04.12.07.18.03.06.12.12.15.18.02.04.08.14.09.17.04.06.04.13.08.18.04.05.09.11.13.16.04.05.09.1.13.16.04.05.11.06.15.11.03.04.11.13.13.16.05.05.07.12.12.17.05.05.11.07.16.12.04.04.1.09.15.13.05.04.11.07.16.11.05.03.1.09.15.12.06.03.13,0,.19.01.05.02.1.07.16.08.06.01.12.02.18.02.06,0,.13-.04.19-.05.06,0,.12,0,.18-.02.06-.02.12-.04.18-.06.06-.02.14-.02.2-.04.06-.03.11-.05.18-.09.06-.03.07-.1.13-.13.06-.04.12-.07.18-.1.06-.03.15-.03.2-.06.05-.04.11-.07.15-.12.05-.04.06-.1.11-.15.04-.05.11-.09.16-.14.04-.05.06-.11.1-.16.04-.05.09-.1.13-.15.02-.02.09-.11.11-.14.04-.05.06-.13.1-.19.05-.09.05-.09.11-.18.04-.06.06-.14.09-.2.04-.06.11-.08.14-.14.03-.06.04-.13.07-.19.03-.06.04-.14.08-.2.03-.06.11-.09.14-.15.02-.05.07-.14.1-.18.03-.06.02-.14.05-.2.02-.03.08-.15.09-.18.03-.06.03-.13.05-.19.03-.07.05-.12.07-.19.02-.06.07-.13.09-.19.02-.07.05-.13.07-.19.02-.06.02-.14.05-.2,0-.02.08-.17.09-.19.01-.04.05-.16.06-.2.02-.04.06-.15.07-.19,0-.02.08-.17.09-.19.02-.07.02-.14.04-.21,0-.03.03-.18.04-.21.02-.07.07-.12.09-.18.02-.07,0-.14.02-.21.02-.07.07-.12.09-.19,0-.02.06-.17.07-.19.02-.07,0-.14.03-.21.02-.07.02-.14.03-.21.02-.07.07-.12.09-.18.02-.07,0-.14.02-.21.02-.06.04-.14.06-.19.02-.07.09-.12.11-.19.02-.07.02-.13.03-.2.01-.07.05-.13.06-.2.01-.06.03-.14.04-.2.01-.07,0-.14,0-.21.01-.05.03-.15.05-.21,0-.07-.01-.12,0-.18,0-.03.01-.17.01-.2,0-.07.06-.14.07-.21,0-.07,0-.14.01-.21,0-.02.04-.15.05-.18.01-.11.01-.1.02-.21.01-.12.01-.12.02-.21,0-.07.03-.13.03-.2,0-.03,0-.17,0-.21,0-.05,0-.14,0-.21,0-.07.01-.14.02-.21,0-.04,0-.17,0-.2,0-.07.03-.14.03-.21,0-.03.02-.18.02-.22,0-.07-.05-.12-.05-.19v-.2c0-.07.04-.15.04-.22,0-.03,0-.17-.01-.2,0-.07-.04-.15-.04-.22,0-.07.02-.13.02-.2,0-.07.02-.12.02-.19,0-.04,0-.17,0-.2,0-.07-.04-.14-.04-.21,0-.07.01-.14,0-.21,0-.07-.03-.13-.04-.2,0-.03,0-.17,0-.21l-.02-.2c0-.07.01-.14,0-.21,0-.04-.02-.16-.03-.2,0-.07-.05-.14-.06-.2,0-.06-.02-.14-.03-.2,0-.02,0-.18,0-.2,0-.02-.01-.18-.01-.2-.01-.07-.04-.14-.05-.2,0-.07.02-.12,0-.19-.01-.07-.07-.15-.08-.22-.01-.07.02-.12,0-.19-.01-.07-.07-.13-.08-.2-.01-.07-.01-.14-.03-.2,0-.03-.03-.17-.04-.21-.02-.07-.08-.11-.1-.17-.02-.07-.04-.13-.06-.2-.02-.06,0-.15-.02-.21-.02-.07-.09-.12-.12-.19-.02-.07,0-.16-.02-.23l-.08-.2s-.08-.16-.1-.19c-.03-.07-.08-.12-.11-.18-.03-.05-.07-.14-.1-.19-.03-.06-.03-.13-.07-.2-.04-.07-.07-.12-.11-.18-.04-.06-.12-.11-.16-.16-.04-.06-.07-.12-.11-.17-.04-.06-.06-.13-.1-.19-.05-.05-.13-.07-.17-.12-.05-.05-.08-.12-.13-.17-.05-.04-.12-.07-.17-.11-.06-.04-.11-.09-.17-.12-.06-.03-.13-.06-.19-.09-.06-.03-.11-.06-.17-.09-.06-.02-.12-.05-.18-.07-.07-.01-.14-.02-.21-.02-.07,0-.14,0-.2.01-.04,0-.19,0-.23,0-.05,0-.06,0-.09.02-.04.01-.08.03-.1.04-.07.02-.14.04-.2.06-.07.03-.11.08-.17.11-.06.03-.15,0-.21.04-.06.04-.11.11-.17.15-.06.04-.11.09-.17.13-.06.04-.12.07-.17.12-.05.04-.12.07-.17.12-.05.05-.09.12-.14.17-.03.03-.12.12-.15.15-.03.04-.1.12-.14.16-.05.05-.11.07-.15.13-.04.06-.07.15-.11.21-.04.06-.06.14-.1.2-.04.06-.11.1-.14.17-.04.07-.06.11-.11.2-.03.07-.04.13-.07.2-.03.07-.09.13-.12.2-.03.05-.06.13-.09.18-.03.06-.04.13-.07.19-.03.06-.04.14-.07.2-.03.06-.08.08-.11.14-.03.08-.04.11-.08.18-.03.06-.02.15-.04.21-.02.06-.07.1-.09.16,0,.03-.05.16-.06.19-.03.07-.04.11-.07.18-.02.06-.08.09-.1.15-.02.06,0,.16-.03.22-.02.04-.06.14-.08.19-.02.06-.07.09-.09.15-.03.07-.04.11-.07.18-.02.06-.04.14-.06.2-.03.1-.03.1-.06.18-.02.04-.06.06-.06.05,0,0,.03-.05.04-.09.02-.07,0-.13.03-.2.02-.05.06-.16.08-.21.02-.08.04-.12.06-.2.01-.04.04-.16.06-.2.02-.07.07-.14.1-.2,0-.02.04-.17.05-.2.03-.08.05-.12.08-.21.01-.04.05-.16.06-.2.02-.06.05-.14.07-.2.04-.09.05-.12.08-.2.03-.07,0-.13.03-.2.03-.07.09-.14.12-.2.03-.07.02-.13.04-.19.04-.09.05-.12.09-.2.03-.07.08-.13.11-.19.03-.06.03-.14.06-.2.03-.06.12-.12.15-.18.03-.06.03-.14.06-.2.04-.06.09-.12.13-.18.04-.06.05-.13.09-.19.04-.06.07-.14.11-.2.04-.06.1-.11.15-.16.04-.06.09-.14.14-.19.05-.05.12-.05.17-.11.06-.06.11-.11.16-.16.02-.02.12-.13.15-.16.03-.03.11-.1.15-.15.1-.08.08-.06.18-.14.06-.04.05-.09.11-.13.06-.04.15-.08.22-.12.07-.03.15-.07.22-.1.07-.03.14-.04.21-.06.07-.02.13-.02.2-.03.13-.02.15,0,.23-.01.07,0,.16-.05.24-.06.08,0,.15.02.23.02.08,0,.15.01.22.03.07.01.15.04.23.06.07.02.14.06.21.09.07.03.12.09.19.13.06.04.13.06.19.11.06.05.13.09.18.15.05.05.12.1.17.16.06.07.09.11.14.17.04.05.1.12.13.16.05.06.07.14.11.2.04.06.09.09.13.15.04.06.07.14.11.2.03.05.09.14.11.18.03.05.09.15.11.19.03.07.08.13.11.2.03.07.04.14.07.21.02.05.07.16.09.21.02.07,0,.13.02.2.02.07.07.13.1.2.02.07.03.15.05.22.01.04.06.16.07.2.02.07.07.11.09.18.02.07,0,.17.02.24.01.05.04.16.06.2.02.07.07.13.08.21.01.06.03.15.05.21.01.07,0,.14.01.21.01.07.02.15.03.21,0,.04.04.17.05.21,0,.04.03.17.04.21.01.07-.03.16-.02.23.01.07.07.12.08.19,0,.07,0,.15,0,.22,0,.07.02.14.02.21,0,.07.01.13.02.22,0,.08.01.12.02.22,0,.03.03.17.03.2,0,.04.02.18.03.21,0,.05.02.18.02.22,0,.07-.05.12-.05.2,0,.07.03.17.02.24,0,.07-.03.11-.03.18,0,.1,0,.15,0,.22,0,.07.04.16.04.23,0,.03-.02.19-.02.21,0,.07-.04.14-.04.21,0,.07.04.14.04.22,0,.07,0,.15-.01.21,0,.03,0,.19,0,.22,0,.07-.05.14-.05.21,0,.07.02.14.01.21,0,.07-.05.15-.05.22,0,.07.05.13.04.2,0,.07-.07.15-.07.22,0,.07.02.15.02.22,0,.06-.02.15-.03.21,0,.07,0,.14,0,.22,0,.07-.05.14-.06.21-.01.06-.03.15-.04.21,0,.04-.03.17-.04.21-.01.07,0,.15,0,.22l-.04.21c-.01.07-.05.14-.06.21,0,.02-.05.18-.06.21,0,.04-.03.17-.04.21,0,.03-.04.18-.04.21,0,.02-.07.18-.07.2,0,.02-.03.19-.04.21,0,.04-.04.17-.05.21-.02.07-.04.14-.06.21,0,.03-.04.18-.05.22-.01.03-.06.17-.07.2,0,.03-.06.17-.07.2-.02.07-.04.14-.06.2,0,.02-.07.17-.07.19-.02.07,0,.15-.01.21-.02.07-.05.13-.08.19-.02.07-.03.14-.05.2-.02.07-.07.12-.09.19-.01.04-.05.16-.06.2-.02.07-.04.13-.07.19-.01.03-.07.17-.08.19-.02.07-.07.13-.1.19-.02.07-.03.13-.05.2-.02.07-.01.15-.04.21-.03.07-.09.11-.12.18-.03.06-.03.14-.06.2-.03.05-.07.14-.09.19-.01.03-.07.16-.08.19-.02.03-.09.15-.1.18-.02.03-.07.16-.09.19-.03.06-.1.1-.14.17-.03.06-.07.12-.1.18-.03.06-.04.14-.07.2-.04.06-.1.1-.14.16-.04.06-.04.13-.08.19-.01.03-.09.16-.1.18-.04.06-.11.1-.15.16-.04.06-.1.1-.14.16-.04.06-.07.13-.12.18-.05.05-.11.1-.17.15-.05.05-.09.12-.15.16-.06.05-.16.06-.21.09-.03.02-.15.1-.18.11-.04.02-.14.08-.19.11-.06.03-.09.09-.16.12-.05.02-.14.07-.19.09-.07.03-.18.02-.25.04-.07.02-.13.07-.2.08-.08.02-.17.04-.25.04-.08,0-.13-.03-.21-.04-.08-.01-.14-.03-.21-.06-.07-.02-.15-.06-.21-.09-.07-.03-.17-.05-.23-.09-.06-.04-.12-.09-.17-.14-.06-.04-.11-.1-.16-.14-.05-.04-.11-.1-.16-.14-.03-.02-.13-.12-.16-.14-.05-.05-.1-.11-.14-.15-.04-.04-.1-.11-.14-.16-.04-.04-.09-.1-.14-.16-.04-.05-.1-.08-.14-.14-.05-.05-.08-.14-.12-.2-.04-.06-.06-.13-.1-.18-.04-.06-.09-.11-.13-.17-.04-.06-.09-.11-.13-.17-.02-.03-.09-.15-.11-.18-.03-.06-.04-.15-.07-.21-.03-.06-.07-.12-.1-.18-.03-.06-.05-.1-.09-.19-.03-.06-.08-.14-.1-.21-.02-.07,0-.11-.01-.17-.03-.09-.05-.14-.08-.21-.02-.07-.06-.13-.08-.2-.02-.07-.06-.13-.08-.2-.01-.05-.04-.16-.05-.2-.02-.07,0-.14-.01-.2-.01-.05-.03-.15-.05-.2-.02-.07-.08-.13-.1-.2-.02-.07.02-.14,0-.21,0-.03-.05-.18-.06-.2-.01-.07-.05-.13-.07-.2,0-.04-.02-.17-.03-.21,0-.04-.03-.16-.04-.21,0-.07,0-.14,0-.21,0-.03-.03-.17-.04-.2,0-.07-.01-.13-.02-.21,0-.04,0-.17-.01-.21,0-.03-.03-.17-.03-.21,0-.07.02-.13.02-.19,0-.07-.04-.16-.04-.23,0-.07.03-.11.03-.18,0-.07-.04-.17-.04-.24,0-.07.02-.12.02-.19,0-.03-.01-.16-.02-.19,0-.07.04-.17.03-.24,0-.07-.03-.11-.03-.18,0-.11,0-.14,0-.21,0-.07.01-.14.02-.21,0-.06,0-.1,0-.2,0-.06.04-.09.05-.16,0-.06-.03-.2-.02-.26.01-.08.02-.12.02-.18,0-.07.04-.1.05-.17,0-.03.03-.16.03-.19,0-.03,0-.16.01-.2,0-.07,0-.13,0-.2,0-.06.02-.14.03-.2,0-.06.05-.12.06-.18,0-.02.04-.15.04-.18.01-.06,0-.14.01-.21,0-.04.03-.14.04-.19,0-.05.02-.16.03-.2,0-.04.02-.16.03-.2,0-.03.04-.16.05-.19,0-.02.02-.17.02-.19.01-.06.08-.12.09-.19.01-.06-.02-.14,0-.2,0-.03.04-.16.05-.19.02-.06.01-.12.02-.19.01-.06.08-.13.09-.19.01-.06,0-.12.02-.19.01-.05.05-.15.06-.19.02-.06.02-.14.04-.2.02-.07.03-.12.06-.19.01-.03.05-.15.07-.18.02-.07.04-.12.05-.19.02-.06.07-.1.09-.16.02-.06.02-.15.04-.21.02-.04.07-.09.08-.08,0,0-.05.17-.06.21,0,.01.03-.08.06-.11Z"/>
      <path class="cls-7" d="m135.58,13.23c.07-.12.16-.25.23-.37.07-.11.11-.23.18-.34.06-.09.17-.24.23-.33l.23-.33c.04-.06.17-.26.21-.32.08-.11.18-.22.26-.32.08-.11.18-.2.27-.3.04-.06.19-.27.23-.32.07-.08.19-.22.26-.3.05-.06.19-.25.24-.31.08-.1.2-.19.28-.29.09-.1.13-.22.22-.32.09-.1.22-.17.31-.27.09-.1.14-.22.23-.31.09-.1.2-.18.3-.27.09-.09.21-.17.31-.27.04-.05.23-.24.27-.28l.3-.26c.08-.07.23-.18.31-.25.1-.08.17-.18.28-.26.1-.08.28-.15.39-.24.1-.08.12-.15.23-.23.12-.08.23-.16.35-.24.11-.07.17-.15.27-.23.13-.08.25-.16.36-.23.08-.05.28-.16.37-.2.12-.06.23-.09.35-.15.12-.06.24-.19.36-.25.08-.04.28-.12.35-.16.1-.05.24-.12.35-.17.12-.06.3-.09.42-.14.12-.05.13-.11.25-.16.15-.06.24-.09.4-.15.12-.05.3-.09.43-.13.07-.03.29-.11.35-.13.13-.04.25-.05.38-.08.13-.03.27-.11.4-.14.13-.03.24-.03.37-.05.11-.02.29-.05.4-.07.07-.02.33-.07.4-.09.13-.02.27-.04.4-.06.13-.01.27-.03.4-.04.1,0,.3-.01.4-.01.12,0,.28-.01.4-.02.13,0,.27,0,.4,0,.13,0,.29.04.43.04.13,0,.26,0,.39,0,.15.02.26.03.4.04.13.02.23-.02.36,0,.13.02.28.09.41.12.13.03.25.07.38.11.13.04.25.07.38.11.13.04.28.06.41.11.11.05.26.11.37.16.12.06.24.12.36.18.11.05.25.12.36.18.12.07.22.1.34.17.12.08.22.14.34.22.11.08.24.22.34.3.11.08.22.1.32.19.1.09.2.2.29.3.09.1.16.19.24.29.09.1.25.22.33.33.06.08.17.24.22.31.08.11.11.23.19.34.07.11.15.23.23.35.07.11.14.24.21.35.06.12.15.17.21.29.06.12.11.26.17.38.06.12.08.27.13.39.05.12.12.24.17.36.04.12.09.26.13.38.04.11.09.27.12.38.04.13.05.27.08.4.03.13.12.23.15.36.03.13.02.27.04.4.02.13.04.26.06.39.02.13.07.29.08.43,0,.07.02.31.02.38.01.12.03.27.04.39.01.13-.02.28,0,.42,0,.13.01.27.02.41,0,.13.06.21.06.34,0,.14,0,.28,0,.41,0,.13-.05.29-.06.42,0,.13-.02.28-.03.41,0,.13.01.25,0,.38-.01.13-.05.29-.07.42-.02.13-.01.25-.03.38-.02.08-.06.31-.08.39-.02.08-.06.26-.08.36-.03.13-.04.29-.07.42-.03.16-.05.25-.08.4-.02.1-.06.33-.08.42-.03.13-.11.21-.14.34-.03.13-.04.26-.07.39-.03.13-.05.27-.08.4-.04.13-.12.22-.16.35-.04.11-.09.27-.12.38-.04.13-.05.27-.1.39-.04.09-.11.28-.15.37-.02.06-.09.3-.11.36-.05.13-.09.24-.14.37-.03.08-.13.3-.16.38-.05.13-.09.24-.14.37-.02.06-.1.32-.12.38-.05.12-.11.24-.16.36-.04.1-.11.27-.16.37-.05.1-.13.25-.18.36-.06.12-.14.23-.2.35-.06.12-.1.25-.17.37-.04.07-.15.29-.19.36-.07.11-.16.2-.23.31-.07.11-.11.25-.18.36-.07.11-.17.2-.24.31-.05.06-.18.26-.23.32-.07.11-.12.24-.2.35-.04.06-.18.29-.21.34-.08.11-.18.19-.26.3-.08.11-.13.23-.21.34-.08.1-.17.21-.24.31-.08.1-.21.18-.3.29-.08.1-.15.22-.23.32-.05.05-.22.24-.27.29l-.26.3c-.09.1-.15.22-.24.32-.08.08-.21.21-.3.3-.09.1-.13.18-.22.28-.06.06-.21.23-.26.29-.1.09-.24.18-.34.27-.1.09-.19.2-.29.28-.1.09-.19.14-.29.23-.13.11-.19.16-.32.27-.13.11-.2.17-.32.26-.08.06-.25.18-.32.23-.07.05-.24.19-.31.25-.1.07-.21.16-.32.23l-.34.22c-.08.05-.25.17-.32.22-.11.07-.24.12-.36.19-.09.05-.28.15-.37.2-.12.07-.18.15-.29.22l-.35.18c-.12.06-.29.1-.41.15-.12.06-.22.11-.35.17-.12.05-.25.15-.38.2-.13.04-.25.07-.38.1-.13.04-.24.05-.37.08-.1.02-.29.07-.39.09-.13.03-.27.1-.4.12-.13.03-.27.03-.4.06-.13.02-.26.07-.39.09-.1.01-.3.03-.4.04l-.4.04c-.13.01-.27,0-.4,0-.11,0-.28.02-.4.03-.13,0-.27.04-.41.05-.13,0-.27,0-.4.01-.13,0-.26-.02-.39-.02-.08,0-.32-.02-.39-.02-.07,0-.34.01-.41.01-.13,0-.23-.04-.36-.05-.13,0-.31.03-.45.02-.13-.01-.23-.06-.36-.08-.13-.02-.29-.01-.42-.04-.13-.03-.26-.08-.38-.14-.09-.04-.29-.13-.38-.17-.13-.05-.24-.05-.37-.1-.13-.04-.25-.12-.36-.19-.12-.07-.21-.18-.33-.25-.12-.07-.27-.1-.39-.18-.13-.07-.21-.22-.33-.3-.11-.09-.23-.17-.33-.27-.11-.09-.22-.18-.32-.27-.1-.1-.22-.18-.32-.28-.1-.1-.2-.21-.3-.32-.1-.11-.14-.23-.23-.34-.08-.11-.17-.23-.25-.35-.08-.12-.21-.23-.29-.36-.05-.09-.15-.28-.2-.37-.07-.13-.1-.27-.16-.4-.07-.13-.16-.23-.22-.36-.05-.13-.09-.28-.14-.41-.05-.13-.12-.26-.17-.39-.05-.13-.08-.28-.12-.41-.04-.14-.09-.28-.12-.42-.04-.14-.05-.26-.08-.39-.03-.14-.04-.26-.07-.39-.03-.16-.06-.28-.09-.43-.02-.14-.05-.3-.07-.43-.01-.1-.03-.32-.04-.42-.01-.1-.04-.31-.06-.42,0-.13-.02-.3-.03-.43,0-.14-.05-.27-.06-.41,0-.14.05-.28.05-.42,0-.14-.04-.3-.04-.44,0-.1,0-.33,0-.43,0-.09.02-.32.03-.41,0-.07.04-.33.04-.41.01-.14,0-.3,0-.44.01-.11.04-.31.05-.42.02-.12.04-.29.06-.42.02-.14.08-.23.1-.36.02-.14.02-.32.05-.46.03-.14.04-.29.08-.43.04-.14.11-.26.15-.39.04-.14.08-.27.12-.42.01-.07.07-.32.09-.39.03-.08.12-.35.15-.42.04-.13.08-.25.12-.37.04-.12.05-.25.1-.37.04-.12.07-.27.11-.38.04-.12.11-.18.15-.3.05-.13.09-.23.13-.36.04-.12.07-.28.11-.4.05-.12.11-.21.16-.32.03-.08.11-.28.14-.36.05-.12.1-.22.16-.35.05-.11.13-.17.18-.28.06-.11.08-.29.14-.4.05-.09.13-.24.18-.34.06-.11.12-.17.18-.28.06-.11.12-.21.18-.32.06-.1.13-.25.19-.35.08-.13.12-.2.19-.32.05-.08.1-.11.11-.09,0,.01-.06.09-.1.15-.07.12-.09.22-.16.34-.06.1-.16.27-.21.36-.07.13-.12.23-.19.36-.04.09-.13.27-.17.36-.06.12-.15.25-.21.38-.03.07-.12.3-.15.37-.06.13-.11.25-.18.38-.03.09-.1.27-.14.36-.05.12-.1.26-.14.37-.06.14-.1.24-.15.38-.05.13-.04.23-.08.36-.04.13-.14.28-.18.41-.04.13-.04.23-.08.36-.04.14-.08.26-.12.4-.03.07-.11.33-.14.4-.04.13-.04.25-.07.38-.04.13-.13.27-.17.4-.04.13-.04.25-.07.39-.04.13-.1.26-.13.39-.03.13-.04.26-.07.39-.01.08-.05.34-.06.42-.01.07-.06.32-.08.39-.02.13-.02.3-.04.43-.02.13-.08.21-.09.35-.01.14-.02.3-.03.43,0,.08,0,.31,0,.42,0,.1,0,.27,0,.39,0,.18,0,.24,0,.42,0,.13.05.17.05.31,0,.16,0,.32,0,.45,0,.14,0,.28.01.43,0,.08,0,.3,0,.39,0,.13,0,.24,0,.37.01.12.03.3.03.41.02.14.08.28.1.41.02.13.03.27.06.4.03.12.06.25.09.39.04.16.06.24.1.4.05.16.07.24.11.39.04.13.06.26.1.39.04.13.1.23.15.36.05.11.11.26.16.39.05.12.12.26.17.38.06.13.11.23.17.35.06.12.12.21.18.33.07.11.11.26.19.37.07.11.15.18.23.29.08.11.16.24.25.34.08.09.19.21.26.29.08.09.2.21.28.29.06.06.24.22.31.28.1.09.18.19.28.27.1.09.23.17.33.25.11.08.15.18.27.25.06.03.31.16.37.19.06.04.28.18.34.23.12.07.23.14.35.18.12.05.23.05.35.1.12.05.27.15.39.2.12.05.24.07.37.1.13.03.27.01.4.03.13.02.27.03.4.04.13.01.26.03.39.04.13,0,.27,0,.4.01.1,0,.3,0,.4,0,.11,0,.29,0,.4,0,.13,0,.29.05.43.05.13,0,.25-.06.38-.06.07,0,.34,0,.41,0l.4-.03c.13-.01.26-.02.41-.04.14-.02.26-.03.41-.05.08-.02.3-.06.38-.07.09-.02.3-.07.38-.08.11-.03.3-.07.4-.1.13-.03.23,0,.37-.03.13-.03.3-.1.42-.14.13-.04.21-.03.33-.07.13-.04.27-.09.39-.14.13-.05.27-.15.39-.21.08-.03.3-.12.37-.15.12-.06.26-.08.38-.14.12-.06.22-.16.33-.23l.35-.2c.12-.07.22-.15.34-.22.12-.07.25-.11.37-.19.11-.08.2-.16.31-.24.11-.08.26-.13.37-.22.11-.08.16-.19.27-.27.11-.08.25-.13.36-.21.1-.09.19-.2.29-.28.1-.08.21-.18.31-.26.1-.09.18-.2.28-.29.1-.09.22-.16.32-.25.09-.09.2-.19.29-.28.08-.08.21-.2.29-.28.09-.1.17-.21.26-.31l.28-.3c.05-.05.23-.23.28-.29.05-.06.22-.24.28-.29.06-.08.19-.24.25-.32.06-.08.19-.25.24-.32.05-.06.21-.25.26-.31.04-.06.19-.27.23-.33.06-.09.17-.25.23-.33l.24-.34c.05-.08.17-.27.23-.35.06-.08.18-.25.23-.32.05-.07.18-.26.23-.32.07-.11.15-.23.22-.34.04-.06.18-.27.22-.33.07-.11.09-.25.16-.36.06-.11.14-.22.2-.33.06-.11.1-.24.16-.36.06-.12.14-.22.19-.34.04-.09.11-.26.15-.35.05-.12.1-.24.15-.36.03-.08.12-.29.16-.37.05-.12.12-.24.17-.37.02-.07.1-.3.12-.37.05-.12.05-.26.1-.39.05-.12.13-.23.17-.35.02-.05.1-.33.12-.38.05-.12.1-.25.14-.37.02-.09.08-.29.1-.38.03-.09.09-.28.12-.37.02-.1.07-.28.09-.38.03-.13.11-.25.14-.37l.09-.38c.03-.13.02-.26.05-.39.03-.13.09-.25.12-.38.03-.13.02-.25.04-.38.01-.08.04-.3.06-.38.02-.13.08-.26.1-.39.01-.07.06-.31.08-.38.02-.13,0-.26.02-.39.01-.08.04-.32.05-.39.01-.13,0-.25,0-.38,0-.13.05-.27.05-.4,0-.09,0-.3,0-.39,0-.11,0-.28-.01-.4,0-.13-.05-.22-.05-.35,0-.12-.02-.27-.03-.38-.01-.13.03-.31.01-.44-.01-.13-.05-.24-.07-.37-.02-.12-.04-.28-.06-.42-.02-.13,0-.21-.01-.34-.01-.09-.03-.27-.05-.36-.02-.12-.05-.29-.07-.39-.03-.13-.09-.28-.13-.41-.03-.13-.05-.26-.09-.38-.03-.1-.08-.28-.11-.38-.04-.12-.09-.25-.14-.36-.04-.09-.12-.26-.16-.35l-.16-.35c-.05-.1-.12-.24-.18-.35-.06-.1-.13-.22-.19-.34-.07-.11-.14-.18-.21-.29-.07-.11-.14-.26-.22-.36-.08-.1-.13-.22-.21-.32-.08-.1-.18-.2-.27-.29-.09-.09-.18-.17-.28-.26-.09-.09-.19-.17-.28-.26-.1-.09-.18-.21-.28-.29-.1-.08-.21-.15-.31-.22-.11-.07-.2-.14-.32-.22-.11-.07-.26-.14-.37-.21-.11-.07-.13-.13-.24-.19-.11-.06-.26-.12-.37-.18-.12-.06-.25-.09-.37-.14-.12-.05-.25-.08-.37-.12-.12-.04-.24-.09-.37-.12-.12-.04-.22-.11-.35-.14-.12-.03-.26-.06-.38-.09-.13-.03-.28,0-.41-.02-.13-.02-.24-.09-.37-.1-.08,0-.31-.01-.39-.02-.13-.01-.26.02-.39.01-.11,0-.29,0-.39,0-.11,0-.28.01-.39.01-.13,0-.26-.02-.39,0-.09.01-.29.03-.38.04-.13.02-.26.03-.39.05-.1.01-.29.04-.39.05-.09.02-.29.06-.38.08-.13.03-.23.02-.36.05-.13.03-.29.1-.42.13-.13.03-.21.02-.34.06-.13.03-.3.13-.42.17-.12.04-.22.05-.34.09-.13.04-.21.09-.34.14-.12.05-.31.08-.43.14-.12.05-.19.11-.3.17-.14.07-.24.11-.37.17-.1.05-.27.12-.36.16-.11.06-.2.11-.34.17-.11.06-.17.05-.28.11-.11.06-.3.21-.41.27-.12.07-.2.12-.31.17-.11.06-.19.08-.29.15-.1.07-.21.12-.31.2-.07.05-.23.17-.3.22-.05.04-.24.2-.29.24-.09.07-.2.15-.3.23-.1.08-.21.11-.3.19-.06.04-.22.17-.28.21-.05.05-.23.22-.28.27-.07.06-.2.17-.27.23-.07.08-.2.2-.27.28-.07.07-.2.21-.26.27-.06.06-.2.19-.26.25-.04.05-.2.23-.24.28-.08.09-.21.16-.3.25-.08.09-.13.21-.21.31-.06.07-.19.21-.25.28-.08.09-.13.19-.21.29-.08.1-.2.19-.28.29-.08.1-.13.2-.2.3-.07.09-.17.22-.24.3-.04.06-.17.25-.21.32-.08.11-.14.2-.22.3-.05.07-.17.22-.22.29l-.21.32c-.07.1-.15.16-.21.27-.07.1-.12.26-.19.36-.05.08-.14.15-.15.14,0-.01.18-.3.21-.36,0-.03-.09.14-.14.19Z"/>
    </g>
    <path class="cls-7" d="m154.91,33.44c.17-.27.38-.62.55-.9.11-.18.37-.61.48-.79.17-.25.37-.55.54-.8l.53-.8c.18-.26.32-.51.45-.8.13-.24.34-.64.48-.88.11-.2.36-.64.47-.85.12-.23.31-.62.42-.86.16-.28.29-.58.41-.88.1-.26.25-.62.35-.89.1-.23.29-.67.4-.9.12-.3.19-.58.31-.87.12-.3.29-.59.41-.89.1-.3.15-.59.25-.89.09-.25.24-.66.33-.91.09-.24.25-.68.34-.92.08-.24.21-.66.29-.9l.31-.91c.1-.29.22-.62.32-.91.06-.2.2-.69.25-.89.1-.31.29-.72.38-1.02.1-.3.09-.45.19-.75.1-.31.21-.66.3-.97.05-.18.17-.64.21-.82.09-.3.21-.68.29-.99.08-.28.19-.68.27-.96.08-.31.14-.57.19-.88.08-.31,0-.71-.02-1.02,0-.31-.05-.6-.09-.91-.04-.32-.11-.57-.18-.91-.06-.33-.04-.78.03-1.1.08-.32.1-.43.28-.7.09-.13.2-.28.36-.41.15-.12.32-.21.47-.28.3-.14.75-.24,1.06-.31.32-.07.58-.13.9-.16.32-.04.62-.03.95-.04.32-.01.71-.04,1.03-.03.22,0,.68.03.9.04.31,0,.66.01.96.01.27,0,.72-.01.99-.02h.96c.32-.02.64-.02.96-.03.3,0,.66,0,.96,0,.32-.02.64-.02.96,0l.97.05c.32.01.71.06,1.03.15.3.08.67.16.85.53.08.18.07.39.01.56l-.22.46c-.16.28-.22.48-.39.75-.16.27-.4.58-.55.86-.12.25-.27.58-.39.84-.09.3-.18.6-.22.89-.03.31.01.65.06.97.04.31.07.63.11.93.04.32.06.63.13.94.07.31.15.62.25.93.1.3.2.53.33.81.08.2.27.48.33.45.04,0,.1,0,.15-.02.26-.07.67-.24.9-.45.25-.2.39-.39.64-.58.25-.19.53-.39.74-.63l.63-.63c.22-.23.51-.58.7-.83.2-.25.36-.45.54-.71.18-.26.37-.48.52-.76.16-.28.34-.58.51-.86.16-.28.33-.56.5-.84.16-.28.23-.48.4-.76.16-.26.37-.6.52-.85.17-.28.4-.54.61-.79.21-.25.41-.5.67-.72.26-.21.57-.39.88-.5.31-.12.64-.19.97-.23.34-.03.67,0,.99,0,.32,0,.61-.07.93-.07.2,0,.76.02.96.03.32,0,.63,0,.95,0,.24,0,.79-.03,1.03-.04.27,0,.65,0,.92,0,.32-.01.63-.01.96.01.33.03.69.13,1.01.23.29.11.72.25.81.72-.02.37.01.56-.08.91-.12.32-.3.63-.48.9-.17.28-.44.56-.63.81-.19.26-.39.54-.56.81-.17.27-.28.51-.43.79-.15.27-.36.6-.49.88-.14.28-.24.54-.37.83-.11.26-.25.62-.36.88-.11.27-.21.54-.32.81-.1.27-.25.68-.35.95l-.35.93c-.11.3-.24.66-.33.97-.09.31-.22.52-.31.83-.06.23-.19.7-.25.93-.09.31-.17.64-.25.94-.08.31-.2.56-.27.87-.07.3-.15.63-.22.94-.07.31-.1.65-.16.96-.06.29-.13.65-.19.95-.04.24-.1.67-.13.91l-.15.95c-.04.28-.11.7-.15.98-.04.32-.08.63-.11.94-.02.25-.05.71-.07.96-.03.26-.07.68-.09.94-.01.3-.03.66-.05.96,0,.32-.06.63-.09.95-.03.27-.08.69-.11.96-.02.23-.05.74-.06.97-.02.32-.1.65-.16.97-.05.19-.18.73-.23.92-.07.16-.12.33-.19.49-.1.14-.2.29-.3.42-.04.05-.09.11-.16.2-.08.07-.16.12-.24.15-.16.07-.33.11-.49.15-.33.08-.64.05-.96.09-.22.03-.75.09-.98.11-.32.03-.65.05-.97.07-.2,0-.74,0-.94,0-.21.01-.75.05-.96.07l-.95.03c-.32,0-.67-.04-.99-.04-.25.01-.7.03-.95.04-.27,0-.7,0-.97,0-.32.01-.63,0-.95,0-.21,0-.75,0-.96.01-.32,0-.7-.03-1.03-.08-.32-.05-.57-.06-.88-.29-.34-.3-.36-.71-.3-1.06.06-.34.21-.72.35-1.01.13-.3.21-.63.38-.91.12-.22.31-.55.43-.78l.47-.89c.17-.29.33-.58.5-.86.16-.26.35-.57.5-.82.14-.25.33-.58.47-.83.16-.27.32-.55.47-.82.15-.28.32-.58.47-.86.13-.26.3-.57.43-.83.13-.23.35-.62.48-.84.15-.26.35-.62.49-.88.15-.28.22-.5.36-.78l.37-.88c.09-.19.36-.75.44-.94.11-.27.24-.58.35-.85.07-.18.29-.77.36-.94.13-.29.27-.55.38-.85.09-.21.26-.62.35-.83.11-.28.25-.61.36-.89.07-.21.26-.73.33-.94.08-.2.07-.17.09-.21.02-.03.04-.08.06-.12,0-.03.01-.04.01-.05-.04.05-.08.1-.11.14l-.05.05c-.11.12-.22.23-.32.33l-.66.69c-.17.17-.51.5-.68.67-.21.23-.44.47-.66.7-.22.23-.43.5-.64.74-.21.23-.43.48-.65.71-.22.23-.43.46-.63.7-.18.21-.45.51-.63.71-.16.21-.43.57-.59.78-.21.25-.35.41-.51.66-.15.26-.27.72-.45.99-.17.28-.34.46-.54.71-.13.18-.46.65-.59.82-.19.26-.41.5-.64.72-.21.21-.49.5-.69.71-.22.23-.36.46-.61.67-.24.22-.51.43-.78.62-.28.18-.59.32-.88.47-.31.16-.6.34-.94.45-.34.1-.73.12-1.08.13-.35.01-.71-.03-1.05-.16-.34-.12-.64-.32-.89-.58-.27-.25-.41-.59-.56-.91-.17-.3-.29-.7-.21-1.09.07-.35.19-.63.34-.94.14-.32.27-.64.45-.93.09-.19.4-.79.49-.97.15-.27.33-.59.49-.86.16-.3.36-.57.48-.88.13-.3.21-.61.23-.94.05-.32.11-.66.09-1,0-.27-.02-.74-.03-1.01-.01-.33-.03-.67-.08-1.01-.04-.33-.12-.69-.2-1.02-.05-.26-.14-.67-.19-.94-.08-.32-.1-.62-.22-.93-.11-.33-.23-.67-.34-.99-.09-.31-.25-.68-.44-.87-.13-.18-.3.27-.44.55-.11.29-.24.65-.35.95-.12.32-.26.64-.36.96-.06.21-.22.74-.28.95-.1.33-.25.62-.35.94-.06.21-.22.82-.28,1.03-.1.32-.18.69-.27,1.01-.09.29-.19.66-.28.96-.08.26-.2.68-.28.94-.06.26-.17.77-.23,1.03-.08.31-.18.68-.26.99-.08.33-.18.65-.24.98-.06.33-.15.54-.21.88-.04.25-.13.83-.17,1.09-.03.3-.08.74-.12,1.03-.05.34-.13.66-.17,1-.04.34-.09.7-.13,1.05-.03.26-.08.7-.1.96-.04.35-.15.72-.15,1.06,0,.34-.02.6.03.93.04.25.11.66.15.91.02.3.16.63.22.94.06.3.06.52,0,.82,0,.32-.25.63-.52.78-.27.17-.66.29-.96.34-.3.04-.57.05-.88.06-.28.01-.67.03-.94.04l-.92.02c-.3,0-.51-.03-.81-.02-.3.01-.72.05-1.02.04-.29,0-.64-.02-.93-.03-.3,0-.5-.06-.79-.08-.3-.02-.6-.04-.9-.06-.29-.03-.67-.07-.96-.09-.14-.03-.31-.03-.46-.13-.03-.08,0-.17,0-.25l.1-.21c.1-.2.18-.3.18-.27,0,.03-.13.24-.2.4-.07.13-.11.35.07.35.13.03.28.04.44.05.32.03.69.09,1.02.11.33.02.65.04.98.06.33.02.63.01.96.02.27.01.77.03,1.04.04.33,0,.63-.03.96-.04.33,0,.69-.02,1.02-.03.3-.01.65-.03.94-.04.33,0,.64-.04.96-.08.32-.05.64-.1.93-.24.28-.15.43-.34.5-.61.01-.15.07-.33.06-.5,0-.18-.03-.36-.07-.52-.08-.31-.19-.53-.22-.87-.05-.34-.1-.68-.14-1.01-.03-.33-.01-.72.02-1.05.04-.34.05-.62.09-.94.05-.32.15-.71.19-1.04.04-.33.04-.62.08-.94.04-.27.11-.73.15-1,.03-.27.08-.69.11-.96.05-.28.12-.75.17-1.04.06-.27.14-.69.2-.97.06-.33.15-.72.23-1.04.08-.32.18-.51.26-.83.08-.33.18-.71.26-1.03.07-.28.18-.7.25-.99.07-.29.16-.63.24-.93.09-.34.18-.65.27-.99.09-.31.08-.42.17-.73.1-.33.23-.74.33-1.05.09-.32.22-.68.33-1,.11-.31.22-.6.34-.9.1-.23.26-.61.35-.85.12-.31.25-.63.43-.93.04-.06.11-.19.22-.25.12-.05.25.02.35.11.15.15.24.31.32.46.14.31.21.64.33.96.1.31.23.61.31.93.08.33.16.66.23.99.08.34.15.65.23.97.06.33.09.65.13.98.03.33.07.63.07.97,0,.33,0,.7.01,1.04-.03.33-.05.74-.14,1.07-.08.33-.24.61-.37.92-.15.3-.28.54-.44.84-.16.3-.36.59-.52.88-.11.21-.31.59-.42.81-.17.28-.31.64-.45.93-.14.28-.19.61-.24.88-.04.29.1.57.25.85.06.12.14.28.22.44.09.13.2.25.31.36.21.21.46.38.75.48.29.1.64.12.95.1.31-.02.55-.02.86-.11.31-.09.62-.25.91-.39.29-.14.6-.31.87-.49.26-.18.51-.39.75-.6.24-.21.38-.42.6-.65.14-.14.64-.62.78-.75.24-.23.4-.48.6-.73.12-.17.45-.64.58-.81.21-.25.38-.55.54-.83.18-.28.23-.52.45-.84.18-.32.39-.57.6-.83.21-.26.39-.53.61-.78.2-.24.42-.51.63-.75.21-.26.51-.5.74-.75.22-.24.37-.48.59-.73.22-.25.48-.48.71-.72l.68-.71c.23-.24.46-.48.69-.73.23-.25.47-.5.71-.75.36-.39.85-.91,1.21-1.3.06-.07.13-.14.2-.21-.17.46-.37,1-.53,1.42-.14.38-.32.86-.46,1.23-.12.31-.25.5-.38.82-.1.27-.28.75-.38,1.03-.12.3-.21.47-.34.77-.14.31-.28.65-.42.95-.13.31-.26.7-.39,1.01-.12.26-.29.64-.41.91-.09.18-.34.71-.43.9-.12.31-.25.61-.41.9l-.47.87c-.14.26-.32.62-.46.88-.11.18-.4.68-.51.86-.11.21-.33.65-.43.86-.16.29-.4.6-.56.89-.17.28-.25.54-.42.83-.17.28-.39.57-.56.85-.16.29-.31.58-.46.87-.15.29-.31.58-.46.87-.11.22-.32.65-.43.87-.15.29-.28.6-.41.89-.14.3-.19.61-.26.92-.03.28.02.57.27.7.25.14.58.15.9.18.32.04.65.03.98.04.28.01.71.03.98.04.33.01.66.01.99.01.31,0,.68-.02.99-.03.3,0,.68-.02.99-.03.28,0,.71,0,.99,0,.28-.02.71-.04.99-.05.31-.01.68-.03.99-.04.33-.01.67-.02,1-.04.33,0,.68-.07,1-.09.3-.02.66-.05.96-.07.32-.03.62-.09.85-.23.18-.2.41-.46.54-.72.13-.25.19-.57.26-.88.06-.31.09-.63.15-.94.05-.31.08-.63.12-.94.02-.25.05-.7.07-.95.03-.25.08-.7.11-.95.01-.3.03-.64.04-.95.02-.32.05-.63.07-.96.03-.28.08-.69.11-.98.03-.32.1-.66.14-.97.03-.26.08-.67.11-.93.04-.32.05-.65.1-.97.05-.32.14-.61.2-.93.04-.24.11-.73.15-.96.06-.31.13-.63.19-.94.06-.29.13-.65.19-.94.07-.29.16-.64.24-.93.08-.31.16-.62.25-.93.06-.17.26-.74.32-.92l.27-.92c.09-.31.15-.62.27-.92.08-.18.3-.71.38-.9.07-.19.24-.7.3-.89.1-.27.23-.63.32-.9.08-.19.3-.72.38-.91.11-.3.27-.58.41-.87.14-.29.26-.59.42-.88.15-.28.34-.57.5-.84.17-.27.32-.54.5-.81.19-.27.43-.51.6-.77.18-.26.33-.52.48-.79.07-.14.14-.28.18-.43.02-.16.04-.31.06-.46.07-.31-.07-.34-.31-.5-.25-.13-.54-.2-.84-.25-.3-.05-.72-.12-1.03-.12-.32,0-.6.05-.92.05-.32,0-.71.01-1.05.02-.19,0-.63-.02-.83-.03-.28,0-.62,0-.9-.01-.31,0-.67,0-.97,0-.26,0-.8.03-1.05.04-.31,0-.62.03-.92.11-.3.08-.59.2-.85.36-.25.17-.48.38-.69.61-.21.23-.39.48-.57.74-.18.26-.33.54-.5.81-.16.27-.33.55-.49.83-.16.27-.32.55-.48.82-.11.2-.32.58-.43.77-.14.23-.42.67-.56.89-.18.28-.37.51-.57.77-.19.26-.4.54-.63.77-.17.19-.46.51-.64.71-.23.23-.41.49-.67.69-.18.13-.64.47-.81.6-.25.21-.48.41-.8.56-.18.09-.37.17-.62.18-.27-.02-.37-.2-.45-.31-.2-.3-.36-.7-.46-1.01-.1-.31-.09-.44-.17-.75-.07-.31-.18-.69-.21-1.01-.04-.29-.1-.71-.14-.99-.04-.32-.1-.65-.1-.99,0-.33.07-.68.16-.99.06-.32.26-.56.38-.86.12-.31.29-.58.46-.85.17-.27.31-.6.47-.88.09-.14.17-.26.24-.38.07-.12.17-.25.18-.38.04-.28-.18-.48-.47-.57-.28-.1-.6-.14-.92-.15-.3-.02-.64-.04-.95-.06-.32-.01-.64-.04-.96-.03-.24,0-.71,0-.95,0-.3,0-.65.02-.95.02h-.97c-.3,0-.67,0-.97,0-.29,0-.67,0-.96,0-.22,0-.67-.03-.89-.03-.26,0-.8,0-1.06,0-.31,0-.52-.02-.83,0-.31.02-.78.11-1.09.17-.31.05-.53.08-.83.17-.3.1-.52.2-.76.38-.21.16-.53.55-.63.82-.08.29-.07.49-.05.79.02.32.1.62.17.96.05.31.1.67.14.97.01.31.02.62.04.95-.04.3-.09.43-.14.73-.03.3-.15.9-.23,1.18-.08.3-.15.55-.23.83-.07.19-.2.57-.26.75-.09.27-.19.59-.28.86-.08.27-.18.61-.26.88-.07.23-.19.65-.26.88-.09.29-.19.58-.28.87-.06.16-.25.66-.31.82-.09.29-.19.52-.29.8-.08.24-.22.67-.3.91-.1.26-.2.56-.3.83-.09.27-.21.63-.3.9-.09.27-.2.6-.29.87-.09.26-.21.57-.3.83-.09.29-.19.56-.31.84-.12.28-.29.57-.4.85-.12.28-.19.57-.3.85-.11.26-.25.59-.36.85-.09.23-.23.59-.32.82-.12.28-.34.58-.47.85-.1.21-.28.58-.38.79-.14.26-.3.56-.44.82-.12.24-.3.6-.42.84-.14.27-.33.51-.49.77-.15.23-.35.51-.5.73-.17.25-.34.52-.51.77-.1.14-.39.53-.49.67-.16.25-.33.6-.49.85-.11.18-.3.4-.29.37,0-.02.44-.72.53-.87.03-.06-.22.34-.32.48Z"/>
    <path class="cls-7" d="m191.68,32.12c.13-.21.3-.47.43-.67.07-.12.28-.49.35-.61.12-.19.28-.43.4-.62l.4-.61c.13-.2.24-.39.36-.6.11-.16.3-.47.41-.64.12-.21.27-.41.39-.62.08-.16.25-.49.33-.65.1-.2.24-.45.35-.65.08-.18.22-.47.3-.65.08-.15.27-.51.35-.66.11-.22.16-.43.27-.65.11-.22.26-.43.36-.65.11-.22.15-.44.26-.65.08-.16.26-.49.34-.65.08-.15.27-.51.35-.66.07-.16.22-.5.29-.66l.32-.66c.1-.2.23-.45.33-.65.05-.12.22-.52.27-.64.1-.22.3-.5.4-.72.1-.22.1-.34.2-.55.11-.22.23-.47.33-.69.05-.11.2-.49.24-.6.11-.23.23-.49.33-.71.09-.19.24-.49.34-.68.1-.22.22-.4.32-.62.1-.22.17-.52.27-.75.08-.18.21-.46.29-.64.09-.21.18-.44.27-.65.08-.23.23-.52.31-.74.08-.22.05-.3.11-.52.06-.22.13-.51.16-.74.03-.23.07-.56.05-.79-.02-.24-.06-.43-.11-.66-.05-.23-.09-.44-.17-.67-.09-.22-.24-.47-.34-.7-.05-.13-.19-.51-.24-.64-.1-.25-.12-.52-.11-.77.01-.26.05-.52.12-.76.07-.25.2-.49.37-.68.17-.2.38-.36.6-.48.22-.12.45-.21.69-.29.23-.09.47-.16.71-.22.24-.06.48-.11.72-.15.24-.03.54-.02.78-.04.18-.02.53-.06.71-.08.25-.02.49-.04.74-.06.24-.03.4-.06.64-.07.14,0,.64.02.78.03.2,0,.51,0,.72,0,.24,0,.48,0,.72-.01.14,0,.62-.04.76-.05.23,0,.49,0,.72,0,.24,0,.49.03.73.03.23,0,.5.01.74.02.15,0,.52,0,.68,0,.25,0,.48.01.73.02.24,0,.57.05.81.07.24.02.43-.02.67,0,.24.03.51.08.75.12.24.04.43.09.68.14.24.04.59.08.83.14.24.06.44.12.67.19.24.07.44.18.67.26.23.08.48.18.71.28.23.1.45.22.67.34.21.12.38.17.58.3.21.13.43.3.62.45.2.15.38.34.56.5.19.16.38.31.56.48.17.18.34.37.5.56.15.2.3.39.43.61.12.22.21.48.28.73.07.25.15.48.17.72.02.25-.01.5-.02.75,0,.25-.03.49-.07.74-.04.25-.1.57-.21.8-.1.23-.22.42-.35.63-.14.21-.27.41-.43.6-.17.19-.37.37-.57.53-.2.16-.38.35-.61.48-.23.12-.36.22-.61.28-.25.04-.51.08-.76.11-.25.05-.54,0-.78,0-.24,0-.51.01-.76.02-.24.01-.45.03-.69.03-.18,0-.6-.03-.78-.04-.24,0-.47-.04-.72-.07-.25-.04-.5-.08-.74-.21-.24-.12-.4-.25-.58-.44-.17-.19-.36-.43-.47-.67-.11-.24-.19-.52-.22-.77-.04-.25-.08-.56-.05-.82.03-.28.17-.43.22-.66.05-.23.06-.47.08-.7.03-.24-.04-.49-.04-.72-.01-.23.04-.44.02-.68-.04-.23-.09-.46-.18-.68-.09-.22-.23-.42-.38-.56-.15-.15-.32-.24-.57-.26-.23-.02-.43-.06-.65-.05-.22.02-.44.08-.64.17-.2.1-.42.22-.59.38-.17.16-.31.33-.45.52-.14.19-.24.41-.36.62-.12.21-.24.4-.34.62-.1.22-.19.44-.28.67-.08.21-.18.45-.26.67-.08.23-.18.45-.25.68-.04.14-.16.56-.2.7-.06.19-.16.52-.21.71-.04.11-.21.55-.25.66-.04.13-.16.58-.2.71-.05.12-.21.55-.25.67-.06.18-.17.5-.24.68-.04.14-.16.57-.2.71-.08.23-.11.48-.18.71-.04.12-.19.55-.23.67-.06.23-.11.47-.15.7-.05.23-.08.46-.09.68,0,.22-.06.5.05.64.1.14.32.14.52.1.21-.04.44-.12.65-.23.21-.11.41-.23.61-.36.2-.13.38-.3.6-.42.22-.13.49-.25.75-.32.25-.05.48-.13.77.07.27.25.31.51.35.78.03.28-.09.57-.11.82-.02.25-.07.5-.13.74-.06.24-.13.42-.2.65-.08.25-.14.47-.22.72-.07.23-.14.49-.22.72-.08.21-.18.49-.26.69-.07.19-.18.49-.25.68-.09.22-.19.45-.29.67-.1.22-.23.46-.35.68-.13.22-.25.42-.44.61-.19.19-.45.33-.73.39-.28.07-.62-.03-.84-.16-.23-.12-.4-.2-.6-.36-.19-.17-.36-.35-.53-.51-.17-.16-.37-.38-.56-.48-.2-.1-.35-.12-.5-.03-.16.09-.26.33-.35.53-.06.14-.21.49-.28.64-.06.13-.21.48-.27.62-.08.23-.15.45-.22.68-.03.14-.15.59-.18.73-.05.17-.16.52-.22.69-.04.16-.13.54-.17.7-.07.23-.15.46-.2.69-.05.23-.1.47-.08.66.01.21.07.25.33.31.22.05.44.04.69.03.23,0,.47-.07.7-.11.23-.04.47-.1.69-.17.22-.07.44-.13.66-.21.22-.09.44-.17.65-.28.22-.1.42-.27.63-.39.2-.12.37-.18.58-.31.11-.08.54-.37.66-.45.21-.12.35-.23.54-.37.1-.09.45-.42.55-.51.15-.12.41-.33.56-.45.19-.15.37-.34.55-.51.17-.17.27-.34.45-.51.17-.17.35-.35.52-.53.18-.17.38-.33.56-.49.2-.17.37-.37.57-.53.2-.17.45-.3.66-.46.22-.15.44-.28.7-.39.27-.11.53-.1.8-.15.27,0,.54,0,.8.06.26.06.54.13.79.26.25.13.44.34.57.59.14.25.2.52.22.79.03.27.06.59.03.85-.03.26-.07.5-.13.76-.06.25-.16.49-.22.75-.06.25-.07.5-.13.75-.04.16-.17.6-.21.76-.05.25-.11.5-.18.75-.07.22-.16.52-.23.75-.07.25-.15.51-.22.77-.07.25-.18.44-.27.68-.08.19-.2.49-.28.68-.11.24-.29.52-.57.65-.33.08-.55.05-.82.08-.23,0-.55.02-.78.03-.23.02-.54.04-.77.05-.25.01-.53.02-.78.03-.14.01-.62.06-.75.07-.26.01-.51-.03-.76-.02-.26,0-.55.05-.81.05-.23,0-.57.02-.8.03-.22,0-.54,0-.76,0-.19,0-.56,0-.75-.01-.18,0-.62.03-.8.04-.24,0-.54,0-.78,0-.24,0-.52-.01-.77-.01-.26,0-.43-.05-.68-.05-.17,0-.67.02-.84.02-.21,0-.58,0-.79.01-.26,0-.51-.04-.77-.05-.26,0-.53,0-.8,0-.17,0-.56.02-.73.02-.2,0-.62-.02-.81-.03-.26,0-.47,0-.72-.01-.18,0-.53,0-.71.01-.18,0-.55,0-.73.01-.23,0-.37-.05-.6-.05h-.7c-.23,0-.53.03-.76.03-.14,0-.52-.02-.66-.03-.2,0-.52,0-.71,0-.23,0-.46,0-.69,0-.23,0-.39-.05-.62-.05-.23,0-.55.04-.77.04-.23,0-.48-.01-.71-.04-.23-.03-.38-.08-.6-.16-.11-.04-.22-.1-.29-.22-.06-.12-.06-.23-.08-.35-.02-.23,0-.53.12-.73.11-.22.2-.4.3-.62.07-.15.15-.22.14-.19,0,.02-.1.18-.15.3-.05.12-.21.51-.26.63-.09.23-.12.51-.08.75,0,.27.28.37.51.42.24.05.47.06.72.07.18,0,.61.02.79.03.18,0,.54-.01.73-.02.25,0,.52,0,.78,0,.21,0,.5,0,.72-.01.24,0,.49,0,.73,0,.26,0,.49,0,.75,0,.25,0,.43-.04.67-.04.16,0,.66.03.82.04.13,0,.55-.03.68-.03.26,0,.51,0,.76,0,.19,0,.59.02.79.03.13,0,.58-.03.71-.03.25,0,.55.05.8.06.12,0,.59-.03.72-.03.19,0,.58.02.77.03.18,0,.55-.01.73-.02.2,0,.59-.01.79-.01.19,0,.55.02.74.03.21,0,.59,0,.81-.01.25,0,.4.05.66.05.26,0,.55,0,.8-.01.2,0,.55-.02.77-.03.21,0,.5-.02.73-.03.28,0,.5-.01.77-.02.24,0,.32-.05.57-.06.27,0,.59-.02.83-.03.25-.01.53-.03.79-.04.19,0,.52-.01.73-.02.17,0,.52,0,.69,0,.24,0,.53-.02.76-.03.25-.01.53-.06.78-.08.12-.01.28,0,.32-.03.09-.04.18-.11.25-.19.14-.17.22-.38.3-.62.09-.25.17-.46.26-.71.09-.23.15-.48.22-.72.06-.2.16-.52.22-.71.05-.18.13-.51.18-.7.08-.24.12-.51.18-.75.05-.24.12-.53.17-.77.06-.25.11-.47.17-.71.05-.24.1-.45.15-.69.04-.24.1-.5.12-.75,0-.24-.01-.43-.04-.66-.03-.23-.09-.5-.22-.68-.12-.18-.29-.29-.5-.39-.21-.09-.44-.15-.68-.2-.24-.04-.5-.07-.73-.04-.23.04-.46.01-.67.11-.21.09-.44.24-.64.38-.19.15-.35.23-.55.39-.13.11-.44.39-.57.5-.19.15-.39.35-.57.52-.16.16-.35.37-.52.53-.08.09-.37.42-.45.51-.18.17-.43.38-.63.54-.18.16-.37.32-.55.48-.1.09-.46.43-.56.53-.19.17-.39.34-.62.46-.15.09-.49.28-.64.37l-.64.39c-.21.14-.42.27-.65.38-.23.11-.45.21-.69.3-.24.09-.54.13-.79.19-.25.06-.44.15-.7.19-.25.04-.55.03-.79.03-.28,0-.52-.03-.81-.16-.37-.24-.28-.63-.27-.87.03-.26.1-.52.16-.77.05-.19.13-.5.18-.7.05-.2.13-.51.18-.71.06-.22.14-.53.2-.75.07-.25.17-.4.25-.64.06-.24.17-.57.26-.8.06-.12.21-.46.27-.59.09-.23.19-.51.38-.72.09-.11.22-.23.39-.3.17-.07.37-.05.51,0,.28.11.47.29.67.45.2.17.35.39.52.56.18.17.39.29.59.4.2.12.4.19.61.17.21-.02.4-.13.56-.28.17-.14.35-.32.47-.52.12-.2.2-.42.3-.64.11-.22.26-.47.35-.7s.12-.44.2-.67c.09-.23.23-.47.31-.7.08-.23.11-.49.19-.72.07-.24.15-.48.22-.72.08-.24.11-.48.17-.71.07-.23.14-.47.16-.72.02-.24.08-.49.05-.71-.03-.22-.1-.45-.25-.51-.16-.07-.39.01-.6.09-.22.08-.43.2-.63.33-.16.1-.48.29-.64.39-.22.13-.45.24-.69.35-.24.1-.49.21-.79.19-.15,0-.32-.06-.44-.19-.12-.12-.18-.29-.2-.43-.04-.27,0-.53.02-.79.03-.25.06-.51.13-.76.06-.22.14-.51.19-.73.07-.24.14-.49.21-.74.07-.24.14-.5.22-.74.07-.21.17-.49.24-.7.07-.19.18-.5.24-.69l.23-.71c.06-.17.18-.51.24-.68.07-.23.11-.48.18-.71.06-.18.18-.51.24-.68.07-.23.13-.47.21-.7.08-.23.18-.45.27-.68.09-.23.17-.45.27-.67.1-.22.21-.44.32-.66.11-.22.26-.44.39-.65.14-.21.32-.41.49-.59.17-.18.35-.36.57-.49.22-.13.45-.28.71-.34.27-.07.52,0,.77.04.25.05.53,0,.79.18.25.15.41.39.52.62.12.23.21.47.27.72.07.25.06.5.07.75.01.23.03.52.04.75,0,.25-.08.5-.12.75-.04.24-.12.5-.18.71-.05.22-.01.45,0,.67.02.23.03.47.1.69.08.22.2.39.33.57.13.19.29.34.46.45.18.11.38.25.62.27.17.03.51.1.68.13.24.02.48-.01.72,0,.19,0,.54.02.73.03.15,0,.56-.04.71-.05.13,0,.61.01.74.02.24-.03.46-.08.69-.11.24-.02.48-.08.69-.18.21-.08.31-.23.48-.38.17-.14.34-.29.5-.47.16-.17.4-.39.53-.58.13-.2.21-.39.31-.6.1-.21.2-.48.24-.7.05-.22.1-.35.12-.59.02-.23.03-.43.03-.66,0-.23-.01-.49-.04-.72-.03-.23-.14-.5-.25-.71-.1-.21-.21-.42-.34-.61-.14-.19-.29-.38-.45-.56-.16-.17-.34-.34-.51-.5-.18-.16-.36-.3-.55-.45-.19-.15-.38-.29-.58-.42-.2-.14-.4-.26-.61-.38-.21-.12-.41-.23-.63-.34-.21-.1-.39-.15-.61-.24-.22-.09-.5-.21-.73-.28-.23-.07-.44-.15-.68-.21-.23-.06-.49-.1-.72-.14-.24-.05-.46-.07-.7-.1-.21-.03-.5-.06-.71-.09-.24-.03-.5-.09-.74-.11-.24-.02-.47-.02-.71-.02-.24,0-.47-.02-.73-.03-.21,0-.58-.01-.8-.01-.24-.01-.33-.06-.57-.07-.25,0-.53-.02-.77-.02-.24-.01-.51.02-.75.03-.2,0-.53.02-.74.03-.23,0-.5,0-.73,0-.24,0-.46-.04-.7-.03-.24,0-.49,0-.73,0-.24,0-.51.05-.75.06-.24.01-.46-.02-.7,0-.2.02-.52.06-.72.08-.15.02-.58.07-.72.09-.24.01-.48.05-.71.1-.23.05-.47.12-.69.19-.23.07-.45.13-.66.23-.21.1-.4.22-.57.37-.17.15-.32.33-.41.53-.09.19-.16.44-.2.66-.04.23-.03.46.01.67.04.21.11.39.2.61.08.16.26.57.34.73.09.22.13.38.2.62.07.23.18.6.2.84.02.25,0,.43,0,.68-.02.25-.03.44-.08.69-.05.24-.18.58-.26.81-.04.13-.15.49-.19.62-.08.24-.18.48-.28.7-.1.21-.21.47-.31.68-.09.21-.18.42-.28.64-.09.21-.16.29-.25.49-.09.21-.25.64-.35.84-.11.21-.19.38-.29.59-.06.12-.23.43-.29.53-.09.18-.21.43-.3.61-.08.19-.2.45-.29.63-.07.15-.21.49-.28.64-.1.2-.2.42-.3.62-.1.21-.22.37-.32.58-.08.16-.21.41-.3.57-.07.16-.22.5-.3.66-.09.18-.21.41-.3.59-.09.19-.22.46-.3.65-.09.19-.21.44-.3.63-.09.17-.22.42-.31.6-.07.16-.21.46-.28.62-.1.21-.26.41-.36.62-.1.21-.16.43-.26.63-.09.18-.22.44-.32.62-.07.15-.21.45-.28.6-.11.21-.27.43-.38.63-.07.14-.23.46-.3.59-.11.19-.25.42-.36.6-.12.2-.24.42-.36.61-.13.19-.25.38-.38.58-.11.16-.26.39-.37.56-.12.19-.25.4-.37.59-.06.09-.3.42-.37.51-.07.12-.3.52-.38.65-.09.14-.24.29-.24.27,0-.02.34-.54.41-.65.02-.04-.17.26-.26.36Z"/>
  </g>
</svg>