<svg xmlns="http://www.w3.org/2000/svg" xmlns:xlink="http://www.w3.org/1999/xlink" width="1080" zoomAndPan="magnify" viewBox="0 0 810 809.999993" height="1080" preserveAspectRatio="xMidYMid meet" version="1.0"><path fill="#F7F7F7" d="M 297.300781 45.601562 C 297.300781 45.601562 195.207031 67.28125 100.996094 174.707031 C 6.785156 282.128906 29.957031 334.339844 18.65625 442.636719 C 9.113281 534.316406 59.683594 621.773438 109.746094 659.785156 C 159.8125 697.792969 213.332031 782.582031 386.851562 787.210938 C 568.601562 792.105469 701.410156 677.457031 737.726562 581.734375 C 772.503906 490.054688 816.75 388.917969 772.503906 309.878906 C 728.253906 230.839844 746.414062 156.582031 676.933594 121.808594 C 607.449219 87.03125 542.296875 44.34375 472.210938 32.707031 C 344.714844 11.699219 297.300781 45.601562 297.300781 45.601562 Z M 297.300781 45.601562 " fill-opacity="1" fill-rule="nonzero"/></svg>