<svg xmlns="http://www.w3.org/2000/svg" xmlns:xlink="http://www.w3.org/1999/xlink" width="1080" zoomAndPan="magnify" viewBox="0 0 810 809.999993" height="1080" preserveAspectRatio="xMidYMid meet" version="1.0"><path fill="#d9d8d4" d="M 442.269531 405.992188 L 783.203125 65.054688 C 793.589844 54.679688 793.589844 37.851562 783.203125 27.480469 C 772.820312 17.097656 755.996094 17.097656 745.632812 27.480469 L 404.695312 368.417969 L 63.757812 27.480469 C 53.375 17.097656 36.550781 17.097656 26.1875 27.480469 C 15.804688 37.859375 15.804688 54.683594 26.1875 65.054688 L 367.125 405.992188 L 26.179688 746.921875 C 15.796875 757.296875 15.796875 774.125 26.179688 784.492188 C 31.367188 789.683594 38.171875 792.277344 44.964844 792.277344 C 51.761719 792.277344 58.570312 789.683594 63.753906 784.492188 L 404.6875 443.5625 L 745.625 784.492188 C 750.8125 789.683594 757.617188 792.277344 764.410156 792.277344 C 771.207031 792.277344 778.015625 789.683594 783.199219 784.492188 C 793.582031 774.117188 793.582031 757.289062 783.199219 746.921875 Z M 442.269531 405.992188 " fill-opacity="1" fill-rule="nonzero"/></svg>