<svg xmlns="http://www.w3.org/2000/svg" xmlns:xlink="http://www.w3.org/1999/xlink" width="1080" zoomAndPan="magnify" viewBox="0 0 810 809.999993" height="1080" preserveAspectRatio="xMidYMid meet" version="1.0"><path fill="#dddddd" d="M 786.773438 703.527344 C 809.746094 726.5 809.746094 763.800781 786.773438 786.773438 C 763.800781 809.746094 726.5 809.746094 703.527344 786.773438 L 404.789062 488.035156 L 106.050781 786.773438 C 83.078125 809.746094 45.777344 809.746094 22.804688 786.773438 C -0.167969 763.800781 -0.167969 726.5 22.804688 703.527344 L 321.542969 404.789062 L 22.804688 106.050781 C -0.167969 83.078125 -0.167969 45.777344 22.804688 22.804688 C 45.777344 -0.167969 83.078125 -0.167969 106.050781 22.804688 L 404.789062 321.542969 L 703.527344 22.804688 C 726.5 -0.167969 763.796875 -0.167969 786.773438 22.804688 C 809.746094 45.777344 809.746094 83.078125 786.773438 106.050781 L 488.035156 404.789062 Z M 786.773438 703.527344 " fill-opacity="1" fill-rule="nonzero"/></svg>